<svg xmlns="http://www.w3.org/2000/svg" viewBox="0 0 115.415 115.415"><defs><style>.a,.e{fill:#fff;}.b{fill:#e0e0e0;}.b,.c,.d,.e,.f{stroke:#000;}.b,.c,.d,.e,.f,.g{stroke-linejoin:round;stroke-width:0.102px;}.c{fill:#474747;}.d{fill:#bdbdbd;}.f{fill:#949494;}.g{fill:none;stroke:#e0e0e0;stroke-linecap:round;}</style></defs><g transform="translate(-356.312 162.278)"><ellipse class="a" cx="57.707" cy="57.707" rx="57.707" ry="57.707" transform="translate(356.312 -162.278)"/><path class="b" d="M666.5-133.171l7.028,7.4s-3.538,4.707-3.735,14.073c-.147,5.688,1.721,13.877,1.721,13.877s.737-2.844,3.39-2.942c3.391-.2,3.686,1.912,3.686,1.912l3.047,8.385a2.373,2.373,0,0,1-.737,2.06,3.121,3.121,0,0,1-1.622.735s1.18,6.963-5.847,12.945c-4.522,3.825-11.352,6.669-17.1,8.631a22.544,22.544,0,0,0-9.534,7.061,22.535,22.535,0,0,0-9.534-7.061c-5.75-1.962-12.532-4.806-17.053-8.631-7.077-5.982-5.9-12.945-5.9-12.945a3.119,3.119,0,0,1-1.622-.735,2.549,2.549,0,0,1-.737-2.06L615-98.846s.345-2.109,3.686-1.912c2.654.1,3.391,2.942,3.391,2.942s1.868-8.189,1.72-13.877c-.2-9.366-3.734-14.073-3.734-14.073l7.028-7.4Z" transform="translate(-232.449 -8.304)"/><path class="c" d="M671.449-130.049l5.9,6.227S674.2-118.035,674-108.669c-.1,5.688,6.045,18.192-1.424,24.665-4.473,3.875-6.536,5.051-12.286,7.013-5.848,2.059-7.175,4.364-7.175,4.364s-1.229-2.305-7.126-4.364c-5.75-1.962-7.764-3.138-12.237-7.013-7.47-6.472-1.327-18.976-1.474-24.665-.2-9.366-3.342-15.152-3.342-15.152l5.9-6.227Z" transform="translate(-238.77 -9.465)"/><path class="b" d="M679.7-100.909c1.327,6.277,3.587,14.711-2.113,19.663-4.473,3.875-6.536,5.051-12.287,7.013-5.848,2.059-7.175,4.364-7.175,4.364.787-3.481-.295-8.042-1.229-10.4-.884-2.3-14.5-42.367-14.5-42.367Z" transform="translate(-243.775 -12.223)"/><path class="d" d="M658.123-69.869s-.1-6.227-1.671-8.483c-1.523-2.207-3.784-4.659-6-3.874-1.917.637-1.573,2.893-1.573,2.893l-6.487-43.3s13.613,40.062,14.5,42.367C657.829-77.911,658.91-73.35,658.123-69.869Z" transform="translate(-243.775 -12.224)"/><path class="e" d="M660.36-81.436l-17.1-40.259,32.926,25.2-9.927,4.119Z" transform="translate(-244.095 -12.572)"/><path class="d" d="M643.258-121.694l19.314,24.959-2.211,15.3Z" transform="translate(-244.095 -12.572)"/><path class="d" d="M679.7-100.908l-37.3-21.723L674.734-111.6s-2.064-.784-1.965,1.226C672.866-106.694,679.7-100.908,679.7-100.908Z" transform="translate(-243.775 -12.224)"/><path class="f" d="M686.311-81.711,672.7-81.955l-2.212,15.3,5.9-10.935Z" transform="translate(-254.222 -27.352)"/><path class="e" d="M636.686-78.825h1.671l.491-1.569.492,1.569h1.671l-1.328.981.492,1.569-1.327-.981-1.326.981.491-1.569Z" transform="translate(-241.651 -27.932)"/><path class="e" d="M636.686-86.476h1.671l.491-1.569.492,1.569h1.671l-1.328.981.492,1.569-1.327-.981-1.326.981.491-1.569Z" transform="translate(-241.651 -25.087)"/><path class="e" d="M636.686-94.127h1.671l.491-1.569.492,1.569h1.671l-1.328.981.492,1.569-1.327-.98-1.326.98.491-1.569Z" transform="translate(-241.651 -22.241)"/><path class="e" d="M636.686-101.778h1.671l.491-1.569.492,1.569h1.671l-1.328.981.492,1.57-1.327-.981-1.326.981.491-1.57Z" transform="translate(-241.651 -19.396)"/><path class="e" d="M636.686-109.4h1.671l.491-1.519.492,1.519h1.671l-1.328.981.492,1.569-1.327-.98-1.326.98.491-1.569Z" transform="translate(-241.651 -16.579)"/><path class="g" d="M679.445-123.725l-4.472,1.471m1.474,1.472,1.474-4.463m0,4.463-1.474-4.463m-1.671-.147,4.817,4.805m-4.817,0,4.817-4.805m-4.62,1.668,4.472,1.471m-5.75-.735h7.027m-3.539-4.56v9.12" transform="translate(-255.415 -10.395)"/><path class="e" d="M621.336-75.4l-1.082,1.324s.884.686,1.327.245S621.336-75.4,621.336-75.4Z" transform="translate(-235.54 -29.79)"/><path class="e" d="M615.705-74.7a2.126,2.126,0,0,0,1.229,1.814,4.836,4.836,0,0,0,2.212.442s-1.229,1.324-2.114,2.207a14.568,14.568,0,0,0-1.916,3.04,1.624,1.624,0,0,1-1.229-.687c-.442-.687,0-2.5.442-3.58C614.821-72.538,615.705-74.7,615.705-74.7Z" transform="translate(-233.104 -30.052)"/><path class="e" d="M713-75.4l1.131,1.324s-.885.686-1.327.245S713-75.4,713-75.4Z" transform="translate(-269.902 -29.79)"/><path class="e" d="M716.334-74.7a2.127,2.127,0,0,1-1.228,1.814,4.838,4.838,0,0,1-2.212.442s1.228,1.324,2.113,2.207a13.663,13.663,0,0,1,1.867,3.04,1.563,1.563,0,0,0,1.229-.687c.442-.687,0-2.5-.442-3.58Z" transform="translate(-269.994 -30.052)"/><path class="e" d="M649.265-51.553s3.833-3.433,6.684-4.561c5.111-2.01,7.913-2.991,12.138-5.934A15.413,15.413,0,0,0,674.426-72.3c.246-2.452.688-5.346,1.228-6.326.59-1.03,1.72-2.354,3.489-1.128s.443,3.334.443,3.334l-1.917-2.207a3.683,3.683,0,0,0-1.327,3.088c0,2.256,1.671,3.825,2.556,4.708s1.769.736,1.475,4.9c-.345,4.9-4.817,9.268-8.06,11.818-3.195,2.55-12.138,5.59-15.726,7.11-3.538,1.569-7.519,5.491-7.519,5.491s-4.03-3.922-7.617-5.491c-3.539-1.52-12.483-4.56-15.726-7.11-3.194-2.549-7.666-6.915-8.011-11.818-.295-4.169.541-4.021,1.474-4.9.885-.883,2.556-2.451,2.556-4.708a3.644,3.644,0,0,0-1.376-3.088L618.5-76.415s-1.326-2.108.442-3.335,2.9.1,3.44,1.128c.59.981,1.032,3.874,1.229,6.326A15.513,15.513,0,0,0,630-62.047c4.226,2.942,7.028,3.923,12.138,5.934,2.85,1.128,6.684,4.561,6.684,4.561l.2.245Z" transform="translate(-234.573 -27.989)"/><path class="a" d="M650.507-82.275a2.7,2.7,0,0,1,1.769.049L642.4-122.631Z" transform="translate(-243.775 -12.224)"/><path class="a" d="M672.964-109.245s-13.219-5.394-30.566-13.386l30.468,11.523a2.758,2.758,0,0,0,.1,1.864" transform="translate(-243.775 -12.224)"/><path class="f" d="M652.711-55.5s-.344-2.256,1.573-2.893a2.772,2.772,0,0,1,2.162.148l.737,5.05a11.246,11.246,0,0,1-3.588-1.078A1.861,1.861,0,0,1,652.711-55.5Z" transform="translate(-247.602 -36.058)"/><path class="f" d="M692.715-105.154s-2.064-.784-1.965,1.226a3.042,3.042,0,0,0,.2,1.127l4.816,2.256s-.54-2.8-2.015-4.021A5.359,5.359,0,0,0,692.715-105.154Z" transform="translate(-261.757 -18.667)"/><path d="M620.6-54.984l.1-.049.2.342.54-.539-.442-.834-.786.1.2.392-.1.05-.443-.785.1-.048.2.293,2.9-.441.1.1L621.141-54.2l.148.344-.1.048Zm.491-1.128.394.784.835-.932Z" transform="translate(-235.394 -36.817)"/><path d="M622.84-52.275l-.786-1.128.1-.049.2.342,2.162-1.52-.245-.343.1-.05.786,1.128-.05.049-.245-.295-2.163,1.471.246.344Z" transform="translate(-236.209 -37.369)"/><path d="M624.239-50.6l-.933-1.03.049-.049.3.294,1.916-1.815-.246-.294.049-.049.983,1.03a1.163,1.163,0,0,1,.393.637.487.487,0,0,1-.2.539.42.42,0,0,1-.441.148,1.664,1.664,0,0,1-.639-.343v.049a1.185,1.185,0,0,1,.2.637,1.378,1.378,0,0,1-.344.54l-.1.1a.445.445,0,0,0-.148.244c-.049.049,0,.148.1.2,0,.049,0,.049.049.049a.048.048,0,0,0,.049.049l-.1.1-.1-.1c-.049,0-.049-.049-.1-.049a.85.85,0,0,1-.295-.539.777.777,0,0,1,.246-.49l.2-.2a1.007,1.007,0,0,0,.246-.441,1.853,1.853,0,0,0-.344-.54l-.983.932.295.3Zm.885-1.373.148.148a.6.6,0,0,0,.442.293.688.688,0,0,0,.443-.2.712.712,0,0,0,.246-.392c0-.147-.1-.245-.246-.442l-.2-.2Z" transform="translate(-236.675 -37.921)"/><path d="M629-48.23l-.786,1.079.344.245-.05.1-1.13-.834.049-.1.344.245,1.524-2.108-.3-.245.05-.1,1.867,1.373-.491.686-.05-.049c.1-.245.2-.442.148-.588,0-.148-.148-.294-.344-.441l-.442-.344-.688.981.049.049a.79.79,0,0,0,.394.147c.147,0,.245-.1.393-.245l.049.05-.639.931-.1-.049a.79.79,0,0,0,.148-.442A1.126,1.126,0,0,0,629-48.23" transform="translate(-238.188 -39.256)"/><path d="M631.653-46.272a1.789,1.789,0,0,1,.884-.735,1.15,1.15,0,0,1,1.032.2,1.2,1.2,0,0,1,.541.834,1.46,1.46,0,0,1-.294,1.08,1.462,1.462,0,0,1-.884.735,1.032,1.032,0,0,1-.983-.2,1.269,1.269,0,0,1-.59-.834,1.451,1.451,0,0,1,.295-1.078m.295.588a1.737,1.737,0,0,0-.295.785.762.762,0,0,0,.344.49.631.631,0,0,0,.59.048,1.361,1.361,0,0,0,.54-.539l.394-.589a1.734,1.734,0,0,0,.295-.784c0-.2-.1-.343-.344-.49a.546.546,0,0,0-.54-.049,1.189,1.189,0,0,0-.59.54Z" transform="translate(-239.665 -40.332)"/><path d="M635.489-42.357l-1.228-.687.05-.1.393.2,1.327-2.256-.394-.245.05-.049,1.228.687c.344.2.541.343.59.539a.53.53,0,0,1,0,.54.716.716,0,0,1-.442.294,2.482,2.482,0,0,1-.688-.147v.049a.823.823,0,0,1,.393.539.746.746,0,0,1-.148.589l-.1.147c-.049.147-.1.2-.1.295a.679.679,0,0,0,.2.147.048.048,0,0,0,.049.049h.05l-.05.1a.182.182,0,0,1-.148-.049h-.049a.939.939,0,0,1-.442-.442.542.542,0,0,1,.049-.539l.148-.245a.666.666,0,0,0,.1-.49c-.049-.147-.2-.245-.491-.442l-.688,1.226.393.2Zm.393-1.57.2.1a.9.9,0,0,0,.54.147.906.906,0,0,0,.344-.295,1.088,1.088,0,0,0,.148-.49.712.712,0,0,0-.344-.294l-.295-.2Z" transform="translate(-240.749 -40.911)"/><path d="M640.624-39.414h-.1l-.049-.295a.548.548,0,0,1-.393,0,.779.779,0,0,1-.393-.147,1.219,1.219,0,0,1-.59-.784,1.848,1.848,0,0,1,.2-1.128,1.492,1.492,0,0,1,.835-.736,1.259,1.259,0,0,1,1.032.049c.148.1.246.147.3.245a1.022,1.022,0,0,1,.2.294l.246-.049h.049l-.393.735-.1-.049a.978.978,0,0,0,.049-.638.865.865,0,0,0-.393-.441c-.246-.1-.393-.148-.59-.049a1.872,1.872,0,0,0-.541.638l-.295.588a1.178,1.178,0,0,0-.246.785.455.455,0,0,0,.344.441.651.651,0,0,0,.59.1,1.041,1.041,0,0,0,.59-.393l.1.1Z" transform="translate(-242.542 -41.991)"/><path d="M643.373-39.8l-.639,1.177.492.245a.927.927,0,0,0,.59.1,1.081,1.081,0,0,0,.541-.441l.1.048-.442.785-2.163-1.079.05-.1.344.2,1.228-2.353-.393-.2.049-.1,2.064,1.079-.295.687-.1-.049a1.178,1.178,0,0,0,0-.588.926.926,0,0,0-.393-.343l-.442-.245-.59,1.08.049.049a.9.9,0,0,0,.442.1.657.657,0,0,0,.344-.295l.1.049-.541.981h-.1a.976.976,0,0,0,.1-.49.9.9,0,0,0-.393-.295" transform="translate(-243.571 -42.392)"/><path d="M649.7-35.019l-1.278-.589.05-.1.393.2,1.131-2.4-.345-.147.05-.1,1.278.589a2.594,2.594,0,0,1,.639.49.62.62,0,0,1,0,.589.759.759,0,0,1-.393.294,1.913,1.913,0,0,1-.688-.1l-.049.05a1,1,0,0,1,.442.49,1.026,1.026,0,0,1-.1.637l-.1.147a.73.73,0,0,0-.049.294c0,.049.049.1.148.148h.1c0,.048,0,.048.049.048l-.049.1c-.049,0-.1-.049-.148-.049h-.1a1.205,1.205,0,0,1-.443-.392.85.85,0,0,1,.05-.589l.1-.244a.6.6,0,0,0,.05-.491,1.111,1.111,0,0,0-.492-.393l-.59,1.276.393.147Zm.295-1.569.2.1a1.259,1.259,0,0,0,.541.1.764.764,0,0,0,.343-.344.494.494,0,0,0,.05-.441c0-.147-.148-.246-.344-.343l-.246-.148Z" transform="translate(-246.016 -43.64)"/><path d="M653.965-34.646l-.54,1.177.491.245a.86.86,0,0,0,.59.049c.2-.049.344-.2.491-.49l.1.05-.394.833-2.211-.981.049-.1.394.2,1.082-2.4-.393-.2.048-.1,2.114.981-.294.687-.1-.049a.966.966,0,0,0,0-.539c-.049-.147-.2-.245-.394-.343l-.491-.245-.491,1.128h.049c.2.1.344.148.442.1a.826.826,0,0,0,.295-.294h.1l-.443,1.079-.1-.049a.655.655,0,0,0,0-.441.705.705,0,0,0-.344-.295h-.05Z" transform="translate(-247.529 -44.308)"/><path d="M656.58-31.743l-.1-.049.344-.735h.1a1.228,1.228,0,0,0,.05.637.681.681,0,0,0,.343.393.692.692,0,0,0,.541,0,.658.658,0,0,0,.343-.294.415.415,0,0,0,0-.344.923.923,0,0,0-.295-.343l-.2-.2a.872.872,0,0,1-.393-.49c-.1-.2-.049-.343.049-.589a.862.862,0,0,1,.393-.441.823.823,0,0,1,.59.048.806.806,0,0,1,.3.148.484.484,0,0,1,.2.245l.246-.1.049.049-.344.736-.1-.049a1.164,1.164,0,0,0,0-.588.582.582,0,0,0-.344-.343.478.478,0,0,0-.442-.049.5.5,0,0,0-.3.245.31.31,0,0,0,0,.295.836.836,0,0,0,.3.293l.246.2a1.258,1.258,0,0,1,.393.539.838.838,0,0,1-.049.588A1.318,1.318,0,0,1,658-31.4a.838.838,0,0,1-.688,0l-.295-.147c-.1-.1-.148-.2-.246-.294Z" transform="translate(-249.013 -45.103)"/><path d="M660.831-31.727l-.442,1.226.442.2a1.007,1.007,0,0,0,.639.049,1.073,1.073,0,0,0,.492-.54l.1.049-.393.883-2.211-.883v-.1l.393.148.934-2.453-.343-.147v-.1l2.162.833-.245.735-.05-.049a2.027,2.027,0,0,0-.049-.589,1.7,1.7,0,0,0-.442-.294l-.491-.2-.442,1.128.049.049a1.677,1.677,0,0,0,.442.049.712.712,0,0,0,.3-.343l.1.049-.393,1.031h-.1a.658.658,0,0,0,0-.442.9.9,0,0,0-.393-.294h-.049Z" transform="translate(-250.119 -45.412)"/><path d="M664.557-28.727l.049-.1.393.147-.049-.785-.884-.294-.443.637.393.147v.1l-.884-.245.049-.1.295.1,1.769-2.4.148.049.148,2.942.295.1v.1Zm-.393-1.128.786.245-.05-1.225h-.049Z" transform="translate(-251.487 -46.109)"/><path d="M669.49-29.128l-1.278.49-.049-.147.393-.1-.884-2.5-.393.147v-.1l1.327-.49a1.624,1.624,0,0,1,.786-.1c.2.049.294.2.393.392a.563.563,0,0,1-.049.49,1.739,1.739,0,0,1-.541.442,1.162,1.162,0,0,1,.639.1,1.016,1.016,0,0,1,.394.49l.049.2a1.083,1.083,0,0,0,.148.245.53.53,0,0,0,.246-.049h.049l.049-.049.05.1c-.05.049-.1.1-.148.1l-.049.049a1,1,0,0,1-.639.049c-.148-.049-.245-.2-.343-.441l-.1-.245a.894.894,0,0,0-.294-.392,1.122,1.122,0,0,0-.639.1l.442,1.276.393-.147Zm-.884-1.323.2-.1q.368-.073.442-.294a.657.657,0,0,0,0-.442c-.1-.245-.148-.343-.245-.392a.825.825,0,0,0-.491,0l-.3.1Z" transform="translate(-253.029 -45.953)"/><path d="M674.87-31.137l-.048.049-.246-.1a1.337,1.337,0,0,1-.246.294c-.1.049-.246.147-.345.2a1.266,1.266,0,0,1-1.031-.049,2.214,2.214,0,0,1-.737-.883,1.769,1.769,0,0,1-.05-1.128,1.214,1.214,0,0,1,.737-.736c.1-.049.246-.049.344-.1.148,0,.246.049.344.049l.1-.2.049-.05.344.785-.1.049a1,1,0,0,0-.492-.441.819.819,0,0,0-.589.049.534.534,0,0,0-.394.392,1.272,1.272,0,0,0,.148.784l.246.687a1.765,1.765,0,0,0,.442.637.634.634,0,0,0,.589.049.878.878,0,0,0,.492-.442,1.506,1.506,0,0,0,.049-.687l.1-.049Z" transform="translate(-254.822 -45.266)"/><path d="M677.432-32.53l-1.278.59-.049-.1.393-.2-1.081-2.4-.344.2-.049-.1,1.229-.588.049.1-.393.2.492,1.079,1.08-.442-.491-1.128-.393.2-.049-.1,1.278-.588.049.147-.394.148,1.082,2.4.344-.2.049.1-1.278.589v-.1l.394-.2-.541-1.176-1.081.49.54,1.177.393-.2Z" transform="translate(-255.91 -44.512)"/><path d="M685.173-35.658l-2.113,1.031-.05-.1.393-.2-1.13-2.354-.393.2-.049-.1,1.229-.588.048.1-.343.147,1.13,2.4.393-.2a1.464,1.464,0,0,0,.491-.441,1.387,1.387,0,0,0-.1-.736l.1-.049Z" transform="translate(-258.441 -43.786)"/><path d="M688.343-36.885l-.049-.1.394-.2-.541-.539-.835.393.1.784.393-.2.049.1-.835.393-.049-.1.294-.147-.344-2.942.148-.049,2.113,2.059.343-.147v.1Zm-1.081-.589.786-.343-.885-.883-.049.049Z" transform="translate(-260.333 -43.147)"/><path d="M690.2-38.216l-.049-.1.344-.2-1.18-2.354-.343.2-.1-.1,1.277-.637a1.4,1.4,0,0,1,.786-.2.524.524,0,0,1,.442.344.469.469,0,0,1,0,.441,1.537,1.537,0,0,1-.393.49v.049a1.227,1.227,0,0,1,.688-.1.624.624,0,0,1,.442.343.724.724,0,0,1,0,.637,1.594,1.594,0,0,1-.688.539Zm.148-1.814.2-.1c.246-.1.344-.2.393-.344a.591.591,0,0,0-.049-.49c-.1-.2-.246-.343-.344-.343a.5.5,0,0,0-.441.05l-.3.147Zm.049.1.591,1.177.344-.148c.2-.1.344-.245.344-.343a.787.787,0,0,0-.1-.539.759.759,0,0,0-.393-.392.824.824,0,0,0-.54.147Z" transform="translate(-261.06 -42.356)"/><path d="M693.6-41.353a1.846,1.846,0,0,1-.2-1.127,1.339,1.339,0,0,1,.639-.834,1.141,1.141,0,0,1,.983-.049,1.433,1.433,0,0,1,.884.735,1.527,1.527,0,0,1,.148,1.128.975.975,0,0,1-.59.785,1.113,1.113,0,0,1-1.032.1,1.738,1.738,0,0,1-.836-.736m.688,0a1.27,1.27,0,0,0,.541.589.524.524,0,0,0,.59-.049.523.523,0,0,0,.344-.442,1.544,1.544,0,0,0-.246-.784l-.344-.589a1.43,1.43,0,0,0-.492-.637.636.636,0,0,0-.59.049c-.246.148-.344.295-.344.49a1.183,1.183,0,0,0,.2.735Z" transform="translate(-262.738 -41.671)"/><path d="M698.99-42.984l-1.179.687-.048-.1.343-.2-1.277-2.256-.394.2-.049-.1,1.228-.687a1.61,1.61,0,0,1,.737-.293c.2,0,.344.147.491.343a.561.561,0,0,1,.05.491,2.293,2.293,0,0,1-.492.49l.05.048a.992.992,0,0,1,.638-.048.659.659,0,0,1,.443.441l.1.147.2.2a.542.542,0,0,0,.246-.049.048.048,0,0,1,.049-.049.048.048,0,0,1,.048-.049l.05.1-.1.1c-.049.05-.049.05-.1.05a1.177,1.177,0,0,1-.59.2.829.829,0,0,1-.393-.343l-.148-.245a.824.824,0,0,0-.393-.344,1.179,1.179,0,0,0-.591.2l.689,1.177.344-.2Zm-1.13-1.176.2-.1a.942.942,0,0,0,.393-.343.633.633,0,0,0-.1-.49.763.763,0,0,0-.344-.344.65.65,0,0,0-.441.148l-.3.147Z" transform="translate(-263.854 -40.825)"/><path d="M703.318-45.2l-.049-.049.344-.244-.639-.49-.786.539.2.735.393-.245.049.1-.737.49-.049-.049.246-.2-.738-2.894.1-.1,2.407,1.765.3-.2.049.1Zm-1.131-.392.688-.49-.982-.687h-.049Z" transform="translate(-265.775 -40.127)"/><path d="M705.059-50.883l.59.637-.1.1a1.263,1.263,0,0,0-.59-.343.8.8,0,0,0-.492.2l-.049.049h-.05l1.72,2.06.344-.295.048.049-1.13.981-.049-.1.344-.294-1.671-2.011-.148.1a.582.582,0,0,0-.246.442,1.153,1.153,0,0,0,.246.637l-.1.049-.54-.686Z" transform="translate(-266.386 -38.908)"/><path d="M707.246-50.588a1.8,1.8,0,0,1-.54-.981,1.033,1.033,0,0,1,.344-.981,1.142,1.142,0,0,1,.933-.442,2.365,2.365,0,0,1,1.033.442,1.762,1.762,0,0,1,.54,1.03,1.084,1.084,0,0,1-.295.932,1.314,1.314,0,0,1-.984.441,1.6,1.6,0,0,1-1.032-.441m.688-.2a1.431,1.431,0,0,0,.688.392.623.623,0,0,0,.54-.245.906.906,0,0,0,.2-.539,1.79,1.79,0,0,0-.491-.686l-.54-.442a1.117,1.117,0,0,0-.688-.392c-.2-.049-.345.049-.541.2a.679.679,0,0,0-.146.589c0,.147.2.392.442.637Z" transform="translate(-267.688 -38.124)"/><path d="M711.609-54.075l-.786,1.176-.05-.1.2-.343-2.114-1.471-.245.343-.1-.1.786-1.128a2.187,2.187,0,0,1,.59-.589.719.719,0,0,1,.54.1.512.512,0,0,1,.246.441,1.631,1.631,0,0,1-.2.687h.05a1.23,1.23,0,0,1,.59-.343,1.168,1.168,0,0,1,.59.2l.148.1c.1.1.2.148.246.1a.372.372,0,0,0,.2-.1v-.1c.048,0,.048,0,.048-.049l.1.049c-.05.1-.05.1-.05.147-.049.049-.049.049-.049.1a1.157,1.157,0,0,1-.491.392.555.555,0,0,1-.491-.148l-.246-.147a.639.639,0,0,0-.491-.1c-.1,0-.246.147-.443.392l1.13.784.246-.343Zm-1.524-.54.148-.2a.787.787,0,0,0,.2-.49.688.688,0,0,0-.294-.392,1.132,1.132,0,0,0-.443-.147.467.467,0,0,0-.344.294l-.2.245Z" transform="translate(-268.365 -36.893)"/><path d="M713.859-58.741l.1.049-.59,1.324-.1-.049.2-.392-1.081-.49-1.671.245-.148.294-.1-.049.541-1.275.1.049-.147.392,1.375-.147v-.049l-.835-1.079-.148.392-.1-.049.344-.834.1.049-.1.295.933,1.226,1.131.539Z" transform="translate(-269.092 -35.366)"/></g></svg>