<svg xmlns="http://www.w3.org/2000/svg" viewBox="0 0 115.415 115.415"><defs><style>.a{fill:#fff;}.b{fill:#101010;}.c{fill:#ddd;}.d{fill:#020202;}.e{fill:#dcdcdc;}.f{fill:#dbdbdb;}.g{fill:#dadada;}.h{fill:#d2d2d2;}.i{fill:#747474;}.j{fill:#121212;}.k{fill:#080808;}.l{fill:#cdcdcd;}.m{fill:#111;}.n{fill:#4a4a4a;}.o{fill:#fcfcfc;}.p{fill:#a0a0a0;}.q{fill:#d0d0d0;}.r{fill:#494949;}.s{fill:#cfcfcf;}.t{fill:#cbcbcb;}.u{fill:#ccc;}.v{fill:#cecece;}.w{fill:#bfbfbf;}.x{fill:#909090;}.y{fill:#c7c7c7;}.z{fill:#979797;}.aa{fill:#969696;}.ab{fill:#bbb;}.ac{fill:#b5b5b5;}.ad{fill:#b9b9b9;}.ae{fill:#a4a4a4;}.af{fill:#070707;}.ag{fill:#c9c9c9;}.ah{fill:#d4d4d4;}.ai{fill:#a8a8a8;}.aj{fill:#d6d6d6;}.ak{fill:#131313;}.al{fill:#696969;}</style></defs><g transform="translate(-731.438 162.278)"><ellipse class="a" cx="57.707" cy="57.707" rx="57.707" ry="57.707" transform="translate(731.438 -162.278)"/><path class="b" d="M1237.279-55.154c-27.077-.078-48.3-20.652-48.08-47a44.973,44.973,0,0,1,14.144-32.981,45.078,45.078,0,0,1,34.444-13.114,44.971,44.971,0,0,1,31.26,13.952,45.222,45.222,0,0,1,13.259,34.72A44.927,44.927,0,0,1,1268.168-68.3a45.181,45.181,0,0,1-30.889,13.145" transform="translate(-447.138 -2.678)"/><path class="c" d="M1236.024-147.64a46.013,46.013,0,0,1,46.089,46.55,46.019,46.019,0,0,1-46.906,45.65,45.986,45.986,0,0,1-45.291-46.95,45.977,45.977,0,0,1,46.108-45.249" transform="translate(-447.404 -2.922)"/><path class="d" d="M1192.14-100.762a44.567,44.567,0,0,1,45.693-44.579,44.591,44.591,0,0,1,43.759,45.314,44.594,44.594,0,0,1-45.21,44,44.55,44.55,0,0,1-44.242-44.738" transform="translate(-448.233 -3.774)"/><path class="e" d="M1203.96-96.279a37.231,37.231,0,0,1,37.917-37.236,37.185,37.185,0,0,1,36.63,37.708,37.163,37.163,0,0,1-38.05,36.786,37.194,37.194,0,0,1-36.5-37.258" transform="translate(-452.629 -8.174)"/><path class="c" d="M1327.633-80.589c-.76.05-1.514.088-2.267.157-.339.031-.471-.067-.509-.42-.038-.369.094-.462.427-.481q1.789-.1,3.567-.242c.326-.025.515.044.458.423a2.311,2.311,0,0,0,0,.42.621.621,0,0,1-.5.68c-.854.253-1.708.518-2.569.852.553.1,1.112.2,1.664.3a6.53,6.53,0,0,1,1.187.251,1.041,1.041,0,0,1,.383,1.274c-.082.111-.2.085-.308.092q-1.913.12-3.812.233c-.176.011-.365.023-.32-.246.037-.226-.207-.58.245-.622.641-.06,1.287-.094,1.928-.139a1.82,1.82,0,0,0,.829-.148c-.835-.142-1.658-.312-2.5-.415-.377-.046-.553-.19-.6-.554s.132-.508.471-.6c.879-.226,1.746-.493,2.625-.744a.247.247,0,0,1,.2-.1,2.14,2.14,0,0,0-.609.024" transform="translate(-497.59 -27.491)"/><path class="e" d="M1200.637-63.731c-.546.477-1,.89-1.47,1.274a.575.575,0,0,0-.176.807,8.727,8.727,0,0,1,.684,1.7c-.527-.308-.992-.571-1.445-.843-.553-.329-.547-.331-1.017.1-.321.295-.647.586-.967.879a.646.646,0,0,1-.377.222c.132-.618.239-1.206.389-1.78a.581.581,0,0,0-.339-.776,8.728,8.728,0,0,1-1.47-.962c.521-.05.936-.1,1.357-.127.867-.047.93-.1,1.087-.946.088-.474.182-.946.3-1.54.289.631.553,1.149.76,1.689a.625.625,0,0,0,.792.473c.584-.095,1.181-.113,1.891-.174" transform="translate(-449.092 -33.39)"/><path class="e" d="M1323.668-60.051c.207-.513.383-1.043.634-1.535a.662.662,0,0,0-.226-.964c-.427-.334-.811-.722-1.307-1.168.722.061,1.332.091,1.935.172a.535.535,0,0,0,.666-.4c.207-.556.471-1.094.766-1.754.145.709.283,1.295.383,1.888a.561.561,0,0,0,.6.554,8.173,8.173,0,0,1,1.79.266c-.534.315-.986.61-1.463.851a.645.645,0,0,0-.371.883,4.58,4.58,0,0,1,.207,1.57,8.091,8.091,0,0,1-1.2-1.061.583.583,0,0,0-.9-.08c-.458.316-.955.572-1.438.854-.025-.024-.056-.049-.081-.073" transform="translate(-496.816 -33.396)"/><path class="e" d="M1198.58-94.668c.735.24,1.464.481,2.192.719.214.068.4.168.44.4a.528.528,0,0,1-.069.481c-.138.168-.283.042-.421,0-1.206-.359-2.412-.723-3.618-1.081-.144-.043-.282-.082-.239-.27.075-.329.044-.724.5-.827.722-.162,1.445-.33,2.167-.5.276-.063.547-.13.86-.206a2.309,2.309,0,0,0-.791-.309c-.5-.168-1.011-.32-1.52-.484a.489.489,0,0,1-.389-.524c.025-.36.207-.486.559-.378,1.105.341,2.217.679,3.322,1.032.188.061.5.016.5.334a.8.8,0,0,1-.446.794,3.479,3.479,0,0,1-.565.158c-.829.192-1.658.38-2.487.57Z" transform="translate(-449.987 -21.504)"/><path class="e" d="M1326.314-84.975c-.4.873-1.344.54-1.928.972a.385.385,0,0,1-.05-.088c-.276-.882-.27-.886.634-1.113.257-.065.622-.049.691-.375a1.942,1.942,0,0,0-.132-1.189c-.075-.186-.276-.162-.446-.14-.314.04-.634.093-.955.12-.339.029-.408-.224-.452-.486-.044-.284.132-.337.371-.378,1.187-.2,2.368-.418,3.549-.641.345-.066.5.02.547.4.063.54.188,1.072.3,1.606a1.323,1.323,0,0,1-.547,1.542,1.237,1.237,0,0,1-1.583-.23" transform="translate(-497.151 -24.987)"/><path class="f" d="M1295.223-131.72a1.251,1.251,0,0,1-.132,1.183c-.082.146-.145.3-.232.445-.107.168,0,.591-.465.35-.509-.264-.59-.367-.4-.818.107-.243.233-.48.345-.719a.4.4,0,0,0-.157-.573c-.936-.666-.967-.659-1.558.336-.144.24-.22.63-.672.367-.4-.235-.433-.3-.188-.714.584-1.018,1.187-2.028,1.752-3.057.17-.308.32-.318.59-.15.559.348,1.137.66,1.7,1.009a1.154,1.154,0,0,1,.571,1.36,1.166,1.166,0,0,1-1.156.982" transform="translate(-485.228 -7.557)"/><path class="f" d="M1215.474-118.46a2.13,2.13,0,0,1-2.085,2.039,2.771,2.771,0,0,1-2.531-2.7,2.3,2.3,0,0,1,2.28-1.933,2.689,2.689,0,0,1,2.336,2.591" transform="translate(-455.192 -12.81)"/><path class="f" d="M1306.374-120.894a2.183,2.183,0,0,1-2.154-2.13,2.826,2.826,0,0,1,2.418-2.51,2.3,2.3,0,0,1,2.167,2.206,2.789,2.789,0,0,1-2.431,2.434" transform="translate(-489.917 -11.143)"/><path class="f" d="M1205.49-108.14c-.031.065-.069.14-.113.212-.214.391-.421.791-.659,1.167s.075.478.289.631c.238.17.477.276.672-.056.276-.47.565-.934.816-1.416.176-.33.346-.341.666-.177.371.19.131.36.038.529-.4.754-.817,1.5-1.206,2.255-.145.279-.27.326-.546.168-1.036-.587-2.085-1.149-3.128-1.72-.465-.254-.5-.352-.195-.765a2.479,2.479,0,0,0,.5-1.092c.088-.487.5-.8.8-1.159.182-.216.383.115.578.2s.113.231.044.357c-.27.49-.528.989-.823,1.462-.207.323.019.411.214.549.214.15.4.209.553-.073.239-.441.5-.877.741-1.314.081-.146.188-.263.37-.148.151.1.383.125.4.394" transform="translate(-451.873 -17.057)"/><path class="f" d="M1321.8-106.762c0,.134-.094.184-.195.241-1.112.616-2.236,1.224-3.335,1.86-.377.215-.458-.06-.609-.27a.351.351,0,0,1,.138-.584c.345-.182.685-.377,1.036-.551.3-.147.32-.338.17-.612-.741-1.321-.615-1.051-1.677-.531a.851.851,0,0,0-.22.124c-.289.263-.483.175-.672-.126s-.151-.512.169-.687c1.043-.571,2.079-1.151,3.122-1.724.207-.112.421-.215.546.108.1.259.452.527-.088.733a8.28,8.28,0,0,0-.842.474c-.157.085-.251.171-.145.36.163.293.314.593.477.887a.438.438,0,0,0,.729.151c.176-.121.346-.24.528-.35a.567.567,0,0,1,.867.5" transform="translate(-494.419 -17.02)"/><path class="g" d="M1298.918-129c-.32.073-.446.349-.6.567s.031.337.176.447c.433.332.867.671,1.313.98.27.184.251.354.088.59s-.3.3-.547.113c-.7-.52-1.4-1.028-2.1-1.539-.157-.117-.258-.22-.12-.445a20.374,20.374,0,0,1,2.142-3.051c.245-.276.383-.3.666-.077.615.484,1.25.952,1.9,1.394.321.22.289.418.1.692-.22.319-.4.113-.591-.021-.4-.285-.8-.56-1.187-.867-.251-.2-.414-.217-.609.067s-.251.474.088.683c.377.235.729.516,1.106.768.151.106.4.152.176.418-.176.212-.3.508-.66.225-.339-.269-.7-.513-1.055-.766-.088-.064-.182-.12-.276-.178" transform="translate(-487.253 -8.902)"/><path class="e" d="M1196.761-90.254c-.113.553-.226,1.087-.339,1.622a.563.563,0,0,0,.71.63c.151-.049.144-.2.17-.315.107-.464.188-.932.3-1.4.038-.174.019-.438.339-.332.239.079.6.006.471.481s-.2.959-.3,1.437c-.057.248-.031.375.276.413.678.082.678.1.836-.556.107-.449.226-.9.289-1.352.063-.431.339-.317.6-.289.283.032.276.214.226.43-.182.8-.251,1.63-.458,2.433-.094.385-.27.494-.653.41q-1.705-.373-3.411-.7c-.333-.065-.433-.185-.352-.54.182-.8.308-1.621.465-2.431.038-.177.069-.386.346-.3.207.065.508.015.5.358" transform="translate(-449.455 -24.125)"/><path class="f" d="M1242.244-136.348c.54-.177,1.112-.33,1.652-.551.4-.163.458.055.572.342.126.337-.082.38-.3.453-.829.269-1.652.535-2.475.814-.257.09-.389.053-.484-.24-.377-1.171-.773-2.335-1.175-3.5-.1-.3-.05-.452.283-.547.8-.231,1.608-.481,2.393-.761.32-.113.4.008.5.271.119.31-.025.4-.264.479-.508.163-1,.35-1.513.495-.364.1-.308.32-.226.581s.169.463.528.319c.44-.179.9-.3,1.344-.472.276-.109.383.006.459.244s.132.417-.2.511c-.465.134-.923.317-1.388.469-.226.074-.339.208-.232.436.119.253.063.654.534.655" transform="translate(-466.028 -5.623)"/><path class="f" d="M1322.34-101.809c.176.442.345.951.584,1.421.188.356-.063.374-.258.491-.257.154-.383.044-.478-.19-.169-.428-.358-.851-.515-1.285-.094-.277-.232-.332-.5-.22-.678.278-.71.337-.415,1.009.188.422.364.847.565,1.264.107.23.075.355-.189.433-.22.067-.427.263-.578-.1-.352-.836-.722-1.667-1.093-2.5-.107-.239-.019-.362.2-.455q1.752-.747,3.5-1.506c.22-.095.327-.051.415.164.339.8.672,1.6,1.03,2.386.145.329-.044.407-.282.517-.264.123-.4.065-.509-.211-.207-.521-.433-1.031-.66-1.543-.063-.135-.125-.322-.333-.167-.17.131-.553.028-.49.487" transform="translate(-495.57 -19.343)"/><path class="f" d="M1225.071-130.273c-.057-.09-.094-.163-.145-.231-.195-.289-.389-.581-.6-.864s-.044-.434.163-.591.433-.238.615.028q1.055,1.545,2.167,3.046c.258.35-.107.482-.3.657-.214.2-.352.045-.478-.123-.251-.339-.5-.674-.734-1.025-.157-.242-.3-.291-.534-.1a10.01,10.01,0,0,1-.823.583c-.22.14-.232.276-.082.479.245.323.465.666.71.994.138.189.289.361.012.559-.251.176-.5.349-.785.059a1.525,1.525,0,0,1-.126-.164c-.653-.947-1.3-1.894-1.953-2.841-.264-.394-.245-.435.3-.771.32-.2.371.1.49.266.226.317.364.827.685.913.339.089.634-.376.974-.568.151-.089.3-.2.446-.305" transform="translate(-459.344 -8.7)"/><path class="c" d="M1258.369-139.114c-.038.207.182.543-.283.624-.515.091-.616.025-.647-.5-.025-.391-.056-.782-.082-1.173-.006-.188-.069-.3-.283-.245a4.209,4.209,0,0,1-.961.064c-.427.015-.571.192-.509.621.05.347.113.691.163,1.037.038.276-.075.434-.371.426-.251-.006-.553.129-.578-.347-.082-1.173-.214-2.342-.314-3.513-.05-.528.232-.744.735-.589.157.048.169.158.182.291.025.334.063.668.094,1,.019.241.125.349.383.315.333-.043.666-.069,1-.091.283-.019.4-.148.358-.436s-.05-.585-.088-.876c-.056-.409.245-.4.5-.447.3-.06.389.1.408.371.088,1.144.182,2.287.283,3.466" transform="translate(-471.426 -4.662)"/><path class="f" d="M1286.37-134.765a1.061,1.061,0,0,1,.037-.289,16.872,16.872,0,0,1,1.074-2.767.651.651,0,0,1,1.061-.011c.076.123-.031.21-.069.307-.333.768-.678,1.53-1,2.3-.258.608-.17.927.283,1.125.591.264.942.12,1.231-.511.339-.735.685-1.466,1.011-2.208.113-.266.251-.342.509-.2.232.126.522.192.346.572-.4.889-.792,1.787-1.2,2.672a1.189,1.189,0,0,1-.923.651,2.247,2.247,0,0,1-2.18-.959,1.4,1.4,0,0,1-.176-.681" transform="translate(-483.279 -6.47)"/><path class="f" d="M1198.764-73.589a1.9,1.9,0,0,1-.848,1.643c-.182.1-.49.308-.622.033a.617.617,0,0,1,.195-.823,1.116,1.116,0,0,0,.477-1.23c-.063-.266-.2-.486-.5-.491a.552.552,0,0,0-.553.432c-.1.362-.157.738-.251,1.1a1.244,1.244,0,0,1-1.231,1.1,1.363,1.363,0,0,1-1.325-1.227,1.708,1.708,0,0,1,.754-2c.182-.09.458-.313.578-.032a.629.629,0,0,1-.144.834.912.912,0,0,0-.333,1.222.461.461,0,0,0,.415.306.429.429,0,0,0,.408-.307,5.442,5.442,0,0,0,.276-1.094c.182-.849.615-1.3,1.25-1.29a1.436,1.436,0,0,1,1.394,1.365c.025.151.038.3.056.456" transform="translate(-448.947 -29.786)"/><path class="f" d="M1219.949-122.841a.933.933,0,0,1-.49-.084c-.17-.121-.5-.145-.346-.5.188-.418.371-.51.728-.33a.7.7,0,0,0,.81-.141c.276-.217.553-.453.521-.855-.025-.33-.308-.484-.653-.337s-.678.335-1.011.509c-.785.409-1.419.327-1.8-.234a1.534,1.534,0,0,1,.314-1.973,1.765,1.765,0,0,1,2.029-.451c.145.07.3.133.289.321s-.157.255-.3.328a.926.926,0,0,1-.647.074,1.031,1.031,0,0,0-1.03.573.474.474,0,0,0,.057.585.53.53,0,0,0,.666.012,4.948,4.948,0,0,1,1.206-.569,1.187,1.187,0,0,1,1.395.219,1.368,1.368,0,0,1,.17,1.5,2.181,2.181,0,0,1-1.916,1.35" transform="translate(-457.658 -10.452)"/><path class="h" d="M1261.818-140.809c0-.616.006-1.232-.006-1.848-.006-.314.1-.455.446-.435.81.046,1.62.069,2.431.085.308.006.4.1.383.426s-.119.4-.421.381c-.49-.034-.98-.014-1.47-.05-.54-.038-.415.339-.452.643-.044.384.226.274.408.283.477.023.948.046,1.426.043.32,0,.32.194.32.417.006.248-.094.35-.352.342-.458-.014-.923,0-1.382,0-.509,0-.433.374-.452.682-.019.323.1.478.465.464.546-.021,1.093.031,1.639.031.308,0,.352.133.358.415.006.309-.1.4-.383.389-.9-.023-1.8-.039-2.688-.045-.276,0-.364-.1-.358-.377.019-.615.006-1.23.006-1.845h.082" transform="translate(-474.114 -4.613)"/><path class="c" d="M1276.881-136.857a1.811,1.811,0,0,1-1.991-1.58,4.941,4.941,0,0,1,.226-1.278c.138-.556.282-1.112.389-1.675.063-.317.182-.433.509-.342s.541.185.427.6c-.207.769-.39,1.546-.553,2.325-.138.658.132,1,.785,1.046a.654.654,0,0,0,.8-.568c.207-.814.383-1.634.571-2.451.038-.153.013-.366.245-.388a1.223,1.223,0,0,1,.729.151c.082.047.075.143.05.229-.251.988-.484,1.983-.773,2.963a1.358,1.358,0,0,1-1.413.969" transform="translate(-479.009 -5.108)"/><path class="e" d="M1326.9-92.972a.461.461,0,0,1-.226.447c-1.08.771-2.167,1.537-3.247,2.312-.232.168-.333.087-.421-.152-.214-.543-.214-.615.276-.916.308-.184.421-.385.239-.72a2.027,2.027,0,0,1-.151-.478.73.73,0,0,0-.766-.672c-.283-.007-.653-.513-.615-.788.025-.174.144-.173.283-.164,1.363.093,2.732.186,4.1.268.251.015.383.086.4.364a2.41,2.41,0,0,0,.132.5" transform="translate(-496.525 -22.832)"/><path class="f" d="M1229.708-133.909c-.038-.471.3-.547.559-.707.239-.148.4-.073.584.1,1,.883,2,1.761,3.009,2.621.276.234.195.319-.069.44-.37.168-.728.426-1.018-.112a.252.252,0,0,0-.138-.094c-.54-.159-.854.315-1.281.479-.27.1-.251.377-.2.621s.145.484-.144.667c-.565.353-.6.347-.7-.3q-.292-1.762-.571-3.522a1.084,1.084,0,0,1-.025-.185" transform="translate(-462.204 -7.737)"/><path class="f" d="M1197.09-78.18a2.463,2.463,0,0,1-2.148-.922,1.969,1.969,0,0,1,.672-2.882c.195-.1.421-.283.641-.065.138.133-.025.755-.195.888a1,1,0,0,1-.151.077.893.893,0,0,0-.094,1.564,2.154,2.154,0,0,0,1.84.3,1.058,1.058,0,0,0,.76-.912.8.8,0,0,0-.389-.86.791.791,0,0,1-.264-.263.623.623,0,0,1-.012-.674c.157-.188.389-.014.565.074a1.871,1.871,0,0,1,.9,2.036,1.877,1.877,0,0,1-1.715,1.636c-.138.014-.276,0-.415,0" transform="translate(-449.138 -27.279)"/><path class="f" d="M1236.588-137.727a1.3,1.3,0,0,1,1.313.911,1.248,1.248,0,0,1-.4,1.541,2.452,2.452,0,0,1-1.036.527c-.289.067-.371.209-.226.482s.251.561.39.837c.119.234.056.347-.195.428-.6.195-.6.2-.842-.382-.427-1.031-.854-2.065-1.313-3.085-.144-.328-.082-.473.245-.585.452-.153.886-.347,1.331-.518a1.707,1.707,0,0,1,.735-.156" transform="translate(-463.877 -6.608)"/><path class="f" d="M1202.335-99.341a2.47,2.47,0,0,1-2.537-2.421,1.927,1.927,0,0,1,2.01-1.831c.308.023.415.133.251.424a.883.883,0,0,1-.628.495.947.947,0,0,0-.528,1.592,2.492,2.492,0,0,0,1.407.779.946.946,0,0,0,1.024-.417.935.935,0,0,0,.1-1.1,1.784,1.784,0,0,1-.17-.337.6.6,0,0,1,.239-.67c.17-.111.289.143.4.261a1.783,1.783,0,0,1,.283,2.066,1.781,1.781,0,0,1-1.853,1.157" transform="translate(-451.08 -19.302)"/><path class="f" d="M1259.927-9.623a2.319,2.319,0,0,1-.854.164,1.334,1.334,0,0,1-1.225-1.274,1.52,1.52,0,0,1,1.111-1.622,1.44,1.44,0,0,1,1.866,1.326,5.045,5.045,0,0,1-.251,2.269,1.491,1.491,0,0,1-1.338.923A1.338,1.338,0,0,1,1258-8.69c-.125-.3-.063-.407.264-.375a.872.872,0,0,1,.6.256.5.5,0,0,0,.892-.073.985.985,0,0,0,.176-.74" transform="translate(-472.669 -53.22)"/><path class="e" d="M1265.566-7.909a1.18,1.18,0,0,1-1.112-.554c-.119-.176-.327-.359-.132-.6.113-.148.653-.075.817.1.05.05.075.117.125.166a.556.556,0,0,0,.948-.255,1.911,1.911,0,0,0,.05-.5.6.6,0,0,0-.992-.515,1.064,1.064,0,0,1-.785.191c-.189-.023-.239-.1-.226-.267q.094-.961.17-1.922c.012-.2.132-.256.3-.265.6-.032,1.2-.065,1.8-.1.276-.017.364.154.4.382.038.259-.107.351-.339.364-.364.021-.729.049-1.093.073a.569.569,0,0,0-.421.792c.082.123.169.028.257,0a1.388,1.388,0,0,1,1.683.547,1.832,1.832,0,0,1-.27,1.958,1.533,1.533,0,0,1-1.187.4" transform="translate(-475.049 -53.208)"/><path class="c" d="M1271.693-139.774c-.333-.036-.666-.06-1-.114-.264-.043-.358.055-.371.307-.019.377-.063.754-.107,1.129-.025.26-.132.421-.446.313-.239-.082-.6.083-.528-.449.17-1.177.3-2.362.408-3.547.031-.37.176-.478.528-.431.779.1,1.564.177,2.343.258.27.029.352.165.3.431-.05.232-.057.442-.4.381-.5-.088-1-.125-1.5-.206-.289-.047-.408.05-.427.344-.044.58-.056.58.534.673.308.048.609.11.917.131s.433.135.408.445-.2.406-.49.35c-.057-.011-.113-.015-.163-.021,0,0,0,0-.006.006" transform="translate(-476.905 -4.806)"/><path class="g" d="M1313.841-118.777c-.075.261-.3.377-.477.512-.151.111-.251-.058-.333-.161-.339-.4-.678-.784-.992-1.195-.182-.234-.345-.209-.515-.026s-.559.3-.276.656.572.69.879,1.018c.27.289-.006.413-.151.574-.182.2-.3.08-.433-.084-.264-.325-.559-.624-.829-.949-.176-.217-.32-.261-.54-.047-.283.272-.6.511-.892.77-.151.134-.289.236-.446.011-.132-.2-.458-.377-.151-.667.37-.356.766-.693,1.156-1.036.565-.5,1.137-1,1.7-1.5.195-.171.327-.209.515.015.54.643,1.1,1.271,1.646,1.906a2.147,2.147,0,0,1,.144.205" transform="translate(-491.53 -12.814)"/><path class="f" d="M1327.591-71.9c.414.24.754.461,1.111.64.691.35.7.34.641,1.118-.006.08,0,.16,0,.328-.534-.336-1.037-.607-1.489-.947a3.569,3.569,0,0,0-2.38-.782c-.17.008-.415.076-.471-.156a1.113,1.113,0,0,1,.082-.738c.069-.133.232-.094.345-.061a2.864,2.864,0,0,0,2.073-.289c.565-.271,1.13-.547,1.7-.832.283-.145.346-.062.339.238a.911.911,0,0,1-.678.979c-.408.129-.8.313-1.269.5" transform="translate(-497.636 -30.425)"/><path class="f" d="M1207.661-114.522c-.107-.006-.125.092-.176.153a6.471,6.471,0,0,1-.4.536.461.461,0,0,1-.678.038c-.245-.19-.082-.355.05-.529.546-.743,1.1-1.482,1.627-2.241.214-.307.383-.266.647-.074s.157.373.019.562c-.546.719-.54.707.207,1.224.647.446,1.269.925,1.9,1.385.163.119.371.225.145.447-.2.2-.276.712-.754.365s-.967-.715-1.451-1.07c-.32-.231-.641-.456-.961-.683-.056-.04-.113-.076-.176-.114" transform="translate(-453.491 -14.396)"/><path class="f" d="M1319.079-112.256c-.031.245-.289.246-.408.388-.1.114-.232.079-.326-.038-.119-.155-.245-.308-.352-.472-.245-.388-.339-.415-.729-.149-.729.5-1.457,1-2.186,1.5-.189.129-.358.336-.572-.011-.188-.3-.383-.526.069-.759a4.061,4.061,0,0,0,1.307-1.038,2.4,2.4,0,0,1,.9-.612c.314-.141.314-.292.107-.528a1.821,1.821,0,0,1-.27-.422.468.468,0,0,1,.239-.636c.27-.162.333.086.44.231q.8,1.128,1.6,2.262a2.888,2.888,0,0,1,.182.283" transform="translate(-493.666 -15.03)"/><path class="e" d="M1251.23-142.211c.207-.021.22.137.2.3s.27.415-.119.5a5.282,5.282,0,0,1-.7.143c-.326.023-.4.176-.339.47.182.9.346,1.809.534,2.711.057.282.063.491-.3.552-.321.053-.566.1-.635-.343-.132-.869-.32-1.729-.478-2.595-.094-.494-.138-.528-.628-.443-.138.024-.276.049-.414.072-.276.045-.446-.037-.5-.351s.081-.418.371-.467c.867-.149,1.727-.322,2.594-.484.125-.023.251-.038.4-.062" transform="translate(-468.954 -4.941)"/><path class="f" d="M1285.564-139.07c.025.447-.226.638-.641.488-.063-.023-.126-.055-.188-.085-.484-.23-.672-.158-.791.379a24.065,24.065,0,0,1-.81,2.465c-.17.494-.452.283-.722.22-.314-.074-.251-.3-.176-.533.3-.875.578-1.754.88-2.625.107-.3.088-.479-.27-.536-.164-.026-.314-.122-.477-.161-.308-.074-.352-.259-.276-.536.088-.309.27-.283.515-.2.879.3,1.759.572,2.632.859.145.046.32.058.327.265" transform="translate(-481.675 -5.671)"/><path class="h" d="M1255.2-12.321c-.132,1.213-.257,2.354-.377,3.5-.032.255-.082.488-.434.4-.289-.068-.666.007-.559-.528.126-.659.182-1.331.276-2,.082-.577.088-.578-.521-.653-.226-.028-.477-.021-.383-.378.038-.132.069-.246.239-.233a1.051,1.051,0,0,0,1.093-.545c.138-.243.352-.043.528-.018.2.028.195.161.144.314a.35.35,0,0,0-.006.137" transform="translate(-470.934 -53.044)"/><path class="h" d="M1270.963-12.855c.245-.07.339.05.37.294q.2,1.833.415,3.665c.025.226-.013.405-.283.4-.226-.007-.534.151-.584-.265-.088-.749-.213-1.494-.289-2.245-.031-.37-.163-.507-.527-.4a2.131,2.131,0,0,1-.251.036c-.157.026-.308.056-.333-.181-.019-.186-.069-.356.214-.4a.929.929,0,0,0,.823-.677c.069-.236.251-.23.446-.22" transform="translate(-476.991 -53.044)"/><path class="h" d="M1199.426-82.944l-3.272-.535c-.138-.023-.277-.04-.415-.063-.521-.086-.578-.19-.452-.694a.326.326,0,0,1,.427-.28c1.244.2,2.487.4,3.725.612.169.029.4.042.283.33-.094.228.044.6-.3.63" transform="translate(-449.382 -26.396)"/><path class="i" d="M1329.28-80.044a1.78,1.78,0,0,1,.76-.066c-.182.074-.27.109-.352.143-.12-.114-.283-.016-.408-.077" transform="translate(-499.237 -28.036)"/><path class="j" d="M1242.008-131.676a36.026,36.026,0,0,1,36.014,36.287,36.02,36.02,0,0,1-36.529,35.852A35.97,35.97,0,0,1,1205.9-96.091a35.973,35.973,0,0,1,36.109-35.585" transform="translate(-453.349 -8.86)"/><path class="k" d="M1327.87-86.4c-.019-.243.3-.213.5-.284.214-.078.5-.156.6.157a4.706,4.706,0,0,1,.245,1.012.57.57,0,0,1-.5.63c-.32.079-.5-.1-.6-.378a4.666,4.666,0,0,1-.245-1.137" transform="translate(-498.713 -25.568)"/><path class="k" d="M1296.051-131.695a2.578,2.578,0,0,1-1.225-.685c-.182-.175.119-.469.214-.7a.335.335,0,0,1,.44-.225,2.3,2.3,0,0,1,1.036.6.525.525,0,0,1,.069.661.546.546,0,0,1-.534.351" transform="translate(-486.402 -8.245)"/><path class="d" d="M1215.132-117.845a1.059,1.059,0,0,1-1.551.93,2.814,2.814,0,0,1-1.131-.97,1.032,1.032,0,0,1-.038-1.215,1.183,1.183,0,0,1,1.193-.531,2.051,2.051,0,0,1,1.526,1.786" transform="translate(-455.705 -13.334)"/><path class="d" d="M1307.261-124.059a1.033,1.033,0,0,1,1.137,1.173,2.026,2.026,0,0,1-1.143,1.561,1.2,1.2,0,0,1-1.357-.26,1.01,1.01,0,0,1-.182-1.305,1.977,1.977,0,0,1,1.545-1.168" transform="translate(-490.415 -11.692)"/><path class="j" d="M1326.962-92.325c-.433.3-.867.592-1.3.884-.044.027-.1.057-.157.006a4.277,4.277,0,0,1-.277-.956.222.222,0,0,1,.139-.052c.515,0,1.03,0,1.545,0,.019.04.031.08.05.12" transform="translate(-497.729 -23.45)"/><path class="j" d="M1231.209-132.9c.377.349.754.7,1.13,1.045.069.067.163.15.025.231-.251.148-.509.286-.772.42-.119.062-.138-.051-.157-.124-.1-.5-.2-1.011-.3-1.516.025-.019.044-.038.069-.057" transform="translate(-462.738 -8.404)"/><path class="k" d="M1237.094-136.5a.635.635,0,0,1,.628.692,1.19,1.19,0,0,1-1.074.891c-.226-.014-.515-.546-.528-.969-.006-.272.54-.617.974-.614" transform="translate(-464.59 -7.066)"/><path class="k" d="M1259.24-10.476c0-.483.264-.838.635-.85.389-.013.672.333.659.807s-.283.8-.685.791-.609-.276-.609-.748" transform="translate(-473.188 -53.619)"/><path class="l" d="M1277.9-95.256a35.585,35.585,0,0,1-35.757,35.645,35.643,35.643,0,0,1-35.657-36.549,35.638,35.638,0,0,1,36.19-34.829A35.58,35.58,0,0,1,1277.9-95.256" transform="translate(-453.565 -9.114)"/><path class="m" d="M1223.508-89.286a7.906,7.906,0,0,1-1.131-2.884,5.123,5.123,0,0,1,.232-2.442,1.7,1.7,0,0,1,.911-1.056,14.855,14.855,0,0,0,3.36-2.281,1.692,1.692,0,0,1,2.23-.261,1.337,1.337,0,0,1,.71,1.247,1.234,1.234,0,0,1-.791,1.138,1.1,1.1,0,0,0-.446,1.87,11.815,11.815,0,0,0,1.231,1.377.3.3,0,0,0,.264.119v-12.678c-.006-.537.069-.615.641-.613q4.249.014,8.5.032h.333a1.539,1.539,0,0,0-.471-.631,3.167,3.167,0,0,1-.829-1.928c-.019-.255-.031-.529.257-.653a.72.72,0,0,1,.8.078c.188.172.283.182.452-.017s.414-.136.615-.019c.3.165.578.344.879.526.144-.214.214-.507.5-.587a.7.7,0,0,1,.672.134c.088.074.138.3.32.129.125-.116.258-.279.163-.443a11.347,11.347,0,0,1-.817-1.315c-.05-.127-.226-.028-.345.005q-5.276,1.475-10.546,2.953l-.163.043c-.138.031-.289.078-.358-.1s.069-.247.195-.318c.735-.427,1.476-.854,2.217-1.279,1.589-.913,3.166-1.857,4.717-2.832.057-.036.113-.077.2-.139-.816-.4-1.6-.78-2.387-1.17-.119-.058-.314-.077-.32-.227,0-.181.207-.156.327-.2q2.534-.828,5.068-1.644c.622-.2.666-.249.71-.911a7.1,7.1,0,0,1,.207-1.2,1.21,1.21,0,0,1,1.181-1,.831.831,0,0,0,.666-.359,1.424,1.424,0,0,1,1.495-.543c.226.043.333-.018.345-.222.05-.815.678-1.138,1.47-1.048a1.089,1.089,0,0,0,1.074-.342,1.385,1.385,0,0,1,1.677-.085c.188.128.352.32.546.012a.162.162,0,0,1,.119-.036,16.636,16.636,0,0,0,3.894-.7c2.933-.6,5.86-1.252,8.787-1.877.157-.033.377-.171.465.1s-.157.317-.333.388a71.385,71.385,0,0,0-6.513,3.171c1.049.509,2.054.994,3.115,1.51-1.275.412-2.481.8-3.687,1.193-.8.258-1.6.522-2.4.76a.539.539,0,0,0-.458.639c.025.222-.019.455.025.671a3.453,3.453,0,0,1-.7,2.726c-.509.76-1.112,1.443-1.683,2.154-.1.132-.207.263-.308.4-.653.858-.653.859.031,1.694.082-.048.088-.133.113-.214a.648.648,0,0,1,1.105-.333c.17.133.257.159.4-.015a.542.542,0,0,1,.659-.09,3.166,3.166,0,0,1,1.6,2.637c-.025.191-.163.323-.22.5.1.122.232.064.352.064q3.071.006,6.143,0c.509,0,1.011-.028,1.514-.03.521,0,.578.058.578.584q-.01,6.121-.013,12.242v.422a2.412,2.412,0,0,0,.779-.681c.251-.3.5-.6.728-.925a1.085,1.085,0,0,0-.308-1.6c-.17-.118-.371-.2-.547-.316a1.2,1.2,0,0,1-.176-1.912,1.7,1.7,0,0,1,2.047-.331,7.147,7.147,0,0,1,1.363.975,9.23,9.23,0,0,0,2.261,1.436,2.191,2.191,0,0,1,1.338,1.663,5.61,5.61,0,0,1-.678,4.2c-.12.2-.32.436-.3.626.031.207.37.143.571.223a2.6,2.6,0,0,1,1.043.828,6.97,6.97,0,0,0,2.406,1.927,4.158,4.158,0,0,1,.973.575,1.576,1.576,0,0,1,.365,2.082,5.6,5.6,0,0,1-1.275,1.549,13.281,13.281,0,0,0-3.128,3.756,1.258,1.258,0,0,1-.6.624.735.735,0,0,0-.477.666,26.324,26.324,0,0,1-2.041,6.505A20.926,20.926,0,0,1,1252.5-58.658a23.794,23.794,0,0,1-17.373-2.037A21.126,21.126,0,0,1,1224.45-74.31c-.257-.93-.465-1.874-.684-2.815-.063-.29-.151-.508-.484-.6a1.375,1.375,0,0,1-.823-.744,12.621,12.621,0,0,0-2.8-3.435,12.267,12.267,0,0,1-1.413-1.495,1.6,1.6,0,0,1,.22-2.348,4.846,4.846,0,0,1,1.244-.773,5.229,5.229,0,0,0,2.2-1.709,3.272,3.272,0,0,1,1.6-1.061" transform="translate(-457.787 -11.814)"/><path class="g" d="M1264.45-84.722c-.314,1.635-.628,3.271-.955,4.9q-1.479,7.407-2.965,14.812c-.031.143-.088.28.088.36s.232-.063.314-.179q2.694-3.784,5.4-7.563a1.719,1.719,0,0,1,.484-.528c-.791,3.416-1.847,6.662-2.763,10.074l4.566-3.311c.107.191-.019.316-.075.436-.76,1.651-1.52,3.3-2.3,4.944a1.8,1.8,0,0,0-.138,1.337c.2.742.339,1.5.515,2.25.1.41-.126.657-.4.9a14.771,14.771,0,0,1-4.535,2.759,16.763,16.763,0,0,1-14.955-1.107,20.383,20.383,0,0,1-2.638-2.014.5.5,0,0,1-.138-.57c.17-.764.32-1.534.509-2.295a1.526,1.526,0,0,0-.094-1.052c-.867-1.831-1.708-3.672-2.494-5.6,1.532,1.094,3.065,2.189,4.692,3.353-.992-3.436-1.96-6.772-2.927-10.14.226.043.27.2.345.3q2.807,3.909,5.6,7.825c.088.12.151.251.327.186.195-.072.157-.218.126-.382q-1.215-6.03-2.424-12.063-.659-3.356-1.307-6.716c-.025-.137-.038-.277-.05-.416-.025-.078-.082-.17.069-.169l6.576,17.247c.057.139.05.336.27.309s.226-.206.239-.383q.471-5.569.955-11.137c.264-3.042.546-6.082.829-9.123a1.132,1.132,0,0,1,.17-.523c.081.748.163,1.5.226,2.246q.641,7.368,1.269,14.738c.1,1.214.2,2.428.32,3.641.019.186-.063.494.226.522.258.026.233-.28.3-.442q3.3-8.643,6.576-17.292c.025-.078.063-.154.094-.231.076-.014.125,0,.082.09" transform="translate(-466.728 -25.105)"/><path class="e" d="M1220.93-65.283a20.727,20.727,0,0,0,2.795-2.485,2.075,2.075,0,0,1,2.362-.346,6.706,6.706,0,0,1,3.31,3.036,18.391,18.391,0,0,1,2,5.845,26.2,26.2,0,0,0,1.834,6.136,14.081,14.081,0,0,0,8.454,7.419,16.554,16.554,0,0,0,16.45-2.621,13.1,13.1,0,0,0,4.491-7.13c.572-2.048,1.049-4.121,1.614-6.17a12.594,12.594,0,0,1,2.249-4.611,5.788,5.788,0,0,1,2.889-2.006,1.79,1.79,0,0,1,2.035.493,14.238,14.238,0,0,0,2.606,2.3,1.914,1.914,0,0,0,.189.109,11.6,11.6,0,0,0-1.84,1.285,6.9,6.9,0,0,0-1.978,3.949c-.371,1.951-.566,3.935-1.106,5.855-1.708,6.13-5.087,10.981-10.816,14a23.086,23.086,0,0,1-7.675,2.334,23.528,23.528,0,0,1-13.246-1.967,20.622,20.622,0,0,1-10.778-11.522,36.613,36.613,0,0,1-1.853-7.309,15.6,15.6,0,0,0-.553-2.626,6.533,6.533,0,0,0-3.436-3.97" transform="translate(-458.94 -32.417)"/><path class="n" d="M1245.259-87.437c-.232-.623-.465-1.248-.71-1.867-.057-.143-.094-.375-.327-.3s-.075.252-.057.394c.075.68.352,1.325.364,2.017-.075.231-.3.327-.452.485a1.379,1.379,0,0,0-.019,2.143c.126.131.258.262.4.381,1.1.94.9,1.908-.044,2.828a4.1,4.1,0,0,1-2.393.92,10.911,10.911,0,0,1-2.054.11c-.81-.032-.955-.174-.955-.969v-11.23c0-.8.126-.923.93-.923h28.534c.094,0,.195,0,.3,0,.477.028.71.244.685.717-.088,1.539-.031,3.076.012,4.615.063,2.284.019,4.57.019,6.855-.006.676-.239.926-.911.92a8.914,8.914,0,0,1-3.825-.592,3.453,3.453,0,0,1-.772-.5,1.7,1.7,0,0,1-.163-2.508c.239-.277.521-.509.754-.791a1.272,1.272,0,0,0-.057-1.874c-.194-.217-.477-.356-.609-.634.126-.628.251-1.255.371-1.884.031-.169.144-.39-.088-.476s-.283.153-.345.315c-.239.593-.471,1.187-.71,1.78l-.057-.032a2.505,2.505,0,0,0-1.338-.415,6.932,6.932,0,0,0-3.228.33,3.854,3.854,0,0,0-1.137.7,1.529,1.529,0,0,0-.3,1.977,5.635,5.635,0,0,0,.672.858,1.661,1.661,0,0,1-.176,2.657,3.723,3.723,0,0,1-1.646.794.47.47,0,0,1-.44-.056c-.138-1.387-.289-2.772-.414-4.16-.075-.847-.12-1.7-.182-2.546-.107-1.348-.22-2.7-.327-4.043a11.94,11.94,0,0,0-.088-1.252c-.031-.132-.044-.265-.2-.274-.188-.011-.22.131-.232.282-.113,1.292-.22,2.584-.339,3.874-.132,1.4-.277,2.8-.4,4.2-.076.847-.119,1.7-.182,2.546-.044.511-.1,1.019-.151,1.529a8.2,8.2,0,0,1-1.5-.532,2.679,2.679,0,0,1-1.087-1.069,1.4,1.4,0,0,1,.1-1.575c.239-.35.553-.633.81-.966a1.638,1.638,0,0,0-.289-2.375,4.457,4.457,0,0,0-2.481-.924,6.937,6.937,0,0,0-2.7.248,2.059,2.059,0,0,0-.553.292" transform="translate(-465.665 -23.077)"/><path class="o" d="M1264.91-72.147l1.112-4.078c.037-.134.182-.29-.031-.4s-.308.064-.4.2c-.911,1.274-1.815,2.55-2.726,3.824a1.94,1.94,0,0,1-.132.158,3.555,3.555,0,0,1-1.382-.278,1.276,1.276,0,0,1-.766-.3c.182-1.56.565-3.083.867-4.62.389-1.963.8-3.92,1.2-5.88.094,0,.138.074.17.145.132.268.094.577.22.851a2.769,2.769,0,0,0,1.715,1.39,7.054,7.054,0,0,0,1.891.358,13.2,13.2,0,0,0,1.715.03c.565-.033.71-.177.71-.752.006-2.187.05-4.376-.013-6.561-.044-1.485-.05-2.969-.075-4.453a6.835,6.835,0,0,0,.025-.879.434.434,0,0,0-.5-.438h-29.124c-.132,0-.258-.005-.383,0a.4.4,0,0,0-.408.4c-.006.1,0,.2,0,.294v11.652c0,.611.038.678.647.734a9.008,9.008,0,0,0,3.85-.434,2.485,2.485,0,0,0,1.639-1.674c.044-.134.069-.276.214-.341a9.285,9.285,0,0,1,.471,2.018c.565,2.722,1.1,5.449,1.652,8.174l-.038.057a6.45,6.45,0,0,1-2.186.519q-1.451-1.982-2.9-3.965c-.1-.132-.151-.33-.377-.223-.245.115-.081.275-.038.423q.585,2.034,1.156,4.069c-.038.138-.157.144-.27.156a7.645,7.645,0,0,1-3.31-.29,1.622,1.622,0,0,1-.163-.054c-.257-.114-.358-.018-.358.252,0,.785-.044,1.572.012,2.354a17,17,0,0,0,.572,3.681,14.336,14.336,0,0,0,2.72,5.351,1.11,1.11,0,0,1,.3.5c-.025.147.013.307-.1.465a4.2,4.2,0,0,1-.7-.761,16.161,16.161,0,0,1-2.676-5.735,22,22,0,0,1-.8-6.676c.031-5.635.013-11.271.006-16.906,0-1.345-.019-2.69-.025-4.036,0-.6.056-.647.647-.647h30.676c.615,0,.641.029.641.637v18.883a34.636,34.636,0,0,1-.151,4.91,25.493,25.493,0,0,1-2.789,8.785,7.285,7.285,0,0,1-1.093,1.433c-.082.086-.157.256-.289.193-.1-.049-.119-.211-.107-.343a1.97,1.97,0,0,1,.4-.629,15.1,15.1,0,0,0,3.084-7.6,30.772,30.772,0,0,0,.082-3.806c0-.383-.044-.408-.377-.284a7.369,7.369,0,0,1-3.392.32.34.34,0,0,1-.314-.171" transform="translate(-465.248 -22.694)"/><path class="o" d="M1256.663-77.247c-.151,2.218-.308,4.436-.584,6.644a4.709,4.709,0,0,1-1.784.281q-1.762-4.634-3.511-9.269c-.578-1.526-1.256-3.013-1.734-4.577a.531.531,0,0,1,.352-.277,5.736,5.736,0,0,1,5.226.558,1.531,1.531,0,0,1,.339,2.426c-.214.276-.465.526-.678.8a1.587,1.587,0,0,0,.119,2.206,3.205,3.205,0,0,0,1.69.96c.2.056.421.057.565.246" transform="translate(-469.399 -26.287)"/><path class="o" d="M1265.877-70.634c-.176-2.2-.452-4.393-.547-6.6.163-.182.4-.182.616-.24a3.336,3.336,0,0,0,1.646-.957,1.568,1.568,0,0,0,.031-2.325,8.55,8.55,0,0,1-.7-.891,1.5,1.5,0,0,1,.383-2.18,4.978,4.978,0,0,1,2.324-.9,6.352,6.352,0,0,1,2.858.212.712.712,0,0,1,.4.213l.025.011c-1.677,4.614-3.436,9.2-5.207,13.778a2.024,2.024,0,0,1-.094.182,3.954,3.954,0,0,1-1.74-.3" transform="translate(-475.453 -26.29)"/><path class="c" d="M1292.493-81.644a14.531,14.531,0,0,0,3.178,2.064,1,1,0,0,1,.5.651,5,5,0,0,1-.214,3.841c-.069.152-.157.3-.22.453a2.067,2.067,0,0,1-1.463,1.3,5.668,5.668,0,0,0-2.814,2.171,12.518,12.518,0,0,0-2.01,4.037c-.044.149-.038.33-.207.44-.107-.145-.057-.287-.057-.418-.006-2.832,0-5.664-.006-8.5a1.32,1.32,0,0,1,.458-1.066,12.019,12.019,0,0,0,2.531-3.482,3.875,3.875,0,0,0,.327-1.495" transform="translate(-484.32 -27.467)"/><path class="c" d="M1229.512-81.582a6.734,6.734,0,0,0,1.445,3.278,11.6,11.6,0,0,0,.98,1.094,3.268,3.268,0,0,1,1.074,2.626c-.094,2.38-.025,4.762-.025,7.143a.986.986,0,0,1-.088.464c-.188-.44-.389-.876-.565-1.32a9.873,9.873,0,0,0-2.65-4.026,4.756,4.756,0,0,0-2.493-1.2.564.564,0,0,1-.427-.242,5.731,5.731,0,0,1-.967-4.855,1.63,1.63,0,0,1,1.005-1.154,9.863,9.863,0,0,0,2.544-1.684c.044-.035.088-.063.169-.118" transform="translate(-460.676 -27.49)"/><path class="p" d="M1264.846-118.121a4.386,4.386,0,0,0,1.84,1.6.551.551,0,0,1,.289.567c.012,1.134.025,2.268.031,3.4a1.988,1.988,0,0,1-.32,1.24,13.918,13.918,0,0,1-2.6,3.11,2.527,2.527,0,0,1-1.225.573,12.033,12.033,0,0,0-1.262.3,1.582,1.582,0,0,0,.93.227c.251.009.5.018.754.046.1.012.258-.032.3.1s-.107.182-.17.268a.228.228,0,0,1-.333.056c-.069-.043-.132-.107-.207-.147a.532.532,0,0,0-.854.268c-.144.359-.289.281-.5.089a4.192,4.192,0,0,0-.352-.3.535.535,0,0,0-.76,0,.36.36,0,0,1-.54.027c-.49-.343-.772-.255-.992.3-.094.22-.17.169-.289.071-.144-.113-.283-.23-.484-.4l.553-.169c.013-.177-.113-.22-.226-.258a3.172,3.172,0,0,1-1.338-1.173c-.214-.249.019-.316.182-.366.471-.142.942-.264,1.514-.421-.729-.365-1.388-.693-2.136-1.063a18.745,18.745,0,0,1,3.128-.879,1.006,1.006,0,0,1,1.118.528.589.589,0,0,0,.088-.167,1.025,1.025,0,0,1,1.087-.944,1.118,1.118,0,0,0,1.08-.514c.132-.241.276-.055.377.08a1.342,1.342,0,0,0,1.08.554c-.151-.274-.421-.428-.527-.692-.069-.163-.214-.327-.063-.5a.5.5,0,0,1,.584-.094c.113.036.239.192.333.077.12-.144-.025-.294-.113-.4a1.5,1.5,0,0,1-.277-1.11c.025-.342.082-.631.5-.707.333-.061.1-.2.019-.3a2.378,2.378,0,0,1-.214-2.88" transform="translate(-472.225 -13.901)"/><path class="n" d="M1280.454-47.161a10.157,10.157,0,0,1-.49-2.064,1.144,1.144,0,0,1,.151-.685l2.676-5.7c.075-.162.213-.338.031-.5s-.32.033-.44.121c-1.118.814-2.23,1.64-3.341,2.457-.189.138-.4.254-.634.406a1.768,1.768,0,0,1,.157-1.08q.659-2.294,1.325-4.585a3.524,3.524,0,0,1,1.036-.01,7.041,7.041,0,0,0,2.613-.292c.371-.118.459-.071.49.3a16.844,16.844,0,0,1-1.137,7.848,14.861,14.861,0,0,1-1.972,3.4c-.119.156-.214.372-.465.37" transform="translate(-480.302 -35.835)"/><path class="n" d="M1243.167-58.786c.54,1.857,1.087,3.714,1.646,5.63a2.616,2.616,0,0,1-1.131-.634c-1.011-.725-2.01-1.469-3.015-2.2-.126-.089-.264-.279-.439-.122s-.094.332-.013.5q.791,1.668,1.583,3.337.575,1.234,1.149,2.472a1.342,1.342,0,0,1,.075.977c-.144.493-.245,1-.364,1.5-.22.014-.308-.167-.421-.3a14.727,14.727,0,0,1-2.971-6.727,21.584,21.584,0,0,1-.251-4.268c.013-.561.082-.622.616-.46a9.01,9.01,0,0,0,3.165.263c.119-.007.251-.058.371.028" transform="translate(-465.664 -35.831)"/><path class="c" d="M1249.351-107.63c.936.46,1.79.882,2.739,1.348l-10.759,3.011a.946.946,0,0,1-.05-.117c2.054-1.222,4.152-2.389,6.218-3.76-.9-.44-1.746-.859-2.663-1.311l5.414-1.769a.713.713,0,0,1,.747.145c.421.391.829.794,1.237,1.2.232.236.063.318-.157.388-.879.276-1.759.557-2.726.864" transform="translate(-466.509 -16.819)"/><path class="c" d="M1275.517-119.544l2.958,1.433-3.938,1.273c-.452.146-.911.274-1.357.439-.238.087-.3,0-.314-.209-.019-.279-.026-.559-.038-.838a1.6,1.6,0,0,0-.371-1.038c.477-.164.93-.32,1.47-.5l-2.638-1.37c3.379-.722,6.658-1.424,9.936-2.127-1.934.888-3.749,1.992-5.709,2.941" transform="translate(-477.67 -12.278)"/><path class="q" d="M1245.289-82.888a2.966,2.966,0,0,1-2.713,2.369,10.271,10.271,0,0,1-3.134.174c-.49-.06-.616-.184-.616-.662-.006-4.023,0-8.046-.006-12.069-.006-.408.176-.56.553-.554.264,0,.528.016.8.016H1268.7c.722,0,.754.033.76.756q.028,5.823.05,11.645c.006.755-.088.833-.829.876a9.7,9.7,0,0,1-3.53-.354,2.649,2.649,0,0,1-2.079-2.408,1.309,1.309,0,0,1,.433-1,8,8,0,0,0,.879-.954,1.019,1.019,0,0,0-.025-1.373c-.176-.213-.44-.339-.546-.614.006-.089.012-.178.019-.267a2.352,2.352,0,0,1,.81.657,1.418,1.418,0,0,1-.069,1.979c-.239.257-.515.481-.735.748a1.568,1.568,0,0,0,.289,2.443,4.278,4.278,0,0,0,2.179.813,15.672,15.672,0,0,0,2.305.134c.553-.026.666-.149.666-.685,0-2.425.012-4.85-.025-7.274-.019-1.428-.057-2.856.006-4.283.019-.493-.088-.6-.578-.6q-14.537,0-29.074,0c-.5,0-.553.053-.553.555,0,3.9.006,7.794-.006,11.69,0,.4.144.562.521.586a10.152,10.152,0,0,0,3.7-.375,2.593,2.593,0,0,0,1.413-1.07,1.451,1.451,0,0,0-.239-2.065c-.144-.133-.3-.252-.446-.386a1.549,1.549,0,0,1,.05-2.532,3.68,3.68,0,0,1,.414-.282c.082.047.082.121.063.2-.094.177-.27.275-.4.423a1.335,1.335,0,0,0,.226,2.1,3.326,3.326,0,0,1,.8.837,1.25,1.25,0,0,1,.138.809" transform="translate(-465.594 -23.009)"/><path class="e" d="M1218.43-61.926a1.368,1.368,0,0,1,.264-.816.743.743,0,0,1,1.074-.29,6.157,6.157,0,0,1,3.542,4.467c.233.924.321,1.875.471,2.815.05.283-.1.242-.258.176a.831.831,0,0,1-.421-.4A15.461,15.461,0,0,0,1219.768-60a10.976,10.976,0,0,1-1-1.079,1.419,1.419,0,0,1-.339-.852" transform="translate(-458.011 -34.346)"/><path class="e" d="M1299.687-55.506a11.929,11.929,0,0,1,.572-3.466,5.754,5.754,0,0,1,3.253-3.936.844.844,0,0,1,1.3.733,1.5,1.5,0,0,1-.213.964,9.149,9.149,0,0,1-1.847,2,11.687,11.687,0,0,0-2.412,3.05,1.307,1.307,0,0,1-.653.659" transform="translate(-488.229 -34.39)"/><path class="p" d="M1264.052-113.274c-.7-.016-.842-.42-.867-.959a4.233,4.233,0,0,0-.647-1.754,2.647,2.647,0,0,1-.3-1.416c.032-.611.2-.84.7-.928a.986.986,0,0,1,1.131.651,10.478,10.478,0,0,1,.427,1.962c.163.923.314,1.848.446,2.776.094.635-.251.929-.867.778-.5-.12-.6-.43-.283-.83.057-.075.132-.141.264-.279" transform="translate(-474.301 -13.817)"/><path class="p" d="M1261.226-113.454a.687.687,0,0,0-.854.055c-.069.055-.169.225-.251.045-.283-.63-.8-1.123-1.043-1.769a.846.846,0,0,1,.892-1.191.839.839,0,0,1,.672.429,11.274,11.274,0,0,1,1.495,4.411.417.417,0,0,1-.4.564c-.326.04-.6,0-.634-.407-.013-.137-.05-.271-.082-.476-.063.209-.107.351-.151.5a.207.207,0,0,1-.214-.16c-.119-.458-.239-.92-.32-1.386-.038-.237.157-.337.358-.4a1.128,1.128,0,0,0,.528-.213" transform="translate(-473.102 -14.572)"/><path class="p" d="M1266.893-114.516c-.025-.059-.031-.08-.038-.082-.634-.1-.7-.58-.772-1.083-.044-.337.031-.523.408-.49a1.781,1.781,0,0,0,.3,0,.151.151,0,0,0,.138-.131.13.13,0,0,0-.151-.155c-.948.119-.923-.583-1-1.188a6.17,6.17,0,0,1-.038-.963c.006-.433.3-.684.773-.709a.7.7,0,0,1,.829.6,12.828,12.828,0,0,1,.176,2.3c.006.825.126,1.646.088,2.473-.019.347-.138.591-.534.622a.607.607,0,0,1-.71-.442c-.126-.365.069-.55.371-.682.05-.023.1-.04.163-.064" transform="translate(-475.603 -13.455)"/><path class="p" d="M1258.192-112.924a1.077,1.077,0,0,1,.691,1.014,1.3,1.3,0,0,0,.163.551.58.58,0,0,1-.126.729.373.373,0,0,1-.5.049.488.488,0,0,1-.239-.644c.013-.023,0-.053-.006-.08-.4.194-.647.069-.766-.464-.069-.306-.082-.534-.5-.4-.194.063-.358-.119-.433-.32-.05-.144-.088-.294-.138-.465-.17.113-.107.3-.163.441s-.113.224-.27.207-.176-.133-.176-.244a5.371,5.371,0,0,1,.471-2.029c.119-.278.678-.342.992-.144a3.924,3.924,0,0,1,1.168,1.509c.113.189-.126.171-.17.288" transform="translate(-471.883 -15.123)"/><path class="n" d="M1251.3-60.3l.659,3.343c.075.368.157.734.233,1.1.019.1.081.246-.038.3s-.195-.078-.257-.164c-.477-.67-.967-1.332-1.42-2.017a15.121,15.121,0,0,1-1.212-1.8c.094-.167.264-.181.421-.225.415-.114.835-.2,1.244-.326a.519.519,0,0,0,.339-.209Z" transform="translate(-469.477 -35.405)"/><path class="n" d="M1275.381-59.432c-.647,1.075-1.432,2.06-2.135,3.1-.226.333-.471.651-.71.976-.038-.013-.082-.026-.125-.039q.481-2.279.967-4.557a.379.379,0,0,1,.352-.025c.458.108.911.222,1.363.342.119.032.245.067.289.2" transform="translate(-478.087 -35.514)"/><path class="f" d="M1252.185-98.915a.731.731,0,0,0,.063-.4c-.006-.342.195-.458.484-.26a2.87,2.87,0,0,1,1.219,2.113.317.317,0,0,1-.132.33.3.3,0,0,1-.352-.038,1.562,1.562,0,0,1-.226-.185c-.371-.337-.408-.337-.653.087a.271.271,0,0,1-.452.1,3.119,3.119,0,0,1-1.237-2.2.23.23,0,0,1,.1-.254.318.318,0,0,1,.389.043c.264.208.515.429.8.669" transform="translate(-470.084 -20.761)"/><path class="f" d="M1261.954-98.926a.643.643,0,0,1,.05-.091c.076-.211-.1-.54.195-.629.27-.081.452.182.635.347a2.748,2.748,0,0,1,.867,1.806c.019.134.05.288-.107.375s-.3-.009-.421-.1c-.088-.065-.157-.161-.245-.225-.245-.171-.477-.3-.584.139-.063.246-.251.26-.427.133a3.03,3.03,0,0,1-1.237-2.148.293.293,0,0,1,.163-.316.319.319,0,0,1,.352.071c.245.2.484.409.76.637" transform="translate(-473.723 -20.766)"/><path class="r" d="M1268.6-97.591c-.031.177.05.345-.119.421a.434.434,0,0,1-.433-.088c-.088-.063-.163-.147-.251-.217-.176-.141-.339-.146-.44.083-.157.364-.44.3-.647.129a2.67,2.67,0,0,1-1.03-2.1c0-.241.176-.381.44-.229a1.869,1.869,0,0,1,.515.488c.05.064.082.162.182.15s.075-.129.1-.2c.182-.595.383-.659.829-.2a2.861,2.861,0,0,1,.854,1.769" transform="translate(-475.584 -20.767)"/><path class="f" d="M1271.793-98.913c.069-.1.013-.243.013-.377.006-.339.213-.479.49-.3a2.615,2.615,0,0,1,1.2,2.189c.012.3-.189.4-.446.234a2.558,2.558,0,0,1-.283-.246c-.232-.216-.446-.311-.6.088-.107.291-.308.259-.5.1a3.082,3.082,0,0,1-1.156-2.112c-.013-.135.006-.254.144-.314a.364.364,0,0,1,.39.09c.245.2.483.422.741.648" transform="translate(-477.382 -20.76)"/><path class="n" d="M1255.819-99.259c-.006-.149.006-.282.163-.355a.318.318,0,0,1,.346.088c.176.133.339.286.515.428.207.17.327.138.327-.148,0-.168.044-.319.207-.373s.264.06.371.151a2.9,2.9,0,0,1,1.049,1.758c.031.21.031.411-.138.527-.195.134-.389,0-.515-.146-.3-.335-.521-.252-.71.094a.22.22,0,0,1-.377.074,3.109,3.109,0,0,1-1.237-2.1" transform="translate(-471.916 -20.775)"/><path class="e" d="M1233.322-79.721a5.177,5.177,0,0,1-.823-2.122,1.042,1.042,0,0,1,.678-1.012,1.3,1.3,0,0,1,1.4.279.956.956,0,0,1,.258,1.073.684.684,0,0,1-.44.479,1.4,1.4,0,0,0-1.074,1.3" transform="translate(-463.242 -26.978)"/><path class="e" d="M1291.57-79.753c-.063-.791-.578-1.071-1.168-1.329a.867.867,0,0,1-.088-1.471,1.529,1.529,0,0,1,1.438-.215.907.907,0,0,1,.641,1.046,4.276,4.276,0,0,1-.823,1.968" transform="translate(-484.61 -27.016)"/><path class="q" d="M1281.354-47.3a14.539,14.539,0,0,0,3.285-7.2,17.7,17.7,0,0,0,.188-4.389c-.025-.278-.057-.352-.352-.247a7.8,7.8,0,0,1-3.687.208.242.242,0,0,1,.075-.221,6.861,6.861,0,0,0,3.793-.307c.239-.1.371-.142.389.2a17.056,17.056,0,0,1-1.9,9.78,12,12,0,0,1-1.765,2.492.444.444,0,0,1-.025-.324" transform="translate(-481.202 -35.694)"/><path class="s" d="M1243.1-58.93a7.426,7.426,0,0,1-3.611-.217c-.358-.121-.427-.06-.44.31a18.11,18.11,0,0,0,1.206,7.615,12.888,12.888,0,0,0,2.336,3.759.381.381,0,0,1-.05.275,13.941,13.941,0,0,1-3.228-6.223,20.672,20.672,0,0,1-.465-5.831c.006-.256.044-.374.358-.246a7.034,7.034,0,0,0,3.831.35c.019.07.038.139.063.208" transform="translate(-465.595 -35.688)"/><path class="s" d="M1256.626-77.313a4.188,4.188,0,0,1-2.249-1.038,1.783,1.783,0,0,1-.094-2.586c.189-.225.383-.443.572-.669a1.375,1.375,0,0,0-.132-2.11,4.015,4.015,0,0,0-2.073-.944,5.75,5.75,0,0,0-3.637.425.139.139,0,0,1-.057-.06c-.031-.2.082-.268.251-.322a6.779,6.779,0,0,1,4.453-.007,3.336,3.336,0,0,1,1.331.848,1.639,1.639,0,0,1,.12,2.249c-.226.287-.477.553-.71.834a1.409,1.409,0,0,0-.006,2.01,3.342,3.342,0,0,0,1.828,1.048c.157.044.377,0,.433.242-.013.026-.019.053-.031.079" transform="translate(-469.362 -26.221)"/><path class="s" d="M1272.846-84.369a7.012,7.012,0,0,0-3.14-.342,5.256,5.256,0,0,0-2.305.838,1.428,1.428,0,0,0-.415,2.147,6.4,6.4,0,0,0,.622.792c.967,1.082.609,2.045-.358,2.855a3.97,3.97,0,0,1-1.966.78.216.216,0,0,1-.063-.246,3.46,3.46,0,0,0,2.23-1.037,1.434,1.434,0,0,0,.12-2.071c-.251-.322-.54-.611-.766-.944a1.6,1.6,0,0,1,.333-2.34,5.51,5.51,0,0,1,3.837-1.043,5.629,5.629,0,0,1,1.639.322c.132.043.345.045.232.291" transform="translate(-475.408 -26.225)"/><path class="r" d="M1259.247-61.929q-.141,1.814-.3,3.627a20.735,20.735,0,0,1-1.382-3.263,2.21,2.21,0,0,1,1.677-.365" transform="translate(-472.567 -34.787)"/><path class="r" d="M1267.951-61.708l-1.319,3.479h-.082c-.088-1.237-.176-2.474-.27-3.711a.352.352,0,0,1,.352-.07,7.281,7.281,0,0,1,1.319.3" transform="translate(-475.807 -34.763)"/><path class="o" d="M1278.126-83.14a1.931,1.931,0,0,1,.842.857.939.939,0,0,1-.1,1.1,7.238,7.238,0,0,1-.766.835,2.118,2.118,0,0,0-.716,1.152l-.075-.109a36.168,36.168,0,0,1,.817-3.835" transform="translate(-479.909 -26.911)"/><path class="o" d="M1247.964-79.806c-.352-.31-.716-.6-1.049-.932-.729-.715-.817-1.656.421-2.429a30.528,30.528,0,0,1,.628,3.362" transform="translate(-468.407 -26.901)"/><path class="t" d="M1269.85-119.039c.251.094.4.134.534.2.66.321,1.319.649,1.991.979-.66.538-1.093.5-1.621-.112-.283-.329-.559-.659-.9-1.066" transform="translate(-477.134 -13.56)"/><path class="u" d="M1275.94-59.547c-.653-.223-1.331-.358-2-.52-.019-.089-.056-.181.044-.249l2.148.577c-.019.1-.107.143-.188.192" transform="translate(-478.646 -35.4)"/><path class="v" d="M1251.152-60.283c.075.218-.076.259-.233.3l-1.771.461c-.088-.044-.176-.081-.188-.194.735-.188,1.464-.377,2.192-.565" transform="translate(-469.365 -35.412)"/><path class="w" d="M1270.816-96.228c.27.233.522.455.829.72h-1.055c.119-.258.283-.474.226-.72" transform="translate(-477.41 -22.043)"/><path class="v" d="M1259.176-62.015a11,11,0,0,0-1.677.365.188.188,0,0,1-.107-.257,9.037,9.037,0,0,1,1.784-.281v.173" transform="translate(-472.496 -34.702)"/><path class="x" d="M1265.71-95.477a1.057,1.057,0,0,0,.22-.7c.371.108.484.475.741.7Z" transform="translate(-475.595 -22.064)"/><path class="l" d="M1267.921-61.787a12.676,12.676,0,0,1-1.67-.233c-.013-.074-.032-.147-.05-.22a11.664,11.664,0,0,1,1.74.3c-.006.05-.013.1-.019.152" transform="translate(-475.777 -34.684)"/><path class="y" d="M1256.209-96.449c.245.309.427.533.641.791a3.321,3.321,0,0,1-.879.058,1.884,1.884,0,0,0,.239-.849" transform="translate(-471.972 -21.961)"/><path class="z" d="M1260.6-95.454a1.385,1.385,0,0,0,.377-.637c.188.491.151.586-.377.637" transform="translate(-473.694 -22.094)"/><path class="aa" d="M1264.158-95.244c-.057.08-.151.043-.22.039-.1-.005-.232.06-.289-.07-.013-.028.037-.1.069-.135.113-.127.22-.061.32.015.05.037.132.059.119.152" transform="translate(-474.828 -22.321)"/><path class="ab" d="M1273.884-95.258c-.17.019-.345.126-.465-.04-.013-.023.069-.164.132-.188.195-.073.251.1.333.228" transform="translate(-478.461 -22.313)"/><path class="x" d="M1259.259-95.242h-.509c.157-.291.157-.291.509,0" transform="translate(-473.006 -22.329)"/><path class="ac" d="M1254.366-95.251h-.446c.157-.27.157-.27.446,0" transform="translate(-471.21 -22.331)"/><path class="ad" d="M1277.772-82.99a1.045,1.045,0,0,0-.081-.09,1.2,1.2,0,0,1,.019-.157.491.491,0,0,1,.075-.1c.126.131.057.24-.013.348" transform="translate(-480.05 -26.837)"/><path class="ae" d="M1248.873-82.384c-.019.056-.044.112-.069.169a.523.523,0,0,1-.063-.4c.113.043.113.144.132.231" transform="translate(-469.279 -27.106)"/><path class="af" d="M1233.931-45.527c-.823.071-1.627.238-2.437.385-.264.048-.465.059-.546-.262-.075-.3-.3-.589.163-.8.515-.244,1-.55,1.507-.816.12-.064.226-.1.151-.263.031-.078.107-.109.176-.161a.472.472,0,0,1-.182.059c-.622.2-1.256.385-1.872.61-.346.127-.484.006-.565-.312-.081-.283-.188-.5.239-.628,1.319-.407,2.625-.854,3.938-1.3.345-.12.572-.1.616.319a.747.747,0,0,0,.05.16c.346,1.013.346,1.009-.628,1.507-.534.272-1.061.56-1.576.881a4.636,4.636,0,0,0,1.244-.149c.408-.075.823-.168,1.231-.262a.389.389,0,0,1,.54.351,3.263,3.263,0,0,0,.145.481c.308.808.276.7-.446.945-1.212.418-2.437.82-3.649,1.248-.3.107-.465.072-.553-.257-.082-.3-.258-.588.195-.749.817-.291,1.646-.54,2.437-.9.013-.192-.094-.1-.176-.072" transform="translate(-462.407 -39.576)"/><path class="af" d="M1229.529-49.993a1.128,1.128,0,0,1-.05-.173c-.22-1.112-.22-1.113.886-1.451.226-.07.458-.122.678-.207a.367.367,0,0,0,.239-.443c-.069-.221-.251-.092-.4-.058-.471.114-.948.224-1.426.348-.283.074-.433.018-.5-.3-.17-.749-.157-.8.578-.982,1.193-.3,2.393-.579,3.58-.894.408-.107.6-.02.678.4s.207.813.283,1.225a1.192,1.192,0,0,1-1.457,1.49.932.932,0,0,1-.609-.479c-.195.841-.835.964-1.5,1.073a2.487,2.487,0,0,0-.98.449" transform="translate(-461.893 -37.676)"/><path class="d" d="M1242.414-30.462c-1.112-.786-1.124-.888-.264-1.853a2.747,2.747,0,0,0,.421-.577.329.329,0,0,0-.12-.475c-.182-.128-.232.078-.314.172-.327.4-.66.8-.974,1.21-.188.247-.37.268-.6.074-.031-.027-.069-.05-.1-.075-.54-.4-.553-.479-.126-.989.842-1,1.689-1.984,2.531-2.983.226-.271.414-.317.684-.055.346.328.735.607,1.08.933A.945.945,0,0,1,1245-34a1.241,1.241,0,0,1-1.068.937c-.27.021-.383.058-.32.382.088.425-.2.738-.465,1.033a2.6,2.6,0,0,0-.735,1.184" transform="translate(-466.047 -44.373)"/><path class="af" d="M1268.609-27.063a.91.91,0,0,1,.917.768,6.474,6.474,0,0,0,.4,1.493c.057.107.013.182-.113.208-.264.052-.521.116-.779.17-.2.04-.308-.055-.4-.231a5.835,5.835,0,0,1-.3-1.175,2.156,2.156,0,0,0-.126-.441.315.315,0,0,0-.421-.173c-.2.065-.113.224-.088.353.113.491.22.982.345,1.47a.35.35,0,0,1-.3.491c-.684.182-.841.1-.992-.59-.27-1.257-.534-2.516-.81-3.772-.05-.235-.019-.388.232-.437.553-.105,1.1-.222,1.652-.3a.942.942,0,0,1,1.042.458,1.258,1.258,0,0,1,0,1.317c-.069.12-.163.228-.276.394" transform="translate(-475.679 -46.954)"/><path class="d" d="M1276.063-32.963a.42.42,0,0,1,.377.218,10.288,10.288,0,0,1,.609.855c.151.242.3.237.515.1.251-.156.126-.273.006-.429-.232-.3-.427-.623-.659-.923-.157-.209-.163-.373.063-.525a1.73,1.73,0,0,0,.226-.185c.308-.274.54-.2.76.121.578.857,1.174,1.706,1.765,2.558.214.311.421.628.647.929a.227.227,0,0,1-.057.38c-.063.039-.119.077-.176.118-.553.387-.609.379-.992-.169-.251-.354-.5-.708-.741-1.071-.119-.185-.232-.26-.439-.121s-.189.269-.057.452c.32.439.628.891.948,1.335.119.172.239.36-.013.494-.27.144-.5.537-.879.233a2.032,2.032,0,0,1-.314-.39c-.7-.978-1.407-1.956-2.1-2.939-.113-.161-.346-.321-.2-.547a1.355,1.355,0,0,1,.71-.494" transform="translate(-479.164 -45.18)"/><path class="af" d="M1252.546-28.355a3.342,3.342,0,0,1,.452,1.627,1.315,1.315,0,0,1-1.394,1.3,2.134,2.134,0,0,1-1.3-.516,1.478,1.478,0,0,1-.019-1.843.291.291,0,0,1,.27-.075,1.436,1.436,0,0,1,.836.331c.17.248-.031.452-.082.674-.025.119-.107.278.057.328s.232-.12.276-.252c.094-.311-.176-.552-.169-.846-.12-.237-.226-.477-.346-.709a1.487,1.487,0,0,1,.207-1.945,1.75,1.75,0,0,1,2.129.158,1.43,1.43,0,0,1,.144,1.9c-.1.12-.195.069-.3.031-.245-.092-.5-.182-.741-.273-.145-.126-.094-.28-.063-.428a2.86,2.86,0,0,0,.082-.324c.019-.142.031-.316-.151-.334-.207-.02-.239.169-.239.323-.013.343.257.579.352.883" transform="translate(-469.741 -46.46)"/><path class="d" d="M1286.181-34.537a1.041,1.041,0,0,1-.772-.254,16.007,16.007,0,0,1-2.236-1.835,1.023,1.023,0,0,1-.163-1.435,2.335,2.335,0,0,1,.647-.71,1.039,1.039,0,0,1,1.287-.07c.766.535,1.545,1.072,2.255,1.677a1.6,1.6,0,0,1-.521,2.586,1.793,1.793,0,0,1-.5.043" transform="translate(-481.947 -43.315)"/><path class="af" d="M1228.387-57.44c-.107.022-.22.041-.327.067-.559.132-.854-.138-.8-.717.013-.156.094-.173.214-.19q2.2-.317,4.4-.64c.245-.036.421.053.458.311.057.4.408.747.27,1.159-.157.454-.672.387-1.018.579s-.7.338-1.043.527c-.088.048-.421-.007-.188.291.044.057-.119.091-.182.116-.553.2-1.105.4-1.652.6-.258.092-.44.062-.49-.249a1.462,1.462,0,0,0-.113-.359.381.381,0,0,1,.245-.566c.138-.058.283-.12.421-.185.188-.09.339-.2.245-.451-.075-.208-.182-.345-.433-.291" transform="translate(-461.291 -35.916)"/><path class="af" d="M1289.72-53.4a2.228,2.228,0,0,1,.044-.344,1.408,1.408,0,0,1,1.953-.983c.05.02.119.053.132.091a1.468,1.468,0,0,1-.163.845c-.075.191-.257.19-.427.19a1.833,1.833,0,0,1-.289-.025c-.195-.031-.352,0-.37.224-.019.206.132.3.308.336.892.178,1.777.355,2.676.519.163.031.383.092.446-.169s-.157-.323-.333-.408a.539.539,0,0,0-.119-.025c-.672-.139-.8-.426-.465-1.046a.271.271,0,0,1,.333-.173,3.309,3.309,0,0,1,.986.348,1.037,1.037,0,0,1,.521.986,2.262,2.262,0,0,1-.465,1.28,1.008,1.008,0,0,1-.993.42c-.9-.12-1.79-.3-2.676-.51-.817-.189-1.105-.59-1.1-1.554" transform="translate(-484.524 -37.433)"/><path class="af" d="M1260.874-23.942c.22-1.532.421-2.971.628-4.408.031-.233.195-.32.421-.322.32,0,.641-.006.961-.026.251-.015.346.1.377.337q.3,2.138.609,4.273c.038.28.075.546-.358.376a.3.3,0,0,0-.125,0c-.591.058-.691-.026-.7-.645-.006-.26.006-.528-.358-.541-.239-.009-.414.061-.421.346,0,.125-.038.251-.031.375.019.428-.214.54-.6.547-.32.006-.446-.09-.4-.314" transform="translate(-473.792 -47.158)"/><path class="af" d="M1275.233-27.3a1.584,1.584,0,0,1-1.281,1.464,1.2,1.2,0,0,1-1.495-.823c-.371-.876-.722-1.758-1.074-2.64a.759.759,0,0,1,.3-1.056,3.134,3.134,0,0,1,.779-.483,1.427,1.427,0,0,1,1.872.944c.063.211.038.352-.182.429a1.543,1.543,0,0,0-.226.111c-.609.328-.609.328-.867-.325-.075-.183-.151-.409-.4-.329-.27.084-.245.328-.163.528.345.84.7,1.674,1.061,2.506.069.157.195.293.4.218s.214-.268.164-.454c-.044-.134-.1-.262-.145-.393a.375.375,0,0,1,.233-.561c.773-.326,1.005-.14,1.024.864" transform="translate(-477.668 -46.328)"/><path class="af" d="M1246.928-27.436c-.05-.027-.113-.056-.176-.091-.528-.313-1.055-.632-1.589-.937-.195-.111-.2-.229-.1-.409q1.083-1.888,2.167-3.783c.132-.237.282-.261.509-.128.509.3,1.024.576,1.539.864.163.092.352.194.144.405-.157.158-.157.638-.584.312a1.184,1.184,0,0,0-.32-.2c-.164-.064-.277-.361-.49-.184a1.07,1.07,0,0,0-.408.757c0,.233.333.3.528.411s.352.181.276.44c-.126.43-.251.481-.635.241-.609-.381-.678-.366-1.036.242-.05.084-.1.168-.151.253-.27.5-.251.552.251.842a1.555,1.555,0,0,1,.339.238.4.4,0,0,1,.063.47.387.387,0,0,1-.327.249" transform="translate(-467.892 -45.609)"/><path class="af" d="M1257.431-27.58a.319.319,0,0,0,.314.368c.151.019.3.05.452.076.22.038.377.127.32.389-.05.237-.119.412-.433.382-.9-.085-.9-.075-1.055.809-.1.574-.044.644.547.7.5.05.615.162.54.529-.057.252-.182.359-.446.309-.552-.106-1.1-.212-1.652-.3-.27-.041-.358-.164-.314-.425q.358-2.089.7-4.181c.044-.3.17-.4.484-.333.6.131,1.206.238,1.809.335.2.032.251.131.182.282s.063.476-.289.456a3.956,3.956,0,0,1-.415-.062c-.634-.105-.754,0-.741.66" transform="translate(-471.869 -46.945)"/><path class="af" d="M1292.88-58.623c.17.023.226-.083.276-.208a5.491,5.491,0,0,1,.22-.543.442.442,0,0,1,.609-.212c.251.106.157.31.094.5-.251.766-.245.767.509,1.073a3.509,3.509,0,0,0,.352.141.407.407,0,0,0,.578-.308c.038-.149.075-.3.119-.445.082-.313.276-.257.521-.188.289.081.264.233.188.439-.214.562-.427,1.123-.628,1.689-.082.236-.195.289-.44.2-1.344-.508-2.695-1-4.051-1.494-.232-.085-.3-.188-.188-.437.214-.529.4-1.07.584-1.612.119-.34.32-.3.6-.213.352.109.182.3.126.488-.031.093-.069.184-.1.277-.17.552.056.85.634.853" transform="translate(-484.997 -35.405)"/><path class="af" d="M1237.481-40.1c.4-.147.81-.295,1.212-.44.352-.125.967.375.911.742-.025.159-.163.165-.283.2-.527.134-1.055.272-1.583.41a7.061,7.061,0,0,0-2.393,1.072c-.27.2-.446.2-.634-.113-.4-.652-.4-.722.283-1.071a5.077,5.077,0,0,0,1.507-1.31c.421-.489.842-.975,1.262-1.464.207-.246.37-.222.553.051.364.563.371.561-.107,1.039-.264.266-.521.541-.779.812Z" transform="translate(-463.966 -42.12)"/><path class="af" d="M1286.687-43.162c.465.019.622.276.446.649l-.094.188c-.3.587-.195.816.44,1a.241.241,0,0,0,.308-.148c.075-.147.157-.3.226-.45.107-.249.258-.41.546-.264.258.129.4.306.214.6a2.414,2.414,0,0,0-.138.3.457.457,0,0,0,.22.638c.4.223.8.448,1.206.681.157.093.32.207.264.428a1.292,1.292,0,0,1-.421.749c-.088.07-.214-.009-.314-.063q-1.865-.993-3.743-1.982c-.3-.157-.37-.366-.151-.642a6.682,6.682,0,0,0,.553-1.216c.107-.205.195-.444.44-.476" transform="translate(-482.98 -41.779)"/><path class="af" d="M1292.05-43.445c-.107-.03-.22-.056-.32-.09-1.25-.406-2.493-.821-3.743-1.216-.371-.118-.484-.288-.327-.674a12.756,12.756,0,0,0,.5-1.508c.094-.327.264-.28.509-.206s.389.154.257.433a1.89,1.89,0,0,0-.107.316c-.176.531.025.8.59.827a.261.261,0,0,0,.3-.221c.038-.162.126-.314.157-.477.05-.314.195-.364.5-.275s.352.205.258.494c-.264.831-.251.835.59,1.109.358.117.716.244,1.08.336.251.064.308.2.245.429-.044.161-.088.322-.138.482a.31.31,0,0,1-.352.241" transform="translate(-483.732 -40.28)"/><path class="af" d="M1293.464-47.473l-.911-.255c-1.061-.3-2.129-.589-3.19-.889-.17-.048-.408-.081-.384-.312a1.851,1.851,0,0,1,.258-.867c.057-.078.157,0,.233.017l4.171,1.113c.251.066.427.195.326.473s-.013.687-.5.72" transform="translate(-484.248 -39.299)"/><path class="ag" d="M1253.787-27.852a2.059,2.059,0,0,1-.408-.564.652.652,0,0,1-.013-.562c.069-.178.182-.279.377-.237s.207.195.213.356c.006.306-.245.568-.151.888-.006.04-.012.079-.019.119" transform="translate(-470.982 -46.963)"/><path class="ah" d="M1252.162-25.886c.214.311.421.622.232,1.026-.082.174-.182.331-.408.238-.195-.082-.176-.236-.126-.417a2.251,2.251,0,0,0,.22-.75c.025-.032.056-.065.081-.1" transform="translate(-470.431 -48.204)"/><path class="ai" d="M1234.25-46.5a.572.572,0,0,1,.452-.19c-.1.238-.314.2-.446.293a.547.547,0,0,1-.006-.1" transform="translate(-463.894 -40.468)"/><path class="aj" d="M1236.11-43.465a.558.558,0,0,1,.408-.067c-.044.114-.144.12-.232.139l-.176-.072" transform="translate(-464.586 -41.638)"/><path class="ak" d="M1261.45-101.747a4.221,4.221,0,0,0,.917-1.638.947.947,0,0,1,.094,1.039,1.029,1.029,0,0,1-1.011.6" transform="translate(-474.01 -19.382)"/><path class="s" d="M1235.165-51.886a.4.4,0,0,1-.358.434c-.276.062-.559.182-.773-.1-.126-.167-.113-.343.144-.405.232-.055.465-.112.685-.185.251-.083.289.064.3.254" transform="translate(-463.785 -38.431)"/><path class="l" d="M1245.533-33.775a1.154,1.154,0,0,1-.5.693.361.361,0,0,1-.427-.043c-.138-.085-.2-.176-.044-.327s.308-.36.465-.538c.082-.091.151-.24.3-.18s.17.237.2.4" transform="translate(-467.697 -45.118)"/><path class="s" d="M1268.708-27.211a.475.475,0,0,1-.245.463c-.138.063-.289.116-.327-.14a4.8,4.8,0,0,0-.176-.727c-.037-.137-.125-.26.095-.321.176-.048.339-.071.446.1a1.854,1.854,0,0,1,.207.621" transform="translate(-476.413 -47.43)"/><path class="h" d="M1287.349-35.247a.309.309,0,0,1-.515.276c-.772-.575-1.526-1.173-2.274-1.777-.132-.1-.3-.261-.138-.465a.336.336,0,0,1,.515-.051c.779.592,1.545,1.2,2.311,1.8a.254.254,0,0,1,.1.22" transform="translate(-482.53 -43.937)"/><path class="y" d="M1232.31-57.2c-.364.162-.729.325-1.093.486-.113.05-.226.051-.276-.087s.019-.228.17-.267a2.457,2.457,0,0,1,1.2-.132" transform="translate(-462.657 -36.545)"/><path class="y" d="M1263.029-26.674l.151,1.413c.013.148.075.324-.17.342-.27.019-.239-.172-.232-.339q.056-.708.113-1.417c.044-.061.088-.061.138,0" transform="translate(-474.503 -47.894)"/><path class="al" d="M1263.089-26.775h-.138c-.019-.082-.038-.21.044-.215.157-.01.1.125.094.216" transform="translate(-474.562 -47.793)"/></g></svg>