<svg xmlns="http://www.w3.org/2000/svg" xmlns:xlink="http://www.w3.org/1999/xlink" width="800" height="1200" viewBox="0 0 800 1200"><defs><clipPath id="a"><rect width="38" height="38"/></clipPath><clipPath id="c"><rect width="235" height="24.998"/></clipPath><clipPath id="d"><rect width="800" height="1200"/></clipPath></defs><g id="g" clip-path="url(#d)"><path d="M307.778,421.08h-8.505v-8.5a1,1,0,0,0-2,0v8.5h-8.505a1,1,0,1,0,0,2h8.505v8.505a1,1,0,0,0,2,0V423.08h8.505a1,1,0,0,0,0-2Z" transform="translate(-215.768 -310.58)" fill="#232221"/><g transform="translate(11 141)" clip-path="url(#a)"><g transform="translate(8423 21976)"><circle cx="18.637" cy="18.637" r="18.637" transform="translate(-8422.637 -21975.637)" fill="#242120"/><path d="M1,4.959,5.9,10.04,14.59,1" transform="translate(-8411.404 -21961.801)" fill="none" stroke="#fff" stroke-linecap="round" stroke-linejoin="round" stroke-miterlimit="10" stroke-width="2"/></g></g><g transform="translate(59 141)" clip-path="url(#a)"><g transform="translate(8423 21976)"><circle cx="18.637" cy="18.637" r="18.637" transform="translate(-8422.637 -21975.637)" fill="#fd4646"/><path d="M1,4.959,5.9,10.04,14.59,1" transform="translate(-8411.404 -21961.801)" fill="none" stroke="#fff" stroke-linecap="round" stroke-linejoin="round" stroke-miterlimit="10" stroke-width="2"/></g></g><g transform="translate(6377 22955)"><circle cx="17.5" cy="17.5" r="17.5" transform="translate(-6270 -22814)" fill="#fff" opacity="0"/><path d="M1,5.37l5.413,5.608L16,1" transform="translate(-6260.5 -22802.5)" fill="none" stroke="#fff" stroke-linecap="round" stroke-linejoin="round" stroke-miterlimit="10" stroke-width="2"/></g><g transform="translate(6368 22955)"><circle cx="17.5" cy="17.5" r="17.5" transform="translate(-6207 -22814)" fill="#fff" opacity="0"/><path d="M1,5.37l5.413,5.608L16,1" transform="translate(-6197.5 -22802.5)" fill="none" stroke="#2f2d2c" stroke-linecap="round" stroke-linejoin="round" stroke-miterlimit="10" stroke-width="2"/></g><g transform="translate(6422 22955)"><circle cx="17.5" cy="17.5" r="17.5" transform="translate(-6207 -22814)" fill="#fff" opacity="0"/><path d="M1,5.37l5.413,5.608L16,1" transform="translate(-6197.5 -22802.5)" fill="none" stroke="#fd4646" stroke-linecap="round" stroke-linejoin="round" stroke-miterlimit="10" stroke-width="2"/></g><g transform="translate(-548.584 -627.296)"><line x2="14" y2="14" transform="translate(574.584 843.296) rotate(180)" fill="none" stroke="#2c8dff" stroke-linecap="round" stroke-linejoin="round" stroke-miterlimit="10" stroke-width="2"/><line y1="14" x2="14" transform="translate(574.584 843.296) rotate(180)" fill="none" stroke="#2c8dff" stroke-linecap="round" stroke-linejoin="round" stroke-miterlimit="10" stroke-width="2"/></g><g transform="translate(104 222) rotate(180)"><line x2="20" y2="20" fill="none" stroke="#fff" stroke-linecap="round" stroke-linejoin="round" stroke-miterlimit="10" stroke-width="2"/><line y1="20" x2="20" fill="none" stroke="#fff" stroke-linecap="round" stroke-linejoin="round" stroke-miterlimit="10" stroke-width="2"/></g><g transform="translate(-545.54 -2574.575)"><path d="M617.994,3085.5a13.041,13.041,0,0,1-6.738-1.89,13.507,13.507,0,0,1-4.848-5.012,14.077,14.077,0,0,1,0-13.8,13.5,13.5,0,0,1,4.848-5.012,13.039,13.039,0,0,1,6.738-1.89,14.09,14.09,0,0,1,4.519.74,11.867,11.867,0,0,1,3.944,2.3,1.011,1.011,0,0,1,.411.822,1.169,1.169,0,0,1-.164.493,2.385,2.385,0,0,0-.74.739,1.164,1.164,0,0,1-.493.165.952.952,0,0,1-.822-.329,7.612,7.612,0,0,0-2.958-1.725,11.572,11.572,0,0,0-3.7-.575,9.906,9.906,0,0,0-5.423,1.561,11.455,11.455,0,0,0-5.423,9.7,11.447,11.447,0,0,0,1.479,5.669,10.537,10.537,0,0,0,3.944,4.108,9.824,9.824,0,0,0,5.423,1.479,10.939,10.939,0,0,0,6.82-2.383,1.327,1.327,0,0,1,.74-.246,1.721,1.721,0,0,1,.9.329,1.361,1.361,0,0,1,.411.986,1.515,1.515,0,0,1-.411.986A12.68,12.68,0,0,1,617.994,3085.5Zm26.953,0a14.144,14.144,0,0,1-7.067-1.807,12.917,12.917,0,0,1-4.93-4.929,14.713,14.713,0,0,1,0-14.132,12.917,12.917,0,0,1,4.93-4.93,14.717,14.717,0,0,1,14.134,0,12.916,12.916,0,0,1,4.93,4.93,14.713,14.713,0,0,1,0,14.132,12.917,12.917,0,0,1-4.93,4.929,13.538,13.538,0,0,1-7.067,1.807Zm0-2.547a11.453,11.453,0,0,0,5.67-1.479,10.9,10.9,0,0,0,3.944-4.026,11.532,11.532,0,0,0,1.479-5.751,11.991,11.991,0,0,0-1.479-5.751,9.517,9.517,0,0,0-4.027-4.026,11.457,11.457,0,0,0-5.67-1.479,12,12,0,0,0-5.752,1.479,11.8,11.8,0,0,0-4.026,4.026,11.532,11.532,0,0,0-1.479,5.751,11.757,11.757,0,0,0,1.479,5.751,9.516,9.516,0,0,0,4.026,4.026,11.221,11.221,0,0,0,5.834,1.479Zm27.61,2.547a11.991,11.991,0,0,1-5.834-1.4,8.065,8.065,0,0,1-3.616-3.779,1.186,1.186,0,0,1-.164-.575,1.461,1.461,0,0,1,.329-.822,1.435,1.435,0,0,1,.986-.328,1.146,1.146,0,0,1,.74.247,2.212,2.212,0,0,1,.575.657,5.479,5.479,0,0,0,2.63,2.465,9.588,9.588,0,0,0,4.273.986,6.884,6.884,0,0,0,4.52-1.4,4.486,4.486,0,0,0,1.726-3.779,4.988,4.988,0,0,0-1.643-3.7,8.1,8.1,0,0,0-4.848-1.889,11.833,11.833,0,0,1-6.327-2.465,6.4,6.4,0,0,1-2.3-4.93,5.751,5.751,0,0,1,1.15-3.615,7.407,7.407,0,0,1,3.123-2.383,10.523,10.523,0,0,1,4.52-.822,9.586,9.586,0,0,1,4.766,1.232,8.356,8.356,0,0,1,3.2,3.122,1.583,1.583,0,0,1,.247.822,1.282,1.282,0,0,1-.657,1.068,1.547,1.547,0,0,1-.657.164,2.4,2.4,0,0,1-.74-.164,1.922,1.922,0,0,1-.575-.575,6.4,6.4,0,0,0-5.834-3.04,7.657,7.657,0,0,0-4.437,1.15,3.882,3.882,0,0,0-1.643,3.369c0,2.711,2.136,4.354,6.492,4.93a11.582,11.582,0,0,1,6.409,2.629,7.066,7.066,0,0,1,2.136,5.258,8.231,8.231,0,0,1-1.15,4.19,7.9,7.9,0,0,1-3.2,2.711A10.707,10.707,0,0,1,672.557,3085.5Zm40.182-27.277a1.319,1.319,0,0,1,.9.411,1.36,1.36,0,0,1,.411.986v24.237a1.706,1.706,0,0,1-.411.986,1.318,1.318,0,0,1-.9.411,1.515,1.515,0,0,1-.986-.411,1.359,1.359,0,0,1-.411-.986v-19.554l-9.614,19.636a1.312,1.312,0,0,1-1.15.657,1.264,1.264,0,0,1-1.233-.822l-9.532-19.143v19.225a1.705,1.705,0,0,1-.411.986,1.36,1.36,0,0,1-.986.411,1.515,1.515,0,0,1-.986-.411,1.359,1.359,0,0,1-.411-.986v-24.237a1.515,1.515,0,0,1,.411-.986,1.361,1.361,0,0,1,.986-.411,1.449,1.449,0,0,1,1.233.658l11.011,21.937,10.847-21.937A1.449,1.449,0,0,1,712.739,3058.226Zm20.625,27.277a14.144,14.144,0,0,1-7.067-1.807,12.917,12.917,0,0,1-4.93-4.929,14.713,14.713,0,0,1,0-14.132,12.917,12.917,0,0,1,4.93-4.93,14.718,14.718,0,0,1,14.134,0,12.917,12.917,0,0,1,4.93,4.93,14.713,14.713,0,0,1,0,14.132,12.917,12.917,0,0,1-4.93,4.929A13.154,13.154,0,0,1,733.365,3085.5Zm0-2.547a11.453,11.453,0,0,0,5.67-1.479,11.8,11.8,0,0,0,4.026-4.026,11.53,11.53,0,0,0,1.479-5.751,11.989,11.989,0,0,0-1.479-5.751,9.516,9.516,0,0,0-4.026-4.026,11.456,11.456,0,0,0-5.67-1.479,12,12,0,0,0-5.752,1.479,11.8,11.8,0,0,0-4.026,4.026,11.533,11.533,0,0,0-1.479,5.751,11.757,11.757,0,0,0,1.479,5.751,9.515,9.515,0,0,0,4.026,4.026A11.131,11.131,0,0,0,733.365,3082.956Zm27.61,2.547a11.991,11.991,0,0,1-5.834-1.4,8.065,8.065,0,0,1-3.616-3.779,1.186,1.186,0,0,1-.164-.575,1.461,1.461,0,0,1,.329-.822,1.435,1.435,0,0,1,.986-.328,1.146,1.146,0,0,1,.74.247,2.211,2.211,0,0,1,.575.657,5.479,5.479,0,0,0,2.63,2.465,9.587,9.587,0,0,0,4.273.986,6.884,6.884,0,0,0,4.52-1.4,4.485,4.485,0,0,0,1.726-3.779,4.988,4.988,0,0,0-1.643-3.7,8.1,8.1,0,0,0-4.848-1.889,11.314,11.314,0,0,1-6.327-2.547,6.4,6.4,0,0,1-2.3-4.93,5.754,5.754,0,0,1,1.15-3.615,7.413,7.413,0,0,1,3.123-2.382,10.534,10.534,0,0,1,4.519-.822,9.585,9.585,0,0,1,4.766,1.233,8.359,8.359,0,0,1,3.2,3.122,1.585,1.585,0,0,1,.246.822,1.283,1.283,0,0,1-.657,1.068,1.55,1.55,0,0,1-.657.164,2.411,2.411,0,0,1-.74-.164,1.92,1.92,0,0,1-.575-.575,6.4,6.4,0,0,0-5.834-3.04,7.651,7.651,0,0,0-4.437,1.15,3.882,3.882,0,0,0-1.643,3.369c0,2.711,2.136,4.354,6.492,4.93a11.573,11.573,0,0,1,6.409,2.629,7.065,7.065,0,0,1,2.136,5.258,8.231,8.231,0,0,1-1.15,4.19,7.9,7.9,0,0,1-3.2,2.711A9.134,9.134,0,0,1,760.975,3085.5Z" transform="translate(-13.823 -1.309)" fill="#fff"/><path d="M576.1,3056.667a6.916,6.916,0,0,1,3.387.957,8.692,8.692,0,0,1,2.8,2.356,8.024,8.024,0,0,1,1.694,2.872,5.992,5.992,0,0,1,.295,3.019,6.277,6.277,0,0,1-1.62,3.534c-.147.147-.295.368-.442.515a.8.8,0,0,0-.147.81.736.736,0,0,0,.295.368,5.548,5.548,0,0,1,.81,1.031c.074.147.147.221.221.368a6.655,6.655,0,0,1,.074,6.627,10.864,10.864,0,0,1-2.651,3.166,6.631,6.631,0,0,1-2.5,1.473,6.284,6.284,0,0,1-3.682.294,7.215,7.215,0,0,1-2.357-.957,8.452,8.452,0,0,1-1.252-1.031.669.669,0,0,0-.516-.221.837.837,0,0,0-.589.221l-1.1.884c-.074.074-.221.147-.295.221a6.653,6.653,0,0,1-6.628.221,11.269,11.269,0,0,1-2.946-2.282,8.568,8.568,0,0,1-1.988-3.24,6.312,6.312,0,0,1-.221-3.313,6.236,6.236,0,0,1,1.031-2.5v-.073a6.872,6.872,0,0,1,.957-1.1.69.69,0,0,0,.147-.81,1.291,1.291,0,0,0-.295-.368l-.884-1.1a7.108,7.108,0,0,1-1.1-3.019,6.46,6.46,0,0,1,.663-3.682,9.146,9.146,0,0,1,2.136-2.872,8.978,8.978,0,0,1,3.019-1.988,7.353,7.353,0,0,1,3.093-.442,7.109,7.109,0,0,1,3.019,1.1,7.4,7.4,0,0,1,1.178.957.69.69,0,0,0,.81.147,1.29,1.29,0,0,0,.368-.294l1.1-.883a15.082,15.082,0,0,1,4.124-.957Zm-10.31,10.676a1.22,1.22,0,0,1,.884.368c1.841.662,2.062,4.933,0,5.522a1.359,1.359,0,0,1-1.178.368c-.147-.074-.295-.074-.442-.221a2.119,2.119,0,0,0-1.473-.368,2.038,2.038,0,0,0-1.694,1.62,2.906,2.906,0,0,0,.295,1.546,5.322,5.322,0,0,0,1.252,1.62,4.98,4.98,0,0,0,1.915,1.325,2.7,2.7,0,0,0,1.325.074,2.074,2.074,0,0,0,1.4-1.693,2.222,2.222,0,0,0-.368-1.4.072.072,0,0,0-.074-.074,1.336,1.336,0,0,1,.221-1.473c.736-2.209,5.008-1.693,5.523,0a1.358,1.358,0,0,1,.368,1.178c-.074.147-.074.294-.221.442a2.355,2.355,0,0,0-.368,1.4,1.818,1.818,0,0,0,.884,1.4,1.985,1.985,0,0,0,1.1.368,2.424,2.424,0,0,0,1.4-.442,5.439,5.439,0,0,0,1.694-1.473,4.986,4.986,0,0,0,1.031-1.693,2.506,2.506,0,0,0,0-1.473,2.032,2.032,0,0,0-.884-1.031,1.709,1.709,0,0,0-1.178-.221,2.476,2.476,0,0,0-1.031.368.072.072,0,0,0-.074.074,1.335,1.335,0,0,1-1.473-.221c-2.209-.515-2.062-4.86,0-5.522a1.359,1.359,0,0,1,1.178-.368,5.674,5.674,0,0,0,1.915.515,2.037,2.037,0,0,0,1.694-1.62,2.908,2.908,0,0,0-.295-1.546,5.324,5.324,0,0,0-1.252-1.62,4.743,4.743,0,0,0-2.062-1.325,1.826,1.826,0,0,0-1.252,0,2.073,2.073,0,0,0-1.4,1.693,2.223,2.223,0,0,0,.368,1.4v.073a1.239,1.239,0,0,1-.221,1.546c-.589,1.693-4.86,1.767-5.523,0a1.358,1.358,0,0,1-.368-1.178c.074-.147.074-.294.221-.442a2.356,2.356,0,0,0,.368-1.4,1.818,1.818,0,0,0-.884-1.4,1.984,1.984,0,0,0-1.1-.368,3.092,3.092,0,0,0-1.62.589,8.284,8.284,0,0,0-1.473,1.326,4.988,4.988,0,0,0-1.031,1.693,2.019,2.019,0,0,0,1.178,2.577.933.933,0,0,0,.442.074,2.117,2.117,0,0,0,1.473-.368.072.072,0,0,0,.074-.073A1.453,1.453,0,0,1,565.789,3067.343Z" transform="translate(0 0)" fill="#fff" fill-rule="evenodd"/></g><g transform="translate(-76 289)"><circle cx="2" cy="2" r="2" transform="translate(87 2)" fill="#fff"/><circle cx="2" cy="2" r="2" transform="translate(87 8)" fill="#fff"/><circle cx="2" cy="2" r="2" transform="translate(87 14)" fill="#fff"/><circle cx="2" cy="2" r="2" transform="translate(92.727 2)" fill="#fff"/><circle cx="2" cy="2" r="2" transform="translate(92.727 8)" fill="#fff"/><circle cx="2" cy="2" r="2" transform="translate(92.727 14)" fill="#fff"/><circle cx="2" cy="2" r="2" transform="translate(98.727 2)" fill="#fff"/><circle cx="2" cy="2" r="2" transform="translate(98.727 8)" fill="#fff"/><circle cx="2" cy="2" r="2" transform="translate(98.727 14)" fill="#fff"/></g><g transform="translate(39 334.985)"><path d="M5.543-14v7.175a1.94,1.94,0,0,0,1.731,2.1h8.87a1.94,1.94,0,0,0,1.731-2.1V-14" transform="translate(-2.673 22.379)" fill="none" stroke="#fff" stroke-linecap="round" stroke-linejoin="round" stroke-width="2"/><path d="M10.027-21.64,1-14.672" transform="translate(-1 24.655)" fill="none" stroke="#fff" stroke-linecap="round" stroke-linejoin="round" stroke-width="2"/><path d="M15.32-21.64l9.027,6.968" transform="translate(-6.275 24.655)" fill="none" stroke="#fff" stroke-linecap="round" stroke-linejoin="round" stroke-width="2"/></g><path d="M14.925,1.351a4.278,4.278,0,0,0-6.193,0l-.609.624-.609-.624a4.305,4.305,0,0,0-6.193,0,4.564,4.564,0,0,0,0,6.344l6.8,6.968,6.8-6.968a4.534,4.534,0,0,0,0-6.344" transform="translate(64.961 337.975)" fill="none" stroke="#fff" stroke-linecap="round" stroke-width="2" fill-rule="evenodd"/><g transform="translate(-81 289)"><g transform="translate(125 3)" fill="#fff" stroke="#fff" stroke-width="1"><rect width="16" height="2" rx="1" stroke="none"/><rect x="0.5" y="0.5" width="15" height="1" rx="0.5" fill="none"/></g><g transform="translate(125 9)" fill="#fff" stroke="#fff" stroke-width="1"><rect width="16" height="2" rx="1" stroke="none"/><rect x="0.5" y="0.5" width="15" height="1" rx="0.5" fill="none"/></g><g transform="translate(125 15)" fill="#fff" stroke="#fff" stroke-width="1"><rect width="16" height="2" rx="1" stroke="none"/><rect x="0.5" y="0.5" width="15" height="1" rx="0.5" fill="none"/></g><circle cx="2" cy="2" r="2" transform="translate(118 2)" fill="#fff"/><circle cx="2" cy="2" r="2" transform="translate(118 8)" fill="#fff"/><circle cx="2" cy="2" r="2" transform="translate(118 14)" fill="#fff"/></g><g transform="translate(74.03 291)"><path d="M.913,16.786a.913.913,0,1,1,0-1.825H11.554a.913.913,0,1,1,0,1.825Zm0-7.48a.913.913,0,0,1,0-1.826H19.035a.913.913,0,1,1,0,1.826Zm0-7.48A.913.913,0,1,1,.913,0H19.035a.913.913,0,1,1,0,1.826Z" fill="#fff"/></g><path d="M1.414,3.719l9.977-9.94" transform="translate(11.586 461.311)" fill="none" stroke="#fff" stroke-linecap="round" stroke-linejoin="round" stroke-width="3"/><path d="M21.837-20.942A18.17,18.17,0,0,1,39.819-2.606,18.17,18.17,0,0,1,21.837,15.731,18.17,18.17,0,0,1,3.855-2.606,18.17,18.17,0,0,1,21.837-20.942Z" transform="translate(14.211 444.942)" fill="none" stroke="#fff" stroke-linecap="round" stroke-width="3"/><g transform="translate(72 7)"><path d="M1.414-.147l6.1-6.074" transform="translate(11.586 449.22)" fill="none" stroke="#fff" stroke-linecap="round" stroke-linejoin="round" stroke-width="2"/><path d="M14.843-20.942a11.1,11.1,0,0,1,10.988,11.2,11.1,11.1,0,0,1-10.988,11.2A11.1,11.1,0,0,1,3.855-9.737a11.1,11.1,0,0,1,10.988-11.2Z" transform="translate(12.241 444.942)" fill="none" stroke="#fff" stroke-linecap="round" stroke-width="2"/></g><g transform="translate(12.007 335.096)"><path d="M10.7-27.9a6.21,6.21,0,0,0-4.742,1.781A6.21,6.21,0,0,0,4.12-21.4c0,4.714,6.58,8.5,6.58,8.5s6.58-3.283,6.58-8.5a6.21,6.21,0,0,0-1.838-4.719A6.21,6.21,0,0,0,10.7-27.9Z" transform="translate(2.186 30.818)" fill="none" stroke="#fff" stroke-width="2"/><path d="M29.123-27.221a7.291,7.291,0,0,0-3.154-.681,6.21,6.21,0,0,0-4.742,1.781A6.21,6.21,0,0,0,19.389-21.4c0,4.714,6.58,8.5,6.58,8.5a16.726,16.726,0,0,0,3.257-2.266c-1.72-1.55-3.528-3.767-3.528-6.239a6.105,6.105,0,0,1,3.425-5.814Z" transform="translate(-19.389 30.818)" fill="none" stroke="#fff" stroke-width="2"/></g><path d="M12.623-27.9c-4.694,0-8.5,2.979-8.5,8.23,0,5.971,8.5,10.77,8.5,10.77s8.5-4.159,8.5-10.771C21.123-24.921,17.317-27.9,12.623-27.9Z" transform="translate(67.877 268.9)" fill="none" stroke="#fff" stroke-width="2"/><path d="M12.623-27.9c-4.694,0-8.5,2.979-8.5,8.23,0,5.971,8.5,10.77,8.5,10.77s8.5-4.159,8.5-10.771C21.123-24.921,17.317-27.9,12.623-27.9Z" transform="translate(297.877 268.9)" fill="none" stroke="#fff" stroke-width="2"/><g transform="translate(-92 -1)"><path d="M12.192-27.9a9.629,9.629,0,0,0-2.71.4c-2.989.814-5.36,3.577-5.36,7.831,0,3.445,2.686,6.5,5.181,8.658A22.6,22.6,0,0,0,12.192-8.9s8.069-4.159,8.069-10.771C20.262-24.921,16.649-27.9,12.192-27.9Z" transform="translate(368.877 269.9)" fill="none" stroke="#fff" stroke-width="2"/><path d="M12.192-27.9c-4.456,0-8.069,2.979-8.069,8.23,0,5.971,8.069,10.77,8.069,10.77a21.335,21.335,0,0,0,3.123-2.114c2.08-1.646,4.946-4.716,4.946-8.656C20.262-24.921,16.649-27.9,12.192-27.9Z" transform="translate(362.877 269.9)" fill="none" stroke="#fff" stroke-width="2"/></g><g transform="translate(11 11)"><rect width="235" height="24.998" fill="none"/></g><g transform="translate(175.881 464.881) rotate(180)"><line x2="38.881" y2="38.881" fill="none" stroke="#fff" stroke-linecap="round" stroke-linejoin="round" stroke-miterlimit="10" stroke-width="3"/><line y1="38.881" x2="38.881" fill="none" stroke="#fff" stroke-linecap="round" stroke-linejoin="round" stroke-miterlimit="10" stroke-width="3"/></g><g transform="translate(222.525 456.08) rotate(180)"><line x2="24.724" y2="24.724" fill="none" stroke="#fff" stroke-linecap="round" stroke-linejoin="round" stroke-miterlimit="10" stroke-width="2"/><line y1="24.724" x2="24.724" fill="none" stroke="#fff" stroke-linecap="round" stroke-linejoin="round" stroke-miterlimit="10" stroke-width="2"/></g><g transform="translate(278.525 456.08) rotate(180)"><line x2="24.724" y2="24.724" fill="none" stroke="#242120" stroke-linecap="round" stroke-linejoin="round" stroke-miterlimit="10" stroke-width="2"/><line y1="24.724" x2="24.724" fill="none" stroke="#242120" stroke-linecap="round" stroke-linejoin="round" stroke-miterlimit="10" stroke-width="2"/></g><g transform="translate(7 -2)"><path d="M25,0A25,25,0,1,1,0,25,25,25,0,0,1,25,0Z" transform="translate(4 89)" fill="#fff" opacity="0"/><path d="M307.778,421.08h-8.505v-8.5a1,1,0,0,0-2,0v8.5h-8.505a1,1,0,1,0,0,2h8.505v8.505a1,1,0,0,0,2,0V423.08h8.505a1,1,0,0,0,0-2Z" transform="translate(-269.768 -308.58)" fill="#fff"/></g><g transform="translate(8)"><path d="M17.5,0A17.5,17.5,0,1,1,0,17.5,17.5,17.5,0,0,1,17.5,0Z" transform="translate(114 189)" fill="#fff" opacity="0"/><g transform="translate(-472.584 -629.296)"><line x2="14" y2="14" transform="translate(611.584 843.296) rotate(180)" fill="none" stroke="#fff" stroke-linecap="round" stroke-linejoin="round" stroke-miterlimit="10" stroke-width="2"/><line y1="14" x2="14" transform="translate(611.584 843.296) rotate(180)" fill="none" stroke="#fff" stroke-linecap="round" stroke-linejoin="round" stroke-miterlimit="10" stroke-width="2"/></g></g><g transform="translate(52)"><path d="M17.5,0A17.5,17.5,0,1,1,0,17.5,17.5,17.5,0,0,1,17.5,0Z" transform="translate(114 189)" fill="#fff" opacity="0"/><g transform="translate(-472.584 -629.296)"><line x2="14" y2="14" transform="translate(611.584 843.296) rotate(180)" fill="none" stroke="#fc4e4e" stroke-linecap="round" stroke-linejoin="round" stroke-miterlimit="10" stroke-width="2"/><line y1="14" x2="14" transform="translate(611.584 843.296) rotate(180)" fill="none" stroke="#fc4e4e" stroke-linecap="round" stroke-linejoin="round" stroke-miterlimit="10" stroke-width="2"/></g></g><g transform="translate(4)"><path d="M35,0A35,35,0,1,1,0,35,35,35,0,0,1,35,0Z" transform="translate(7 552)" fill="#fff" opacity="0"/><path d="M-6840.367,7650.424l14.331-14.331,14.331,14.331" transform="translate(6867.867 -7056.593)" fill="none" stroke="#fff" stroke-linecap="round" stroke-linejoin="round" stroke-width="2"/></g><g transform="translate(87)"><path d="M35,0A35,35,0,1,1,0,35,35,35,0,0,1,35,0Z" transform="translate(7 552)" fill="#fff" opacity="0"/><path d="M-6840.367,7650.424l14.331-14.331,14.331,14.331" transform="translate(6867.867 -7056.593)" fill="none" stroke="#232120" stroke-linecap="round" stroke-linejoin="round" stroke-width="2"/></g><g transform="translate(-1.771 -1.977)"><g transform="translate(-265.854 245.651)" fill="none"><path d="M278.625,6.326s4.334-10,14-10,14,10,14,10-4.841,10-14,10S278.625,6.326,278.625,6.326Z" stroke="none"/><path d="M 292.6249694824219 -1.674003601074219 C 289.2360534667969 -1.674003601074219 286.1842346191406 -0.239013671875 283.5542602539062 2.591106414794922 C 282.2529907226562 3.99139404296875 281.3674621582031 5.415778160095215 280.8871459960938 6.285324573516846 C 281.4088439941406 7.162191390991211 282.3640441894531 8.609100341796875 283.7199096679688 10.03232669830322 C 286.4341430664062 12.88139629364014 289.4302368164062 14.32599639892578 292.6249694824219 14.32599639892578 C 295.8197326660156 14.32599639892578 298.8158264160156 12.88139629364014 301.5300598144531 10.03232669830322 C 302.8863525390625 8.608688354492188 303.8417663574219 7.161245346069336 304.3628845214844 6.285420417785645 C 303.882568359375 5.415876388549805 302.9970092773438 3.991403579711914 301.6957397460938 2.591115951538086 C 299.0657348632812 -0.239013671875 296.0138854980469 -1.674003601074219 292.6249694824219 -1.674003601074219 M 292.6249694824219 -3.674003601074219 C 302.2909240722656 -3.674003601074219 306.625 6.325996398925781 306.625 6.325996398925781 C 306.625 6.325996398925781 301.7836303710938 16.32599639892578 292.6249694824219 16.32599639892578 C 283.4663696289062 16.32599639892578 278.625 6.325996398925781 278.625 6.325996398925781 C 278.625 6.325996398925781 282.9590454101562 -3.674003601074219 292.6249694824219 -3.674003601074219 Z" stroke="none" fill="#fff"/></g></g><g transform="translate(19 244)" fill="none" stroke="#fff" stroke-width="2"><circle cx="6" cy="6" r="6" stroke="none"/><circle cx="6" cy="6" r="5" fill="none"/></g><g transform="translate(222.069 239.078)" fill="none" stroke-linecap="round"><path d="M10.932,0C22.178,0,21.864,19.131,21.864,19.131H0S-.314,0,10.932,0Z" stroke="none"/><path d="M 10.93198013305664 1.999998092651367 C 9.114919662475586 1.999998092651367 7.615819931030273 2.625017166137695 6.349040031433105 3.910767555236816 C 4.55858039855957 5.72803783416748 3.237489700317383 8.881697654724121 2.528600692749023 13.03078746795654 C 2.260429382324219 14.60036468505859 2.127626419067383 16.04534339904785 2.062122344970703 17.13111686706543 L 19.80181694030762 17.13111686706543 C 19.7363166809082 16.0451774597168 19.6035270690918 14.60036468505859 19.33535957336426 13.03078746795654 C 18.62646102905273 8.881697654724121 17.30537033081055 5.72803783416748 15.51492023468018 3.910767555236816 C 14.24814033508301 2.625017166137695 12.7490406036377 1.999998092651367 10.93198013305664 1.999998092651367 M 10.93198013305664 -1.9073486328125e-06 C 22.17782974243164 -1.9073486328125e-06 21.86404037475586 19.13111686706543 21.86404037475586 19.13111686706543 L -8.96453857421875e-05 19.13111686706543 C -8.96453857421875e-05 19.13111686706543 -0.3138694763183594 -1.9073486328125e-06 10.93198013305664 -1.9073486328125e-06 Z" stroke="none" fill="#fff"/></g><path d="M-5604.562,7032c3.822,6.619,8.095,0,8.095,0" transform="translate(5833.463 -6773.791)" fill="none" stroke="#fff" stroke-linecap="round" stroke-width="2"/><g transform="translate(247 240)" fill="none" stroke="#fff" stroke-width="2"><rect width="24" height="20" rx="5" stroke="none"/><rect x="1" y="1" width="22" height="18" rx="4" fill="none"/></g><path d="M3.5,0,7,6H0Z" transform="translate(262.5 246.5) rotate(90)" fill="none" stroke="#fff" stroke-width="2"/><path d="M9.294,29.29a3.331,3.331,0,0,0,1.974.576,4.794,4.794,0,0,0,1.316-.181.556.556,0,0,0,.4-.53V25.278c0-3.051,3.593-4.089,3.745-4.135a.506.506,0,0,0,.124-.05,1.63,1.63,0,0,0,1.454.889h2.636a1.61,1.61,0,0,0,1.62-1.6V10.966a1.61,1.61,0,0,0-1.62-1.6l-3.524-.022a.561.561,0,0,0-.566.558.553.553,0,0,0,.561.549l3.524.022a.489.489,0,0,1,.492.485v9.425a.489.489,0,0,1-.492.485H18.3a.489.489,0,0,1-.492-.485V11.5a3.124,3.124,0,0,0-3.143-3.1H5.038C2.9,8.4,1.546,9.5,1.307,11.406L.009,19.43A.548.548,0,0,0,0,19.516v.1a3.124,3.124,0,0,0,3.143,3.1H8v3.454A3.621,3.621,0,0,0,9.294,29.29ZM3.147,21.6a2,2,0,0,1-2.015-1.986v-.05l1.293-8C2.6,10.2,3.474,9.511,5.038,9.511h9.625A2,2,0,0,1,16.679,11.5v8.573a.553.553,0,0,0-.258.009c-.189.05-4.569,1.3-4.569,5.2V28.71A2.639,2.639,0,0,1,9.961,28.4a2.61,2.61,0,0,1-.828-2.235V22.155a.561.561,0,0,0-.566-.558H3.147Z" transform="translate(191.06 265.866) rotate(180)" fill="#fff" stroke="#fff" stroke-width="1"/><path d="M9.294.576A3.331,3.331,0,0,1,11.268,0a4.794,4.794,0,0,1,1.316.181.556.556,0,0,1,.4.53V4.588c0,3.051,3.593,4.089,3.745,4.134a.506.506,0,0,1,.124.05A1.63,1.63,0,0,1,18.3,7.884H20.94a1.61,1.61,0,0,1,1.62,1.6V18.9a1.61,1.61,0,0,1-1.62,1.6l-3.524.022a.561.561,0,0,1-.566-.558.553.553,0,0,1,.561-.549l3.524-.022a.489.489,0,0,0,.492-.485V9.479a.489.489,0,0,0-.492-.485H18.3a.489.489,0,0,0-.492.485v8.89a3.124,3.124,0,0,1-3.143,3.1H5.038c-2.135,0-3.492-1.1-3.731-3.006l-1.3-8.024A.548.548,0,0,1,0,10.35v-.1a3.124,3.124,0,0,1,3.143-3.1H8V3.7A3.621,3.621,0,0,1,9.294.576ZM3.147,8.264A2,2,0,0,0,1.132,10.25v.05l1.293,8c.17,1.36,1.049,2.054,2.613,2.054h9.625a2,2,0,0,0,2.015-1.986V9.8a.553.553,0,0,1-.258-.009c-.189-.05-4.569-1.3-4.569-5.2V1.156a2.639,2.639,0,0,0-1.891.313A2.61,2.61,0,0,0,9.133,3.7V7.711a.561.561,0,0,1-.566.558H3.147Z" transform="translate(218.06 264.466) rotate(180)" fill="#fff" stroke="#fff" stroke-width="1"/><rect width="30" height="32" transform="translate(10 234)" fill="none"/><rect width="28" height="32" transform="translate(41 234)" fill="none"/><rect width="21" height="32" transform="translate(70 234)" fill="none"/><rect width="21" height="32" transform="translate(300 234)" fill="none"/><rect width="21" height="32" transform="translate(322 234)" fill="none"/><rect width="24" height="32" transform="translate(92 234)" fill="none"/><rect width="24" height="32" transform="translate(117 234)" fill="none"/><rect width="24" height="32" transform="translate(142 234)" fill="none"/><rect width="26" height="32" transform="translate(167 234)" fill="none"/><rect width="24" height="32" transform="translate(221 234)" fill="none"/><rect width="26" height="32" transform="translate(246 234)" fill="none"/><rect width="26" height="32" transform="translate(273 234)" fill="none"/><path d="M9.388,1.952A7.609,7.609,0,0,0,1.944,9.7,7.609,7.609,0,0,0,9.388,17.45h2.034l.1,2.116.024.532,2.347-2.108.6-.54h3.179A7.609,7.609,0,0,0,25.113,9.7a7.609,7.609,0,0,0-7.444-7.749Z" transform="translate(41.554 239.902)" fill="none" stroke="#fff" stroke-width="2"/><g transform="translate(-16 -1)"><path d="M.039,2.468l.754-.782a5.28,5.28,0,0,1,7.66,0,5.767,5.767,0,0,1,0,7.945L.04,18.357" transform="translate(119.961 241.959)" fill="none" stroke="#fff" stroke-linecap="round" stroke-width="2" fill-rule="evenodd"/><path d="M10.039,2.468l-.754-.782a5.28,5.28,0,0,0-7.66,0,5.767,5.767,0,0,0,0,7.945l8.413,8.725" transform="translate(109.961 241.959)" fill="none" stroke="#fff" stroke-linecap="round" stroke-width="2" fill-rule="evenodd"/></g><g transform="translate(9 -1)"><path d="M.039,2.468l.754-.782a5.28,5.28,0,0,1,7.66,0,5.767,5.767,0,0,1,0,7.945L.04,18.357" transform="translate(119.961 241.959)" fill="#fff" stroke="#fff" stroke-linecap="round" stroke-width="2" fill-rule="evenodd"/><path d="M10.039,2.468l-.754-.782a5.28,5.28,0,0,0-7.66,0,5.767,5.767,0,0,0,0,7.945l8.413,8.725" transform="translate(109.961 241.959)" fill="#fff" stroke="#fff" stroke-linecap="round" stroke-width="2" fill-rule="evenodd"/><g transform="translate(119 243)" fill="#fff" stroke="#fff" stroke-width="1"><rect width="2" height="17" stroke="none"/><rect x="0.5" y="0.5" width="1" height="16" fill="none"/></g></g><g transform="translate(34 -1)"><path d="M.039,2.468l.754-.782a5.28,5.28,0,0,1,7.66,0,5.767,5.767,0,0,1,0,7.945L.04,18.357" transform="translate(119.961 241.959)" fill="#fd4646" stroke="#fd4646" stroke-linecap="round" stroke-width="2" fill-rule="evenodd"/><path d="M10.039,2.468l-.754-.782a5.28,5.28,0,0,0-7.66,0,5.767,5.767,0,0,0,0,7.945l8.413,8.725" transform="translate(109.961 241.959)" fill="#fd4646" stroke="#fd4646" stroke-linecap="round" stroke-width="2" fill-rule="evenodd"/><g transform="translate(119 243)" fill="#fd4646" stroke="#fd4646" stroke-width="1"><rect width="2" height="17" stroke="none"/><rect x="0.5" y="0.5" width="1" height="16" fill="none"/></g></g><rect width="26" height="32" transform="translate(194 234)" fill="none"/><g transform="translate(306 245)" fill="none" stroke="#fff" stroke-width="2"><circle cx="4.5" cy="4.5" r="4.5" stroke="none"/><circle cx="4.5" cy="4.5" r="3.5" fill="none"/></g><path d="M0,0,9.971,9.972,19.943,0" transform="translate(336.973 240) rotate(90)" fill="none" stroke="#fff" stroke-linecap="round" stroke-linejoin="round" stroke-width="2"/><g transform="translate(-710 -291)" clip-path="url(#d)"><path d="M307.778,421.08h-8.505v-8.5a1,1,0,0,0-2,0v8.5h-8.505a1,1,0,1,0,0,2h8.505v8.505a1,1,0,0,0,2,0V423.08h8.505a1,1,0,0,0,0-2Z" transform="translate(-215.768 -310.58)" fill="#232221"/><g transform="translate(11 141)" clip-path="url(#a)"><g transform="translate(8423 21976)"><circle cx="18.637" cy="18.637" r="18.637" transform="translate(-8422.637 -21975.637)" fill="#242120"/><path d="M1,4.959,5.9,10.04,14.59,1" transform="translate(-8411.404 -21961.801)" fill="none" stroke="#fff" stroke-linecap="round" stroke-linejoin="round" stroke-miterlimit="10" stroke-width="2"/></g></g><g transform="translate(59 141)" clip-path="url(#a)"><g transform="translate(8423 21976)"><circle cx="18.637" cy="18.637" r="18.637" transform="translate(-8422.637 -21975.637)" fill="#fd4646"/><path d="M1,4.959,5.9,10.04,14.59,1" transform="translate(-8411.404 -21961.801)" fill="none" stroke="#fff" stroke-linecap="round" stroke-linejoin="round" stroke-miterlimit="10" stroke-width="2"/></g></g><g transform="translate(6377 22955)"><circle cx="17.5" cy="17.5" r="17.5" transform="translate(-6270 -22814)" fill="#fff" opacity="0"/><path d="M1,5.37l5.413,5.608L16,1" transform="translate(-6260.5 -22802.5)" fill="none" stroke="#fff" stroke-linecap="round" stroke-linejoin="round" stroke-miterlimit="10" stroke-width="2"/></g><g transform="translate(6368 22955)"><circle cx="17.5" cy="17.5" r="17.5" transform="translate(-6207 -22814)" fill="#fff" opacity="0"/><path d="M1,5.37l5.413,5.608L16,1" transform="translate(-6197.5 -22802.5)" fill="none" stroke="#2f2d2c" stroke-linecap="round" stroke-linejoin="round" stroke-miterlimit="10" stroke-width="2"/></g><g transform="translate(6422 22955)"><circle cx="17.5" cy="17.5" r="17.5" transform="translate(-6207 -22814)" fill="#fff" opacity="0"/><path d="M1,5.37l5.413,5.608L16,1" transform="translate(-6197.5 -22802.5)" fill="none" stroke="#fd4646" stroke-linecap="round" stroke-linejoin="round" stroke-miterlimit="10" stroke-width="2"/></g><g transform="translate(-548.584 -627.296)"><line x2="14" y2="14" transform="translate(574.584 843.296) rotate(180)" fill="none" stroke="#2c8dff" stroke-linecap="round" stroke-linejoin="round" stroke-miterlimit="10" stroke-width="2"/><line y1="14" x2="14" transform="translate(574.584 843.296) rotate(180)" fill="none" stroke="#2c8dff" stroke-linecap="round" stroke-linejoin="round" stroke-miterlimit="10" stroke-width="2"/></g><g transform="translate(104 222) rotate(180)"><line x2="20" y2="20" fill="none" stroke="#fff" stroke-linecap="round" stroke-linejoin="round" stroke-miterlimit="10" stroke-width="2"/><line y1="20" x2="20" fill="none" stroke="#fff" stroke-linecap="round" stroke-linejoin="round" stroke-miterlimit="10" stroke-width="2"/></g><g transform="translate(-545.54 -2574.575)"><path d="M617.994,3085.5a13.038,13.038,0,0,1-6.738-1.89,13.507,13.507,0,0,1-4.848-5.012,14.077,14.077,0,0,1,0-13.8,13.5,13.5,0,0,1,4.848-5.012,13.039,13.039,0,0,1,6.738-1.89,14.081,14.081,0,0,1,4.519.74,11.859,11.859,0,0,1,3.944,2.3,1.012,1.012,0,0,1,.411.822,1.168,1.168,0,0,1-.164.493,2.385,2.385,0,0,0-.74.739,1.166,1.166,0,0,1-.493.166.952.952,0,0,1-.822-.329,7.611,7.611,0,0,0-2.958-1.725,11.575,11.575,0,0,0-3.7-.575,9.9,9.9,0,0,0-5.423,1.561,11.456,11.456,0,0,0-3.944,15.369,10.535,10.535,0,0,0,3.944,4.108,9.824,9.824,0,0,0,5.423,1.479,10.936,10.936,0,0,0,6.82-2.383,1.327,1.327,0,0,1,.74-.246,1.721,1.721,0,0,1,.9.329,1.361,1.361,0,0,1,.411.986,1.515,1.515,0,0,1-.411.986,12.68,12.68,0,0,1-8.457,2.785Zm26.953,0a14.143,14.143,0,0,1-7.067-1.807,12.917,12.917,0,0,1-4.93-4.929,14.713,14.713,0,0,1,0-14.132,12.917,12.917,0,0,1,4.93-4.93,14.717,14.717,0,0,1,14.134,0,12.916,12.916,0,0,1,4.93,4.93,14.713,14.713,0,0,1,0,14.132,12.918,12.918,0,0,1-4.93,4.929,13.538,13.538,0,0,1-7.067,1.807Zm0-2.547a11.452,11.452,0,0,0,5.67-1.479,10.9,10.9,0,0,0,3.944-4.026,11.532,11.532,0,0,0,1.479-5.751,11.992,11.992,0,0,0-1.479-5.751,9.518,9.518,0,0,0-4.027-4.025,11.46,11.46,0,0,0-5.67-1.479,12,12,0,0,0-5.752,1.479,11.8,11.8,0,0,0-4.026,4.026,11.533,11.533,0,0,0-1.479,5.751,11.756,11.756,0,0,0,1.479,5.751,9.517,9.517,0,0,0,4.026,4.026,11.219,11.219,0,0,0,5.834,1.479Zm27.61,2.547a12,12,0,0,1-5.834-1.4,8.066,8.066,0,0,1-3.616-3.779,1.187,1.187,0,0,1-.164-.575,1.462,1.462,0,0,1,.329-.822,1.436,1.436,0,0,1,.986-.328,1.145,1.145,0,0,1,.74.247,2.217,2.217,0,0,1,.575.657,5.478,5.478,0,0,0,2.63,2.465,9.586,9.586,0,0,0,4.273.986,6.884,6.884,0,0,0,4.52-1.4,4.485,4.485,0,0,0,1.726-3.779,4.988,4.988,0,0,0-1.643-3.7,8.1,8.1,0,0,0-4.848-1.889,11.832,11.832,0,0,1-6.327-2.465,6.4,6.4,0,0,1-2.3-4.93,5.751,5.751,0,0,1,1.15-3.615,7.407,7.407,0,0,1,3.123-2.383,10.524,10.524,0,0,1,4.52-.822,9.583,9.583,0,0,1,4.766,1.232,8.354,8.354,0,0,1,3.2,3.122,1.582,1.582,0,0,1,.247.822,1.282,1.282,0,0,1-.657,1.068,1.546,1.546,0,0,1-.657.164,2.393,2.393,0,0,1-.74-.164,1.921,1.921,0,0,1-.575-.575,6.4,6.4,0,0,0-5.834-3.04,7.658,7.658,0,0,0-4.437,1.15,3.882,3.882,0,0,0-1.643,3.369c0,2.711,2.136,4.354,6.492,4.93a11.582,11.582,0,0,1,6.409,2.629,7.065,7.065,0,0,1,2.136,5.258,8.23,8.23,0,0,1-1.15,4.19,7.9,7.9,0,0,1-3.2,2.711,10.708,10.708,0,0,1-4.2.666Zm40.182-27.277a1.319,1.319,0,0,1,.9.411,1.359,1.359,0,0,1,.411.986v24.237a1.706,1.706,0,0,1-.411.986,1.316,1.316,0,0,1-.9.411,1.515,1.515,0,0,1-.986-.411,1.359,1.359,0,0,1-.411-.986V3064.3l-9.614,19.636a1.312,1.312,0,0,1-1.15.657,1.264,1.264,0,0,1-1.233-.822l-9.532-19.143v19.225a1.7,1.7,0,0,1-.411.986,1.361,1.361,0,0,1-.986.411,1.516,1.516,0,0,1-.986-.411,1.359,1.359,0,0,1-.411-.986v-24.237a1.515,1.515,0,0,1,.411-.986,1.362,1.362,0,0,1,.986-.41,1.449,1.449,0,0,1,1.233.658l11.011,21.937,10.847-21.937a1.45,1.45,0,0,1,1.232-.654Zm20.625,27.277a14.143,14.143,0,0,1-7.067-1.807,12.915,12.915,0,0,1-4.93-4.929,14.713,14.713,0,0,1,0-14.132,12.917,12.917,0,0,1,4.93-4.93,14.718,14.718,0,0,1,14.134,0,12.914,12.914,0,0,1,4.93,4.93,14.713,14.713,0,0,1,0,14.132,12.915,12.915,0,0,1-4.93,4.929,13.156,13.156,0,0,1-7.066,1.807Zm0-2.547a11.452,11.452,0,0,0,5.67-1.479,11.8,11.8,0,0,0,4.026-4.026,11.529,11.529,0,0,0,1.479-5.751,11.988,11.988,0,0,0-1.479-5.751,9.516,9.516,0,0,0-4.026-4.026,11.452,11.452,0,0,0-5.67-1.479,12,12,0,0,0-5.752,1.479,11.8,11.8,0,0,0-4.026,4.026,11.534,11.534,0,0,0-1.479,5.751,11.757,11.757,0,0,0,1.479,5.751,9.513,9.513,0,0,0,4.026,4.026,11.13,11.13,0,0,0,5.753,1.482Zm27.61,2.547a12,12,0,0,1-5.834-1.4,8.066,8.066,0,0,1-3.616-3.779,1.187,1.187,0,0,1-.164-.575,1.461,1.461,0,0,1,.329-.822,1.434,1.434,0,0,1,.986-.327,1.147,1.147,0,0,1,.74.247,2.214,2.214,0,0,1,.575.657,5.477,5.477,0,0,0,2.63,2.465,9.582,9.582,0,0,0,4.273.987,6.883,6.883,0,0,0,4.52-1.4,4.485,4.485,0,0,0,1.726-3.779,4.987,4.987,0,0,0-1.643-3.7,8.1,8.1,0,0,0-4.848-1.889,11.315,11.315,0,0,1-6.327-2.547,6.4,6.4,0,0,1-2.3-4.93,5.753,5.753,0,0,1,1.15-3.615,7.415,7.415,0,0,1,3.123-2.382,10.533,10.533,0,0,1,4.519-.822,9.586,9.586,0,0,1,4.766,1.233,8.361,8.361,0,0,1,3.2,3.122,1.585,1.585,0,0,1,.246.822,1.283,1.283,0,0,1-.657,1.068,1.552,1.552,0,0,1-.657.164,2.423,2.423,0,0,1-.74-.164,1.92,1.92,0,0,1-.575-.574,6.4,6.4,0,0,0-5.834-3.04,7.652,7.652,0,0,0-4.437,1.15,3.882,3.882,0,0,0-1.643,3.369c0,2.711,2.136,4.354,6.492,4.93a11.572,11.572,0,0,1,6.409,2.629,7.066,7.066,0,0,1,2.136,5.258,8.229,8.229,0,0,1-1.15,4.19,7.9,7.9,0,0,1-3.2,2.711,9.137,9.137,0,0,1-4.194.746Z" transform="translate(-13.823 -1.309)" fill="#fff"/><path d="M576.1,3056.667a6.916,6.916,0,0,1,3.387.957,8.691,8.691,0,0,1,2.8,2.356,8.024,8.024,0,0,1,1.694,2.872,5.993,5.993,0,0,1,.295,3.019,6.277,6.277,0,0,1-1.62,3.534c-.147.147-.295.368-.442.515a.8.8,0,0,0-.147.81.738.738,0,0,0,.295.368,5.546,5.546,0,0,1,.81,1.031c.074.147.147.221.221.368a6.654,6.654,0,0,1,.074,6.627,10.861,10.861,0,0,1-2.651,3.166,6.634,6.634,0,0,1-2.5,1.473,6.282,6.282,0,0,1-3.682.294,7.218,7.218,0,0,1-2.357-.957,8.444,8.444,0,0,1-1.252-1.031.669.669,0,0,0-.516-.221.837.837,0,0,0-.589.221l-1.1.884c-.074.074-.221.147-.295.221a6.653,6.653,0,0,1-6.628.221,11.265,11.265,0,0,1-2.946-2.282,8.57,8.57,0,0,1-1.988-3.24,6.313,6.313,0,0,1-.221-3.313,6.236,6.236,0,0,1,1.031-2.5v-.073a6.858,6.858,0,0,1,.957-1.1.69.69,0,0,0,.147-.81,1.293,1.293,0,0,0-.3-.368l-.884-1.1a7.108,7.108,0,0,1-1.1-3.019,6.46,6.46,0,0,1,.663-3.682,9.151,9.151,0,0,1,2.136-2.872,8.981,8.981,0,0,1,3.019-1.989,7.35,7.35,0,0,1,3.093-.442,7.11,7.11,0,0,1,3.019,1.1,7.4,7.4,0,0,1,1.178.957.69.69,0,0,0,.81.147,1.289,1.289,0,0,0,.368-.294l1.1-.883a15.086,15.086,0,0,1,4.124-.957Zm-10.31,10.676a1.219,1.219,0,0,1,.884.368c1.841.662,2.062,4.933,0,5.522a1.359,1.359,0,0,1-1.178.368c-.147-.074-.295-.074-.442-.221a2.121,2.121,0,0,0-1.473-.368,2.038,2.038,0,0,0-1.694,1.62,2.907,2.907,0,0,0,.295,1.546,5.322,5.322,0,0,0,1.252,1.62,4.981,4.981,0,0,0,1.915,1.325,2.7,2.7,0,0,0,1.325.074,2.075,2.075,0,0,0,1.4-1.693,2.222,2.222,0,0,0-.368-1.4.072.072,0,0,0-.074-.074,1.336,1.336,0,0,1,.221-1.473c.736-2.209,5.008-1.693,5.523,0a1.358,1.358,0,0,1,.368,1.178c-.074.147-.074.294-.221.442a2.354,2.354,0,0,0-.368,1.4,1.819,1.819,0,0,0,.884,1.4,1.985,1.985,0,0,0,1.1.368,2.423,2.423,0,0,0,1.4-.442,5.435,5.435,0,0,0,1.694-1.473,4.983,4.983,0,0,0,1.031-1.694,2.506,2.506,0,0,0,0-1.473,2.032,2.032,0,0,0-.884-1.031,1.707,1.707,0,0,0-1.178-.221,2.477,2.477,0,0,0-1.031.368.07.07,0,0,0-.053.021.072.072,0,0,0-.021.053,1.334,1.334,0,0,1-1.473-.22c-2.209-.515-2.062-4.86,0-5.522a1.359,1.359,0,0,1,1.178-.368,5.673,5.673,0,0,0,1.915.515,2.037,2.037,0,0,0,1.694-1.62,2.908,2.908,0,0,0-.295-1.546,5.324,5.324,0,0,0-1.252-1.62,4.743,4.743,0,0,0-2.062-1.325,1.828,1.828,0,0,0-1.252,0,2.073,2.073,0,0,0-1.4,1.693,2.222,2.222,0,0,0,.368,1.4v.073a1.239,1.239,0,0,1-.221,1.546c-.589,1.693-4.86,1.767-5.523,0a1.359,1.359,0,0,1-.368-1.178c.074-.147.074-.294.221-.442a2.356,2.356,0,0,0,.368-1.4,1.818,1.818,0,0,0-.884-1.4,1.984,1.984,0,0,0-1.1-.368,3.092,3.092,0,0,0-1.62.589,8.285,8.285,0,0,0-1.473,1.326,4.991,4.991,0,0,0-1.031,1.693,2.019,2.019,0,0,0,1.178,2.577.933.933,0,0,0,.442.074,2.116,2.116,0,0,0,1.473-.368.072.072,0,0,0,.074-.073,1.452,1.452,0,0,1,.735-.146Z" fill="#fff" fill-rule="evenodd"/></g><g transform="translate(-76 289)"><circle cx="2" cy="2" r="2" transform="translate(87 2)" fill="#fff"/><circle cx="2" cy="2" r="2" transform="translate(87 8)" fill="#fff"/><circle cx="2" cy="2" r="2" transform="translate(87 14)" fill="#fff"/><circle cx="2" cy="2" r="2" transform="translate(92.727 2)" fill="#fff"/><circle cx="2" cy="2" r="2" transform="translate(92.727 8)" fill="#fff"/><circle cx="2" cy="2" r="2" transform="translate(92.727 14)" fill="#fff"/><circle cx="2" cy="2" r="2" transform="translate(98.727 2)" fill="#fff"/><circle cx="2" cy="2" r="2" transform="translate(98.727 8)" fill="#fff"/><circle cx="2" cy="2" r="2" transform="translate(98.727 14)" fill="#fff"/></g><g transform="translate(39 334.985)"><path d="M5.543-14v7.175a1.94,1.94,0,0,0,1.731,2.1h8.87a1.94,1.94,0,0,0,1.731-2.1V-14" transform="translate(-2.673 22.379)" fill="none" stroke="#fff" stroke-linecap="round" stroke-linejoin="round" stroke-width="2"/><path d="M10.027-21.64,1-14.672" transform="translate(-1 24.655)" fill="none" stroke="#fff" stroke-linecap="round" stroke-linejoin="round" stroke-width="2"/><path d="M15.32-21.64l9.027,6.968" transform="translate(-6.275 24.655)" fill="none" stroke="#fff" stroke-linecap="round" stroke-linejoin="round" stroke-width="2"/></g><path d="M14.925,1.351a4.278,4.278,0,0,0-6.193,0l-.609.624-.609-.624a4.3,4.3,0,0,0-6.193,0,4.564,4.564,0,0,0,0,6.344l6.8,6.968,6.8-6.968a4.534,4.534,0,0,0,0-6.344" transform="translate(64.961 337.975)" fill="none" stroke="#fff" stroke-linecap="round" stroke-width="2" fill-rule="evenodd"/><g transform="translate(-81 289)"><g transform="translate(125 3)" fill="#fff" stroke="#fff" stroke-width="1"><rect width="16" height="2" rx="1" stroke="none"/><rect x="0.5" y="0.5" width="15" height="1" rx="0.5" fill="none"/></g><g transform="translate(125 9)" fill="#fff" stroke="#fff" stroke-width="1"><rect width="16" height="2" rx="1" stroke="none"/><rect x="0.5" y="0.5" width="15" height="1" rx="0.5" fill="none"/></g><g transform="translate(125 15)" fill="#fff" stroke="#fff" stroke-width="1"><rect width="16" height="2" rx="1" stroke="none"/><rect x="0.5" y="0.5" width="15" height="1" rx="0.5" fill="none"/></g><circle cx="2" cy="2" r="2" transform="translate(118 2)" fill="#fff"/><circle cx="2" cy="2" r="2" transform="translate(118 8)" fill="#fff"/><circle cx="2" cy="2" r="2" transform="translate(118 14)" fill="#fff"/></g><g transform="translate(74.03 291)"><path d="M.913,16.786a.913.913,0,1,1,0-1.825H11.554a.913.913,0,1,1,0,1.825Zm0-7.48a.913.913,0,0,1,0-1.826H19.035a.913.913,0,1,1,0,1.826Zm0-7.48A.913.913,0,1,1,.913,0H19.035a.913.913,0,1,1,0,1.826Z" fill="#fff"/></g><path d="M1.414,3.719l9.977-9.94" transform="translate(11.586 461.311)" fill="none" stroke="#fff" stroke-linecap="round" stroke-linejoin="round" stroke-width="3"/><path d="M21.837-20.942A18.17,18.17,0,0,1,39.819-2.606,18.17,18.17,0,0,1,21.837,15.731,18.17,18.17,0,0,1,3.855-2.606,18.17,18.17,0,0,1,21.837-20.942Z" transform="translate(14.211 444.942)" fill="none" stroke="#fff" stroke-linecap="round" stroke-width="3"/><g transform="translate(72 7)"><path d="M1.414-.147l6.1-6.074" transform="translate(11.586 449.22)" fill="none" stroke="#fff" stroke-linecap="round" stroke-linejoin="round" stroke-width="2"/><path d="M14.843-20.942a11.1,11.1,0,0,1,10.988,11.2,11.1,11.1,0,0,1-10.988,11.2A11.1,11.1,0,0,1,3.855-9.737a11.1,11.1,0,0,1,10.988-11.2Z" transform="translate(12.241 444.942)" fill="none" stroke="#fff" stroke-linecap="round" stroke-width="2"/></g><g transform="translate(12.007 335.096)"><path d="M10.7-27.9a6.21,6.21,0,0,0-4.742,1.781A6.21,6.21,0,0,0,4.12-21.4c0,4.714,6.58,8.5,6.58,8.5s6.58-3.283,6.58-8.5a6.21,6.21,0,0,0-1.838-4.719A6.21,6.21,0,0,0,10.7-27.9Z" transform="translate(2.186 30.818)" fill="none" stroke="#fff" stroke-width="2"/><path d="M29.123-27.221a7.291,7.291,0,0,0-3.154-.681,6.21,6.21,0,0,0-4.742,1.781A6.21,6.21,0,0,0,19.389-21.4c0,4.714,6.58,8.5,6.58,8.5a16.726,16.726,0,0,0,3.257-2.266c-1.72-1.55-3.528-3.767-3.528-6.239a6.105,6.105,0,0,1,3.425-5.814Z" transform="translate(-19.389 30.818)" fill="none" stroke="#fff" stroke-width="2"/></g><path d="M12.623-27.9c-4.694,0-8.5,2.979-8.5,8.23,0,5.971,8.5,10.77,8.5,10.77s8.5-4.159,8.5-10.771C21.123-24.921,17.317-27.9,12.623-27.9Z" transform="translate(67.877 268.9)" fill="none" stroke="#fff" stroke-width="2"/><path d="M12.623-27.9c-4.694,0-8.5,2.979-8.5,8.23,0,5.971,8.5,10.77,8.5,10.77s8.5-4.159,8.5-10.771C21.123-24.921,17.317-27.9,12.623-27.9Z" transform="translate(297.877 268.9)" fill="none" stroke="#fff" stroke-width="2"/><g transform="translate(-92 -1)"><path d="M12.192-27.9a9.629,9.629,0,0,0-2.71.4c-2.989.814-5.36,3.577-5.36,7.831,0,3.445,2.686,6.5,5.181,8.658A22.6,22.6,0,0,0,12.192-8.9s8.069-4.159,8.069-10.771C20.262-24.921,16.649-27.9,12.192-27.9Z" transform="translate(368.877 269.9)" fill="none" stroke="#fff" stroke-width="2"/><path d="M12.192-27.9c-4.456,0-8.069,2.979-8.069,8.23,0,5.971,8.069,10.77,8.069,10.77a21.335,21.335,0,0,0,3.123-2.114c2.08-1.646,4.946-4.716,4.946-8.656C20.262-24.921,16.649-27.9,12.192-27.9Z" transform="translate(362.877 269.9)" fill="none" stroke="#fff" stroke-width="2"/></g><g transform="translate(11 11)"><rect width="235" height="24.998" fill="none"/></g><path d="M40.909,12.644,46.275,2.322h3.078l-7.088,12.89V22.88h-2.71V15.213L32.467,2.322h3.106L40.91,12.643ZM49.988,15.1a9.02,9.02,0,0,1,.883-4.038A6.587,6.587,0,0,1,53.328,8.3a6.686,6.686,0,0,1,3.593-.975,6.447,6.447,0,0,1,5.047,2.16,8.311,8.311,0,0,1,1.926,5.745v.184a9.109,9.109,0,0,1-.85,4,6.482,6.482,0,0,1-2.444,2.76,6.765,6.765,0,0,1-3.65.988A6.431,6.431,0,0,1,51.915,21a8.269,8.269,0,0,1-1.927-5.718Zm2.626.31a6.538,6.538,0,0,0,1.179,4.082,3.995,3.995,0,0,0,6.318-.02,7.146,7.146,0,0,0,1.172-4.37,6.528,6.528,0,0,0-1.191-4.074,3.794,3.794,0,0,0-3.171-1.562A3.753,3.753,0,0,0,53.8,11a7.1,7.1,0,0,0-1.186,4.4ZM76.6,21.369a5.551,5.551,0,0,1-4.476,1.793A4.75,4.75,0,0,1,68.4,21.743a6.143,6.143,0,0,1-1.292-4.2V7.6H69.72v9.865q0,3.474,2.824,3.473,2.994,0,3.982-2.231V7.6h2.612V22.88H76.654L76.6,21.37ZM97.724,4.554H91.116V22.88h-2.7V4.553h-6.59V2.322h15.9V4.554Zm10.73,16.815a5.551,5.551,0,0,1-4.476,1.793,4.752,4.752,0,0,1-3.721-1.419,6.143,6.143,0,0,1-1.292-4.2V7.6h2.612v9.865q0,3.474,2.824,3.473,2.994,0,3.982-2.231V7.6h2.612V22.88H108.51ZM127.9,15.411a9.089,9.089,0,0,1-1.61,5.627,5.146,5.146,0,0,1-4.32,2.126,5.329,5.329,0,0,1-4.475-2.049l-.127,1.765h-2.4V1.193h2.612v8.09a5.3,5.3,0,0,1,4.363-1.963,5.179,5.179,0,0,1,4.37,2.1,9.354,9.354,0,0,1,1.588,5.76v.226Zm-2.612-.3a7.059,7.059,0,0,0-1.031-4.123,3.414,3.414,0,0,0-2.965-1.454,3.843,3.843,0,0,0-3.713,2.4v6.6a3.948,3.948,0,0,0,3.742,2.4,3.4,3.4,0,0,0,2.923-1.454,7.507,7.507,0,0,0,1.044-4.374Zm12.241,8.048a6.676,6.676,0,0,1-5.054-2.041,7.571,7.571,0,0,1-1.949-5.456v-.48a9.166,9.166,0,0,1,.868-4.059,6.772,6.772,0,0,1,2.429-2.8,6.109,6.109,0,0,1,3.377-1,5.724,5.724,0,0,1,4.631,1.963,8.508,8.508,0,0,1,1.648,5.619v1.089H133.134a5.434,5.434,0,0,0,1.321,3.648,4.15,4.15,0,0,0,3.212,1.39,4.546,4.546,0,0,0,2.344-.565,5.906,5.906,0,0,0,1.68-1.5l1.6,1.243a6.423,6.423,0,0,1-5.76,2.951ZM137.2,9.467a3.489,3.489,0,0,0-2.654,1.151,5.6,5.6,0,0,0-1.328,3.226h7.654v-.2a4.977,4.977,0,0,0-1.078-3.085A3.279,3.279,0,0,0,137.2,9.467Zm23.917-4.913h-6.608V22.88h-2.7V4.553H145.22V2.322h15.9V4.554Zm8.965,5.394a7.836,7.836,0,0,0-1.285-.1,3.45,3.45,0,0,0-3.487,2.188V22.88H162.7V7.6h2.541l.043,1.765a4.071,4.071,0,0,1,3.643-2.047,2.671,2.671,0,0,1,1.157.2v2.43ZM181.351,22.88a5.492,5.492,0,0,1-.367-1.61,5.829,5.829,0,0,1-4.348,1.892,5.394,5.394,0,0,1-3.706-1.276,4.135,4.135,0,0,1-1.446-3.24A4.323,4.323,0,0,1,173.3,14.94a8.556,8.556,0,0,1,5.1-1.32h2.541v-1.2a2.934,2.934,0,0,0-.819-2.181,3.291,3.291,0,0,0-2.414-.812,3.811,3.811,0,0,0-2.344.706,2.083,2.083,0,0,0-.946,1.709h-2.625a3.606,3.606,0,0,1,.812-2.211,5.541,5.541,0,0,1,2.2-1.687,7.411,7.411,0,0,1,3.057-.621A6.039,6.039,0,0,1,182,8.64a4.765,4.765,0,0,1,1.554,3.636v7.032a8.6,8.6,0,0,0,.537,3.347v.225h-2.74Zm-4.337-1.991a4.59,4.59,0,0,0,2.329-.635,3.841,3.841,0,0,0,1.6-1.652V15.467H178.9q-4.8,0-4.8,2.807a2.382,2.382,0,0,0,.819,1.92,3.146,3.146,0,0,0,2.1.7h0Zm16.759.141a3.762,3.762,0,0,0,2.443-.85,2.98,2.98,0,0,0,1.157-2.118h2.471a4.735,4.735,0,0,1-.9,2.5,5.953,5.953,0,0,1-2.221,1.894,6.418,6.418,0,0,1-2.943.706,6.3,6.3,0,0,1-4.962-2.083,8.3,8.3,0,0,1-1.843-5.7v-.435a9.2,9.2,0,0,1,.818-3.972,6.238,6.238,0,0,1,2.351-2.7,6.678,6.678,0,0,1,3.62-.956,6.128,6.128,0,0,1,4.271,1.539,5.5,5.5,0,0,1,1.814,4H197.38a3.6,3.6,0,0,0-1.123-2.436,3.494,3.494,0,0,0-2.492-.953A3.66,3.66,0,0,0,190.68,10.9a6.736,6.736,0,0,0-1.1,4.144v.494a6.6,6.6,0,0,0,1.087,4.066,3.677,3.677,0,0,0,3.106,1.425h0Zm13.275-5.224-1.636,1.708V22.88H202.8V1.193h2.613V14.31l1.4-1.681L211.567,7.6h3.176L208.8,13.981l6.634,8.9h-3.062l-5.325-7.073ZM223.5,23.162a6.676,6.676,0,0,1-5.054-2.041,7.57,7.57,0,0,1-1.948-5.456v-.48a9.167,9.167,0,0,1,.868-4.059,6.779,6.779,0,0,1,2.428-2.8,6.11,6.11,0,0,1,3.381-1.009A5.724,5.724,0,0,1,227.8,9.284a8.5,8.5,0,0,1,1.652,5.619v1.088H219.1a5.433,5.433,0,0,0,1.322,3.648,4.15,4.15,0,0,0,3.212,1.39,4.546,4.546,0,0,0,2.344-.565,5.881,5.881,0,0,0,1.681-1.5l1.6,1.243a6.421,6.421,0,0,1-5.762,2.951ZM223.17,9.47a3.489,3.489,0,0,0-2.654,1.151,5.592,5.592,0,0,0-1.328,3.223h7.654v-.2a4.977,4.977,0,0,0-1.073-3.085,3.28,3.28,0,0,0-2.6-1.1Zm16.688.48a7.837,7.837,0,0,0-1.285-.1,3.45,3.45,0,0,0-3.487,2.188V22.88h-2.612V7.6h2.541l.043,1.765A4.073,4.073,0,0,1,238.7,7.321a2.67,2.67,0,0,1,1.157.2V9.949Z" transform="translate(6.145 10.822)" fill="#fff"/><path d="M7.963,15.415V6.7l7.564,4.356ZM21.4,10.493a5.46,5.46,0,0,0-.03-.549A10.7,10.7,0,0,0,.029,10c-.015.161-.025.324-.025.491V10.7a10.649,10.649,0,0,0,1.977,6.193C5.17,21.973,11.092,25,11.092,25s7.971-4.1,9.9-11.348A10.682,10.682,0,0,0,21.4,10.7v-.208" transform="translate(11 11)" fill="#fff"/><path d="M7.963,15.415V6.7l7.564,4.356ZM21.4,10.493a5.46,5.46,0,0,0-.03-.549A10.7,10.7,0,0,0,.029,10c-.015.161-.025.324-.025.491V10.7a10.649,10.649,0,0,0,1.977,6.193C5.17,21.973,11.092,25,11.092,25s7.971-4.1,9.9-11.348A10.682,10.682,0,0,0,21.4,10.7v-.208" transform="translate(11 51)" fill="#fff"/><path d="M40.909,12.644,46.275,2.322h3.078l-7.088,12.89V22.88h-2.71V15.213L32.467,2.322h3.106L40.91,12.643ZM68.19,4.459H61.582V22.785h-2.7V4.458H52.291V2.227h15.9V4.459Zm19.127,0H80.708V22.786h-2.7V4.459H71.415V2.228h15.9V4.46Z" transform="translate(6.145 50.822)" fill="#fff"/><g transform="translate(175.881 464.881) rotate(180)"><line x2="38.881" y2="38.881" fill="none" stroke="#fff" stroke-linecap="round" stroke-linejoin="round" stroke-miterlimit="10" stroke-width="3"/><line y1="38.881" x2="38.881" fill="none" stroke="#fff" stroke-linecap="round" stroke-linejoin="round" stroke-miterlimit="10" stroke-width="3"/></g><g transform="translate(222.525 456.08) rotate(180)"><line x2="24.724" y2="24.724" fill="none" stroke="#fff" stroke-linecap="round" stroke-linejoin="round" stroke-miterlimit="10" stroke-width="2"/><line y1="24.724" x2="24.724" fill="none" stroke="#fff" stroke-linecap="round" stroke-linejoin="round" stroke-miterlimit="10" stroke-width="2"/></g><g transform="translate(278.525 456.08) rotate(180)"><line x2="24.724" y2="24.724" fill="none" stroke="#242120" stroke-linecap="round" stroke-linejoin="round" stroke-miterlimit="10" stroke-width="2"/><line y1="24.724" x2="24.724" fill="none" stroke="#242120" stroke-linecap="round" stroke-linejoin="round" stroke-miterlimit="10" stroke-width="2"/></g><g transform="translate(7 -2)"><path d="M25,0A25,25,0,1,1,0,25,25,25,0,0,1,25,0Z" transform="translate(4 89)" fill="#fff" opacity="0"/><path d="M307.778,421.08h-8.505v-8.5a1,1,0,0,0-2,0v8.5h-8.505a1,1,0,1,0,0,2h8.505v8.505a1,1,0,0,0,2,0V423.08h8.505a1,1,0,0,0,0-2Z" transform="translate(-269.768 -308.58)" fill="#fff"/></g><g transform="translate(8)"><path d="M17.5,0A17.5,17.5,0,1,1,0,17.5,17.5,17.5,0,0,1,17.5,0Z" transform="translate(114 189)" fill="#fff" opacity="0"/><g transform="translate(-472.584 -629.296)"><line x2="14" y2="14" transform="translate(611.584 843.296) rotate(180)" fill="none" stroke="#fff" stroke-linecap="round" stroke-linejoin="round" stroke-miterlimit="10" stroke-width="2"/><line y1="14" x2="14" transform="translate(611.584 843.296) rotate(180)" fill="none" stroke="#fff" stroke-linecap="round" stroke-linejoin="round" stroke-miterlimit="10" stroke-width="2"/></g></g><g transform="translate(52)"><path d="M17.5,0A17.5,17.5,0,1,1,0,17.5,17.5,17.5,0,0,1,17.5,0Z" transform="translate(114 189)" fill="#fff" opacity="0"/><g transform="translate(-472.584 -629.296)"><line x2="14" y2="14" transform="translate(611.584 843.296) rotate(180)" fill="none" stroke="#fc4e4e" stroke-linecap="round" stroke-linejoin="round" stroke-miterlimit="10" stroke-width="2"/><line y1="14" x2="14" transform="translate(611.584 843.296) rotate(180)" fill="none" stroke="#fc4e4e" stroke-linecap="round" stroke-linejoin="round" stroke-miterlimit="10" stroke-width="2"/></g></g><g transform="translate(4)"><path d="M35,0A35,35,0,1,1,0,35,35,35,0,0,1,35,0Z" transform="translate(7 552)" fill="#fff" opacity="0"/><path d="M-6840.367,7650.424l14.331-14.331,14.331,14.331" transform="translate(6867.867 -7056.593)" fill="none" stroke="#fff" stroke-linecap="round" stroke-linejoin="round" stroke-width="2"/></g><g transform="translate(87)"><path d="M35,0A35,35,0,1,1,0,35,35,35,0,0,1,35,0Z" transform="translate(7 552)" fill="#fff" opacity="0"/><path d="M-6840.367,7650.424l14.331-14.331,14.331,14.331" transform="translate(6867.867 -7056.593)" fill="none" stroke="#232120" stroke-linecap="round" stroke-linejoin="round" stroke-width="2"/></g><g transform="translate(-1.771 -1.977)"><g transform="translate(-265.854 245.651)"><path d="M278.625,6.326s4.334-10,14-10,14,10,14,10-4.841,10-14,10S278.625,6.326,278.625,6.326Z" fill="none"/><path d="M292.625-1.674a12.137,12.137,0,0,0-9.071,4.265,19.128,19.128,0,0,0-2.667,3.694,21.468,21.468,0,0,0,2.833,3.747c2.714,2.849,5.71,4.294,8.905,4.294s6.191-1.445,8.905-4.294a21.472,21.472,0,0,0,2.833-3.747A19.129,19.129,0,0,0,301.7,2.591a12.137,12.137,0,0,0-9.071-4.265m0-2c9.666,0,14,10,14,10s-4.841,10-14,10-14-10-14-10S282.959-3.674,292.625-3.674Z" fill="#fff"/></g></g><g transform="translate(19 244)" fill="none" stroke="#fff" stroke-width="2"><circle cx="6" cy="6" r="6" stroke="none"/><circle cx="6" cy="6" r="5" fill="none"/></g><g transform="translate(222.069 239.078)"><path d="M10.932,0C22.178,0,21.864,19.131,21.864,19.131H0S-.314,0,10.932,0Z" fill="none"/><path d="M10.932,2A6.139,6.139,0,0,0,6.349,3.911c-1.79,1.817-3.112,4.971-3.82,9.12a38.405,38.405,0,0,0-.466,4.1H19.8a38.4,38.4,0,0,0-.466-4.1c-.709-4.149-2.03-7.3-3.82-9.12A6.139,6.139,0,0,0,10.932,2m0-2C22.178,0,21.864,19.131,21.864,19.131H0S-.314,0,10.932,0Z" fill="#fff"/></g><path d="M-5604.562,7032c3.822,6.619,8.1,0,8.1,0" transform="translate(5833.463 -6773.791)" fill="none" stroke="#fff" stroke-linecap="round" stroke-width="2"/><g transform="translate(247 240)" fill="none" stroke="#fff" stroke-width="2"><rect width="24" height="20" rx="5" stroke="none"/><rect x="1" y="1" width="22" height="18" rx="4" fill="none"/></g><path d="M3.5,0,7,6H0Z" transform="translate(262.5 246.5) rotate(90)" fill="none" stroke="#fff" stroke-width="2"/><path d="M9.294,29.29a3.331,3.331,0,0,0,1.974.576,4.794,4.794,0,0,0,1.316-.181.556.556,0,0,0,.4-.53V25.278c0-3.051,3.593-4.089,3.745-4.135a.506.506,0,0,0,.124-.05,1.63,1.63,0,0,0,1.454.889h2.636a1.61,1.61,0,0,0,1.62-1.6V10.966a1.61,1.61,0,0,0-1.62-1.6l-3.524-.022a.561.561,0,0,0-.566.558.553.553,0,0,0,.561.549l3.524.022a.489.489,0,0,1,.492.485v9.425a.489.489,0,0,1-.492.485H18.3a.489.489,0,0,1-.492-.485V11.5a3.124,3.124,0,0,0-3.143-3.1H5.038C2.9,8.4,1.546,9.5,1.307,11.406L.009,19.43A.548.548,0,0,0,0,19.516v.1a3.124,3.124,0,0,0,3.143,3.1H8V26.17a3.621,3.621,0,0,0,1.294,3.12ZM3.147,21.6a2,2,0,0,1-2.015-1.986v-.05l1.293-8C2.6,10.2,3.474,9.511,5.038,9.511h9.625A2,2,0,0,1,16.679,11.5v8.573a.553.553,0,0,0-.258.009c-.189.05-4.569,1.3-4.569,5.2V28.71a2.639,2.639,0,0,1-1.891-.31,2.61,2.61,0,0,1-.828-2.235v-4.01a.561.561,0,0,0-.566-.558H3.147Z" transform="translate(191.06 265.866) rotate(180)" fill="#fff" stroke="#fff" stroke-width="1"/><path d="M9.294.576A3.331,3.331,0,0,1,11.268,0a4.794,4.794,0,0,1,1.316.181.556.556,0,0,1,.4.53V4.588c0,3.051,3.593,4.089,3.745,4.134a.506.506,0,0,1,.124.05A1.63,1.63,0,0,1,18.3,7.884h2.64a1.61,1.61,0,0,1,1.62,1.6V18.9a1.61,1.61,0,0,1-1.62,1.6l-3.524.022a.561.561,0,0,1-.566-.558.553.553,0,0,1,.561-.549l3.524-.022a.489.489,0,0,0,.492-.485V9.479a.489.489,0,0,0-.492-.485H18.3a.489.489,0,0,0-.492.485v8.89a3.124,3.124,0,0,1-3.143,3.1H5.038c-2.135,0-3.492-1.1-3.731-3.006l-1.3-8.024A.548.548,0,0,1,0,10.35v-.1a3.124,3.124,0,0,1,3.143-3.1H8V3.7A3.621,3.621,0,0,1,9.294.576ZM3.147,8.264A2,2,0,0,0,1.132,10.25v.05l1.293,8c.17,1.36,1.049,2.054,2.613,2.054h9.625a2,2,0,0,0,2.015-1.986V9.8a.553.553,0,0,1-.258-.009c-.189-.05-4.569-1.3-4.569-5.2V1.156a2.639,2.639,0,0,0-1.891.313A2.61,2.61,0,0,0,9.133,3.7V7.711a.561.561,0,0,1-.566.558H3.147Z" transform="translate(218.06 264.466) rotate(180)" fill="#fff" stroke="#fff" stroke-width="1"/><g transform="translate(10 234)" fill="none" stroke="#d7d7d7" stroke-width="1" opacity="0"><rect width="30" height="32" stroke="none"/><rect x="-0.5" y="-0.5" width="31" height="33" fill="none"/></g><g transform="translate(41 234)" fill="none" stroke="#d7d7d7" stroke-width="1" opacity="0"><rect width="28" height="32" stroke="none"/><rect x="-0.5" y="-0.5" width="29" height="33" fill="none"/></g><g transform="translate(70 234)" fill="none" stroke="#d7d7d7" stroke-width="1" opacity="0"><rect width="21" height="32" stroke="none"/><rect x="-0.5" y="-0.5" width="22" height="33" fill="none"/></g><g transform="translate(300 234)" fill="none" stroke="#d7d7d7" stroke-width="1" opacity="0"><rect width="21" height="32" stroke="none"/><rect x="-0.5" y="-0.5" width="22" height="33" fill="none"/></g><g transform="translate(322 234)" fill="none" stroke="#d7d7d7" stroke-width="1" opacity="0"><rect width="26" height="32" stroke="none"/><rect x="-0.5" y="-0.5" width="27" height="33" fill="none"/></g><g transform="translate(349 234)" fill="none" stroke="#d7d7d7" stroke-width="1" opacity="0"><rect width="26" height="32" stroke="none"/><rect x="-0.5" y="-0.5" width="27" height="33" fill="none"/></g><g transform="translate(399 234)" fill="none" stroke="#d7d7d7" stroke-width="1" opacity="0"><rect width="26" height="32" stroke="none"/><rect x="-0.5" y="-0.5" width="27" height="33" fill="none"/></g><g transform="translate(376 234)" fill="none" stroke="#d7d7d7" stroke-width="1" opacity="0"><rect width="22" height="32" stroke="none"/><rect x="-0.5" y="-0.5" width="23" height="33" fill="none"/></g><g transform="translate(92 234)" fill="none" stroke="#d7d7d7" stroke-width="1" opacity="0"><rect width="24" height="32" stroke="none"/><rect x="-0.5" y="-0.5" width="25" height="33" fill="none"/></g><g transform="translate(117 234)" fill="none" stroke="#d7d7d7" stroke-width="1" opacity="0"><rect width="24" height="32" stroke="none"/><rect x="-0.5" y="-0.5" width="25" height="33" fill="none"/></g><g transform="translate(142 234)" fill="none" stroke="#d7d7d7" stroke-width="1" opacity="0"><rect width="24" height="32" stroke="none"/><rect x="-0.5" y="-0.5" width="25" height="33" fill="none"/></g><g transform="translate(167 234)" fill="none" stroke="#d7d7d7" stroke-width="1" opacity="0"><rect width="26" height="32" stroke="none"/><rect x="-0.5" y="-0.5" width="27" height="33" fill="none"/></g><g transform="translate(221 234)" fill="none" stroke="#d7d7d7" stroke-width="1" opacity="0"><rect width="24" height="32" stroke="none"/><rect x="-0.5" y="-0.5" width="25" height="33" fill="none"/></g><g transform="translate(246 234)" fill="none" stroke="#d7d7d7" stroke-width="1" opacity="0"><rect width="26" height="32" stroke="none"/><rect x="-0.5" y="-0.5" width="27" height="33" fill="none"/></g><g transform="translate(273 234)" fill="none" stroke="#d7d7d7" stroke-width="1" opacity="0"><rect width="26" height="32" stroke="none"/><rect x="-0.5" y="-0.5" width="27" height="33" fill="none"/></g><path d="M9.388,1.952A7.609,7.609,0,0,0,1.944,9.7a7.609,7.609,0,0,0,7.444,7.75h2.034l.1,2.116.024.532,2.347-2.108.6-.54h3.179A7.609,7.609,0,0,0,25.113,9.7a7.609,7.609,0,0,0-7.444-7.749Z" transform="translate(41.554 239.902)" fill="none" stroke="#fff" stroke-width="2"/><g transform="translate(-16 -1)"><path d="M.039,2.468l.754-.782a5.28,5.28,0,0,1,7.66,0,5.767,5.767,0,0,1,0,7.945L.04,18.357" transform="translate(119.961 241.959)" fill="none" stroke="#fff" stroke-linecap="round" stroke-width="2" fill-rule="evenodd"/><path d="M10.039,2.468l-.754-.782a5.28,5.28,0,0,0-7.66,0,5.767,5.767,0,0,0,0,7.945l8.413,8.725" transform="translate(109.961 241.959)" fill="none" stroke="#fff" stroke-linecap="round" stroke-width="2" fill-rule="evenodd"/></g><g transform="translate(9 -1)"><path d="M.039,2.468l.754-.782a5.28,5.28,0,0,1,7.66,0,5.767,5.767,0,0,1,0,7.945L.04,18.357" transform="translate(119.961 241.959)" fill="#fff" stroke="#fff" stroke-linecap="round" stroke-width="2" fill-rule="evenodd"/><path d="M10.039,2.468l-.754-.782a5.28,5.28,0,0,0-7.66,0,5.767,5.767,0,0,0,0,7.945l8.413,8.725" transform="translate(109.961 241.959)" fill="#fff" stroke="#fff" stroke-linecap="round" stroke-width="2" fill-rule="evenodd"/><g transform="translate(119 243)" fill="#fff" stroke="#fff" stroke-width="1"><rect width="2" height="17" stroke="none"/><rect x="0.5" y="0.5" width="1" height="16" fill="none"/></g></g><g transform="translate(34 -1)"><path d="M.039,2.468l.754-.782a5.28,5.28,0,0,1,7.66,0,5.767,5.767,0,0,1,0,7.945L.04,18.357" transform="translate(119.961 241.959)" fill="#fd4646" stroke="#fd4646" stroke-linecap="round" stroke-width="2" fill-rule="evenodd"/><path d="M10.039,2.468l-.754-.782a5.28,5.28,0,0,0-7.66,0,5.767,5.767,0,0,0,0,7.945l8.413,8.725" transform="translate(109.961 241.959)" fill="#fd4646" stroke="#fd4646" stroke-linecap="round" stroke-width="2" fill-rule="evenodd"/><g transform="translate(119 243)" fill="#fd4646" stroke="#fd4646" stroke-width="1"><rect width="2" height="17" stroke="none"/><rect x="0.5" y="0.5" width="1" height="16" fill="none"/></g></g><g transform="translate(194 234)" fill="none" stroke="#d7d7d7" stroke-width="1" opacity="0"><rect width="26" height="32" stroke="none"/><rect x="-0.5" y="-0.5" width="27" height="33" fill="none"/></g><g transform="translate(306 245)" fill="none" stroke="#fff" stroke-width="2"><circle cx="4.5" cy="4.5" r="4.5" stroke="none"/><circle cx="4.5" cy="4.5" r="3.5" fill="none"/></g><g transform="translate(324 239.904)"><path d="M5,10.2v9.264a1.98,1.98,0,0,0,1.887,1.973h9.607a1.924,1.924,0,0,0,1.887-1.973V10.2" transform="translate(-0.569 -1.437)" fill="none" stroke="#fff" stroke-linecap="round" stroke-linejoin="round" stroke-miterlimit="10" stroke-width="2"/><path d="M1,7.545C1,5.829,1.686,4.8,3.23,4.8H9.578" transform="translate(0 -0.669)" fill="none" stroke="#fff" stroke-linecap="round" stroke-linejoin="round" stroke-miterlimit="10" stroke-width="2"/><path d="M22.6,7.545c0-1.716-.686-2.745-2.23-2.745H9.3" transform="translate(-1.18 -0.669)" fill="none" stroke="#fff" stroke-linecap="round" stroke-linejoin="round" stroke-miterlimit="10" stroke-width="2"/><path d="M10.1,4.62C10.1,2.02,11.231,1,13.494,1" transform="translate(-2.347 -0.903)" fill="none" stroke="#fff" stroke-linecap="round" stroke-linejoin="round" stroke-miterlimit="10" stroke-width="2"/><path d="M16.694,4.62C16.694,2.02,15.563,1,13.3,1" transform="translate(-1.927 -0.903)" fill="none" stroke="#fff" stroke-linecap="round" stroke-linejoin="round" stroke-miterlimit="10" stroke-width="2"/><line y2="7.72" transform="translate(8.806 8.763)" fill="none" stroke="#fff" stroke-linecap="round" stroke-linejoin="round" stroke-miterlimit="10" stroke-width="2"/><line y2="7.72" transform="translate(12.923 8.763)" fill="none" stroke="#fff" stroke-linecap="round" stroke-linejoin="round" stroke-miterlimit="10" stroke-width="2"/></g><g transform="translate(380 243)"><g transform="translate(-20.5 -20.6)"><path d="M20.5,32.447v3.139h3.139l9.227-9.227L29.727,23.22Zm14.769-8.49a.824.824,0,0,0,0-1.174L33.33,20.846a.824.824,0,0,0-1.174,0l-1.529,1.5,3.112,3.112Z" fill="none"/><path d="M23.639,35.587l9.227-9.227-3.139-3.139L20.5,32.447v3.139h3.139m10.1-10.128,1.529-1.5a.824.824,0,0,0,0-1.174L33.33,20.846a.824.824,0,0,0-1.174,0l-1.529,1.5,3.112,3.112M24.468,37.587H18.5V31.619l.586-.586,9.227-9.227,1.414-1.414.018.018,1.006-.988a2.824,2.824,0,0,1,3.994.009l1.938,1.938a2.833,2.833,0,0,1,0,4l-.006.006-.006.006-.984.967.009.009L34.28,27.774,25.054,37Z" fill="#fff"/></g></g><g transform="translate(-265 -465.924)"><g transform="translate(628.042 705.924)" fill="none" stroke="#fff" stroke-width="2"><rect width="9.465" height="19.076" rx="3" stroke="none"/><rect x="1" y="1" width="7.465" height="17.076" rx="2" fill="none"/></g><g transform="translate(616 713.077)" fill="none" stroke="#fff" stroke-width="2"><rect width="9.465" height="11.923" rx="3" stroke="none"/><rect x="1" y="1" width="7.465" height="9.923" rx="2" fill="none"/></g></g><g transform="translate(401.001 241.001)"><path d="M9.488,17.9A8.438,8.438,0,0,1,1,9.335,8.56,8.56,0,0,1,9.335,1,8.494,8.494,0,0,1,17.9,8.646c0,.153.153.765.229.688l2.294-6.117" fill="none" stroke="#fff" stroke-linecap="round" stroke-miterlimit="10" stroke-width="2"/><path d="M21.548,11.15,15,9.481" transform="translate(-3.42 -1.815)" fill="none" stroke="#fff" stroke-linecap="round" stroke-miterlimit="10" stroke-width="2"/></g></g><text transform="translate(27 31)" fill="#fff" font-size="24" font-family="Roboto-Medium, Roboto" font-weight="500"><tspan x="0" y="0">tracker</tspan></text><path d="M9.092-28.615s.356-1.735.768-3.774a7.794,7.794,0,0,1,7.623-6.171h0S10.819-18.532,9.75-15.227a.676.676,0,0,1-.631.441.686.686,0,0,1-.658-.441C7.392-18.532.756-38.559.756-38.559h0a7.756,7.756,0,0,1,7.568,6.171C8.735-30.35,9.092-28.615,9.092-28.615Z" transform="translate(9.244 48.559)" fill="#fff"/><g transform="translate(0 42)"><text transform="translate(27 31)" fill="#fff" font-size="24" font-family="Roboto-Medium, Roboto" font-weight="500"><tspan x="0" y="0">tracker</tspan></text><path d="M9.092-28.615s.356-1.735.768-3.774a7.794,7.794,0,0,1,7.623-6.171h0S10.819-18.532,9.75-15.227a.676.676,0,0,1-.631.441.686.686,0,0,1-.658-.441C7.392-18.532.756-38.559.756-38.559h0a7.756,7.756,0,0,1,7.568,6.171C8.735-30.35,9.092-28.615,9.092-28.615Z" transform="translate(9.244 48.559)" fill="#fff"/></g></g></svg>