<svg xmlns="http://www.w3.org/2000/svg" width="25.722" height="22.539" viewBox="0 0 25.722 22.539"><g transform="translate(0 -0.001)" fill="none"><path d="M8.979,0h7.764a8.978,8.978,0,1,1,0,17.956H14.506L9.2,22.539l-.217-4.583A8.978,8.978,0,1,1,8.979,0Z" stroke="none"/><path d="M 8.978858947753906 1.999998092651367 C 5.130699157714844 1.999998092651367 2 5.130397796630859 2 8.978178024291992 C 2 12.82595825195312 5.130699157714844 15.95634841918945 8.978858947753906 15.95634841918945 L 10.88628959655762 15.95634841918945 L 10.97661876678467 17.86163711547852 L 10.99933910369873 18.34090995788574 L 13.19941902160645 16.44222831726074 L 13.76242923736572 15.95634841918945 L 14.5061092376709 15.95634841918945 L 16.74329948425293 15.95634841918945 C 20.59145927429199 15.95634841918945 23.72215843200684 12.82595825195312 23.72215843200684 8.978178024291992 C 23.72215843200684 5.130397796630859 20.59145927429199 1.999998092651367 16.74329948425293 1.999998092651367 L 8.978858947753906 1.999998092651367 M 8.978858947753906 -1.9073486328125e-06 L 16.74329948425293 -1.9073486328125e-06 C 21.70219039916992 -1.9073486328125e-06 25.72215843200684 4.019668579101562 25.72215843200684 8.978178024291992 C 25.72215843200684 13.93667793273926 21.70219039916992 17.95634841918945 16.74329948425293 17.95634841918945 L 14.5061092376709 17.95634841918945 L 9.196098327636719 22.53891754150391 L 8.978858947753906 17.95634841918945 C 4.019969940185547 17.95634841918945 0 13.93667793273926 0 8.978178024291992 C 0 4.019668579101562 4.019969940185547 -1.9073486328125e-06 8.978858947753906 -1.9073486328125e-06 Z" stroke="none" fill="#fff"/></g></svg>