<svg xmlns="http://www.w3.org/2000/svg" viewBox="0 0 307.86 87.918"><defs><style>.a,.b{fill:#454545;}.b{fill-rule:evenodd;}</style></defs><g transform="translate(-534.311 -168.852)"><path class="a" d="M-129.256-2.192A4.135,4.135,0,0,1-130.572.56a4.313,4.313,0,0,1-2.945.969A3.96,3.96,0,0,1-136.708.1a5.745,5.745,0,0,1-1.2-3.821V-4.8a6.4,6.4,0,0,1,.56-2.756,4.18,4.18,0,0,1,1.586-1.825,4.416,4.416,0,0,1,2.377-.637,4.061,4.061,0,0,1,2.871,1,4.184,4.184,0,0,1,1.258,2.767h-1.49a3.214,3.214,0,0,0-.837-1.945,2.539,2.539,0,0,0-1.8-.6,2.652,2.652,0,0,0-2.227,1.05,4.816,4.816,0,0,0-.807,2.987v1.088a4.95,4.95,0,0,0,.764,2.91A2.47,2.47,0,0,0-133.516.317a2.852,2.852,0,0,0,1.895-.56,3.105,3.105,0,0,0,.876-1.949Zm1.42-.687a4.933,4.933,0,0,1,.482-2.207A3.6,3.6,0,0,1-126.01-6.6a3.656,3.656,0,0,1,1.964-.533,3.522,3.522,0,0,1,2.759,1.181,4.543,4.543,0,0,1,1.054,3.141v.1A4.976,4.976,0,0,1-120.7-.521,3.546,3.546,0,0,1-122.035.988a3.7,3.7,0,0,1-2,.54A3.513,3.513,0,0,1-126.782.348a4.52,4.52,0,0,1-1.054-3.126Zm1.436.17a3.573,3.573,0,0,0,.644,2.231,2.063,2.063,0,0,0,1.725.841A2.05,2.05,0,0,0-122.3-.49a3.907,3.907,0,0,0,.641-2.389,3.567,3.567,0,0,0-.652-2.227,2.073,2.073,0,0,0-1.733-.853,2.05,2.05,0,0,0-1.706.841A3.878,3.878,0,0,0-126.4-2.709Zm9.509,4.083h-1.428V-10.481h1.428Zm3.836,0h-1.428V-10.481h1.428Zm7.441,0a3,3,0,0,1-.2-.88,3.186,3.186,0,0,1-2.377,1.034,2.948,2.948,0,0,1-2.026-.7,2.26,2.26,0,0,1-.791-1.771,2.361,2.361,0,0,1,.992-2.026,4.676,4.676,0,0,1,2.79-.722h1.389v-.656a1.6,1.6,0,0,0-.448-1.193,1.8,1.8,0,0,0-1.32-.444,2.082,2.082,0,0,0-1.281.386,1.137,1.137,0,0,0-.517.934h-1.436A1.971,1.971,0,0,1-110.4-5.87a3.029,3.029,0,0,1,1.2-.922,4.051,4.051,0,0,1,1.671-.34,3.3,3.3,0,0,1,2.262.722,2.6,2.6,0,0,1,.849,1.988V-.579a4.7,4.7,0,0,0,.293,1.829v.123Zm-2.37-1.088a2.51,2.51,0,0,0,1.274-.347,2.1,2.1,0,0,0,.872-.9V-2.678h-1.119q-2.624,0-2.624,1.536a1.3,1.3,0,0,0,.448,1.05A1.721,1.721,0,0,0-107.984.286ZM-95.1-2.709a4.966,4.966,0,0,1-.88,3.076,2.811,2.811,0,0,1-2.362,1.162A2.911,2.911,0,0,1-100.79.409l-.069.965h-1.312V-10.481h1.428v4.423a2.9,2.9,0,0,1,2.385-1.073,2.829,2.829,0,0,1,2.389,1.15A5.115,5.115,0,0,1-95.1-2.832Zm-1.428-.162a3.859,3.859,0,0,0-.563-2.254,1.865,1.865,0,0,0-1.621-.8,2.1,2.1,0,0,0-2.03,1.312V-1A2.155,2.155,0,0,0-98.7.317a1.855,1.855,0,0,0,1.6-.8A4.1,4.1,0,0,0-96.529-2.871Zm2.848-.008A4.933,4.933,0,0,1-93.2-5.086,3.6,3.6,0,0,1-91.856-6.6a3.656,3.656,0,0,1,1.964-.533,3.522,3.522,0,0,1,2.759,1.181,4.543,4.543,0,0,1,1.054,3.141v.1a4.976,4.976,0,0,1-.467,2.188A3.546,3.546,0,0,1-87.881.988a3.7,3.7,0,0,1-2,.54A3.513,3.513,0,0,1-92.628.348a4.52,4.52,0,0,1-1.054-3.126Zm1.436.17A3.573,3.573,0,0,0-91.6-.478a2.063,2.063,0,0,0,1.725.841A2.05,2.05,0,0,0-88.147-.49a3.907,3.907,0,0,0,.641-2.389,3.567,3.567,0,0,0-.652-2.227,2.073,2.073,0,0,0-1.733-.853,2.05,2.05,0,0,0-1.706.841A3.878,3.878,0,0,0-92.246-2.709ZM-80.251-5.7a4.279,4.279,0,0,0-.7-.054,1.882,1.882,0,0,0-1.906,1.2V1.374h-1.428V-6.977H-82.9l.023.965a2.223,2.223,0,0,1,1.991-1.119,1.459,1.459,0,0,1,.633.108Zm6.159,7.07a3,3,0,0,1-.2-.88A3.186,3.186,0,0,1-76.67,1.529,2.948,2.948,0,0,1-78.7.83a2.26,2.26,0,0,1-.791-1.771A2.361,2.361,0,0,1-78.5-2.968a4.676,4.676,0,0,1,2.79-.722h1.389v-.656a1.6,1.6,0,0,0-.448-1.193,1.8,1.8,0,0,0-1.32-.444,2.082,2.082,0,0,0-1.281.386,1.137,1.137,0,0,0-.517.934h-1.436a1.971,1.971,0,0,1,.444-1.208,3.029,3.029,0,0,1,1.2-.922A4.051,4.051,0,0,1-76-7.132a3.3,3.3,0,0,1,2.262.722,2.6,2.6,0,0,1,.849,1.988V-.579a4.7,4.7,0,0,0,.293,1.829v.123ZM-76.461.286a2.51,2.51,0,0,0,1.274-.347,2.1,2.1,0,0,0,.872-.9V-2.678h-1.119q-2.624,0-2.624,1.536a1.3,1.3,0,0,0,.448,1.05A1.721,1.721,0,0,0-76.461.286ZM-68.712-9v2.022h1.559v1.1h-1.559V-.694A1.157,1.157,0,0,0-68.5.058a.878.878,0,0,0,.71.251,3.457,3.457,0,0,0,.679-.093V1.374a4.14,4.14,0,0,1-1.1.154A1.778,1.778,0,0,1-69.653.95,2.487,2.487,0,0,1-70.14-.694V-5.874H-71.66v-1.1h1.521V-9Zm2.694,6.121a4.933,4.933,0,0,1,.482-2.207A3.6,3.6,0,0,1-64.193-6.6a3.656,3.656,0,0,1,1.964-.533,3.522,3.522,0,0,1,2.759,1.181,4.543,4.543,0,0,1,1.054,3.141v.1a4.976,4.976,0,0,1-.467,2.188A3.546,3.546,0,0,1-60.218.988a3.7,3.7,0,0,1-2,.54A3.513,3.513,0,0,1-64.964.348a4.52,4.52,0,0,1-1.054-3.126Zm1.436.17a3.573,3.573,0,0,0,.644,2.231,2.063,2.063,0,0,0,1.725.841A2.05,2.05,0,0,0-60.484-.49a3.907,3.907,0,0,0,.641-2.389A3.567,3.567,0,0,0-60.5-5.106a2.073,2.073,0,0,0-1.733-.853,2.05,2.05,0,0,0-1.706.841A3.878,3.878,0,0,0-64.582-2.709ZM-52.588-5.7a4.279,4.279,0,0,0-.7-.054,1.882,1.882,0,0,0-1.906,1.2V1.374h-1.428V-6.977h1.389l.023.965a2.223,2.223,0,0,1,1.991-1.119,1.459,1.459,0,0,1,.633.108Zm2.864,7.07h-1.428V-6.977h1.428ZM-51.268-9.192a.852.852,0,0,1,.212-.587.8.8,0,0,1,.629-.239.809.809,0,0,1,.633.239.843.843,0,0,1,.216.587.816.816,0,0,1-.216.579.824.824,0,0,1-.633.232.811.811,0,0,1-.629-.232A.824.824,0,0,1-51.268-9.192ZM-42.284.548a3.033,3.033,0,0,1-2.447.98A2.6,2.6,0,0,1-46.764.753a3.358,3.358,0,0,1-.706-2.3V-6.977h1.428v5.4q0,1.9,1.544,1.9A2.137,2.137,0,0,0-42.322-.9V-6.977h1.428V1.374h-1.358Zm4.9-7.526.039.926a3.084,3.084,0,0,1,2.478-1.081,2.388,2.388,0,0,1,2.385,1.343A3.164,3.164,0,0,1-31.4-6.761a3.2,3.2,0,0,1,1.578-.37q2.748,0,2.794,2.91v5.6h-1.428V-4.137a1.918,1.918,0,0,0-.409-1.339,1.8,1.8,0,0,0-1.374-.444,1.893,1.893,0,0,0-1.32.475,1.926,1.926,0,0,0-.61,1.277V1.374H-33.6V-4.1A1.593,1.593,0,0,0-35.383-5.92a1.91,1.91,0,0,0-1.922,1.2v6.1h-1.428V-6.977Zm17.127,8.351V-5.874h-1.32v-1.1h1.32v-.857a2.844,2.844,0,0,1,.718-2.076,2.712,2.712,0,0,1,2.03-.733,3.747,3.747,0,0,1,.98.131L-16.6-9.355a4.1,4.1,0,0,0-.772-.069,1.4,1.4,0,0,0-1.073.405,1.64,1.64,0,0,0-.378,1.162v.88h1.783v1.1h-1.783V1.374Zm4.407-4.253a4.933,4.933,0,0,1,.482-2.207A3.6,3.6,0,0,1-14.022-6.6a3.656,3.656,0,0,1,1.964-.533A3.522,3.522,0,0,1-9.3-5.951,4.543,4.543,0,0,1-8.245-2.809v.1A4.976,4.976,0,0,1-8.712-.521,3.546,3.546,0,0,1-10.047.988a3.7,3.7,0,0,1-2,.54A3.513,3.513,0,0,1-14.794.348a4.52,4.52,0,0,1-1.054-3.126Zm1.436.17a3.573,3.573,0,0,0,.644,2.231,2.063,2.063,0,0,0,1.725.841A2.05,2.05,0,0,0-10.314-.49a3.907,3.907,0,0,0,.641-2.389,3.567,3.567,0,0,0-.652-2.227,2.073,2.073,0,0,0-1.733-.853,2.05,2.05,0,0,0-1.706.841A3.878,3.878,0,0,0-14.412-2.709ZM-2.418-5.7a4.279,4.279,0,0,0-.7-.054,1.882,1.882,0,0,0-1.906,1.2V1.374H-6.454V-6.977h1.389l.023.965A2.223,2.223,0,0,1-3.05-7.132a1.459,1.459,0,0,1,.633.108ZM6.343-3.635A6.968,6.968,0,0,1,3.568-4.982,2.573,2.573,0,0,1,2.7-6.954a2.718,2.718,0,0,1,1.061-2.2,4.218,4.218,0,0,1,2.759-.868,4.6,4.6,0,0,1,2.065.448,3.4,3.4,0,0,1,1.4,1.235,3.158,3.158,0,0,1,.5,1.721H9a2.044,2.044,0,0,0-.648-1.6A2.643,2.643,0,0,0,6.52-8.8a2.7,2.7,0,0,0-1.71.482A1.608,1.608,0,0,0,4.2-6.977,1.447,1.447,0,0,0,4.78-5.816a5.721,5.721,0,0,0,1.984.868,9.186,9.186,0,0,1,2.192.868,3.326,3.326,0,0,1,1.173,1.108,2.827,2.827,0,0,1,.382,1.49A2.626,2.626,0,0,1,9.446.707,4.542,4.542,0,0,1,6.6,1.529a5.282,5.282,0,0,1-2.161-.444A3.637,3.637,0,0,1,2.889-.131a2.967,2.967,0,0,1-.544-1.752h1.49A1.936,1.936,0,0,0,4.587-.274,3.169,3.169,0,0,0,6.6.317,2.913,2.913,0,0,0,8.4-.162a1.554,1.554,0,0,0,.625-1.3,1.526,1.526,0,0,0-.579-1.277A6.674,6.674,0,0,0,6.343-3.635Zm5.465.756a4.933,4.933,0,0,1,.482-2.207A3.6,3.6,0,0,1,13.633-6.6,3.656,3.656,0,0,1,15.6-7.132a3.522,3.522,0,0,1,2.759,1.181A4.543,4.543,0,0,1,19.41-2.809v.1a4.976,4.976,0,0,1-.467,2.188A3.546,3.546,0,0,1,17.608.988a3.7,3.7,0,0,1-2,.54A3.513,3.513,0,0,1,12.861.348a4.52,4.52,0,0,1-1.054-3.126Zm1.436.17a3.573,3.573,0,0,0,.644,2.231,2.063,2.063,0,0,0,1.725.841A2.05,2.05,0,0,0,17.342-.49a3.907,3.907,0,0,0,.641-2.389,3.567,3.567,0,0,0-.652-2.227A2.073,2.073,0,0,0,15.6-5.958a2.05,2.05,0,0,0-1.706.841A3.878,3.878,0,0,0,13.243-2.709ZM24.551.363A2.057,2.057,0,0,0,25.886-.1a1.629,1.629,0,0,0,.633-1.158H27.87A2.589,2.589,0,0,1,27.376.108,3.253,3.253,0,0,1,26.16,1.143a3.508,3.508,0,0,1-1.609.386A3.44,3.44,0,0,1,21.838.39a4.534,4.534,0,0,1-1.007-3.114v-.239a5.028,5.028,0,0,1,.448-2.169,3.41,3.41,0,0,1,1.285-1.474,3.651,3.651,0,0,1,1.98-.525,3.349,3.349,0,0,1,2.335.841,3.007,3.007,0,0,1,.992,2.184H26.519a1.968,1.968,0,0,0-.614-1.331,1.909,1.909,0,0,0-1.362-.521,2,2,0,0,0-1.686.783,3.679,3.679,0,0,0-.6,2.265v.27a3.606,3.606,0,0,0,.594,2.223A2.008,2.008,0,0,0,24.551.363Zm6.476,1.011H29.6V-6.977h1.428ZM29.483-9.192a.852.852,0,0,1,.212-.587.8.8,0,0,1,.629-.239.809.809,0,0,1,.633.239.843.843,0,0,1,.216.587.816.816,0,0,1-.216.579.824.824,0,0,1-.633.232.811.811,0,0,1-.629-.232A.824.824,0,0,1,29.483-9.192ZM38.467,1.374a3,3,0,0,1-.2-.88,3.186,3.186,0,0,1-2.377,1.034,2.948,2.948,0,0,1-2.026-.7,2.26,2.26,0,0,1-.791-1.771,2.361,2.361,0,0,1,.992-2.026,4.676,4.676,0,0,1,2.79-.722h1.389v-.656A1.6,1.6,0,0,0,37.8-5.538a1.8,1.8,0,0,0-1.32-.444,2.082,2.082,0,0,0-1.281.386,1.137,1.137,0,0,0-.517.934H33.242a1.971,1.971,0,0,1,.444-1.208,3.029,3.029,0,0,1,1.2-.922,4.051,4.051,0,0,1,1.671-.34,3.3,3.3,0,0,1,2.262.722,2.6,2.6,0,0,1,.849,1.988V-.579a4.7,4.7,0,0,0,.293,1.829v.123ZM36.1.286a2.51,2.51,0,0,0,1.274-.347,2.1,2.1,0,0,0,.872-.9V-2.678H37.124q-2.624,0-2.624,1.536a1.3,1.3,0,0,0,.448,1.05A1.721,1.721,0,0,0,36.1.286Zm7.363,1.088H42.033V-10.481h1.428ZM51.8-9.864l3.674,9.17,3.674-9.17h1.922V1.374H59.585V-3l.139-4.724-3.689,9.1H54.9L51.218-7.7,51.365-3V1.374H49.883V-9.864ZM66.926,1.529A3.649,3.649,0,0,1,64.162.413,4.14,4.14,0,0,1,63.1-2.57v-.262a5.011,5.011,0,0,1,.475-2.219A3.7,3.7,0,0,1,64.9-6.58a3.338,3.338,0,0,1,1.849-.552A3.128,3.128,0,0,1,69.28-6.059a4.645,4.645,0,0,1,.9,3.072v.594H64.525a2.969,2.969,0,0,0,.722,2A2.268,2.268,0,0,0,67,.363,2.487,2.487,0,0,0,68.284.054,3.219,3.219,0,0,0,69.2-.764l.872.679A3.507,3.507,0,0,1,66.926,1.529Zm-.178-7.487a1.9,1.9,0,0,0-1.451.629,3.058,3.058,0,0,0-.726,1.764h4.183v-.108a2.72,2.72,0,0,0-.587-1.686A1.793,1.793,0,0,0,66.748-5.958Zm4.739,3.087A4.892,4.892,0,0,1,72.4-5.962a2.88,2.88,0,0,1,2.385-1.169,2.9,2.9,0,0,1,2.323,1v-4.353h1.428V1.374H77.222l-.069-.9a2.908,2.908,0,0,1-2.385,1.05A2.852,2.852,0,0,1,72.4.34a4.948,4.948,0,0,1-.915-3.1Zm1.428.162A3.7,3.7,0,0,0,73.5-.486a1.9,1.9,0,0,0,1.621.8A2.083,2.083,0,0,0,77.106-.9V-4.739A2.1,2.1,0,0,0,75.138-5.92a1.905,1.905,0,0,0-1.636.81A4.078,4.078,0,0,0,72.915-2.709ZM82.3,1.374H80.873V-6.977H82.3ZM80.757-9.192a.852.852,0,0,1,.212-.587.8.8,0,0,1,.629-.239.809.809,0,0,1,.633.239.843.843,0,0,1,.216.587.816.816,0,0,1-.216.579.824.824,0,0,1-.633.232.811.811,0,0,1-.629-.232A.824.824,0,0,1,80.757-9.192ZM89.741,1.374a3,3,0,0,1-.2-.88,3.186,3.186,0,0,1-2.377,1.034,2.948,2.948,0,0,1-2.026-.7,2.26,2.26,0,0,1-.791-1.771,2.361,2.361,0,0,1,.992-2.026,4.676,4.676,0,0,1,2.79-.722h1.389v-.656a1.6,1.6,0,0,0-.448-1.193,1.8,1.8,0,0,0-1.32-.444,2.082,2.082,0,0,0-1.281.386,1.137,1.137,0,0,0-.517.934H84.516A1.971,1.971,0,0,1,84.96-5.87a3.029,3.029,0,0,1,1.2-.922,4.051,4.051,0,0,1,1.671-.34A3.3,3.3,0,0,1,90.1-6.41a2.6,2.6,0,0,1,.849,1.988V-.579a4.7,4.7,0,0,0,.293,1.829v.123ZM87.372.286a2.51,2.51,0,0,0,1.274-.347,2.1,2.1,0,0,0,.872-.9V-2.678H88.4q-2.624,0-2.624,1.536a1.3,1.3,0,0,0,.448,1.05A1.721,1.721,0,0,0,87.372.286Zm14.881,1.088a3,3,0,0,1-.2-.88,3.186,3.186,0,0,1-2.377,1.034,2.948,2.948,0,0,1-2.026-.7,2.26,2.26,0,0,1-.791-1.771,2.361,2.361,0,0,1,.992-2.026,4.676,4.676,0,0,1,2.79-.722h1.389v-.656a1.6,1.6,0,0,0-.448-1.193,1.8,1.8,0,0,0-1.32-.444A2.082,2.082,0,0,0,98.98-5.6a1.137,1.137,0,0,0-.517.934H97.028a1.971,1.971,0,0,1,.444-1.208,3.029,3.029,0,0,1,1.2-.922,4.051,4.051,0,0,1,1.671-.34,3.3,3.3,0,0,1,2.262.722,2.6,2.6,0,0,1,.849,1.988V-.579a4.7,4.7,0,0,0,.293,1.829v.123ZM99.884.286a2.51,2.51,0,0,0,1.274-.347,2.1,2.1,0,0,0,.872-.9V-2.678H100.91q-2.624,0-2.624,1.536a1.3,1.3,0,0,0,.448,1.05A1.721,1.721,0,0,0,99.884.286Zm7.163-7.263.046,1.05a3.043,3.043,0,0,1,2.5-1.2q2.647,0,2.671,2.987V1.374h-1.428V-4.152a1.923,1.923,0,0,0-.413-1.335,1.655,1.655,0,0,0-1.262-.432,2.061,2.061,0,0,0-1.22.37,2.516,2.516,0,0,0-.818.973V1.374H105.7V-6.977Zm7.024,4.106a4.892,4.892,0,0,1,.911-3.091,2.88,2.88,0,0,1,2.385-1.169,2.9,2.9,0,0,1,2.323,1v-4.353h1.428V1.374h-1.312l-.069-.9a2.908,2.908,0,0,1-2.385,1.05A2.852,2.852,0,0,1,114.985.34a4.948,4.948,0,0,1-.915-3.1Zm1.428.162a3.7,3.7,0,0,0,.587,2.223,1.9,1.9,0,0,0,1.621.8A2.083,2.083,0,0,0,119.689-.9V-4.739a2.1,2.1,0,0,0-1.968-1.181,1.905,1.905,0,0,0-1.636.81A4.079,4.079,0,0,0,115.5-2.709Zm20.616-1.173A6.952,6.952,0,0,1,135.558-1,4.209,4.209,0,0,1,133.984.88a4.332,4.332,0,0,1-2.377.648,4.3,4.3,0,0,1-2.354-.652,4.31,4.31,0,0,1-1.594-1.86,6.67,6.67,0,0,1-.583-2.8v-.81a6.869,6.869,0,0,1,.563-2.864,4.3,4.3,0,0,1,1.594-1.9,4.277,4.277,0,0,1,2.358-.66,4.357,4.357,0,0,1,2.381.652,4.2,4.2,0,0,1,1.586,1.891,6.985,6.985,0,0,1,.556,2.883Zm-1.474-.726a5.039,5.039,0,0,0-.8-3.068,2.648,2.648,0,0,0-2.246-1.069,2.619,2.619,0,0,0-2.211,1.069,4.936,4.936,0,0,0-.83,2.968v.826a5.046,5.046,0,0,0,.814,3.045A2.63,2.63,0,0,0,131.607.27,2.62,2.62,0,0,0,133.83-.775a5.018,5.018,0,0,0,.81-3Zm4.824-2.37.046,1.05a3.043,3.043,0,0,1,2.5-1.2q2.647,0,2.671,2.987V1.374h-1.428V-4.152a1.923,1.923,0,0,0-.413-1.335,1.655,1.655,0,0,0-1.262-.432,2.061,2.061,0,0,0-1.22.37,2.516,2.516,0,0,0-.818.973V1.374h-1.428V-6.977Zm8.923,8.351h-1.428V-10.481h1.428Zm3.836,0h-1.428V-6.977h1.428ZM150.679-9.192a.852.852,0,0,1,.212-.587.8.8,0,0,1,.629-.239.809.809,0,0,1,.633.239.843.843,0,0,1,.216.587.816.816,0,0,1-.216.579.824.824,0,0,1-.633.232.811.811,0,0,1-.629-.232A.824.824,0,0,1,150.679-9.192Zm5.179,2.215.046,1.05a3.043,3.043,0,0,1,2.5-1.2q2.647,0,2.671,2.987V1.374h-1.428V-4.152a1.923,1.923,0,0,0-.413-1.335,1.655,1.655,0,0,0-1.262-.432,2.061,2.061,0,0,0-1.22.37,2.516,2.516,0,0,0-.818.973V1.374h-1.428V-6.977Zm10.837,8.506A3.649,3.649,0,0,1,163.932.413a4.14,4.14,0,0,1-1.065-2.983v-.262a5.012,5.012,0,0,1,.475-2.219,3.7,3.7,0,0,1,1.328-1.528,3.338,3.338,0,0,1,1.849-.552,3.128,3.128,0,0,1,2.532,1.073,4.645,4.645,0,0,1,.9,3.072v.594h-5.658a2.969,2.969,0,0,0,.722,2,2.269,2.269,0,0,0,1.756.76,2.487,2.487,0,0,0,1.281-.309,3.219,3.219,0,0,0,.918-.818l.872.679A3.507,3.507,0,0,1,166.695,1.529Zm-.178-7.487a1.9,1.9,0,0,0-1.451.629,3.058,3.058,0,0,0-.726,1.764h4.183v-.108a2.72,2.72,0,0,0-.587-1.686A1.793,1.793,0,0,0,166.517-5.958ZM-45.807,25.085V13.847h3.674a4.265,4.265,0,0,1,2.752.756,2.726,2.726,0,0,1,.922,2.238,2.283,2.283,0,0,1-.448,1.393,2.9,2.9,0,0,1-1.22.938,2.606,2.606,0,0,1,1.44.969,2.78,2.78,0,0,1,.529,1.7,3.006,3.006,0,0,1-.98,2.377,4.054,4.054,0,0,1-2.771.864Zm1.482-5.256v4.044h2.447a2.356,2.356,0,0,0,1.632-.536,1.884,1.884,0,0,0,.6-1.478q0-2.03-2.208-2.03Zm0-1.189h2.238a2.35,2.35,0,0,0,1.555-.486,1.629,1.629,0,0,0,.583-1.32,1.6,1.6,0,0,0-.54-1.347,2.658,2.658,0,0,0-1.644-.421h-2.192Zm11.6,6.6a3.649,3.649,0,0,1-2.763-1.115,4.14,4.14,0,0,1-1.065-2.983v-.262a5.011,5.011,0,0,1,.475-2.219,3.7,3.7,0,0,1,1.328-1.528A3.338,3.338,0,0,1-32.9,16.58a3.128,3.128,0,0,1,2.532,1.073,4.645,4.645,0,0,1,.9,3.072v.594h-5.658a2.969,2.969,0,0,0,.722,2,2.268,2.268,0,0,0,1.756.76,2.487,2.487,0,0,0,1.281-.309,3.219,3.219,0,0,0,.919-.818l.872.679A3.507,3.507,0,0,1-32.724,25.24Zm-.178-7.487a1.9,1.9,0,0,0-1.451.629,3.058,3.058,0,0,0-.726,1.764h4.183v-.108a2.72,2.72,0,0,0-.587-1.686A1.793,1.793,0,0,0-32.9,17.753Zm6.514-.008a3.036,3.036,0,0,1,2.47-1.165q2.647,0,2.671,2.987v5.519h-1.428V19.559a1.923,1.923,0,0,0-.413-1.335,1.655,1.655,0,0,0-1.262-.432,2.061,2.061,0,0,0-1.22.37,2.516,2.516,0,0,0-.818.973v5.951h-1.428V13.23h1.428Zm12.435,7.34a3,3,0,0,1-.2-.88,3.186,3.186,0,0,1-2.377,1.034,2.948,2.948,0,0,1-2.026-.7,2.26,2.26,0,0,1-.791-1.771,2.361,2.361,0,0,1,.992-2.026,4.676,4.676,0,0,1,2.79-.722h1.389v-.656a1.6,1.6,0,0,0-.448-1.193,1.8,1.8,0,0,0-1.32-.444,2.082,2.082,0,0,0-1.281.386,1.137,1.137,0,0,0-.517.934h-1.436a1.971,1.971,0,0,1,.444-1.208,3.029,3.029,0,0,1,1.2-.922,4.051,4.051,0,0,1,1.671-.34A3.3,3.3,0,0,1-13.6,17.3a2.6,2.6,0,0,1,.849,1.988v3.844a4.7,4.7,0,0,0,.293,1.829v.123ZM-16.322,24a2.51,2.51,0,0,0,1.274-.347,2.1,2.1,0,0,0,.872-.9V21.033H-15.3q-2.624,0-2.624,1.536a1.3,1.3,0,0,0,.448,1.05A1.721,1.721,0,0,0-16.322,24Zm8.452-.849L-5.8,16.734h1.459l-2.995,8.351H-8.426l-3.026-8.351h1.459Zm6.453,1.937H-2.846V16.734h1.428ZM-2.962,14.519a.852.852,0,0,1,.212-.587.8.8,0,0,1,.629-.239.809.809,0,0,1,.633.239.843.843,0,0,1,.216.587.816.816,0,0,1-.216.579.824.824,0,0,1-.633.232.811.811,0,0,1-.629-.232A.824.824,0,0,1-2.962,14.519Zm3.45,6.314a4.933,4.933,0,0,1,.482-2.207,3.6,3.6,0,0,1,1.343-1.513,3.656,3.656,0,0,1,1.964-.533,3.522,3.522,0,0,1,2.759,1.181A4.543,4.543,0,0,1,8.091,20.9V21a4.976,4.976,0,0,1-.467,2.188A3.546,3.546,0,0,1,6.289,24.7a3.7,3.7,0,0,1-2,.54,3.513,3.513,0,0,1-2.752-1.181A4.52,4.52,0,0,1,.488,20.933ZM1.924,21a3.573,3.573,0,0,0,.644,2.231,2.063,2.063,0,0,0,1.725.841,2.05,2.05,0,0,0,1.729-.853,3.907,3.907,0,0,0,.641-2.389,3.567,3.567,0,0,0-.652-2.227,2.073,2.073,0,0,0-1.733-.853,2.05,2.05,0,0,0-1.706.841A3.878,3.878,0,0,0,1.924,21Zm11.995-2.987a4.279,4.279,0,0,0-.7-.054,1.882,1.882,0,0,0-1.906,1.2v5.928H9.882V16.734h1.389l.023.965a2.223,2.223,0,0,1,1.991-1.119,1.459,1.459,0,0,1,.633.108Zm6.159,7.07a3,3,0,0,1-.2-.88A3.186,3.186,0,0,1,17.5,25.24a2.948,2.948,0,0,1-2.026-.7,2.26,2.26,0,0,1-.791-1.771,2.361,2.361,0,0,1,.992-2.026,4.676,4.676,0,0,1,2.79-.722h1.389v-.656a1.6,1.6,0,0,0-.448-1.193,1.8,1.8,0,0,0-1.32-.444,2.082,2.082,0,0,0-1.281.386,1.137,1.137,0,0,0-.517.934H14.853a1.971,1.971,0,0,1,.444-1.208,3.029,3.029,0,0,1,1.2-.922,4.051,4.051,0,0,1,1.671-.34,3.3,3.3,0,0,1,2.262.722,2.6,2.6,0,0,1,.849,1.988v3.844a4.7,4.7,0,0,0,.293,1.829v.123ZM17.708,24a2.51,2.51,0,0,0,1.274-.347,2.1,2.1,0,0,0,.872-.9V21.033H18.735q-2.624,0-2.624,1.536a1.3,1.3,0,0,0,.448,1.05A1.721,1.721,0,0,0,17.708,24Zm7.363,1.088H23.644V13.23h1.428ZM34.8,20.076a6.969,6.969,0,0,1-2.775-1.347,2.573,2.573,0,0,1-.868-1.972,2.718,2.718,0,0,1,1.061-2.2,4.218,4.218,0,0,1,2.759-.868,4.6,4.6,0,0,1,2.065.448,3.4,3.4,0,0,1,1.4,1.235,3.158,3.158,0,0,1,.5,1.721H37.46a2.044,2.044,0,0,0-.648-1.6,2.643,2.643,0,0,0-1.829-.583,2.7,2.7,0,0,0-1.71.482,1.608,1.608,0,0,0-.614,1.339,1.447,1.447,0,0,0,.583,1.162,5.721,5.721,0,0,0,1.984.868,9.186,9.186,0,0,1,2.192.868,3.326,3.326,0,0,1,1.173,1.108,2.827,2.827,0,0,1,.382,1.49,2.626,2.626,0,0,1-1.065,2.188,4.542,4.542,0,0,1-2.848.822A5.282,5.282,0,0,1,32.9,24.8a3.637,3.637,0,0,1-1.548-1.216,2.967,2.967,0,0,1-.544-1.752H32.3a1.936,1.936,0,0,0,.753,1.609,3.169,3.169,0,0,0,2.011.59,2.913,2.913,0,0,0,1.8-.479,1.554,1.554,0,0,0,.625-1.3,1.526,1.526,0,0,0-.579-1.277A6.674,6.674,0,0,0,34.8,20.076Zm7.78-5.364v2.022h1.559v1.1H42.585v5.179a1.157,1.157,0,0,0,.208.753.878.878,0,0,0,.71.251,3.457,3.457,0,0,0,.679-.093v1.158a4.14,4.14,0,0,1-1.1.154,1.778,1.778,0,0,1-1.443-.579,2.487,2.487,0,0,1-.486-1.644V17.838H39.637v-1.1h1.521V14.712Zm8.382,9.548a3.033,3.033,0,0,1-2.447.98,2.6,2.6,0,0,1-2.034-.776,3.358,3.358,0,0,1-.706-2.3V16.734h1.428v5.4q0,1.9,1.544,1.9a2.137,2.137,0,0,0,2.177-1.22V16.734h1.428v8.351H51Zm3.211-3.419a4.892,4.892,0,0,1,.911-3.091,3.1,3.1,0,0,1,4.708-.166V13.23h1.428V25.085H59.913l-.069-.9a2.908,2.908,0,0,1-2.385,1.05,2.852,2.852,0,0,1-2.366-1.189,4.948,4.948,0,0,1-.915-3.1ZM55.606,21a3.7,3.7,0,0,0,.587,2.223,1.9,1.9,0,0,0,1.621.8,2.083,2.083,0,0,0,1.984-1.22V18.972a2.1,2.1,0,0,0-1.968-1.181,1.905,1.905,0,0,0-1.636.81A4.078,4.078,0,0,0,55.606,21Zm9.386,4.083H63.564V16.734h1.428ZM63.448,14.519a.852.852,0,0,1,.212-.587.8.8,0,0,1,.629-.239.809.809,0,0,1,.633.239.843.843,0,0,1,.216.587.816.816,0,0,1-.216.579.824.824,0,0,1-.633.232.811.811,0,0,1-.629-.232A.824.824,0,0,1,63.448,14.519ZM70.742,25.24a3.649,3.649,0,0,1-2.763-1.115,4.14,4.14,0,0,1-1.065-2.983v-.262a5.012,5.012,0,0,1,.475-2.219,3.7,3.7,0,0,1,1.328-1.528,3.338,3.338,0,0,1,1.849-.552A3.128,3.128,0,0,1,73.1,17.652a4.645,4.645,0,0,1,.9,3.072v.594H68.342a2.969,2.969,0,0,0,.722,2,2.268,2.268,0,0,0,1.756.76,2.487,2.487,0,0,0,1.281-.309,3.219,3.219,0,0,0,.919-.818l.872.679A3.507,3.507,0,0,1,70.742,25.24Zm-.178-7.487a1.9,1.9,0,0,0-1.451.629,3.058,3.058,0,0,0-.726,1.764h4.183v-.108a2.72,2.72,0,0,0-.587-1.686A1.793,1.793,0,0,0,70.565,17.753Zm9.949,5.117a1.051,1.051,0,0,0-.436-.9,4.2,4.2,0,0,0-1.521-.552,7.189,7.189,0,0,1-1.721-.556,2.449,2.449,0,0,1-.942-.772,1.846,1.846,0,0,1-.3-1.065,2.166,2.166,0,0,1,.868-1.737,3.391,3.391,0,0,1,2.219-.71,3.49,3.49,0,0,1,2.3.733,2.329,2.329,0,0,1,.884,1.876H80.429a1.289,1.289,0,0,0-.5-1.011,1.865,1.865,0,0,0-1.254-.425,1.952,1.952,0,0,0-1.22.34,1.069,1.069,0,0,0-.44.888.866.866,0,0,0,.409.78,5.033,5.033,0,0,0,1.478.5,7.7,7.7,0,0,1,1.733.571,2.528,2.528,0,0,1,.984.8,1.964,1.964,0,0,1,.32,1.138,2.137,2.137,0,0,1-.9,1.795,3.756,3.756,0,0,1-2.323.675,4.206,4.206,0,0,1-1.775-.355,2.887,2.887,0,0,1-1.208-.992,2.391,2.391,0,0,1-.436-1.378h1.428a1.478,1.478,0,0,0,.575,1.138,2.231,2.231,0,0,0,1.416.421,2.3,2.3,0,0,0,1.3-.328A1.008,1.008,0,0,0,80.514,22.87Z" transform="translate(672.219 231.53)"/><g transform="translate(534.311 168.851)"><path class="a" d="M24.082-4.531A19.64,19.64,0,0,1,13.8-7.319a20.052,20.052,0,0,1-7.339-7.628A21.655,21.655,0,0,1,3.776-25.626a21.4,21.4,0,0,1,2.683-10.6A20.3,20.3,0,0,1,13.8-43.855a19.5,19.5,0,0,1,10.285-2.814A20.428,20.428,0,0,1,31-45.617a20.733,20.733,0,0,1,5.918,3.472,2.486,2.486,0,0,1,.842.973,3.038,3.038,0,0,1,.21,1.184,2.23,2.23,0,0,1-.763,1.736,2.561,2.561,0,0,1-1.762.684,2.857,2.857,0,0,1-1.841-.684A15.305,15.305,0,0,0,29.4-40.909a14.582,14.582,0,0,0-5.313-.815,13.952,13.952,0,0,0-7.549,2.157A15.6,15.6,0,0,0,11.062-33.7a16.577,16.577,0,0,0-2.025,8.075,16.532,16.532,0,0,0,2.025,8.1,15.654,15.654,0,0,0,5.471,5.839,13.952,13.952,0,0,0,7.549,2.157A15.91,15.91,0,0,0,33.762-13a3.023,3.023,0,0,1,1.736-.631,2.162,2.162,0,0,1,1.657.71,2.639,2.639,0,0,1,.658,1.868,2.673,2.673,0,0,1-.842,1.946A19.994,19.994,0,0,1,24.082-4.531Zm41.454,0A21.742,21.742,0,0,1,54.673-7.214a18.768,18.768,0,0,1-7.391-7.5,22.389,22.389,0,0,1-2.63-10.916,22.238,22.238,0,0,1,2.63-10.89,18.814,18.814,0,0,1,7.391-7.47,21.742,21.742,0,0,1,10.863-2.683,21.635,21.635,0,0,1,10.811,2.683,18.992,18.992,0,0,1,7.418,7.47,22.061,22.061,0,0,1,2.657,10.89A22.211,22.211,0,0,1,83.765-14.71a19,19,0,0,1-7.391,7.5A21.6,21.6,0,0,1,65.537-4.531Zm0-4.945a15.427,15.427,0,0,0,8.049-2.131,14.936,14.936,0,0,0,5.576-5.813,16.919,16.919,0,0,0,2-8.207,16.919,16.919,0,0,0-2-8.207,14.805,14.805,0,0,0-5.55-5.787,15.536,15.536,0,0,0-8.075-2.1,15.536,15.536,0,0,0-8.075,2.1,14.805,14.805,0,0,0-5.55,5.787,16.919,16.919,0,0,0-2,8.207,16.919,16.919,0,0,0,2,8.207,14.936,14.936,0,0,0,5.576,5.813A15.427,15.427,0,0,0,65.537-9.476Zm42.506,4.945a18.85,18.85,0,0,1-9.285-2.315A12.511,12.511,0,0,1,93-12.9a2.863,2.863,0,0,1-.263-1.052,1.958,1.958,0,0,1,.579-1.394,2.962,2.962,0,0,1,1.578-.815,1.846,1.846,0,0,1,.526-.053,2.882,2.882,0,0,1,1.6.5,3.014,3.014,0,0,1,1.131,1.341,7.734,7.734,0,0,0,3.735,3.472,13.361,13.361,0,0,0,6.155,1.42,11.816,11.816,0,0,0,6.681-1.815,5.669,5.669,0,0,0,2.736-4.971,6.726,6.726,0,0,0-2.315-5.129Q112.83-23.522,108.1-24q-6.523-.631-10.258-3.814a10.041,10.041,0,0,1-3.735-7.97,9.133,9.133,0,0,1,1.92-5.813,11.99,11.99,0,0,1,5.261-3.735,20.687,20.687,0,0,1,7.5-1.289,14.716,14.716,0,0,1,7.628,1.841,15.709,15.709,0,0,1,5.261,5.261,3.575,3.575,0,0,1,.631,1.894,2.226,2.226,0,0,1-1.052,1.894,2.493,2.493,0,0,1-1.368.368,2.9,2.9,0,0,1-1.473-.395,2.705,2.705,0,0,1-1.052-1.078,10,10,0,0,0-3.551-3.6,10.623,10.623,0,0,0-5.392-1.236,12.023,12.023,0,0,0-6.471,1.552,5,5,0,0,0-2.473,4.5,5.726,5.726,0,0,0,2.209,4.577q2.209,1.841,7.891,2.42,6.313.631,9.785,3.814a10.842,10.842,0,0,1,3.472,8.391,10.451,10.451,0,0,1-2.052,6.5,12.365,12.365,0,0,1-5.445,4.051A19.637,19.637,0,0,1,108.043-4.531Zm61.55-41.612a2.645,2.645,0,0,1,1.946.789,2.645,2.645,0,0,1,.789,1.946V-7.792a2.6,2.6,0,0,1-.815,1.946,2.671,2.671,0,0,1-1.92.789,2.645,2.645,0,0,1-1.946-.789,2.645,2.645,0,0,1-.789-1.946V-33.938L154.127-8a2.718,2.718,0,0,1-2.367,1.368,2.634,2.634,0,0,1-2.525-1.631l-12.573-25.2V-7.792a2.645,2.645,0,0,1-.789,1.946,2.645,2.645,0,0,1-1.946.789,2.645,2.645,0,0,1-1.946-.789,2.645,2.645,0,0,1-.789-1.946V-43.407a2.645,2.645,0,0,1,.789-1.946,2.645,2.645,0,0,1,1.946-.789,2.649,2.649,0,0,1,2.42,1.473l15.624,31.3,15.2-31.3A2.649,2.649,0,0,1,169.593-46.143ZM201.841-4.531a21.742,21.742,0,0,1-10.863-2.683,18.768,18.768,0,0,1-7.391-7.5,22.389,22.389,0,0,1-2.63-10.916,22.238,22.238,0,0,1,2.63-10.89,18.813,18.813,0,0,1,7.391-7.47,21.742,21.742,0,0,1,10.863-2.683,21.635,21.635,0,0,1,10.811,2.683,18.993,18.993,0,0,1,7.418,7.47,22.061,22.061,0,0,1,2.657,10.89,22.211,22.211,0,0,1-2.657,10.916,19,19,0,0,1-7.391,7.5A21.6,21.6,0,0,1,201.841-4.531Zm0-4.945a15.427,15.427,0,0,0,8.049-2.131,14.936,14.936,0,0,0,5.576-5.813,16.919,16.919,0,0,0,2-8.207,16.919,16.919,0,0,0-2-8.207,14.805,14.805,0,0,0-5.55-5.787,15.536,15.536,0,0,0-8.075-2.1,15.536,15.536,0,0,0-8.075,2.1,14.805,14.805,0,0,0-5.55,5.787,16.919,16.919,0,0,0-2,8.207,16.919,16.919,0,0,0,2,8.207,14.936,14.936,0,0,0,5.576,5.813A15.427,15.427,0,0,0,201.841-9.476Zm42.506,4.945a18.85,18.85,0,0,1-9.285-2.315,12.511,12.511,0,0,1-5.76-6.05,2.863,2.863,0,0,1-.263-1.052,1.958,1.958,0,0,1,.579-1.394,2.962,2.962,0,0,1,1.578-.815,1.846,1.846,0,0,1,.526-.053,2.882,2.882,0,0,1,1.6.5,3.014,3.014,0,0,1,1.131,1.341,7.734,7.734,0,0,0,3.735,3.472,13.361,13.361,0,0,0,6.155,1.42,11.816,11.816,0,0,0,6.681-1.815,5.67,5.67,0,0,0,2.736-4.971,6.726,6.726,0,0,0-2.315-5.129q-2.315-2.131-7.049-2.6-6.523-.631-10.258-3.814a10.041,10.041,0,0,1-3.735-7.97,9.133,9.133,0,0,1,1.92-5.813,11.99,11.99,0,0,1,5.261-3.735,20.686,20.686,0,0,1,7.5-1.289,14.716,14.716,0,0,1,7.628,1.841,15.708,15.708,0,0,1,5.261,5.261,3.574,3.574,0,0,1,.631,1.894,2.226,2.226,0,0,1-1.052,1.894,2.493,2.493,0,0,1-1.368.368,2.9,2.9,0,0,1-1.473-.395,2.706,2.706,0,0,1-1.052-1.078,10,10,0,0,0-3.551-3.6,10.623,10.623,0,0,0-5.392-1.236,12.023,12.023,0,0,0-6.471,1.552,5,5,0,0,0-2.473,4.5,5.726,5.726,0,0,0,2.209,4.577q2.209,1.841,7.891,2.42,6.313.631,9.785,3.814a10.842,10.842,0,0,1,3.472,8.391,10.451,10.451,0,0,1-2.052,6.5,12.365,12.365,0,0,1-5.445,4.051A19.637,19.637,0,0,1,244.347-4.531Z" transform="translate(48.73 46.669)"/><path class="b" d="M480.747,452.752a10.75,10.75,0,0,1,5.222,1.453,16.471,16.471,0,0,1,4.332,3.64,13.541,13.541,0,0,1,2.583,4.35,10.05,10.05,0,0,1,.485,4.64,10.2,10.2,0,0,1-2.495,5.433c-.221.263-.451.523-.676.781a1.205,1.205,0,0,0-.2,1.237,2.3,2.3,0,0,0,.429.577,18.746,18.746,0,0,1,1.267,1.568c.132.189.25.387.363.588a10.106,10.106,0,0,1,.11,10.071,16.386,16.386,0,0,1-4,4.818,13.5,13.5,0,0,1-3.8,2.292,10.03,10.03,0,0,1-5.616.49,11.027,11.027,0,0,1-3.57-1.464,14.25,14.25,0,0,1-1.912-1.538,1.245,1.245,0,0,0-.742-.327,1.192,1.192,0,0,0-.861.3,19.33,19.33,0,0,1-1.643,1.367c-.159.113-.323.215-.49.315a10.049,10.049,0,0,1-10.063.387,15.836,15.836,0,0,1-4.509-3.518,13.8,13.8,0,0,1-2.995-4.9,10,10,0,0,1-.341-5.065,11.085,11.085,0,0,1,1.562-3.8l.047-.073a16.044,16.044,0,0,1,1.419-1.73,1.225,1.225,0,0,0,.233-1.281,2.114,2.114,0,0,0-.4-.536,13.3,13.3,0,0,1-1.328-1.659,10.846,10.846,0,0,1-1.66-4.573,10.43,10.43,0,0,1,1.017-5.61,15.514,15.514,0,0,1,3.315-4.435,14.238,14.238,0,0,1,4.661-3.082,10.076,10.076,0,0,1,4.716-.655,10.839,10.839,0,0,1,4.626,1.685,14.205,14.205,0,0,1,1.8,1.462,1.225,1.225,0,0,0,1.286.232,2.089,2.089,0,0,0,.53-.393,13.167,13.167,0,0,1,1.68-1.342,10.591,10.591,0,0,1,5.572-1.7ZM465.019,469a1.992,1.992,0,0,1,1.365.57c2.857.992,3.176,7.58.009,8.482a2,2,0,0,1-1.821.536,2.216,2.216,0,0,1-.67-.285,3.486,3.486,0,0,0-2.267-.531,3.135,3.135,0,0,0-2.568,2.5,4,4,0,0,0,.438,2.327,9.254,9.254,0,0,0,1.869,2.491,7.9,7.9,0,0,0,2.967,1.983,3.377,3.377,0,0,0,2.049.09,3.141,3.141,0,0,0,2.136-2.623,3.5,3.5,0,0,0-.574-2.169s-.053-.086-.094-.168a1.965,1.965,0,0,1,.366-2.262c1.134-3.362,7.636-2.608,8.45,0a2,2,0,0,1,.529,1.826,2.2,2.2,0,0,1-.283.66,3.47,3.47,0,0,0-.539,2.159,3.173,3.173,0,0,0,1.323,2.18,2.852,2.852,0,0,0,1.7.526,4.548,4.548,0,0,0,2.083-.621,9.975,9.975,0,0,0,2.641-2.2,7.363,7.363,0,0,0,1.555-2.558,3.267,3.267,0,0,0,0-2.21,3.234,3.234,0,0,0-1.384-1.562,2.917,2.917,0,0,0-1.807-.362,3.85,3.85,0,0,0-1.545.575s-.088.054-.167.093a1.966,1.966,0,0,1-2.253-.368c-3.33-.81-3.139-7.4-.01-8.482a2,2,0,0,1,1.811-.538,10.118,10.118,0,0,0,2.939.819,3.119,3.119,0,0,0,2.576-2.505,3.988,3.988,0,0,0-.432-2.308,9.217,9.217,0,0,0-1.875-2.506,7.567,7.567,0,0,0-3.138-2.036,3.292,3.292,0,0,0-1.878-.036,3.143,3.143,0,0,0-2.135,2.623,3.527,3.527,0,0,0,.574,2.17l.038.064a1.966,1.966,0,0,1-.31,2.365c-.9,2.627-7.461,2.715-8.45,0a2,2,0,0,1-.529-1.826,2.175,2.175,0,0,1,.283-.66,3.459,3.459,0,0,0,.538-2.167,3.172,3.172,0,0,0-1.322-2.172,2.842,2.842,0,0,0-1.713-.525,4.9,4.9,0,0,0-2.482.868,10.608,10.608,0,0,0-2.238,1.971,7.272,7.272,0,0,0-1.546,2.556,3.07,3.07,0,0,0,2.455,4.121,3.525,3.525,0,0,0,2.288-.574s.074-.045.139-.078A1.983,1.983,0,0,1,465.019,469Z" transform="translate(-451.445 -452.751)"/></g></g></svg>