<?xml version="1.0" encoding="utf-8"?>
<!-- Generator: Adobe Illustrator 23.0.4, SVG Export Plug-In . SVG Version: 6.00 Build 0)  -->
<svg version="1.1" id="Layer_1" xmlns="http://www.w3.org/2000/svg" xmlns:xlink="http://www.w3.org/1999/xlink" x="0px" y="0px"
	 viewBox="0 0 248.8 37.5" style="enable-background:new 0 0 248.8 37.5;" xml:space="preserve">
<style type="text/css">
	.st0{fill:#FFFFFF;}
	.st1{fill-rule:evenodd;clip-rule:evenodd;fill:#FFFFFF;}
</style>
<g transform="translate(-557 -3056.719)">
	<path class="st0" d="M620.9,3091.5c-2.9,0-5.7-0.8-8.2-2.3c-2.5-1.5-4.5-3.6-5.9-6.1c-1.5-2.6-2.2-5.5-2.2-8.4
		c0-2.9,0.7-5.8,2.2-8.4c1.4-2.5,3.4-4.6,5.9-6.1c2.5-1.5,5.3-2.3,8.2-2.3c1.9,0,3.7,0.3,5.5,0.9c1.8,0.6,3.4,1.6,4.8,2.8
		c0.3,0.2,0.5,0.6,0.5,1c0,0.2-0.1,0.4-0.2,0.6c-0.1,0.2-0.3,0.3-0.5,0.4c-0.1,0.2-0.2,0.4-0.4,0.5c-0.2,0.1-0.4,0.2-0.6,0.2
		c-0.4,0-0.8-0.1-1-0.4c-1-0.9-2.2-1.7-3.6-2.1c-1.5-0.5-3-0.7-4.5-0.7c-2.3,0-4.6,0.6-6.6,1.9c-2,1.2-3.7,3-4.8,5
		c-1.2,2.1-1.8,4.4-1.8,6.8c0,2.4,0.6,4.8,1.8,6.9c1.1,2.1,2.8,3.8,4.8,5c2,1.2,4.3,1.9,6.6,1.8c3,0,5.9-1,8.3-2.9
		c0.3-0.2,0.6-0.3,0.9-0.3c0.4,0,0.8,0.2,1.1,0.4c0.3,0.3,0.5,0.7,0.5,1.2c0,0.4-0.2,0.9-0.5,1.2
		C628.3,3090.4,624.6,3091.7,620.9,3091.5z M653.7,3091.5c-3,0-6-0.7-8.6-2.2c-2.5-1.4-4.6-3.5-6-6c-1.5-2.6-2.2-5.6-2.2-8.6
		c0-3,0.7-6,2.2-8.6c1.4-2.5,3.5-4.6,6-6c2.6-1.5,5.6-2.2,8.6-2.2c3,0,6,0.7,8.6,2.2c2.5,1.4,4.6,3.5,6,6c1.5,2.6,2.2,5.6,2.2,8.6
		c0,3-0.7,6-2.2,8.6c-1.4,2.5-3.5,4.6-6,6C659.6,3090.8,656.7,3091.6,653.7,3091.5L653.7,3091.5z M653.7,3088.4
		c2.4,0,4.8-0.6,6.9-1.8c2-1.2,3.7-2.9,4.8-4.9c1.2-2.1,1.8-4.5,1.8-7c0-2.4-0.6-4.8-1.8-7c-1.1-2.1-2.8-3.8-4.9-4.9
		c-2.1-1.2-4.5-1.8-6.9-1.8c-2.4,0-4.8,0.6-7,1.8c-2,1.2-3.7,2.9-4.9,4.9c-1.2,2.1-1.8,4.5-1.8,7c0,2.4,0.6,4.9,1.8,7
		c1.1,2.1,2.8,3.8,4.9,4.9C648.8,3087.8,651.2,3088.5,653.7,3088.4L653.7,3088.4z M687.3,3091.5c-2.5,0-4.9-0.5-7.1-1.7
		c-1.9-1-3.5-2.6-4.4-4.6c-0.1-0.2-0.2-0.4-0.2-0.7c0-0.4,0.2-0.7,0.4-1c0.3-0.3,0.8-0.4,1.2-0.4c0.3,0,0.7,0.1,0.9,0.3
		c0.3,0.2,0.5,0.5,0.7,0.8c0.7,1.3,1.8,2.4,3.2,3c1.6,0.8,3.4,1.2,5.2,1.2c2,0.1,3.9-0.5,5.5-1.7c1.4-1.1,2.2-2.8,2.1-4.6
		c0-1.7-0.7-3.3-2-4.5c-1.7-1.4-3.7-2.2-5.9-2.3c-2.8-0.2-5.5-1.3-7.7-3c-1.8-1.5-2.8-3.7-2.8-6c0-1.6,0.4-3.1,1.4-4.4
		c1-1.3,2.3-2.3,3.8-2.9c1.7-0.7,3.6-1.1,5.5-1c2,0,4.1,0.5,5.8,1.5c1.6,0.9,3,2.2,3.9,3.8c0.2,0.3,0.3,0.7,0.3,1
		c0,0.5-0.3,1-0.8,1.3c-0.2,0.1-0.5,0.2-0.8,0.2c-0.3,0-0.6-0.1-0.9-0.2c-0.3-0.2-0.5-0.4-0.7-0.7c-1.5-2.4-4.2-3.9-7.1-3.7
		c-1.9-0.1-3.8,0.4-5.4,1.4c-1.3,0.9-2.1,2.5-2,4.1c0,3.3,2.6,5.3,7.9,6c3.5,0.5,6.1,1.6,7.8,3.2c1.7,1.7,2.7,4,2.6,6.4
		c0,1.8-0.5,3.6-1.4,5.1c-1,1.4-2.3,2.6-3.9,3.3C691.1,3091.2,689.2,3091.6,687.3,3091.5z M736.2,3058.3c0.4,0,0.8,0.2,1.1,0.5
		c0.3,0.3,0.5,0.7,0.5,1.2v29.5c0,0.4-0.2,0.8-0.5,1.2c-0.3,0.3-0.7,0.5-1.1,0.5c-0.4,0-0.9-0.2-1.2-0.5c-0.3-0.3-0.5-0.7-0.5-1.2
		v-23.8l-11.7,23.9c-0.3,0.5-0.8,0.8-1.4,0.8c-0.7,0-1.3-0.4-1.5-1l-11.6-23.3v23.4c0,0.4-0.2,0.8-0.5,1.2c-0.3,0.3-0.7,0.5-1.2,0.5
		c-0.4,0-0.9-0.2-1.2-0.5c-0.3-0.3-0.5-0.7-0.5-1.2V3060c0-0.4,0.2-0.9,0.5-1.2c0.3-0.3,0.7-0.5,1.2-0.5c0.6,0,1.2,0.3,1.5,0.8
		l13.4,26.7l13.2-26.7C735,3058.6,735.6,3058.3,736.2,3058.3z M761.3,3091.5c-3,0-6-0.7-8.6-2.2c-2.5-1.4-4.6-3.5-6-6
		c-1.5-2.6-2.2-5.6-2.2-8.6c0-3,0.7-6,2.2-8.6c1.4-2.5,3.5-4.6,6-6c2.6-1.5,5.6-2.2,8.6-2.2c3,0,6,0.7,8.6,2.2c2.5,1.4,4.6,3.5,6,6
		c1.5,2.6,2.2,5.6,2.2,8.6c0,3-0.7,6-2.2,8.6c-1.4,2.5-3.5,4.6-6,6C767.3,3090.8,764.4,3091.6,761.3,3091.5z M761.3,3088.4
		c2.4,0,4.8-0.6,6.9-1.8c2-1.2,3.7-2.9,4.9-4.9c1.2-2.1,1.8-4.5,1.8-7c0-2.4-0.6-4.8-1.8-7c-1.1-2.1-2.8-3.8-4.9-4.9
		c-2.1-1.2-4.5-1.8-6.9-1.8c-2.4,0-4.8,0.6-7,1.8c-2,1.2-3.7,2.9-4.9,4.9c-1.2,2.1-1.8,4.5-1.8,7c0,2.4,0.6,4.9,1.8,7
		c1.1,2.1,2.8,3.8,4.9,4.9C756.5,3087.8,758.9,3088.5,761.3,3088.4z M794.9,3091.5c-2.5,0-4.9-0.5-7.1-1.7c-1.9-1-3.5-2.6-4.4-4.6
		c-0.1-0.2-0.2-0.4-0.2-0.7c0-0.4,0.2-0.7,0.4-1c0.3-0.3,0.8-0.4,1.2-0.4c0.3,0,0.7,0.1,0.9,0.3c0.3,0.2,0.5,0.5,0.7,0.8
		c0.7,1.3,1.8,2.4,3.2,3c1.6,0.8,3.4,1.2,5.2,1.2c2,0.1,3.9-0.5,5.5-1.7c1.4-1.1,2.2-2.8,2.1-4.6c0-1.7-0.7-3.3-2-4.5
		c-1.7-1.4-3.7-2.2-5.9-2.3c-2.8-0.2-5.5-1.3-7.7-3.1c-1.8-1.5-2.8-3.7-2.8-6c0-1.6,0.4-3.1,1.4-4.4c1-1.3,2.3-2.3,3.8-2.9
		c1.7-0.7,3.6-1.1,5.5-1c2,0,4.1,0.5,5.8,1.5c1.6,0.9,3,2.2,3.9,3.8c0.2,0.3,0.3,0.7,0.3,1c0,0.5-0.3,1-0.8,1.3
		c-0.2,0.1-0.5,0.2-0.8,0.2c-0.3,0-0.6-0.1-0.9-0.2c-0.3-0.2-0.5-0.4-0.7-0.7c-1.5-2.4-4.2-3.9-7.1-3.7c-1.9-0.1-3.8,0.4-5.4,1.4
		c-1.3,0.9-2.1,2.5-2,4.1c0,3.3,2.6,5.3,7.9,6c3.5,0.5,6.1,1.6,7.8,3.2c1.7,1.7,2.7,4,2.6,6.4c0,1.8-0.5,3.6-1.4,5.1
		c-1,1.4-2.3,2.6-3.9,3.3C798.7,3091.2,796.9,3091.6,794.9,3091.5z"/>
	<path class="st1" d="M583.1,3056.7c1.6,0,3.2,0.5,4.6,1.3c1.5,0.8,2.8,1.9,3.8,3.2c1,1.1,1.8,2.4,2.3,3.9c0.5,1.3,0.6,2.7,0.4,4.1
		c-0.2,1.8-1,3.5-2.2,4.8c-0.2,0.2-0.4,0.5-0.6,0.7c-0.3,0.3-0.3,0.7-0.2,1.1c0.1,0.2,0.2,0.4,0.4,0.5c0.4,0.4,0.8,0.9,1.1,1.4
		c0.1,0.2,0.2,0.3,0.3,0.5c1.6,2.8,1.7,6.2,0.1,9c-0.9,1.6-2.1,3.1-3.6,4.3c-1,0.9-2.1,1.6-3.4,2c-1.6,0.6-3.3,0.8-5,0.4
		c-1.1-0.2-2.2-0.7-3.2-1.3c-0.6-0.4-1.2-0.9-1.7-1.4c-0.2-0.2-0.4-0.3-0.7-0.3c-0.3,0-0.6,0.1-0.8,0.3c-0.5,0.4-1,0.8-1.5,1.2
		c-0.1,0.1-0.3,0.2-0.4,0.3c-2.7,1.7-6.1,1.8-9,0.3c-1.5-0.8-2.9-1.9-4-3.1c-1.2-1.2-2.1-2.7-2.7-4.4c-0.5-1.4-0.6-3-0.3-4.5
		c0.2-1.2,0.7-2.4,1.4-3.4l0-0.1c0.4-0.5,0.8-1.1,1.3-1.5c0.3-0.3,0.4-0.8,0.2-1.1c-0.1-0.2-0.2-0.3-0.4-0.5c-0.4-0.5-0.8-1-1.2-1.5
		c-0.8-1.2-1.3-2.6-1.5-4.1c-0.2-1.7,0.1-3.4,0.9-5c0.7-1.5,1.7-2.8,2.9-3.9c1.2-1.2,2.6-2.1,4.1-2.7c1.3-0.5,2.8-0.7,4.2-0.6
		c1.5,0.2,2.9,0.7,4.1,1.5c0.6,0.4,1.1,0.8,1.6,1.3c0.3,0.3,0.8,0.4,1.1,0.2c0.2-0.1,0.3-0.2,0.5-0.4c0.5-0.4,1-0.8,1.5-1.2
		C579.5,3057.3,581.3,3056.8,583.1,3056.7L583.1,3056.7z M569.1,3071.2c0.5,0,0.9,0.2,1.2,0.5c2.5,0.9,2.8,6.7,0,7.5
		c-0.4,0.4-1,0.6-1.6,0.5c-0.2-0.1-0.4-0.1-0.6-0.3c-0.6-0.4-1.3-0.6-2-0.5c-1.2,0.2-2.1,1.1-2.3,2.2c-0.1,0.7,0.1,1.4,0.4,2.1
		c0.4,0.8,1,1.6,1.7,2.2c0.7,0.8,1.6,1.4,2.6,1.8c0.6,0.2,1.2,0.2,1.8,0.1c1-0.3,1.8-1.3,1.9-2.3c0-0.7-0.1-1.4-0.5-1.9
		c0,0,0-0.1-0.1-0.1c-0.3-0.7-0.2-1.5,0.3-2c1-3,6.8-2.3,7.5,0c0.4,0.4,0.6,1,0.5,1.6c-0.1,0.2-0.1,0.4-0.3,0.6
		c-0.4,0.6-0.5,1.2-0.5,1.9c0.1,0.8,0.5,1.5,1.2,1.9c0.4,0.3,1,0.5,1.5,0.5c0.7,0,1.3-0.2,1.9-0.6c0.9-0.5,1.7-1.2,2.3-2
		c0.6-0.7,1.1-1.4,1.4-2.3c0.2-0.6,0.2-1.3,0-2c-0.2-0.6-0.7-1.1-1.2-1.4c-0.5-0.3-1.1-0.4-1.6-0.3c-0.5,0.1-1,0.2-1.4,0.5
		c0,0-0.1,0-0.1,0.1c-0.7,0.3-1.5,0.2-2-0.3c-3-0.7-2.8-6.6,0-7.5c0.4-0.4,1-0.6,1.6-0.5c0.8,0.4,1.7,0.6,2.6,0.7
		c1.2-0.2,2.1-1.1,2.3-2.2c0.1-0.7-0.1-1.4-0.4-2.1c-0.4-0.8-1-1.6-1.7-2.2c-0.8-0.8-1.7-1.5-2.8-1.8c-0.5-0.2-1.1-0.2-1.7,0
		c-1,0.3-1.8,1.3-1.9,2.3c0,0.7,0.1,1.4,0.5,1.9l0,0.1c0.4,0.7,0.3,1.5-0.3,2.1c-0.8,2.3-6.6,2.4-7.5,0c-0.4-0.4-0.6-1-0.5-1.6
		c0.1-0.2,0.1-0.4,0.3-0.6c0.4-0.6,0.5-1.2,0.5-1.9c-0.1-0.8-0.5-1.5-1.2-1.9c-0.4-0.3-1-0.5-1.5-0.5c-0.8,0.1-1.6,0.3-2.2,0.8
		c-0.7,0.5-1.4,1.1-2,1.8c-0.6,0.7-1.1,1.4-1.4,2.3c-0.5,1.4,0.2,3,1.6,3.5c0.2,0.1,0.4,0.1,0.6,0.1c0.7,0.1,1.4-0.1,2-0.5
		c0,0,0.1,0,0.1-0.1C568.5,3071.2,568.8,3071.2,569.1,3071.2z"/>
</g>
</svg>
