<svg xmlns="http://www.w3.org/2000/svg" xmlns:xlink="http://www.w3.org/1999/xlink" width="800" height="1200" viewBox="0 0 800 1200"><defs><clipPath id="a"><rect width="800" height="1200"/></clipPath><clipPath id="c"><rect width="38" height="38"/></clipPath></defs><g id="e" clip-path="url(#a)"><g transform="translate(12 10)"><path d="M4.964-17.062v3.326H7.528v1.815H4.964V-3.4a1.9,1.9,0,0,0,.343,1.238,1.444,1.444,0,0,0,1.168.413A5.686,5.686,0,0,0,7.592-1.9V0a6.809,6.809,0,0,1-1.8.254A2.925,2.925,0,0,1,3.415-.7a4.09,4.09,0,0,1-.8-2.7v-8.519H.114v-1.815h2.5v-3.326ZM16.91-11.629a7.038,7.038,0,0,0-1.155-.089A3.1,3.1,0,0,0,12.619-9.75V0H10.271V-13.736h2.285l.038,1.587a3.657,3.657,0,0,1,3.275-1.841,2.4,2.4,0,0,1,1.041.178ZM27.041,0a4.934,4.934,0,0,1-.33-1.447A5.24,5.24,0,0,1,22.8.254,4.849,4.849,0,0,1,19.468-.9a3.717,3.717,0,0,1-1.3-2.914A3.883,3.883,0,0,1,19.8-7.141a7.691,7.691,0,0,1,4.589-1.187h2.285V-9.407a2.638,2.638,0,0,0-.736-1.961,2.959,2.959,0,0,0-2.171-.73,3.425,3.425,0,0,0-2.107.635,1.87,1.87,0,0,0-.851,1.536H18.446a3.241,3.241,0,0,1,.73-1.987,4.982,4.982,0,0,1,1.98-1.517,6.663,6.663,0,0,1,2.749-.559,5.43,5.43,0,0,1,3.72,1.187,4.282,4.282,0,0,1,1.4,3.269v6.322A7.73,7.73,0,0,0,29.5-.2V0Zm-3.9-1.79a4.128,4.128,0,0,0,2.095-.571,3.456,3.456,0,0,0,1.435-1.485V-6.665H24.832q-4.316,0-4.316,2.526a2.138,2.138,0,0,0,.736,1.727A2.83,2.83,0,0,0,23.144-1.79Zm15.069.127a3.383,3.383,0,0,0,2.2-.762,2.68,2.68,0,0,0,1.041-1.9h2.222a4.259,4.259,0,0,1-.812,2.247,5.351,5.351,0,0,1-2,1.7,5.769,5.769,0,0,1-2.647.635A5.659,5.659,0,0,1,33.75-1.619a7.458,7.458,0,0,1-1.657-5.123v-.394A8.27,8.27,0,0,1,32.83-10.7a5.608,5.608,0,0,1,2.114-2.425A6,6,0,0,1,38.2-13.99a5.509,5.509,0,0,1,3.84,1.384,4.945,4.945,0,0,1,1.631,3.593H41.45a3.237,3.237,0,0,0-1.009-2.19,3.14,3.14,0,0,0-2.241-.857,3.287,3.287,0,0,0-2.774,1.289,6.052,6.052,0,0,0-.984,3.726V-6.6a5.931,5.931,0,0,0,.978,3.656A3.3,3.3,0,0,0,38.213-1.663Zm11.934-4.7L48.674-4.824V0H46.325V-19.5h2.349V-7.706l1.257-1.511,4.278-4.52h2.856L51.721-8l5.967,8H54.933ZM64.937.254a6,6,0,0,1-4.545-1.834A6.809,6.809,0,0,1,58.64-6.487v-.432a8.243,8.243,0,0,1,.781-3.65A6.091,6.091,0,0,1,61.6-13.083a5.49,5.49,0,0,1,3.041-.908,5.144,5.144,0,0,1,4.164,1.765,7.64,7.64,0,0,1,1.485,5.053V-6.2H60.988a4.883,4.883,0,0,0,1.187,3.282,3.731,3.731,0,0,0,2.888,1.25,4.091,4.091,0,0,0,2.107-.508,5.3,5.3,0,0,0,1.511-1.346L70.116-2.4A5.768,5.768,0,0,1,64.937.254Zm-.292-12.314a3.133,3.133,0,0,0-2.387,1.035,5.029,5.029,0,0,0-1.193,2.9h6.881V-8.3a4.473,4.473,0,0,0-.965-2.774A2.949,2.949,0,0,0,64.645-12.061Zm15.006.432a7.038,7.038,0,0,0-1.155-.089A3.1,3.1,0,0,0,75.359-9.75V0H73.011V-13.736H75.3l.038,1.587a3.657,3.657,0,0,1,3.275-1.841,2.4,2.4,0,0,1,1.041.178Z" transform="translate(21 22)" fill="#fff"/><path d="M10.078-27.438s.4-1.941.859-4.22a8.716,8.716,0,0,1,8.525-6.9h0s-7.452,22.4-8.647,26.092a.756.756,0,0,1-.705.493.767.767,0,0,1-.736-.493C8.177-16.164.756-38.559.756-38.559h0a8.674,8.674,0,0,1,8.464,6.9C9.679-29.379,10.078-27.438,10.078-27.438Z" transform="translate(-0.756 39.677)" fill="#fff"/></g><g transform="translate(12 49.968)"><path d="M4.964-17.062v3.326H7.528v1.815H4.964V-3.4a1.9,1.9,0,0,0,.343,1.238,1.444,1.444,0,0,0,1.168.413A5.686,5.686,0,0,0,7.592-1.9V0a6.809,6.809,0,0,1-1.8.254A2.925,2.925,0,0,1,3.415-.7a4.09,4.09,0,0,1-.8-2.7v-8.519H.114v-1.815h2.5v-3.326ZM16.91-11.629a7.038,7.038,0,0,0-1.155-.089A3.1,3.1,0,0,0,12.619-9.75V0H10.271V-13.736h2.285l.038,1.587a3.657,3.657,0,0,1,3.275-1.841,2.4,2.4,0,0,1,1.041.178ZM27.041,0a4.934,4.934,0,0,1-.33-1.447A5.24,5.24,0,0,1,22.8.254,4.849,4.849,0,0,1,19.468-.9a3.717,3.717,0,0,1-1.3-2.914A3.883,3.883,0,0,1,19.8-7.141a7.691,7.691,0,0,1,4.589-1.187h2.285V-9.407a2.638,2.638,0,0,0-.736-1.961,2.959,2.959,0,0,0-2.171-.73,3.425,3.425,0,0,0-2.107.635,1.87,1.87,0,0,0-.851,1.536H18.446a3.241,3.241,0,0,1,.73-1.987,4.982,4.982,0,0,1,1.98-1.517,6.663,6.663,0,0,1,2.749-.559,5.43,5.43,0,0,1,3.72,1.187,4.282,4.282,0,0,1,1.4,3.269v6.322A7.73,7.73,0,0,0,29.5-.2V0Zm-3.9-1.79a4.128,4.128,0,0,0,2.095-.571,3.456,3.456,0,0,0,1.435-1.485V-6.665H24.832q-4.316,0-4.316,2.526a2.138,2.138,0,0,0,.736,1.727A2.83,2.83,0,0,0,23.144-1.79Zm15.069.127a3.383,3.383,0,0,0,2.2-.762,2.68,2.68,0,0,0,1.041-1.9h2.222a4.259,4.259,0,0,1-.812,2.247,5.351,5.351,0,0,1-2,1.7,5.769,5.769,0,0,1-2.647.635A5.659,5.659,0,0,1,33.75-1.619a7.458,7.458,0,0,1-1.657-5.123v-.394A8.27,8.27,0,0,1,32.83-10.7a5.608,5.608,0,0,1,2.114-2.425A6,6,0,0,1,38.2-13.99a5.509,5.509,0,0,1,3.84,1.384,4.945,4.945,0,0,1,1.631,3.593H41.45a3.237,3.237,0,0,0-1.009-2.19,3.14,3.14,0,0,0-2.241-.857,3.287,3.287,0,0,0-2.774,1.289,6.052,6.052,0,0,0-.984,3.726V-6.6a5.931,5.931,0,0,0,.978,3.656A3.3,3.3,0,0,0,38.213-1.663Zm11.934-4.7L48.674-4.824V0H46.325V-19.5h2.349V-7.706l1.257-1.511,4.278-4.52h2.856L51.721-8l5.967,8H54.933ZM64.937.254a6,6,0,0,1-4.545-1.834A6.809,6.809,0,0,1,58.64-6.487v-.432a8.243,8.243,0,0,1,.781-3.65A6.091,6.091,0,0,1,61.6-13.083a5.49,5.49,0,0,1,3.041-.908,5.144,5.144,0,0,1,4.164,1.765,7.64,7.64,0,0,1,1.485,5.053V-6.2H60.988a4.883,4.883,0,0,0,1.187,3.282,3.731,3.731,0,0,0,2.888,1.25,4.091,4.091,0,0,0,2.107-.508,5.3,5.3,0,0,0,1.511-1.346L70.116-2.4A5.768,5.768,0,0,1,64.937.254Zm-.292-12.314a3.133,3.133,0,0,0-2.387,1.035,5.029,5.029,0,0,0-1.193,2.9h6.881V-8.3a4.473,4.473,0,0,0-.965-2.774A2.949,2.949,0,0,0,64.645-12.061Zm15.006.432a7.038,7.038,0,0,0-1.155-.089A3.1,3.1,0,0,0,75.359-9.75V0H73.011V-13.736H75.3l.038,1.587a3.657,3.657,0,0,1,3.275-1.841,2.4,2.4,0,0,1,1.041.178Z" transform="translate(21 22.032)" fill="#fff"/><path d="M10.078-27.438s.4-1.941.859-4.22a8.716,8.716,0,0,1,8.525-6.9h0s-7.452,22.4-8.647,26.092a.756.756,0,0,1-.705.493.767.767,0,0,1-.736-.493C8.177-16.164.756-38.559.756-38.559h0a8.674,8.674,0,0,1,8.464,6.9C9.679-29.379,10.078-27.438,10.078-27.438Z" transform="translate(-0.756 39.677)" fill="#fff"/></g><g clip-path="url(#a)"><g clip-path="url(#a)"><path d="M307.778,421.08h-8.505v-8.5a1,1,0,0,0-2,0v8.5h-8.505a1,1,0,1,0,0,2h8.505v8.505a1,1,0,0,0,2,0V423.08h8.505a1,1,0,0,0,0-2Z" transform="translate(-215.768 -310.58)" fill="#232221"/><g transform="translate(11 141)" clip-path="url(#c)"><g transform="translate(8423 21976)"><circle cx="18.637" cy="18.637" r="18.637" transform="translate(-8422.637 -21975.637)" fill="#242120"/><path d="M1,4.959,5.9,10.04,14.59,1" transform="translate(-8411.404 -21961.801)" fill="none" stroke="#fff" stroke-linecap="round" stroke-linejoin="round" stroke-miterlimit="10" stroke-width="2"/></g></g><g transform="translate(59 141)" clip-path="url(#c)"><g transform="translate(8423 21976)"><circle cx="18.637" cy="18.637" r="18.637" transform="translate(-8422.637 -21975.637)" fill="#fd4646"/><path d="M1,4.959,5.9,10.04,14.59,1" transform="translate(-8411.404 -21961.801)" fill="none" stroke="#fff" stroke-linecap="round" stroke-linejoin="round" stroke-miterlimit="10" stroke-width="2"/></g></g><g transform="translate(6377 22955)"><circle cx="17.5" cy="17.5" r="17.5" transform="translate(-6270 -22814)" fill="#fff" opacity="0"/><path d="M1,5.37l5.413,5.608L16,1" transform="translate(-6260.5 -22802.5)" fill="none" stroke="#fff" stroke-linecap="round" stroke-linejoin="round" stroke-miterlimit="10" stroke-width="2"/></g><g transform="translate(6368 22955)"><circle cx="17.5" cy="17.5" r="17.5" transform="translate(-6207 -22814)" fill="#fff" opacity="0"/><path d="M1,5.37l5.413,5.608L16,1" transform="translate(-6197.5 -22802.5)" fill="none" stroke="#2f2d2c" stroke-linecap="round" stroke-linejoin="round" stroke-miterlimit="10" stroke-width="2"/></g><g transform="translate(6422 22955)"><circle cx="17.5" cy="17.5" r="17.5" transform="translate(-6207 -22814)" fill="#fff" opacity="0"/><path d="M1,5.37l5.413,5.608L16,1" transform="translate(-6197.5 -22802.5)" fill="none" stroke="#fd4646" stroke-linecap="round" stroke-linejoin="round" stroke-miterlimit="10" stroke-width="2"/></g><g transform="translate(-548.584 -627.296)"><line x2="14" y2="14" transform="translate(574.584 843.296) rotate(180)" fill="none" stroke="#2c8dff" stroke-linecap="round" stroke-linejoin="round" stroke-miterlimit="10" stroke-width="2"/><line y1="14" x2="14" transform="translate(574.584 843.296) rotate(180)" fill="none" stroke="#2c8dff" stroke-linecap="round" stroke-linejoin="round" stroke-miterlimit="10" stroke-width="2"/></g><g transform="translate(104 222) rotate(180)"><line x2="20" y2="20" fill="none" stroke="#fff" stroke-linecap="round" stroke-linejoin="round" stroke-miterlimit="10" stroke-width="2"/><line y1="20" x2="20" fill="none" stroke="#fff" stroke-linecap="round" stroke-linejoin="round" stroke-miterlimit="10" stroke-width="2"/></g><g transform="translate(-545.54 -2574.575)"><path d="M617.994,3085.5a13.038,13.038,0,0,1-6.738-1.89,13.507,13.507,0,0,1-4.848-5.011,14.076,14.076,0,0,1,0-13.8,13.5,13.5,0,0,1,4.848-5.012,13.039,13.039,0,0,1,6.738-1.89,14.081,14.081,0,0,1,4.519.74,11.856,11.856,0,0,1,3.944,2.3,1.012,1.012,0,0,1,.411.822,1.169,1.169,0,0,1-.164.493,2.384,2.384,0,0,0-.74.739,1.163,1.163,0,0,1-.493.167.951.951,0,0,1-.822-.329,7.611,7.611,0,0,0-2.958-1.725,11.589,11.589,0,0,0-3.7-.575,9.9,9.9,0,0,0-5.423,1.561,11.456,11.456,0,0,0-3.944,15.369,10.535,10.535,0,0,0,3.944,4.108,9.826,9.826,0,0,0,5.423,1.479,10.936,10.936,0,0,0,6.82-2.384,1.327,1.327,0,0,1,.74-.246,1.721,1.721,0,0,1,.9.329,1.361,1.361,0,0,1,.411.986,1.515,1.515,0,0,1-.411.986,12.68,12.68,0,0,1-8.457,2.785Zm26.953,0a14.143,14.143,0,0,1-7.067-1.807,12.919,12.919,0,0,1-4.93-4.929,14.713,14.713,0,0,1,0-14.132,12.917,12.917,0,0,1,4.93-4.93,14.717,14.717,0,0,1,14.134,0,12.915,12.915,0,0,1,4.93,4.93,14.713,14.713,0,0,1,0,14.132,12.916,12.916,0,0,1-4.93,4.929,13.538,13.538,0,0,1-7.067,1.807Zm0-2.547a11.452,11.452,0,0,0,5.67-1.479,10.9,10.9,0,0,0,3.944-4.026,11.532,11.532,0,0,0,1.479-5.751,11.992,11.992,0,0,0-1.479-5.751,9.515,9.515,0,0,0-4.027-4.025,11.461,11.461,0,0,0-5.67-1.479,12,12,0,0,0-5.752,1.479,11.8,11.8,0,0,0-4.026,4.026,11.534,11.534,0,0,0-1.479,5.751,11.756,11.756,0,0,0,1.479,5.751,9.519,9.519,0,0,0,4.026,4.026,11.219,11.219,0,0,0,5.834,1.479Zm27.61,2.547a12,12,0,0,1-5.834-1.4,8.066,8.066,0,0,1-3.616-3.779,1.187,1.187,0,0,1-.164-.575,1.462,1.462,0,0,1,.329-.822,1.436,1.436,0,0,1,.986-.328,1.147,1.147,0,0,1,.74.248,2.216,2.216,0,0,1,.575.657,5.477,5.477,0,0,0,2.63,2.465,9.588,9.588,0,0,0,4.273.986,6.884,6.884,0,0,0,4.52-1.4,4.485,4.485,0,0,0,1.726-3.779,4.987,4.987,0,0,0-1.643-3.7,8.1,8.1,0,0,0-4.848-1.889,11.834,11.834,0,0,1-6.327-2.465,6.4,6.4,0,0,1-2.3-4.93,5.751,5.751,0,0,1,1.15-3.615,7.406,7.406,0,0,1,3.123-2.383,10.524,10.524,0,0,1,4.52-.823,9.577,9.577,0,0,1,4.766,1.232,8.356,8.356,0,0,1,3.2,3.122,1.583,1.583,0,0,1,.247.822,1.282,1.282,0,0,1-.657,1.068,1.545,1.545,0,0,1-.657.165,2.387,2.387,0,0,1-.74-.164,1.913,1.913,0,0,1-.575-.575,6.4,6.4,0,0,0-5.834-3.04,7.654,7.654,0,0,0-4.437,1.15,3.882,3.882,0,0,0-1.643,3.369c0,2.711,2.136,4.354,6.492,4.93a11.582,11.582,0,0,1,6.409,2.629,7.064,7.064,0,0,1,2.136,5.258,8.229,8.229,0,0,1-1.15,4.19,7.9,7.9,0,0,1-3.2,2.711,10.713,10.713,0,0,1-4.2.666Zm40.182-27.277a1.319,1.319,0,0,1,.9.411,1.359,1.359,0,0,1,.411.986v24.237a1.706,1.706,0,0,1-.411.986,1.315,1.315,0,0,1-.9.41,1.516,1.516,0,0,1-.986-.411,1.359,1.359,0,0,1-.411-.986V3064.3l-9.614,19.636a1.312,1.312,0,0,1-1.15.657,1.264,1.264,0,0,1-1.233-.823l-9.532-19.143v19.225a1.7,1.7,0,0,1-.411.986,1.358,1.358,0,0,1-.986.411,1.516,1.516,0,0,1-.986-.411,1.359,1.359,0,0,1-.411-.986v-24.237a1.515,1.515,0,0,1,.411-.986,1.362,1.362,0,0,1,.986-.41,1.45,1.45,0,0,1,1.233.658l11.011,21.937,10.847-21.937a1.45,1.45,0,0,1,1.232-.654Zm20.625,27.277a14.143,14.143,0,0,1-7.067-1.807,12.915,12.915,0,0,1-4.93-4.929,14.713,14.713,0,0,1,0-14.132,12.917,12.917,0,0,1,4.93-4.93,14.718,14.718,0,0,1,14.134,0,12.914,12.914,0,0,1,4.93,4.93,14.713,14.713,0,0,1,0,14.132,12.913,12.913,0,0,1-4.93,4.929,13.156,13.156,0,0,1-7.066,1.807Zm0-2.547a11.452,11.452,0,0,0,5.67-1.479,11.8,11.8,0,0,0,4.026-4.026,11.529,11.529,0,0,0,1.479-5.751,11.988,11.988,0,0,0-1.479-5.751,9.516,9.516,0,0,0-4.026-4.026,11.452,11.452,0,0,0-5.67-1.479,12,12,0,0,0-5.752,1.479,11.8,11.8,0,0,0-4.026,4.026,11.534,11.534,0,0,0-1.479,5.751,11.757,11.757,0,0,0,1.479,5.751,9.513,9.513,0,0,0,4.026,4.026,11.131,11.131,0,0,0,5.753,1.482Zm27.61,2.547a12,12,0,0,1-5.834-1.4,8.064,8.064,0,0,1-3.616-3.78,1.186,1.186,0,0,1-.164-.575,1.461,1.461,0,0,1,.329-.822,1.436,1.436,0,0,1,.986-.326,1.146,1.146,0,0,1,.74.247,2.221,2.221,0,0,1,.575.657,5.477,5.477,0,0,0,2.63,2.465,9.586,9.586,0,0,0,4.273.987,6.883,6.883,0,0,0,4.52-1.4,4.485,4.485,0,0,0,1.726-3.779,4.987,4.987,0,0,0-1.643-3.7,8.1,8.1,0,0,0-4.848-1.889,11.315,11.315,0,0,1-6.327-2.547,6.4,6.4,0,0,1-2.3-4.93,5.754,5.754,0,0,1,1.15-3.615,7.414,7.414,0,0,1,3.123-2.382,10.534,10.534,0,0,1,4.519-.822,9.588,9.588,0,0,1,4.766,1.233,8.363,8.363,0,0,1,3.2,3.122,1.585,1.585,0,0,1,.246.822,1.283,1.283,0,0,1-.657,1.068,1.549,1.549,0,0,1-.657.164,2.422,2.422,0,0,1-.74-.164,1.914,1.914,0,0,1-.575-.573,6.4,6.4,0,0,0-5.834-3.04,7.656,7.656,0,0,0-4.437,1.15,3.882,3.882,0,0,0-1.643,3.369c0,2.711,2.136,4.354,6.492,4.93a11.572,11.572,0,0,1,6.409,2.629,7.065,7.065,0,0,1,2.136,5.258,8.23,8.23,0,0,1-1.15,4.19,7.9,7.9,0,0,1-3.2,2.711,9.137,9.137,0,0,1-4.194.746Z" transform="translate(-13.823 -1.309)" fill="#fff"/><path d="M576.1,3056.667a6.916,6.916,0,0,1,3.387.957,8.682,8.682,0,0,1,2.8,2.356,8.025,8.025,0,0,1,1.694,2.872,5.994,5.994,0,0,1,.3,3.019,6.277,6.277,0,0,1-1.62,3.534c-.147.147-.295.368-.442.515a.8.8,0,0,0-.147.81.737.737,0,0,0,.295.368,5.532,5.532,0,0,1,.81,1.031c.074.147.147.221.221.368a6.654,6.654,0,0,1,.074,6.627,10.863,10.863,0,0,1-2.651,3.166,6.634,6.634,0,0,1-2.5,1.473,6.279,6.279,0,0,1-3.682.294,7.219,7.219,0,0,1-2.357-.957,8.462,8.462,0,0,1-1.252-1.031.67.67,0,0,0-.516-.221.837.837,0,0,0-.589.221l-1.1.884c-.074.074-.221.147-.295.221a6.653,6.653,0,0,1-6.628.221,11.263,11.263,0,0,1-2.946-2.282,8.572,8.572,0,0,1-1.988-3.24,6.312,6.312,0,0,1-.221-3.313,6.236,6.236,0,0,1,1.031-2.5v-.073a6.854,6.854,0,0,1,.957-1.1.69.69,0,0,0,.147-.81,1.293,1.293,0,0,0-.3-.368l-.884-1.1a7.1,7.1,0,0,1-1.1-3.019,6.459,6.459,0,0,1,.663-3.682,9.156,9.156,0,0,1,2.136-2.872,8.977,8.977,0,0,1,3.019-1.989,7.354,7.354,0,0,1,3.093-.442,7.107,7.107,0,0,1,3.019,1.1,7.378,7.378,0,0,1,1.178.957.69.69,0,0,0,.81.147,1.285,1.285,0,0,0,.368-.294l1.1-.883a15.067,15.067,0,0,1,4.124-.957Zm-10.31,10.676a1.219,1.219,0,0,1,.884.368c1.841.662,2.062,4.933,0,5.522a1.359,1.359,0,0,1-1.178.368c-.147-.074-.295-.074-.442-.221a2.122,2.122,0,0,0-1.473-.368,2.038,2.038,0,0,0-1.694,1.62,2.909,2.909,0,0,0,.295,1.546,5.322,5.322,0,0,0,1.252,1.62,4.983,4.983,0,0,0,1.915,1.323,2.7,2.7,0,0,0,1.325.074,2.075,2.075,0,0,0,1.4-1.693,2.222,2.222,0,0,0-.368-1.4.071.071,0,0,0-.021-.053.073.073,0,0,0-.053-.021,1.336,1.336,0,0,1,.221-1.473c.736-2.209,5.008-1.693,5.523,0a1.358,1.358,0,0,1,.368,1.178c-.074.147-.074.294-.221.442a2.354,2.354,0,0,0-.368,1.4,1.819,1.819,0,0,0,.884,1.4,1.986,1.986,0,0,0,1.1.368,2.423,2.423,0,0,0,1.4-.442,5.435,5.435,0,0,0,1.694-1.473,4.988,4.988,0,0,0,1.031-1.694,2.507,2.507,0,0,0,0-1.473,2.033,2.033,0,0,0-.884-1.031,1.7,1.7,0,0,0-1.178-.221,2.481,2.481,0,0,0-1.031.368.072.072,0,0,0-.053.021.073.073,0,0,0-.021.053,1.333,1.333,0,0,1-1.473-.22c-2.209-.515-2.062-4.86,0-5.522a1.358,1.358,0,0,1,1.178-.368,5.661,5.661,0,0,0,1.915.515,2.037,2.037,0,0,0,1.694-1.62,2.908,2.908,0,0,0-.295-1.546,5.32,5.32,0,0,0-1.252-1.62,4.744,4.744,0,0,0-2.062-1.325,1.83,1.83,0,0,0-1.252,0,2.073,2.073,0,0,0-1.4,1.693,2.221,2.221,0,0,0,.368,1.4v.073a1.239,1.239,0,0,1-.221,1.546c-.589,1.693-4.86,1.767-5.523,0a1.359,1.359,0,0,1-.368-1.178c.074-.147.074-.294.221-.442a2.356,2.356,0,0,0,.368-1.4,1.818,1.818,0,0,0-.884-1.4,1.984,1.984,0,0,0-1.1-.368,3.092,3.092,0,0,0-1.62.589,8.278,8.278,0,0,0-1.473,1.326,4.986,4.986,0,0,0-1.031,1.693,2.019,2.019,0,0,0,1.178,2.577.93.93,0,0,0,.442.073,2.113,2.113,0,0,0,1.473-.367.069.069,0,0,0,.053-.021.073.073,0,0,0,.021-.053,1.449,1.449,0,0,1,.735-.146Z" fill="#fff" fill-rule="evenodd"/></g><g transform="translate(-76 289)"><circle cx="2" cy="2" r="2" transform="translate(87 2)" fill="#fff"/><circle cx="2" cy="2" r="2" transform="translate(87 8)" fill="#fff"/><circle cx="2" cy="2" r="2" transform="translate(87 14)" fill="#fff"/><circle cx="2" cy="2" r="2" transform="translate(92.727 2)" fill="#fff"/><circle cx="2" cy="2" r="2" transform="translate(92.727 8)" fill="#fff"/><circle cx="2" cy="2" r="2" transform="translate(92.727 14)" fill="#fff"/><circle cx="2" cy="2" r="2" transform="translate(98.727 2)" fill="#fff"/><circle cx="2" cy="2" r="2" transform="translate(98.727 8)" fill="#fff"/><circle cx="2" cy="2" r="2" transform="translate(98.727 14)" fill="#fff"/></g><g transform="translate(39 334.985)"><path d="M5.543-14v7.175a1.94,1.94,0,0,0,1.731,2.1h8.87a1.94,1.94,0,0,0,1.731-2.1V-14" transform="translate(-2.673 22.379)" fill="none" stroke="#fff" stroke-linecap="round" stroke-linejoin="round" stroke-width="2"/><path d="M10.027-21.64,1-14.672" transform="translate(-1 24.655)" fill="none" stroke="#fff" stroke-linecap="round" stroke-linejoin="round" stroke-width="2"/><path d="M15.32-21.64l9.027,6.968" transform="translate(-6.275 24.655)" fill="none" stroke="#fff" stroke-linecap="round" stroke-linejoin="round" stroke-width="2"/></g><path d="M14.925,1.351a4.278,4.278,0,0,0-6.193,0l-.609.624-.609-.624a4.3,4.3,0,0,0-6.193,0,4.564,4.564,0,0,0,0,6.344l6.8,6.968,6.8-6.968a4.534,4.534,0,0,0,0-6.344" transform="translate(64.961 337.975)" fill="none" stroke="#fff" stroke-linecap="round" stroke-width="2" fill-rule="evenodd"/><g transform="translate(-81 289)"><g transform="translate(125 3)" fill="#fff" stroke="#fff" stroke-width="1"><rect width="16" height="2" rx="1" stroke="none"/><rect x="0.5" y="0.5" width="15" height="1" rx="0.5" fill="none"/></g><g transform="translate(125 9)" fill="#fff" stroke="#fff" stroke-width="1"><rect width="16" height="2" rx="1" stroke="none"/><rect x="0.5" y="0.5" width="15" height="1" rx="0.5" fill="none"/></g><g transform="translate(125 15)" fill="#fff" stroke="#fff" stroke-width="1"><rect width="16" height="2" rx="1" stroke="none"/><rect x="0.5" y="0.5" width="15" height="1" rx="0.5" fill="none"/></g><circle cx="2" cy="2" r="2" transform="translate(118 2)" fill="#fff"/><circle cx="2" cy="2" r="2" transform="translate(118 8)" fill="#fff"/><circle cx="2" cy="2" r="2" transform="translate(118 14)" fill="#fff"/></g><g transform="translate(74.03 291)"><path d="M.913,16.786a.913.913,0,1,1,0-1.825H11.554a.913.913,0,1,1,0,1.825Zm0-7.48a.913.913,0,0,1,0-1.826H19.035a.913.913,0,1,1,0,1.826Zm0-7.48A.913.913,0,1,1,.913,0H19.035a.913.913,0,1,1,0,1.826Z" fill="#fff"/></g><path d="M1.414,3.719l9.977-9.94" transform="translate(11.586 461.311)" fill="none" stroke="#fff" stroke-linecap="round" stroke-linejoin="round" stroke-width="3"/><path d="M21.837-20.942A18.17,18.17,0,0,1,39.819-2.606,18.17,18.17,0,0,1,21.837,15.731,18.17,18.17,0,0,1,3.855-2.606,18.17,18.17,0,0,1,21.837-20.942Z" transform="translate(14.211 444.942)" fill="none" stroke="#fff" stroke-linecap="round" stroke-width="3"/><g transform="translate(72 7)"><path d="M1.414-.147l6.1-6.074" transform="translate(11.586 449.22)" fill="none" stroke="#fff" stroke-linecap="round" stroke-linejoin="round" stroke-width="2"/><path d="M14.843-20.942a11.1,11.1,0,0,1,10.988,11.2,11.1,11.1,0,0,1-10.988,11.2A11.1,11.1,0,0,1,3.855-9.737a11.1,11.1,0,0,1,10.988-11.2Z" transform="translate(12.241 444.942)" fill="none" stroke="#fff" stroke-linecap="round" stroke-width="2"/></g><g transform="translate(12.007 335.096)"><path d="M10.7-27.9a6.21,6.21,0,0,0-4.742,1.781A6.21,6.21,0,0,0,4.12-21.4c0,4.714,6.58,8.5,6.58,8.5s6.58-3.283,6.58-8.5a6.21,6.21,0,0,0-1.838-4.719A6.21,6.21,0,0,0,10.7-27.9Z" transform="translate(2.186 30.818)" fill="none" stroke="#fff" stroke-width="2"/><path d="M29.123-27.221a7.291,7.291,0,0,0-3.154-.681,6.21,6.21,0,0,0-4.742,1.781A6.21,6.21,0,0,0,19.389-21.4c0,4.714,6.58,8.5,6.58,8.5a16.726,16.726,0,0,0,3.257-2.266c-1.72-1.55-3.528-3.767-3.528-6.239a6.105,6.105,0,0,1,3.425-5.814Z" transform="translate(-19.389 30.818)" fill="none" stroke="#fff" stroke-width="2"/></g><path d="M12.623-27.9c-4.694,0-8.5,2.979-8.5,8.23,0,5.971,8.5,10.77,8.5,10.77s8.5-4.159,8.5-10.771C21.123-24.921,17.317-27.9,12.623-27.9Z" transform="translate(67.877 268.9)" fill="none" stroke="#fff" stroke-width="2"/><path d="M12.623-27.9c-4.694,0-8.5,2.979-8.5,8.23,0,5.971,8.5,10.77,8.5,10.77s8.5-4.159,8.5-10.771C21.123-24.921,17.317-27.9,12.623-27.9Z" transform="translate(297.877 268.9)" fill="none" stroke="#fff" stroke-width="2"/><g transform="translate(-92 -1)"><path d="M12.192-27.9a9.629,9.629,0,0,0-2.71.4c-2.989.814-5.36,3.577-5.36,7.831,0,3.445,2.686,6.5,5.181,8.658A22.6,22.6,0,0,0,12.192-8.9s8.069-4.159,8.069-10.771C20.262-24.921,16.649-27.9,12.192-27.9Z" transform="translate(368.877 269.9)" fill="none" stroke="#fff" stroke-width="2"/><path d="M12.192-27.9c-4.456,0-8.069,2.979-8.069,8.23,0,5.971,8.069,10.77,8.069,10.77a21.335,21.335,0,0,0,3.123-2.114c2.08-1.646,4.946-4.716,4.946-8.656C20.262-24.921,16.649-27.9,12.192-27.9Z" transform="translate(362.877 269.9)" fill="none" stroke="#fff" stroke-width="2"/></g><g transform="translate(175.881 464.881) rotate(180)"><line x2="38.881" y2="38.881" fill="none" stroke="#fff" stroke-linecap="round" stroke-linejoin="round" stroke-miterlimit="10" stroke-width="3"/><line y1="38.881" x2="38.881" fill="none" stroke="#fff" stroke-linecap="round" stroke-linejoin="round" stroke-miterlimit="10" stroke-width="3"/></g><g transform="translate(222.525 456.08) rotate(180)"><line x2="24.724" y2="24.724" fill="none" stroke="#fff" stroke-linecap="round" stroke-linejoin="round" stroke-miterlimit="10" stroke-width="2"/><line y1="24.724" x2="24.724" fill="none" stroke="#fff" stroke-linecap="round" stroke-linejoin="round" stroke-miterlimit="10" stroke-width="2"/></g><g transform="translate(278.525 456.08) rotate(180)"><line x2="24.724" y2="24.724" fill="none" stroke="#242120" stroke-linecap="round" stroke-linejoin="round" stroke-miterlimit="10" stroke-width="2"/><line y1="24.724" x2="24.724" fill="none" stroke="#242120" stroke-linecap="round" stroke-linejoin="round" stroke-miterlimit="10" stroke-width="2"/></g><g transform="translate(7 -2)"><path d="M25,0A25,25,0,1,1,0,25,25,25,0,0,1,25,0Z" transform="translate(4 89)" fill="#fff" opacity="0"/><path d="M307.778,421.08h-8.505v-8.5a1,1,0,0,0-2,0v8.5h-8.505a1,1,0,1,0,0,2h8.505v8.505a1,1,0,0,0,2,0V423.08h8.505a1,1,0,0,0,0-2Z" transform="translate(-269.768 -308.58)" fill="#fff"/></g><g transform="translate(8)"><path d="M17.5,0A17.5,17.5,0,1,1,0,17.5,17.5,17.5,0,0,1,17.5,0Z" transform="translate(114 189)" fill="#fff" opacity="0"/><g transform="translate(-472.584 -629.296)"><line x2="14" y2="14" transform="translate(611.584 843.296) rotate(180)" fill="none" stroke="#fff" stroke-linecap="round" stroke-linejoin="round" stroke-miterlimit="10" stroke-width="2"/><line y1="14" x2="14" transform="translate(611.584 843.296) rotate(180)" fill="none" stroke="#fff" stroke-linecap="round" stroke-linejoin="round" stroke-miterlimit="10" stroke-width="2"/></g></g><g transform="translate(52)"><path d="M17.5,0A17.5,17.5,0,1,1,0,17.5,17.5,17.5,0,0,1,17.5,0Z" transform="translate(114 189)" fill="#fff" opacity="0"/><g transform="translate(-472.584 -629.296)"><line x2="14" y2="14" transform="translate(611.584 843.296) rotate(180)" fill="none" stroke="#fc4e4e" stroke-linecap="round" stroke-linejoin="round" stroke-miterlimit="10" stroke-width="2"/><line y1="14" x2="14" transform="translate(611.584 843.296) rotate(180)" fill="none" stroke="#fc4e4e" stroke-linecap="round" stroke-linejoin="round" stroke-miterlimit="10" stroke-width="2"/></g></g><g transform="translate(4)"><path d="M35,0A35,35,0,1,1,0,35,35,35,0,0,1,35,0Z" transform="translate(7 552)" fill="#fff" opacity="0"/><path d="M-6840.367,7650.424l14.331-14.331,14.331,14.331" transform="translate(6867.867 -7056.593)" fill="none" stroke="#fff" stroke-linecap="round" stroke-linejoin="round" stroke-width="2"/></g><g transform="translate(87)"><path d="M35,0A35,35,0,1,1,0,35,35,35,0,0,1,35,0Z" transform="translate(7 552)" fill="#fff" opacity="0"/><path d="M-6840.367,7650.424l14.331-14.331,14.331,14.331" transform="translate(6867.867 -7056.593)" fill="none" stroke="#232120" stroke-linecap="round" stroke-linejoin="round" stroke-width="2"/></g><g transform="translate(-1.771 -1.977)"><g transform="translate(-265.854 245.651)"><path d="M278.625,6.326s4.334-10,14-10,14,10,14,10-4.841,10-14,10S278.625,6.326,278.625,6.326Z" fill="none"/><path d="M292.625-1.674a12.137,12.137,0,0,0-9.071,4.265,19.128,19.128,0,0,0-2.667,3.694,21.468,21.468,0,0,0,2.833,3.747c2.714,2.849,5.71,4.294,8.9,4.294s6.191-1.445,8.9-4.294a21.473,21.473,0,0,0,2.833-3.747A19.129,19.129,0,0,0,301.7,2.591a12.137,12.137,0,0,0-9.071-4.265m0-2c9.666,0,14,10,14,10s-4.841,10-14,10-14-10-14-10S282.959-3.674,292.629-3.674Z" fill="#fff"/></g></g><g transform="translate(19 244)" fill="none" stroke="#fff" stroke-width="2"><circle cx="6" cy="6" r="6" stroke="none"/><circle cx="6" cy="6" r="5" fill="none"/></g><g transform="translate(222.069 239.078)"><path d="M10.932,0C22.178,0,21.864,19.131,21.864,19.131H0S-.314,0,10.932,0Z" fill="none"/><path d="M10.932,2A6.139,6.139,0,0,0,6.349,3.911c-1.79,1.817-3.112,4.971-3.82,9.12a38.408,38.408,0,0,0-.466,4.1H19.8a38.4,38.4,0,0,0-.466-4.1c-.709-4.149-2.03-7.3-3.82-9.12A6.139,6.139,0,0,0,10.932,2m0-2C22.178,0,21.864,19.131,21.864,19.131H0S-.314,0,10.932,0Z" fill="#fff"/></g><path d="M-5604.562,7032c3.822,6.619,8.1,0,8.1,0" transform="translate(5833.463 -6773.791)" fill="none" stroke="#fff" stroke-linecap="round" stroke-width="2"/><g transform="translate(247 240)" fill="none" stroke="#fff" stroke-width="2"><rect width="24" height="20" rx="5" stroke="none"/><rect x="1" y="1" width="22" height="18" rx="4" fill="none"/></g><path d="M3.5,0,7,6H0Z" transform="translate(262.5 246.5) rotate(90)" fill="none" stroke="#fff" stroke-width="2"/><path d="M9.294,29.29a3.331,3.331,0,0,0,1.974.576,4.794,4.794,0,0,0,1.316-.181.556.556,0,0,0,.4-.53V25.278c0-3.051,3.593-4.089,3.745-4.135a.506.506,0,0,0,.124-.05,1.63,1.63,0,0,0,1.454.889h2.636a1.61,1.61,0,0,0,1.62-1.6V10.966a1.61,1.61,0,0,0-1.62-1.6l-3.524-.022a.561.561,0,0,0-.566.558.553.553,0,0,0,.561.549l3.524.022a.489.489,0,0,1,.492.485v9.425a.489.489,0,0,1-.492.485H18.3a.489.489,0,0,1-.492-.485V11.5a3.124,3.124,0,0,0-3.143-3.1H5.038C2.9,8.4,1.546,9.5,1.307,11.406L.009,19.43A.548.548,0,0,0,0,19.516v.1a3.124,3.124,0,0,0,3.143,3.1H8V26.17a3.621,3.621,0,0,0,1.294,3.12ZM3.147,21.6a2,2,0,0,1-2.015-1.986v-.05l1.293-8C2.6,10.2,3.474,9.511,5.038,9.511h9.625A2,2,0,0,1,16.679,11.5v8.573a.553.553,0,0,0-.258.009c-.189.05-4.569,1.3-4.569,5.2V28.71a2.639,2.639,0,0,1-1.891-.31,2.61,2.61,0,0,1-.828-2.235v-4.01a.561.561,0,0,0-.566-.558H3.147Z" transform="translate(191.06 265.866) rotate(180)" fill="#fff" stroke="#fff" stroke-width="1"/><path d="M9.294.576A3.331,3.331,0,0,1,11.268,0a4.794,4.794,0,0,1,1.316.181.556.556,0,0,1,.4.53V4.588c0,3.051,3.593,4.089,3.745,4.134a.506.506,0,0,1,.124.05A1.63,1.63,0,0,1,18.3,7.884h2.64a1.61,1.61,0,0,1,1.62,1.6V18.9a1.61,1.61,0,0,1-1.62,1.6l-3.524.022a.561.561,0,0,1-.566-.558.553.553,0,0,1,.561-.549l3.524-.022a.489.489,0,0,0,.492-.485V9.479a.489.489,0,0,0-.492-.485H18.3a.489.489,0,0,0-.492.485v8.89a3.124,3.124,0,0,1-3.143,3.1H5.038c-2.135,0-3.492-1.1-3.731-3.006l-1.3-8.024A.548.548,0,0,1,0,10.35v-.1a3.124,3.124,0,0,1,3.143-3.1H8V3.7A3.621,3.621,0,0,1,9.294.576ZM3.147,8.264A2,2,0,0,0,1.132,10.25v.05l1.293,8c.17,1.36,1.049,2.054,2.613,2.054h9.625a2,2,0,0,0,2.015-1.986V9.8a.553.553,0,0,1-.258-.009c-.189-.05-4.569-1.3-4.569-5.2V1.156a2.639,2.639,0,0,0-1.891.313A2.61,2.61,0,0,0,9.133,3.7V7.711a.561.561,0,0,1-.566.558H3.147Z" transform="translate(218.06 264.466) rotate(180)" fill="#fff" stroke="#fff" stroke-width="1"/><g transform="translate(10 234)" fill="none" stroke="#d7d7d7" stroke-width="1" opacity="0"><rect width="30" height="32" stroke="none"/><rect x="-0.5" y="-0.5" width="31" height="33" fill="none"/></g><g transform="translate(41 234)" fill="none" stroke="#d7d7d7" stroke-width="1" opacity="0"><rect width="28" height="32" stroke="none"/><rect x="-0.5" y="-0.5" width="29" height="33" fill="none"/></g><g transform="translate(70 234)" fill="none" stroke="#d7d7d7" stroke-width="1" opacity="0"><rect width="21" height="32" stroke="none"/><rect x="-0.5" y="-0.5" width="22" height="33" fill="none"/></g><g transform="translate(300 234)" fill="none" stroke="#d7d7d7" stroke-width="1" opacity="0"><rect width="21" height="32" stroke="none"/><rect x="-0.5" y="-0.5" width="22" height="33" fill="none"/></g><g transform="translate(322 234)" fill="none" stroke="#d7d7d7" stroke-width="1" opacity="0"><rect width="26" height="32" stroke="none"/><rect x="-0.5" y="-0.5" width="27" height="33" fill="none"/></g><g transform="translate(349 234)" fill="none" stroke="#d7d7d7" stroke-width="1" opacity="0"><rect width="26" height="32" stroke="none"/><rect x="-0.5" y="-0.5" width="27" height="33" fill="none"/></g><g transform="translate(399 234)" fill="none" stroke="#d7d7d7" stroke-width="1" opacity="0"><rect width="26" height="32" stroke="none"/><rect x="-0.5" y="-0.5" width="27" height="33" fill="none"/></g><g transform="translate(376 234)" fill="none" stroke="#d7d7d7" stroke-width="1" opacity="0"><rect width="22" height="32" stroke="none"/><rect x="-0.5" y="-0.5" width="23" height="33" fill="none"/></g><g transform="translate(92 234)" fill="none" stroke="#d7d7d7" stroke-width="1" opacity="0"><rect width="24" height="32" stroke="none"/><rect x="-0.5" y="-0.5" width="25" height="33" fill="none"/></g><g transform="translate(117 234)" fill="none" stroke="#d7d7d7" stroke-width="1" opacity="0"><rect width="24" height="32" stroke="none"/><rect x="-0.5" y="-0.5" width="25" height="33" fill="none"/></g><g transform="translate(142 234)" fill="none" stroke="#d7d7d7" stroke-width="1" opacity="0"><rect width="24" height="32" stroke="none"/><rect x="-0.5" y="-0.5" width="25" height="33" fill="none"/></g><g transform="translate(167 234)" fill="none" stroke="#d7d7d7" stroke-width="1" opacity="0"><rect width="26" height="32" stroke="none"/><rect x="-0.5" y="-0.5" width="27" height="33" fill="none"/></g><g transform="translate(221 234)" fill="none" stroke="#d7d7d7" stroke-width="1" opacity="0"><rect width="24" height="32" stroke="none"/><rect x="-0.5" y="-0.5" width="25" height="33" fill="none"/></g><g transform="translate(246 234)" fill="none" stroke="#d7d7d7" stroke-width="1" opacity="0"><rect width="26" height="32" stroke="none"/><rect x="-0.5" y="-0.5" width="27" height="33" fill="none"/></g><g transform="translate(273 234)" fill="none" stroke="#d7d7d7" stroke-width="1" opacity="0"><rect width="26" height="32" stroke="none"/><rect x="-0.5" y="-0.5" width="27" height="33" fill="none"/></g><path d="M9.388,1.952A7.609,7.609,0,0,0,1.944,9.7a7.609,7.609,0,0,0,7.444,7.75h2.034l.1,2.116.024.532,2.347-2.108.6-.54h3.179A7.609,7.609,0,0,0,25.113,9.7a7.609,7.609,0,0,0-7.444-7.749Z" transform="translate(41.554 239.902)" fill="none" stroke="#fff" stroke-width="2"/><g transform="translate(-16 -1)"><path d="M.039,2.468l.754-.782a5.28,5.28,0,0,1,7.66,0,5.767,5.767,0,0,1,0,7.945L.04,18.357" transform="translate(119.961 241.959)" fill="none" stroke="#fff" stroke-linecap="round" stroke-width="2" fill-rule="evenodd"/><path d="M10.039,2.468l-.754-.782a5.28,5.28,0,0,0-7.66,0,5.767,5.767,0,0,0,0,7.945l8.413,8.725" transform="translate(109.961 241.959)" fill="none" stroke="#fff" stroke-linecap="round" stroke-width="2" fill-rule="evenodd"/></g><g transform="translate(9 -1)"><path d="M.039,2.468l.754-.782a5.28,5.28,0,0,1,7.66,0,5.767,5.767,0,0,1,0,7.945L.04,18.357" transform="translate(119.961 241.959)" fill="#fff" stroke="#fff" stroke-linecap="round" stroke-width="2" fill-rule="evenodd"/><path d="M10.039,2.468l-.754-.782a5.28,5.28,0,0,0-7.66,0,5.767,5.767,0,0,0,0,7.945l8.413,8.725" transform="translate(109.961 241.959)" fill="#fff" stroke="#fff" stroke-linecap="round" stroke-width="2" fill-rule="evenodd"/><g transform="translate(119 243)" fill="#fff" stroke="#fff" stroke-width="1"><rect width="2" height="17" stroke="none"/><rect x="0.5" y="0.5" width="1" height="16" fill="none"/></g></g><g transform="translate(34 -1)"><path d="M.039,2.468l.754-.782a5.28,5.28,0,0,1,7.66,0,5.767,5.767,0,0,1,0,7.945L.04,18.357" transform="translate(119.961 241.959)" fill="#fd4646" stroke="#fd4646" stroke-linecap="round" stroke-width="2" fill-rule="evenodd"/><path d="M10.039,2.468l-.754-.782a5.28,5.28,0,0,0-7.66,0,5.767,5.767,0,0,0,0,7.945l8.413,8.725" transform="translate(109.961 241.959)" fill="#fd4646" stroke="#fd4646" stroke-linecap="round" stroke-width="2" fill-rule="evenodd"/><g transform="translate(119 243)" fill="#fd4646" stroke="#fd4646" stroke-width="1"><rect width="2" height="17" stroke="none"/><rect x="0.5" y="0.5" width="1" height="16" fill="none"/></g></g><g transform="translate(194 234)" fill="none" stroke="#d7d7d7" stroke-width="1" opacity="0"><rect width="26" height="32" stroke="none"/><rect x="-0.5" y="-0.5" width="27" height="33" fill="none"/></g><g transform="translate(306 245)" fill="none" stroke="#fff" stroke-width="2"><circle cx="4.5" cy="4.5" r="4.5" stroke="none"/><circle cx="4.5" cy="4.5" r="3.5" fill="none"/></g><g transform="translate(324 239.904)"><path d="M5,10.2v9.264a1.98,1.98,0,0,0,1.887,1.973h9.607a1.924,1.924,0,0,0,1.887-1.973V10.2" transform="translate(-0.569 -1.437)" fill="none" stroke="#fff" stroke-linecap="round" stroke-linejoin="round" stroke-miterlimit="10" stroke-width="2"/><path d="M1,7.545C1,5.829,1.686,4.8,3.23,4.8H9.578" transform="translate(0 -0.669)" fill="none" stroke="#fff" stroke-linecap="round" stroke-linejoin="round" stroke-miterlimit="10" stroke-width="2"/><path d="M22.6,7.545c0-1.716-.686-2.745-2.23-2.745H9.3" transform="translate(-1.18 -0.669)" fill="none" stroke="#fff" stroke-linecap="round" stroke-linejoin="round" stroke-miterlimit="10" stroke-width="2"/><path d="M10.1,4.62C10.1,2.02,11.231,1,13.494,1" transform="translate(-2.347 -0.903)" fill="none" stroke="#fff" stroke-linecap="round" stroke-linejoin="round" stroke-miterlimit="10" stroke-width="2"/><path d="M16.694,4.62C16.694,2.02,15.563,1,13.3,1" transform="translate(-1.927 -0.903)" fill="none" stroke="#fff" stroke-linecap="round" stroke-linejoin="round" stroke-miterlimit="10" stroke-width="2"/><line y2="7.72" transform="translate(8.806 8.763)" fill="none" stroke="#fff" stroke-linecap="round" stroke-linejoin="round" stroke-miterlimit="10" stroke-width="2"/><line y2="7.72" transform="translate(12.923 8.763)" fill="none" stroke="#fff" stroke-linecap="round" stroke-linejoin="round" stroke-miterlimit="10" stroke-width="2"/></g><g transform="translate(380 243)"><g transform="translate(-20.5 -20.6)"><path d="M20.5,32.447v3.139h3.139l9.227-9.227L29.727,23.22Zm14.769-8.49a.824.824,0,0,0,0-1.174L33.33,20.846a.824.824,0,0,0-1.174,0l-1.529,1.5,3.112,3.112Z" fill="none"/><path d="M23.639,35.587l9.227-9.227-3.139-3.139L20.5,32.447v3.139h3.139m10.1-10.128,1.529-1.5a.824.824,0,0,0,0-1.174L33.33,20.846a.824.824,0,0,0-1.174,0l-1.529,1.5,3.112,3.112M24.468,37.587H18.5V31.619l.586-.586,9.227-9.227,1.414-1.414.018.018,1.006-.988a2.824,2.824,0,0,1,3.994.009l1.938,1.938a2.833,2.833,0,0,1,0,4l-.006.006-.006.006-.984.967.009.009L34.28,27.774,25.054,37Z" fill="#fff"/></g></g><g transform="translate(-265 -465.924)"><g transform="translate(628.042 705.924)" fill="none" stroke="#fff" stroke-width="2"><rect width="9.465" height="19.076" rx="3" stroke="none"/><rect x="1" y="1" width="7.465" height="17.076" rx="2" fill="none"/></g><g transform="translate(616 713.077)" fill="none" stroke="#fff" stroke-width="2"><rect width="9.465" height="11.923" rx="3" stroke="none"/><rect x="1" y="1" width="7.465" height="9.923" rx="2" fill="none"/></g></g><g transform="translate(401.001 241.001)"><path d="M9.488,17.9A8.438,8.438,0,0,1,1,9.335,8.56,8.56,0,0,1,9.335,1,8.494,8.494,0,0,1,17.9,8.646c0,.153.153.765.229.688l2.294-6.117" fill="none" stroke="#fff" stroke-linecap="round" stroke-miterlimit="10" stroke-width="2"/><path d="M21.548,11.15,15,9.481" transform="translate(-3.42 -1.815)" fill="none" stroke="#fff" stroke-linecap="round" stroke-miterlimit="10" stroke-width="2"/></g><g transform="translate(-730.943 316.306)"><g transform="translate(820.047 22.859)" fill="none" stroke="#fff" stroke-width="2"><rect width="18.073" height="14.894" rx="5" stroke="none"/><rect x="1" y="1" width="16.073" height="12.894" rx="4" fill="none"/></g><line y2="6.198" transform="translate(825.874 20.694)" fill="none" stroke="#fff" stroke-width="2"/><line y2="6.198" transform="translate(832.763 20.694)" fill="none" stroke="#fff" stroke-width="2"/></g><rect width="30" height="32" transform="translate(10 234)" fill="none"/><rect width="28" height="32" transform="translate(41 234)" fill="none"/><rect width="21" height="32" transform="translate(70 234)" fill="none"/><rect width="21" height="32" transform="translate(300 234)" fill="none"/><rect width="21" height="32" transform="translate(427 234)" fill="none"/><rect width="24" height="32" transform="translate(92 234)" fill="none"/><rect width="24" height="32" transform="translate(117 234)" fill="none"/><rect width="24" height="32" transform="translate(142 234)" fill="none"/><rect width="26" height="32" transform="translate(167 234)" fill="none"/><rect width="24" height="32" transform="translate(221 234)" fill="none"/><rect width="26" height="32" transform="translate(246 234)" fill="none"/><rect width="26" height="32" transform="translate(273 234)" fill="none"/><rect width="26" height="32" transform="translate(194 234)" fill="none"/><path d="M0,0,9.971,9.972,19.943,0" transform="translate(441.973 240) rotate(90)" fill="none" stroke="#fff" stroke-linecap="round" stroke-linejoin="round" stroke-width="2"/></g><path d="M-6840.367,7650.424l14.331-14.331,14.331,14.331" transform="translate(7740.423 7520.367) rotate(90)" fill="none" stroke="#fff" stroke-linecap="round" stroke-linejoin="round" stroke-width="2"/><path d="M-6840.367,7650.424l14.331-14.331,14.331,14.331" transform="translate(-7616.093 -6131.705) rotate(-90)" fill="none" stroke="#fff" stroke-linecap="round" stroke-linejoin="round" stroke-width="2"/></g><g transform="translate(12 10)"><path d="M4.964-17.062v3.326H7.528v1.815H4.964V-3.4a1.9,1.9,0,0,0,.343,1.238,1.444,1.444,0,0,0,1.168.413A5.686,5.686,0,0,0,7.592-1.9V0a6.809,6.809,0,0,1-1.8.254A2.925,2.925,0,0,1,3.415-.7a4.09,4.09,0,0,1-.8-2.7v-8.519H.114v-1.815h2.5v-3.326ZM16.91-11.629a7.038,7.038,0,0,0-1.155-.089A3.1,3.1,0,0,0,12.619-9.75V0H10.271V-13.736h2.285l.038,1.587a3.657,3.657,0,0,1,3.275-1.841,2.4,2.4,0,0,1,1.041.178ZM27.041,0a4.934,4.934,0,0,1-.33-1.447A5.24,5.24,0,0,1,22.8.254,4.849,4.849,0,0,1,19.468-.9a3.717,3.717,0,0,1-1.3-2.914A3.883,3.883,0,0,1,19.8-7.141a7.691,7.691,0,0,1,4.589-1.187h2.285V-9.407a2.638,2.638,0,0,0-.736-1.961,2.959,2.959,0,0,0-2.171-.73,3.425,3.425,0,0,0-2.107.635,1.87,1.87,0,0,0-.851,1.536H18.446a3.241,3.241,0,0,1,.73-1.987,4.982,4.982,0,0,1,1.98-1.517,6.663,6.663,0,0,1,2.749-.559,5.43,5.43,0,0,1,3.72,1.187,4.282,4.282,0,0,1,1.4,3.269v6.322A7.73,7.73,0,0,0,29.5-.2V0Zm-3.9-1.79a4.128,4.128,0,0,0,2.095-.571,3.456,3.456,0,0,0,1.435-1.485V-6.665H24.832q-4.316,0-4.316,2.526a2.138,2.138,0,0,0,.736,1.727A2.83,2.83,0,0,0,23.144-1.79Zm15.069.127a3.383,3.383,0,0,0,2.2-.762,2.68,2.68,0,0,0,1.041-1.9h2.222a4.259,4.259,0,0,1-.812,2.247,5.351,5.351,0,0,1-2,1.7,5.769,5.769,0,0,1-2.647.635A5.659,5.659,0,0,1,33.75-1.619a7.458,7.458,0,0,1-1.657-5.123v-.394A8.27,8.27,0,0,1,32.83-10.7a5.608,5.608,0,0,1,2.114-2.425A6,6,0,0,1,38.2-13.99a5.509,5.509,0,0,1,3.84,1.384,4.945,4.945,0,0,1,1.631,3.593H41.45a3.237,3.237,0,0,0-1.009-2.19,3.14,3.14,0,0,0-2.241-.857,3.287,3.287,0,0,0-2.774,1.289,6.052,6.052,0,0,0-.984,3.726V-6.6a5.931,5.931,0,0,0,.978,3.656A3.3,3.3,0,0,0,38.213-1.663Zm11.934-4.7L48.674-4.824V0H46.325V-19.5h2.349V-7.706l1.257-1.511,4.278-4.52h2.856L51.721-8l5.967,8H54.933ZM64.937.254a6,6,0,0,1-4.545-1.834A6.809,6.809,0,0,1,58.64-6.487v-.432a8.243,8.243,0,0,1,.781-3.65A6.091,6.091,0,0,1,61.6-13.083a5.49,5.49,0,0,1,3.041-.908,5.144,5.144,0,0,1,4.164,1.765,7.64,7.64,0,0,1,1.485,5.053V-6.2H60.988a4.883,4.883,0,0,0,1.187,3.282,3.731,3.731,0,0,0,2.888,1.25,4.091,4.091,0,0,0,2.107-.508,5.3,5.3,0,0,0,1.511-1.346L70.116-2.4A5.768,5.768,0,0,1,64.937.254Zm-.292-12.314a3.133,3.133,0,0,0-2.387,1.035,5.029,5.029,0,0,0-1.193,2.9h6.881V-8.3a4.473,4.473,0,0,0-.965-2.774A2.949,2.949,0,0,0,64.645-12.061Zm15.006.432a7.038,7.038,0,0,0-1.155-.089A3.1,3.1,0,0,0,75.359-9.75V0H73.011V-13.736H75.3l.038,1.587a3.657,3.657,0,0,1,3.275-1.841,2.4,2.4,0,0,1,1.041.178Z" transform="translate(21 22)" fill="#fff"/><path d="M10.078-27.438s.4-1.941.859-4.22a8.716,8.716,0,0,1,8.525-6.9h0s-7.452,22.4-8.647,26.092a.756.756,0,0,1-.705.493.767.767,0,0,1-.736-.493C8.177-16.164.756-38.559.756-38.559h0a8.674,8.674,0,0,1,8.464,6.9C9.679-29.379,10.078-27.438,10.078-27.438Z" transform="translate(-0.756 39.677)" fill="#fff"/></g><g transform="translate(29 770)" fill="none" stroke="#fff" stroke-width="2"><circle cx="10.5" cy="10.5" r="10.5" stroke="none"/><circle cx="10.5" cy="10.5" r="9.5" fill="none"/></g><g transform="translate(26 789)" fill="none"><path d="M13.5,0,27,24H0Z" stroke="none"/><path d="M 13.5 4.079452514648438 L 3.419692993164062 22 L 23.58030700683594 22 L 13.5 4.079452514648438 M 13.5 0 L 27 24 L 0 24 L 13.5 0 Z" stroke="none" fill="#fff"/></g><rect width="17" height="17" transform="translate(303 593) rotate(180)" fill="none"/><path d="M-6840.367,7641.093l5-5,5,5" transform="translate(-6541.09 8223.48) rotate(180)" fill="none" stroke="#fff" stroke-linecap="round" stroke-linejoin="round" stroke-width="2"/><g transform="translate(340 550)"><g fill="none" stroke-linecap="round" stroke-dasharray="0 20"><path d="M25,0A25,25,0,1,1,0,25,25,25,0,0,1,25,0Z" stroke="none"/><path d="M 25 0 C 25.00252723693848 0 25.00460433959961 0 25.00713348388672 0 C 26.11095809936523 0.000995635986328125 27.00531959533691 0.8961906433105469 27.00507926940918 2.000221252441406 C 27.00485038757324 3.104721069335938 26.10934829711914 4 25.0048713684082 4 C 25.00480461120605 4 25.00471687316895 4 25.0046501159668 4 L 25 4 C 23.89542961120605 3.999881744384766 23 3.104351043701172 23 1.999778747558594 C 23 0.8952789306640625 23.89522361755371 -1.1444091796875e-05 24.99970054626465 0 C 25 0 25 0 25 0 Z M 41.50121307373047 6.977874755859375 C 42.02284622192383 6.977912902832031 42.5440559387207 7.180789947509766 42.93614959716797 7.584629058837891 C 42.93682098388672 7.585315704345703 42.9374885559082 7.586002349853516 42.93815612792969 7.586688995361328 C 42.94033432006836 7.588932037353516 42.94109344482422 7.589714050292969 42.94326782226562 7.591957092285156 C 43.70941925048828 8.384647369384766 43.68957901000977 9.648258209228516 42.89812088012695 10.41653060913086 C 42.10554885864258 11.18589019775391 40.83929061889648 11.16715240478516 40.06985092163086 10.37466812133789 L 40.06663131713867 10.3713493347168 C 39.29718017578125 9.578861236572266 39.31578826904297 8.312599182128906 40.10818862915039 7.543071746826172 C 40.49679183959961 7.165679931640625 40.99919509887695 6.977840423583984 41.50121307373047 6.977874755859375 Z M 47.98932647705078 23.67880630493164 C 48.00888442993164 23.67880821228027 48.02858352661133 23.67909049987793 48.04825973510742 23.67966079711914 C 49.15237045288086 23.71161079406738 50.02141952514648 24.63257026672363 49.98934936523438 25.73666954040527 C 49.98929977416992 25.73851013183594 49.98925018310547 25.7403392791748 49.98918914794922 25.74217987060547 C 49.95711898803711 26.84627914428711 49.03607940673828 27.71529579162598 47.93198013305664 27.68305015563965 C 46.8278694152832 27.65085983276367 45.95882034301758 26.72970962524414 45.99089050292969 25.6256103515625 L 45.99103164672852 25.62096977233887 C 46.02252960205078 24.53653717041016 46.91152191162109 23.67876434326172 47.98932647705078 23.67880630493164 Z M 40.52824401855469 39.96662139892578 C 41.06970977783203 39.96662902832031 41.60940551757812 40.1851692199707 42.00389862060547 40.61592864990234 C 42.74912643432617 41.4296760559082 42.69438171386719 42.69290161132812 41.88212966918945 43.43912124633789 C 41.88040161132812 43.44070434570312 41.87821578979492 43.44270706176758 41.87648773193359 43.44429016113281 C 41.87615966796875 43.44458770751953 41.87583541870117 43.44488525390625 41.87551116943359 43.4451789855957 C 41.06084060668945 44.19110107421875 39.79581069946289 44.13529968261719 39.04998779296875 43.32054138183594 C 38.30416107177734 42.50579071044922 38.35997009277344 41.24063110351562 39.17464065551758 40.49470901489258 L 39.17805099487305 40.4915885925293 C 39.56191635131836 40.14011764526367 40.04578018188477 39.96661758422852 40.52824401855469 39.96662139892578 Z M 23.63671684265137 45.96037292480469 C 23.67578887939453 45.96037292480469 23.71523284912109 45.96150970458984 23.75473976135254 45.96380996704102 L 23.75935935974121 45.96408081054688 C 24.86207008361816 46.02825164794922 25.70405960083008 46.97420120239258 25.63999938964844 48.07691192626953 C 25.57600212097168 49.17874526977539 24.63159942626953 50.02018356323242 23.53002166748047 49.95750045776367 C 23.52669906616211 49.95730590820312 23.52291870117188 49.95708847045898 23.51959609985352 49.95689392089844 C 22.41798782348633 49.89158248901367 21.57745361328125 48.9461784362793 21.64170074462891 47.84421920776367 C 21.70368576049805 46.78103637695312 22.58523559570312 45.96030044555664 23.63671684265137 45.96037292480469 Z M 7.578769683837891 38.01846313476562 C 8.140094757080078 38.01848983764648 8.69830322265625 38.25348663330078 9.093841552734375 38.71173095703125 L 9.096858978271484 38.71522903442383 C 9.818599700927734 39.55139923095703 9.725898742675781 40.81439971923828 8.889808654785156 41.53623199462891 C 8.053722381591797 42.25804901123047 6.790855407714844 42.16536712646484 6.069129943847656 41.32920074462891 C 6.068538665771484 41.32851409912109 6.067943572998047 41.32782745361328 6.067348480224609 41.32714462280273 C 6.065818786621094 41.32537078857422 6.064418792724609 41.32374572753906 6.062889099121094 41.32197189331055 C 5.344024658203125 40.48578262329102 5.437641143798828 39.22513961791992 6.272869110107422 38.50437927246094 C 6.650821685791016 38.17821884155273 7.115840911865234 38.01843643188477 7.578769683837891 38.01846313476562 Z M 2.086433410644531 20.96194267272949 C 2.144927978515625 20.96194839477539 2.204059600830078 20.96450424194336 2.263431549072266 20.9697093963623 C 3.363780975341797 21.06620979309082 4.177661895751953 22.03644943237305 4.081279754638672 23.13681030273438 L 4.080879211425781 23.14141082763672 C 3.984500885009766 24.24176979064941 3.014377593994141 25.05575180053711 1.913978576660156 24.95949935913086 C 0.8150215148925781 24.86337280273438 0.001804351806640625 23.89571189880371 0.09572219848632812 22.79709625244141 C 0.09608078002929688 22.79297637939453 0.09655380249023438 22.78759574890137 0.09691619873046875 22.78347587585449 C 0.1898956298828125 21.7443904876709 1.062049865722656 20.96187019348145 2.086433410644531 20.96194267272949 Z M 10.50010299682617 5.144203186035156 C 11.08127975463867 5.144229888916016 11.65765762329102 5.396373748779297 12.05289840698242 5.882480621337891 C 12.74972915649414 6.739509582519531 12.61993026733398 7.999240875244141 11.76298141479492 8.696170806884766 L 11.75939178466797 8.699089050292969 C 10.90243148803711 9.396007537841797 9.642688751220703 9.266349792480469 8.945671081542969 8.409469604492188 C 8.248649597167969 7.552589416503906 8.378299713134766 6.292991638183594 9.235260009765625 5.596061706542969 C 9.235569000244141 5.595809936523438 9.235877990722656 5.595558166503906 9.236183166503906 5.595306396484375 C 9.238609313964844 5.593334197998047 9.239784240722656 5.592380523681641 9.242210388183594 5.590408325195312 C 9.612575531005859 5.290237426757812 10.05769729614258 5.144184112548828 10.50010299682617 5.144203186035156 Z" stroke="none" fill="#fff"/></g></g></g></svg>