<svg xmlns="http://www.w3.org/2000/svg" xmlns:xlink="http://www.w3.org/1999/xlink" width="800" height="1200" viewBox="0 0 800 1200"><defs><clipPath id="a"><rect width="800" height="1200"/></clipPath><clipPath id="c"><rect width="38" height="38"/></clipPath></defs><g id="e" clip-path="url(#a)"><g transform="translate(12 10)"><path d="M4.964-17.062v3.326H7.528v1.815H4.964V-3.4a1.9,1.9,0,0,0,.343,1.238,1.444,1.444,0,0,0,1.168.413A5.686,5.686,0,0,0,7.592-1.9V0a6.809,6.809,0,0,1-1.8.254A2.925,2.925,0,0,1,3.415-.7a4.09,4.09,0,0,1-.8-2.7v-8.519H.114v-1.815h2.5v-3.326ZM16.91-11.629a7.038,7.038,0,0,0-1.155-.089A3.1,3.1,0,0,0,12.619-9.75V0H10.271V-13.736h2.285l.038,1.587a3.657,3.657,0,0,1,3.275-1.841,2.4,2.4,0,0,1,1.041.178ZM27.041,0a4.934,4.934,0,0,1-.33-1.447A5.24,5.24,0,0,1,22.8.254,4.849,4.849,0,0,1,19.468-.9a3.717,3.717,0,0,1-1.3-2.914A3.883,3.883,0,0,1,19.8-7.141a7.691,7.691,0,0,1,4.589-1.187h2.285V-9.407a2.638,2.638,0,0,0-.736-1.961,2.959,2.959,0,0,0-2.171-.73,3.425,3.425,0,0,0-2.107.635,1.87,1.87,0,0,0-.851,1.536H18.446a3.241,3.241,0,0,1,.73-1.987,4.982,4.982,0,0,1,1.98-1.517,6.663,6.663,0,0,1,2.749-.559,5.43,5.43,0,0,1,3.72,1.187,4.282,4.282,0,0,1,1.4,3.269v6.322A7.73,7.73,0,0,0,29.5-.2V0Zm-3.9-1.79a4.128,4.128,0,0,0,2.095-.571,3.456,3.456,0,0,0,1.435-1.485V-6.665H24.832q-4.316,0-4.316,2.526a2.138,2.138,0,0,0,.736,1.727A2.83,2.83,0,0,0,23.144-1.79Zm15.069.127a3.383,3.383,0,0,0,2.2-.762,2.68,2.68,0,0,0,1.041-1.9h2.222a4.259,4.259,0,0,1-.812,2.247,5.351,5.351,0,0,1-2,1.7,5.769,5.769,0,0,1-2.647.635A5.659,5.659,0,0,1,33.75-1.619a7.458,7.458,0,0,1-1.657-5.123v-.394A8.27,8.27,0,0,1,32.83-10.7a5.608,5.608,0,0,1,2.114-2.425A6,6,0,0,1,38.2-13.99a5.509,5.509,0,0,1,3.84,1.384,4.945,4.945,0,0,1,1.631,3.593H41.45a3.237,3.237,0,0,0-1.009-2.19,3.14,3.14,0,0,0-2.241-.857,3.287,3.287,0,0,0-2.774,1.289,6.052,6.052,0,0,0-.984,3.726V-6.6a5.931,5.931,0,0,0,.978,3.656A3.3,3.3,0,0,0,38.213-1.663Zm11.934-4.7L48.674-4.824V0H46.325V-19.5h2.349V-7.706l1.257-1.511,4.278-4.52h2.856L51.721-8l5.967,8H54.933ZM64.937.254a6,6,0,0,1-4.545-1.834A6.809,6.809,0,0,1,58.64-6.487v-.432a8.243,8.243,0,0,1,.781-3.65A6.091,6.091,0,0,1,61.6-13.083a5.49,5.49,0,0,1,3.041-.908,5.144,5.144,0,0,1,4.164,1.765,7.64,7.64,0,0,1,1.485,5.053V-6.2H60.988a4.883,4.883,0,0,0,1.187,3.282,3.731,3.731,0,0,0,2.888,1.25,4.091,4.091,0,0,0,2.107-.508,5.3,5.3,0,0,0,1.511-1.346L70.116-2.4A5.768,5.768,0,0,1,64.937.254Zm-.292-12.314a3.133,3.133,0,0,0-2.387,1.035,5.029,5.029,0,0,0-1.193,2.9h6.881V-8.3a4.473,4.473,0,0,0-.965-2.774A2.949,2.949,0,0,0,64.645-12.061Zm15.006.432a7.038,7.038,0,0,0-1.155-.089A3.1,3.1,0,0,0,75.359-9.75V0H73.011V-13.736H75.3l.038,1.587a3.657,3.657,0,0,1,3.275-1.841,2.4,2.4,0,0,1,1.041.178Z" transform="translate(21 22)" fill="#fff"/><path d="M10.078-27.438s.4-1.941.859-4.22a8.716,8.716,0,0,1,8.525-6.9h0s-7.452,22.4-8.647,26.092a.756.756,0,0,1-.705.493.767.767,0,0,1-.736-.493C8.177-16.164.756-38.559.756-38.559h0a8.674,8.674,0,0,1,8.464,6.9C9.679-29.379,10.078-27.438,10.078-27.438Z" transform="translate(-0.756 39.677)" fill="#fff"/></g><g transform="translate(12 49.968)"><path d="M4.964-17.062v3.326H7.528v1.815H4.964V-3.4a1.9,1.9,0,0,0,.343,1.238,1.444,1.444,0,0,0,1.168.413A5.686,5.686,0,0,0,7.592-1.9V0a6.809,6.809,0,0,1-1.8.254A2.925,2.925,0,0,1,3.415-.7a4.09,4.09,0,0,1-.8-2.7v-8.519H.114v-1.815h2.5v-3.326ZM16.91-11.629a7.038,7.038,0,0,0-1.155-.089A3.1,3.1,0,0,0,12.619-9.75V0H10.271V-13.736h2.285l.038,1.587a3.657,3.657,0,0,1,3.275-1.841,2.4,2.4,0,0,1,1.041.178ZM27.041,0a4.934,4.934,0,0,1-.33-1.447A5.24,5.24,0,0,1,22.8.254,4.849,4.849,0,0,1,19.468-.9a3.717,3.717,0,0,1-1.3-2.914A3.883,3.883,0,0,1,19.8-7.141a7.691,7.691,0,0,1,4.589-1.187h2.285V-9.407a2.638,2.638,0,0,0-.736-1.961,2.959,2.959,0,0,0-2.171-.73,3.425,3.425,0,0,0-2.107.635,1.87,1.87,0,0,0-.851,1.536H18.446a3.241,3.241,0,0,1,.73-1.987,4.982,4.982,0,0,1,1.98-1.517,6.663,6.663,0,0,1,2.749-.559,5.43,5.43,0,0,1,3.72,1.187,4.282,4.282,0,0,1,1.4,3.269v6.322A7.73,7.73,0,0,0,29.5-.2V0Zm-3.9-1.79a4.128,4.128,0,0,0,2.095-.571,3.456,3.456,0,0,0,1.435-1.485V-6.665H24.832q-4.316,0-4.316,2.526a2.138,2.138,0,0,0,.736,1.727A2.83,2.83,0,0,0,23.144-1.79Zm15.069.127a3.383,3.383,0,0,0,2.2-.762,2.68,2.68,0,0,0,1.041-1.9h2.222a4.259,4.259,0,0,1-.812,2.247,5.351,5.351,0,0,1-2,1.7,5.769,5.769,0,0,1-2.647.635A5.659,5.659,0,0,1,33.75-1.619a7.458,7.458,0,0,1-1.657-5.123v-.394A8.27,8.27,0,0,1,32.83-10.7a5.608,5.608,0,0,1,2.114-2.425A6,6,0,0,1,38.2-13.99a5.509,5.509,0,0,1,3.84,1.384,4.945,4.945,0,0,1,1.631,3.593H41.45a3.237,3.237,0,0,0-1.009-2.19,3.14,3.14,0,0,0-2.241-.857,3.287,3.287,0,0,0-2.774,1.289,6.052,6.052,0,0,0-.984,3.726V-6.6a5.931,5.931,0,0,0,.978,3.656A3.3,3.3,0,0,0,38.213-1.663Zm11.934-4.7L48.674-4.824V0H46.325V-19.5h2.349V-7.706l1.257-1.511,4.278-4.52h2.856L51.721-8l5.967,8H54.933ZM64.937.254a6,6,0,0,1-4.545-1.834A6.809,6.809,0,0,1,58.64-6.487v-.432a8.243,8.243,0,0,1,.781-3.65A6.091,6.091,0,0,1,61.6-13.083a5.49,5.49,0,0,1,3.041-.908,5.144,5.144,0,0,1,4.164,1.765,7.64,7.64,0,0,1,1.485,5.053V-6.2H60.988a4.883,4.883,0,0,0,1.187,3.282,3.731,3.731,0,0,0,2.888,1.25,4.091,4.091,0,0,0,2.107-.508,5.3,5.3,0,0,0,1.511-1.346L70.116-2.4A5.768,5.768,0,0,1,64.937.254Zm-.292-12.314a3.133,3.133,0,0,0-2.387,1.035,5.029,5.029,0,0,0-1.193,2.9h6.881V-8.3a4.473,4.473,0,0,0-.965-2.774A2.949,2.949,0,0,0,64.645-12.061Zm15.006.432a7.038,7.038,0,0,0-1.155-.089A3.1,3.1,0,0,0,75.359-9.75V0H73.011V-13.736H75.3l.038,1.587a3.657,3.657,0,0,1,3.275-1.841,2.4,2.4,0,0,1,1.041.178Z" transform="translate(21 22.032)" fill="#fff"/><path d="M10.078-27.438s.4-1.941.859-4.22a8.716,8.716,0,0,1,8.525-6.9h0s-7.452,22.4-8.647,26.092a.756.756,0,0,1-.705.493.767.767,0,0,1-.736-.493C8.177-16.164.756-38.559.756-38.559h0a8.674,8.674,0,0,1,8.464,6.9C9.679-29.379,10.078-27.438,10.078-27.438Z" transform="translate(-0.756 39.677)" fill="#fff"/></g><g clip-path="url(#a)"><g clip-path="url(#a)"><path d="M307.778,421.08h-8.505v-8.5a1,1,0,0,0-2,0v8.5h-8.505a1,1,0,1,0,0,2h8.505v8.505a1,1,0,0,0,2,0V423.08h8.505a1,1,0,0,0,0-2Z" transform="translate(-215.768 -310.58)" fill="#232221"/><g transform="translate(11 141)" clip-path="url(#c)"><g transform="translate(8423 21976)"><circle cx="18.637" cy="18.637" r="18.637" transform="translate(-8422.637 -21975.637)" fill="#242120"/><path d="M1,4.959,5.9,10.04,14.59,1" transform="translate(-8411.404 -21961.801)" fill="none" stroke="#fff" stroke-linecap="round" stroke-linejoin="round" stroke-miterlimit="10" stroke-width="2"/></g></g><g transform="translate(59 141)" clip-path="url(#c)"><g transform="translate(8423 21976)"><circle cx="18.637" cy="18.637" r="18.637" transform="translate(-8422.637 -21975.637)" fill="#fd4646"/><path d="M1,4.959,5.9,10.04,14.59,1" transform="translate(-8411.404 -21961.801)" fill="none" stroke="#fff" stroke-linecap="round" stroke-linejoin="round" stroke-miterlimit="10" stroke-width="2"/></g></g><g transform="translate(6377 22955)"><circle cx="17.5" cy="17.5" r="17.5" transform="translate(-6270 -22814)" fill="#fff" opacity="0"/><path d="M1,5.37l5.413,5.608L16,1" transform="translate(-6260.5 -22802.5)" fill="none" stroke="#fff" stroke-linecap="round" stroke-linejoin="round" stroke-miterlimit="10" stroke-width="2"/></g><g transform="translate(6368 22955)"><circle cx="17.5" cy="17.5" r="17.5" transform="translate(-6207 -22814)" fill="#fff" opacity="0"/><path d="M1,5.37l5.413,5.608L16,1" transform="translate(-6197.5 -22802.5)" fill="none" stroke="#2f2d2c" stroke-linecap="round" stroke-linejoin="round" stroke-miterlimit="10" stroke-width="2"/></g><g transform="translate(6422 22955)"><circle cx="17.5" cy="17.5" r="17.5" transform="translate(-6207 -22814)" fill="#fff" opacity="0"/><path d="M1,5.37l5.413,5.608L16,1" transform="translate(-6197.5 -22802.5)" fill="none" stroke="#fd4646" stroke-linecap="round" stroke-linejoin="round" stroke-miterlimit="10" stroke-width="2"/></g><g transform="translate(-548.584 -627.296)"><line x2="14" y2="14" transform="translate(574.584 843.296) rotate(180)" fill="none" stroke="#2c8dff" stroke-linecap="round" stroke-linejoin="round" stroke-miterlimit="10" stroke-width="2"/><line y1="14" x2="14" transform="translate(574.584 843.296) rotate(180)" fill="none" stroke="#2c8dff" stroke-linecap="round" stroke-linejoin="round" stroke-miterlimit="10" stroke-width="2"/></g><g transform="translate(104 222) rotate(180)"><line x2="20" y2="20" fill="none" stroke="#fff" stroke-linecap="round" stroke-linejoin="round" stroke-miterlimit="10" stroke-width="2"/><line y1="20" x2="20" fill="none" stroke="#fff" stroke-linecap="round" stroke-linejoin="round" stroke-miterlimit="10" stroke-width="2"/></g><g transform="translate(-545.54 -2574.575)"><path d="M617.994,3085.5a13.038,13.038,0,0,1-6.738-1.89,13.507,13.507,0,0,1-4.848-5.011,14.076,14.076,0,0,1,0-13.8,13.5,13.5,0,0,1,4.848-5.012,13.039,13.039,0,0,1,6.738-1.89,14.081,14.081,0,0,1,4.519.74,11.856,11.856,0,0,1,3.944,2.3,1.012,1.012,0,0,1,.411.822,1.169,1.169,0,0,1-.164.493,2.384,2.384,0,0,0-.74.739,1.163,1.163,0,0,1-.493.167.951.951,0,0,1-.822-.329,7.611,7.611,0,0,0-2.958-1.725,11.589,11.589,0,0,0-3.7-.575,9.9,9.9,0,0,0-5.423,1.561,11.456,11.456,0,0,0-3.944,15.369,10.535,10.535,0,0,0,3.944,4.108,9.826,9.826,0,0,0,5.423,1.479,10.936,10.936,0,0,0,6.82-2.384,1.327,1.327,0,0,1,.74-.246,1.721,1.721,0,0,1,.9.329,1.361,1.361,0,0,1,.411.986,1.515,1.515,0,0,1-.411.986,12.68,12.68,0,0,1-8.457,2.785Zm26.953,0a14.143,14.143,0,0,1-7.067-1.807,12.919,12.919,0,0,1-4.93-4.929,14.713,14.713,0,0,1,0-14.132,12.917,12.917,0,0,1,4.93-4.93,14.717,14.717,0,0,1,14.134,0,12.915,12.915,0,0,1,4.93,4.93,14.713,14.713,0,0,1,0,14.132,12.916,12.916,0,0,1-4.93,4.929,13.538,13.538,0,0,1-7.067,1.807Zm0-2.547a11.452,11.452,0,0,0,5.67-1.479,10.9,10.9,0,0,0,3.944-4.026,11.532,11.532,0,0,0,1.479-5.751,11.992,11.992,0,0,0-1.479-5.751,9.515,9.515,0,0,0-4.027-4.025,11.461,11.461,0,0,0-5.67-1.479,12,12,0,0,0-5.752,1.479,11.8,11.8,0,0,0-4.026,4.026,11.534,11.534,0,0,0-1.479,5.751,11.756,11.756,0,0,0,1.479,5.751,9.519,9.519,0,0,0,4.026,4.026,11.219,11.219,0,0,0,5.834,1.479Zm27.61,2.547a12,12,0,0,1-5.834-1.4,8.066,8.066,0,0,1-3.616-3.779,1.187,1.187,0,0,1-.164-.575,1.462,1.462,0,0,1,.329-.822,1.436,1.436,0,0,1,.986-.328,1.147,1.147,0,0,1,.74.248,2.216,2.216,0,0,1,.575.657,5.477,5.477,0,0,0,2.63,2.465,9.588,9.588,0,0,0,4.273.986,6.884,6.884,0,0,0,4.52-1.4,4.485,4.485,0,0,0,1.726-3.779,4.987,4.987,0,0,0-1.643-3.7,8.1,8.1,0,0,0-4.848-1.889,11.834,11.834,0,0,1-6.327-2.465,6.4,6.4,0,0,1-2.3-4.93,5.751,5.751,0,0,1,1.15-3.615,7.406,7.406,0,0,1,3.123-2.383,10.524,10.524,0,0,1,4.52-.823,9.577,9.577,0,0,1,4.766,1.232,8.356,8.356,0,0,1,3.2,3.122,1.583,1.583,0,0,1,.247.822,1.282,1.282,0,0,1-.657,1.068,1.545,1.545,0,0,1-.657.165,2.387,2.387,0,0,1-.74-.164,1.913,1.913,0,0,1-.575-.575,6.4,6.4,0,0,0-5.834-3.04,7.654,7.654,0,0,0-4.437,1.15,3.882,3.882,0,0,0-1.643,3.369c0,2.711,2.136,4.354,6.492,4.93a11.582,11.582,0,0,1,6.409,2.629,7.064,7.064,0,0,1,2.136,5.258,8.229,8.229,0,0,1-1.15,4.19,7.9,7.9,0,0,1-3.2,2.711,10.713,10.713,0,0,1-4.2.666Zm40.182-27.277a1.319,1.319,0,0,1,.9.411,1.359,1.359,0,0,1,.411.986v24.237a1.706,1.706,0,0,1-.411.986,1.315,1.315,0,0,1-.9.41,1.516,1.516,0,0,1-.986-.411,1.359,1.359,0,0,1-.411-.986V3064.3l-9.614,19.636a1.312,1.312,0,0,1-1.15.657,1.264,1.264,0,0,1-1.233-.823l-9.532-19.143v19.225a1.7,1.7,0,0,1-.411.986,1.358,1.358,0,0,1-.986.411,1.516,1.516,0,0,1-.986-.411,1.359,1.359,0,0,1-.411-.986v-24.237a1.515,1.515,0,0,1,.411-.986,1.362,1.362,0,0,1,.986-.41,1.45,1.45,0,0,1,1.233.658l11.011,21.937,10.847-21.937a1.45,1.45,0,0,1,1.232-.654Zm20.625,27.277a14.143,14.143,0,0,1-7.067-1.807,12.915,12.915,0,0,1-4.93-4.929,14.713,14.713,0,0,1,0-14.132,12.917,12.917,0,0,1,4.93-4.93,14.718,14.718,0,0,1,14.134,0,12.914,12.914,0,0,1,4.93,4.93,14.713,14.713,0,0,1,0,14.132,12.913,12.913,0,0,1-4.93,4.929,13.156,13.156,0,0,1-7.066,1.807Zm0-2.547a11.452,11.452,0,0,0,5.67-1.479,11.8,11.8,0,0,0,4.026-4.026,11.529,11.529,0,0,0,1.479-5.751,11.988,11.988,0,0,0-1.479-5.751,9.516,9.516,0,0,0-4.026-4.026,11.452,11.452,0,0,0-5.67-1.479,12,12,0,0,0-5.752,1.479,11.8,11.8,0,0,0-4.026,4.026,11.534,11.534,0,0,0-1.479,5.751,11.757,11.757,0,0,0,1.479,5.751,9.513,9.513,0,0,0,4.026,4.026,11.131,11.131,0,0,0,5.753,1.482Zm27.61,2.547a12,12,0,0,1-5.834-1.4,8.064,8.064,0,0,1-3.616-3.78,1.186,1.186,0,0,1-.164-.575,1.461,1.461,0,0,1,.329-.822,1.436,1.436,0,0,1,.986-.326,1.146,1.146,0,0,1,.74.247,2.221,2.221,0,0,1,.575.657,5.477,5.477,0,0,0,2.63,2.465,9.586,9.586,0,0,0,4.273.987,6.883,6.883,0,0,0,4.52-1.4,4.485,4.485,0,0,0,1.726-3.779,4.987,4.987,0,0,0-1.643-3.7,8.1,8.1,0,0,0-4.848-1.889,11.315,11.315,0,0,1-6.327-2.547,6.4,6.4,0,0,1-2.3-4.93,5.754,5.754,0,0,1,1.15-3.615,7.414,7.414,0,0,1,3.123-2.382,10.534,10.534,0,0,1,4.519-.822,9.588,9.588,0,0,1,4.766,1.233,8.363,8.363,0,0,1,3.2,3.122,1.585,1.585,0,0,1,.246.822,1.283,1.283,0,0,1-.657,1.068,1.549,1.549,0,0,1-.657.164,2.422,2.422,0,0,1-.74-.164,1.914,1.914,0,0,1-.575-.573,6.4,6.4,0,0,0-5.834-3.04,7.656,7.656,0,0,0-4.437,1.15,3.882,3.882,0,0,0-1.643,3.369c0,2.711,2.136,4.354,6.492,4.93a11.572,11.572,0,0,1,6.409,2.629,7.065,7.065,0,0,1,2.136,5.258,8.23,8.23,0,0,1-1.15,4.19,7.9,7.9,0,0,1-3.2,2.711,9.137,9.137,0,0,1-4.194.746Z" transform="translate(-13.823 -1.309)" fill="#fff"/><path d="M576.1,3056.667a6.916,6.916,0,0,1,3.387.957,8.682,8.682,0,0,1,2.8,2.356,8.025,8.025,0,0,1,1.694,2.872,5.994,5.994,0,0,1,.3,3.019,6.277,6.277,0,0,1-1.62,3.534c-.147.147-.295.368-.442.515a.8.8,0,0,0-.147.81.737.737,0,0,0,.295.368,5.532,5.532,0,0,1,.81,1.031c.074.147.147.221.221.368a6.654,6.654,0,0,1,.074,6.627,10.863,10.863,0,0,1-2.651,3.166,6.634,6.634,0,0,1-2.5,1.473,6.279,6.279,0,0,1-3.682.294,7.219,7.219,0,0,1-2.357-.957,8.462,8.462,0,0,1-1.252-1.031.67.67,0,0,0-.516-.221.837.837,0,0,0-.589.221l-1.1.884c-.074.074-.221.147-.295.221a6.653,6.653,0,0,1-6.628.221,11.263,11.263,0,0,1-2.946-2.282,8.572,8.572,0,0,1-1.988-3.24,6.312,6.312,0,0,1-.221-3.313,6.236,6.236,0,0,1,1.031-2.5v-.073a6.854,6.854,0,0,1,.957-1.1.69.69,0,0,0,.147-.81,1.293,1.293,0,0,0-.3-.368l-.884-1.1a7.1,7.1,0,0,1-1.1-3.019,6.459,6.459,0,0,1,.663-3.682,9.156,9.156,0,0,1,2.136-2.872,8.977,8.977,0,0,1,3.019-1.989,7.354,7.354,0,0,1,3.093-.442,7.107,7.107,0,0,1,3.019,1.1,7.378,7.378,0,0,1,1.178.957.69.69,0,0,0,.81.147,1.285,1.285,0,0,0,.368-.294l1.1-.883a15.067,15.067,0,0,1,4.124-.957Zm-10.31,10.676a1.219,1.219,0,0,1,.884.368c1.841.662,2.062,4.933,0,5.522a1.359,1.359,0,0,1-1.178.368c-.147-.074-.295-.074-.442-.221a2.122,2.122,0,0,0-1.473-.368,2.038,2.038,0,0,0-1.694,1.62,2.909,2.909,0,0,0,.295,1.546,5.322,5.322,0,0,0,1.252,1.62,4.983,4.983,0,0,0,1.915,1.323,2.7,2.7,0,0,0,1.325.074,2.075,2.075,0,0,0,1.4-1.693,2.222,2.222,0,0,0-.368-1.4.071.071,0,0,0-.021-.053.073.073,0,0,0-.053-.021,1.336,1.336,0,0,1,.221-1.473c.736-2.209,5.008-1.693,5.523,0a1.358,1.358,0,0,1,.368,1.178c-.074.147-.074.294-.221.442a2.354,2.354,0,0,0-.368,1.4,1.819,1.819,0,0,0,.884,1.4,1.986,1.986,0,0,0,1.1.368,2.423,2.423,0,0,0,1.4-.442,5.435,5.435,0,0,0,1.694-1.473,4.988,4.988,0,0,0,1.031-1.694,2.507,2.507,0,0,0,0-1.473,2.033,2.033,0,0,0-.884-1.031,1.7,1.7,0,0,0-1.178-.221,2.481,2.481,0,0,0-1.031.368.072.072,0,0,0-.053.021.073.073,0,0,0-.021.053,1.333,1.333,0,0,1-1.473-.22c-2.209-.515-2.062-4.86,0-5.522a1.358,1.358,0,0,1,1.178-.368,5.661,5.661,0,0,0,1.915.515,2.037,2.037,0,0,0,1.694-1.62,2.908,2.908,0,0,0-.295-1.546,5.32,5.32,0,0,0-1.252-1.62,4.744,4.744,0,0,0-2.062-1.325,1.83,1.83,0,0,0-1.252,0,2.073,2.073,0,0,0-1.4,1.693,2.221,2.221,0,0,0,.368,1.4v.073a1.239,1.239,0,0,1-.221,1.546c-.589,1.693-4.86,1.767-5.523,0a1.359,1.359,0,0,1-.368-1.178c.074-.147.074-.294.221-.442a2.356,2.356,0,0,0,.368-1.4,1.818,1.818,0,0,0-.884-1.4,1.984,1.984,0,0,0-1.1-.368,3.092,3.092,0,0,0-1.62.589,8.278,8.278,0,0,0-1.473,1.326,4.986,4.986,0,0,0-1.031,1.693,2.019,2.019,0,0,0,1.178,2.577.93.93,0,0,0,.442.073,2.113,2.113,0,0,0,1.473-.367.069.069,0,0,0,.053-.021.073.073,0,0,0,.021-.053,1.449,1.449,0,0,1,.735-.146Z" fill="#fff" fill-rule="evenodd"/></g><g transform="translate(-76 289)"><circle cx="2" cy="2" r="2" transform="translate(87 2)" fill="#fff"/><circle cx="2" cy="2" r="2" transform="translate(87 8)" fill="#fff"/><circle cx="2" cy="2" r="2" transform="translate(87 14)" fill="#fff"/><circle cx="2" cy="2" r="2" transform="translate(92.727 2)" fill="#fff"/><circle cx="2" cy="2" r="2" transform="translate(92.727 8)" fill="#fff"/><circle cx="2" cy="2" r="2" transform="translate(92.727 14)" fill="#fff"/><circle cx="2" cy="2" r="2" transform="translate(98.727 2)" fill="#fff"/><circle cx="2" cy="2" r="2" transform="translate(98.727 8)" fill="#fff"/><circle cx="2" cy="2" r="2" transform="translate(98.727 14)" fill="#fff"/></g><g transform="translate(39 334.985)"><path d="M5.543-14v7.175a1.94,1.94,0,0,0,1.731,2.1h8.87a1.94,1.94,0,0,0,1.731-2.1V-14" transform="translate(-2.673 22.379)" fill="none" stroke="#fff" stroke-linecap="round" stroke-linejoin="round" stroke-width="2"/><path d="M10.027-21.64,1-14.672" transform="translate(-1 24.655)" fill="none" stroke="#fff" stroke-linecap="round" stroke-linejoin="round" stroke-width="2"/><path d="M15.32-21.64l9.027,6.968" transform="translate(-6.275 24.655)" fill="none" stroke="#fff" stroke-linecap="round" stroke-linejoin="round" stroke-width="2"/></g><path d="M14.925,1.351a4.278,4.278,0,0,0-6.193,0l-.609.624-.609-.624a4.3,4.3,0,0,0-6.193,0,4.564,4.564,0,0,0,0,6.344l6.8,6.968,6.8-6.968a4.534,4.534,0,0,0,0-6.344" transform="translate(64.961 337.975)" fill="none" stroke="#fff" stroke-linecap="round" stroke-width="2" fill-rule="evenodd"/><g transform="translate(-81 289)"><g transform="translate(125 3)" fill="#fff" stroke="#fff" stroke-width="1"><rect width="16" height="2" rx="1" stroke="none"/><rect x="0.5" y="0.5" width="15" height="1" rx="0.5" fill="none"/></g><g transform="translate(125 9)" fill="#fff" stroke="#fff" stroke-width="1"><rect width="16" height="2" rx="1" stroke="none"/><rect x="0.5" y="0.5" width="15" height="1" rx="0.5" fill="none"/></g><g transform="translate(125 15)" fill="#fff" stroke="#fff" stroke-width="1"><rect width="16" height="2" rx="1" stroke="none"/><rect x="0.5" y="0.5" width="15" height="1" rx="0.5" fill="none"/></g><circle cx="2" cy="2" r="2" transform="translate(118 2)" fill="#fff"/><circle cx="2" cy="2" r="2" transform="translate(118 8)" fill="#fff"/><circle cx="2" cy="2" r="2" transform="translate(118 14)" fill="#fff"/></g><g transform="translate(74.03 291)"><path d="M.913,16.786a.913.913,0,1,1,0-1.825H11.554a.913.913,0,1,1,0,1.825Zm0-7.48a.913.913,0,0,1,0-1.826H19.035a.913.913,0,1,1,0,1.826Zm0-7.48A.913.913,0,1,1,.913,0H19.035a.913.913,0,1,1,0,1.826Z" fill="#fff"/></g><path d="M1.414,3.719l9.977-9.94" transform="translate(11.586 461.311)" fill="none" stroke="#fff" stroke-linecap="round" stroke-linejoin="round" stroke-width="3"/><path d="M21.837-20.942A18.17,18.17,0,0,1,39.819-2.606,18.17,18.17,0,0,1,21.837,15.731,18.17,18.17,0,0,1,3.855-2.606,18.17,18.17,0,0,1,21.837-20.942Z" transform="translate(14.211 444.942)" fill="none" stroke="#fff" stroke-linecap="round" stroke-width="3"/><g transform="translate(72 7)"><path d="M1.414-.147l6.1-6.074" transform="translate(11.586 449.22)" fill="none" stroke="#fff" stroke-linecap="round" stroke-linejoin="round" stroke-width="2"/><path d="M14.843-20.942a11.1,11.1,0,0,1,10.988,11.2,11.1,11.1,0,0,1-10.988,11.2A11.1,11.1,0,0,1,3.855-9.737a11.1,11.1,0,0,1,10.988-11.2Z" transform="translate(12.241 444.942)" fill="none" stroke="#fff" stroke-linecap="round" stroke-width="2"/></g><g transform="translate(12.007 335.096)"><path d="M10.7-27.9a6.21,6.21,0,0,0-4.742,1.781A6.21,6.21,0,0,0,4.12-21.4c0,4.714,6.58,8.5,6.58,8.5s6.58-3.283,6.58-8.5a6.21,6.21,0,0,0-1.838-4.719A6.21,6.21,0,0,0,10.7-27.9Z" transform="translate(2.186 30.818)" fill="none" stroke="#fff" stroke-width="2"/><path d="M29.123-27.221a7.291,7.291,0,0,0-3.154-.681,6.21,6.21,0,0,0-4.742,1.781A6.21,6.21,0,0,0,19.389-21.4c0,4.714,6.58,8.5,6.58,8.5a16.726,16.726,0,0,0,3.257-2.266c-1.72-1.55-3.528-3.767-3.528-6.239a6.105,6.105,0,0,1,3.425-5.814Z" transform="translate(-19.389 30.818)" fill="none" stroke="#fff" stroke-width="2"/></g><path d="M12.623-27.9c-4.694,0-8.5,2.979-8.5,8.23,0,5.971,8.5,10.77,8.5,10.77s8.5-4.159,8.5-10.771C21.123-24.921,17.317-27.9,12.623-27.9Z" transform="translate(67.877 268.9)" fill="none" stroke="#fff" stroke-width="2"/><path d="M12.623-27.9c-4.694,0-8.5,2.979-8.5,8.23,0,5.971,8.5,10.77,8.5,10.77s8.5-4.159,8.5-10.771C21.123-24.921,17.317-27.9,12.623-27.9Z" transform="translate(297.877 268.9)" fill="none" stroke="#fff" stroke-width="2"/><g transform="translate(-92 -1)"><path d="M12.192-27.9a9.629,9.629,0,0,0-2.71.4c-2.989.814-5.36,3.577-5.36,7.831,0,3.445,2.686,6.5,5.181,8.658A22.6,22.6,0,0,0,12.192-8.9s8.069-4.159,8.069-10.771C20.262-24.921,16.649-27.9,12.192-27.9Z" transform="translate(368.877 269.9)" fill="none" stroke="#fff" stroke-width="2"/><path d="M12.192-27.9c-4.456,0-8.069,2.979-8.069,8.23,0,5.971,8.069,10.77,8.069,10.77a21.335,21.335,0,0,0,3.123-2.114c2.08-1.646,4.946-4.716,4.946-8.656C20.262-24.921,16.649-27.9,12.192-27.9Z" transform="translate(362.877 269.9)" fill="none" stroke="#fff" stroke-width="2"/></g><g transform="translate(175.881 464.881) rotate(180)"><line x2="38.881" y2="38.881" fill="none" stroke="#fff" stroke-linecap="round" stroke-linejoin="round" stroke-miterlimit="10" stroke-width="3"/><line y1="38.881" x2="38.881" fill="none" stroke="#fff" stroke-linecap="round" stroke-linejoin="round" stroke-miterlimit="10" stroke-width="3"/></g><g transform="translate(222.525 456.08) rotate(180)"><line x2="24.724" y2="24.724" fill="none" stroke="#fff" stroke-linecap="round" stroke-linejoin="round" stroke-miterlimit="10" stroke-width="2"/><line y1="24.724" x2="24.724" fill="none" stroke="#fff" stroke-linecap="round" stroke-linejoin="round" stroke-miterlimit="10" stroke-width="2"/></g><g transform="translate(278.525 456.08) rotate(180)"><line x2="24.724" y2="24.724" fill="none" stroke="#242120" stroke-linecap="round" stroke-linejoin="round" stroke-miterlimit="10" stroke-width="2"/><line y1="24.724" x2="24.724" fill="none" stroke="#242120" stroke-linecap="round" stroke-linejoin="round" stroke-miterlimit="10" stroke-width="2"/></g><g transform="translate(7 -2)"><path d="M25,0A25,25,0,1,1,0,25,25,25,0,0,1,25,0Z" transform="translate(4 89)" fill="#fff" opacity="0"/><path d="M307.778,421.08h-8.505v-8.5a1,1,0,0,0-2,0v8.5h-8.505a1,1,0,1,0,0,2h8.505v8.505a1,1,0,0,0,2,0V423.08h8.505a1,1,0,0,0,0-2Z" transform="translate(-269.768 -308.58)" fill="#fff"/></g><g transform="translate(8)"><path d="M17.5,0A17.5,17.5,0,1,1,0,17.5,17.5,17.5,0,0,1,17.5,0Z" transform="translate(114 189)" fill="#fff" opacity="0"/><g transform="translate(-472.584 -629.296)"><line x2="14" y2="14" transform="translate(611.584 843.296) rotate(180)" fill="none" stroke="#fff" stroke-linecap="round" stroke-linejoin="round" stroke-miterlimit="10" stroke-width="2"/><line y1="14" x2="14" transform="translate(611.584 843.296) rotate(180)" fill="none" stroke="#fff" stroke-linecap="round" stroke-linejoin="round" stroke-miterlimit="10" stroke-width="2"/></g></g><g transform="translate(52)"><path d="M17.5,0A17.5,17.5,0,1,1,0,17.5,17.5,17.5,0,0,1,17.5,0Z" transform="translate(114 189)" fill="#fff" opacity="0"/><g transform="translate(-472.584 -629.296)"><line x2="14" y2="14" transform="translate(611.584 843.296) rotate(180)" fill="none" stroke="#fc4e4e" stroke-linecap="round" stroke-linejoin="round" stroke-miterlimit="10" stroke-width="2"/><line y1="14" x2="14" transform="translate(611.584 843.296) rotate(180)" fill="none" stroke="#fc4e4e" stroke-linecap="round" stroke-linejoin="round" stroke-miterlimit="10" stroke-width="2"/></g></g><g transform="translate(4)"><path d="M35,0A35,35,0,1,1,0,35,35,35,0,0,1,35,0Z" transform="translate(7 552)" fill="#fff" opacity="0"/><path d="M-6840.367,7650.424l14.331-14.331,14.331,14.331" transform="translate(6867.867 -7056.593)" fill="none" stroke="#fff" stroke-linecap="round" stroke-linejoin="round" stroke-width="2"/></g><g transform="translate(87)"><path d="M35,0A35,35,0,1,1,0,35,35,35,0,0,1,35,0Z" transform="translate(7 552)" fill="#fff" opacity="0"/><path d="M-6840.367,7650.424l14.331-14.331,14.331,14.331" transform="translate(6867.867 -7056.593)" fill="none" stroke="#232120" stroke-linecap="round" stroke-linejoin="round" stroke-width="2"/></g><g transform="translate(-1.771 -1.977)"><g transform="translate(-265.854 245.651)"><path d="M278.625,6.326s4.334-10,14-10,14,10,14,10-4.841,10-14,10S278.625,6.326,278.625,6.326Z" fill="none"/><path d="M292.625-1.674a12.137,12.137,0,0,0-9.071,4.265,19.128,19.128,0,0,0-2.667,3.694,21.468,21.468,0,0,0,2.833,3.747c2.714,2.849,5.71,4.294,8.9,4.294s6.191-1.445,8.9-4.294a21.473,21.473,0,0,0,2.833-3.747A19.129,19.129,0,0,0,301.7,2.591a12.137,12.137,0,0,0-9.071-4.265m0-2c9.666,0,14,10,14,10s-4.841,10-14,10-14-10-14-10S282.959-3.674,292.629-3.674Z" fill="#fff"/></g></g><g transform="translate(19 244)" fill="none" stroke="#fff" stroke-width="2"><circle cx="6" cy="6" r="6" stroke="none"/><circle cx="6" cy="6" r="5" fill="none"/></g><g transform="translate(222.069 239.078)"><path d="M10.932,0C22.178,0,21.864,19.131,21.864,19.131H0S-.314,0,10.932,0Z" fill="none"/><path d="M10.932,2A6.139,6.139,0,0,0,6.349,3.911c-1.79,1.817-3.112,4.971-3.82,9.12a38.408,38.408,0,0,0-.466,4.1H19.8a38.4,38.4,0,0,0-.466-4.1c-.709-4.149-2.03-7.3-3.82-9.12A6.139,6.139,0,0,0,10.932,2m0-2C22.178,0,21.864,19.131,21.864,19.131H0S-.314,0,10.932,0Z" fill="#fff"/></g><path d="M-5604.562,7032c3.822,6.619,8.1,0,8.1,0" transform="translate(5833.463 -6773.791)" fill="none" stroke="#fff" stroke-linecap="round" stroke-width="2"/><g transform="translate(247 240)" fill="none" stroke="#fff" stroke-width="2"><rect width="24" height="20" rx="5" stroke="none"/><rect x="1" y="1" width="22" height="18" rx="4" fill="none"/></g><path d="M3.5,0,7,6H0Z" transform="translate(262.5 246.5) rotate(90)" fill="none" stroke="#fff" stroke-width="2"/><path d="M9.294,29.29a3.331,3.331,0,0,0,1.974.576,4.794,4.794,0,0,0,1.316-.181.556.556,0,0,0,.4-.53V25.278c0-3.051,3.593-4.089,3.745-4.135a.506.506,0,0,0,.124-.05,1.63,1.63,0,0,0,1.454.889h2.636a1.61,1.61,0,0,0,1.62-1.6V10.966a1.61,1.61,0,0,0-1.62-1.6l-3.524-.022a.561.561,0,0,0-.566.558.553.553,0,0,0,.561.549l3.524.022a.489.489,0,0,1,.492.485v9.425a.489.489,0,0,1-.492.485H18.3a.489.489,0,0,1-.492-.485V11.5a3.124,3.124,0,0,0-3.143-3.1H5.038C2.9,8.4,1.546,9.5,1.307,11.406L.009,19.43A.548.548,0,0,0,0,19.516v.1a3.124,3.124,0,0,0,3.143,3.1H8V26.17a3.621,3.621,0,0,0,1.294,3.12ZM3.147,21.6a2,2,0,0,1-2.015-1.986v-.05l1.293-8C2.6,10.2,3.474,9.511,5.038,9.511h9.625A2,2,0,0,1,16.679,11.5v8.573a.553.553,0,0,0-.258.009c-.189.05-4.569,1.3-4.569,5.2V28.71a2.639,2.639,0,0,1-1.891-.31,2.61,2.61,0,0,1-.828-2.235v-4.01a.561.561,0,0,0-.566-.558H3.147Z" transform="translate(191.06 265.866) rotate(180)" fill="#fff" stroke="#fff" stroke-width="1"/><path d="M9.294.576A3.331,3.331,0,0,1,11.268,0a4.794,4.794,0,0,1,1.316.181.556.556,0,0,1,.4.53V4.588c0,3.051,3.593,4.089,3.745,4.134a.506.506,0,0,1,.124.05A1.63,1.63,0,0,1,18.3,7.884h2.64a1.61,1.61,0,0,1,1.62,1.6V18.9a1.61,1.61,0,0,1-1.62,1.6l-3.524.022a.561.561,0,0,1-.566-.558.553.553,0,0,1,.561-.549l3.524-.022a.489.489,0,0,0,.492-.485V9.479a.489.489,0,0,0-.492-.485H18.3a.489.489,0,0,0-.492.485v8.89a3.124,3.124,0,0,1-3.143,3.1H5.038c-2.135,0-3.492-1.1-3.731-3.006l-1.3-8.024A.548.548,0,0,1,0,10.35v-.1a3.124,3.124,0,0,1,3.143-3.1H8V3.7A3.621,3.621,0,0,1,9.294.576ZM3.147,8.264A2,2,0,0,0,1.132,10.25v.05l1.293,8c.17,1.36,1.049,2.054,2.613,2.054h9.625a2,2,0,0,0,2.015-1.986V9.8a.553.553,0,0,1-.258-.009c-.189-.05-4.569-1.3-4.569-5.2V1.156a2.639,2.639,0,0,0-1.891.313A2.61,2.61,0,0,0,9.133,3.7V7.711a.561.561,0,0,1-.566.558H3.147Z" transform="translate(218.06 264.466) rotate(180)" fill="#fff" stroke="#fff" stroke-width="1"/><g transform="translate(10 234)" fill="none" stroke="#d7d7d7" stroke-width="1" opacity="0"><rect width="30" height="32" stroke="none"/><rect x="-0.5" y="-0.5" width="31" height="33" fill="none"/></g><g transform="translate(41 234)" fill="none" stroke="#d7d7d7" stroke-width="1" opacity="0"><rect width="28" height="32" stroke="none"/><rect x="-0.5" y="-0.5" width="29" height="33" fill="none"/></g><g transform="translate(70 234)" fill="none" stroke="#d7d7d7" stroke-width="1" opacity="0"><rect width="21" height="32" stroke="none"/><rect x="-0.5" y="-0.5" width="22" height="33" fill="none"/></g><g transform="translate(300 234)" fill="none" stroke="#d7d7d7" stroke-width="1" opacity="0"><rect width="21" height="32" stroke="none"/><rect x="-0.5" y="-0.5" width="22" height="33" fill="none"/></g><g transform="translate(322 234)" fill="none" stroke="#d7d7d7" stroke-width="1" opacity="0"><rect width="26" height="32" stroke="none"/><rect x="-0.5" y="-0.5" width="27" height="33" fill="none"/></g><g transform="translate(349 234)" fill="none" stroke="#d7d7d7" stroke-width="1" opacity="0"><rect width="26" height="32" stroke="none"/><rect x="-0.5" y="-0.5" width="27" height="33" fill="none"/></g><g transform="translate(399 234)" fill="none" stroke="#d7d7d7" stroke-width="1" opacity="0"><rect width="26" height="32" stroke="none"/><rect x="-0.5" y="-0.5" width="27" height="33" fill="none"/></g><g transform="translate(376 234)" fill="none" stroke="#d7d7d7" stroke-width="1" opacity="0"><rect width="22" height="32" stroke="none"/><rect x="-0.5" y="-0.5" width="23" height="33" fill="none"/></g><g transform="translate(92 234)" fill="none" stroke="#d7d7d7" stroke-width="1" opacity="0"><rect width="24" height="32" stroke="none"/><rect x="-0.5" y="-0.5" width="25" height="33" fill="none"/></g><g transform="translate(117 234)" fill="none" stroke="#d7d7d7" stroke-width="1" opacity="0"><rect width="24" height="32" stroke="none"/><rect x="-0.5" y="-0.5" width="25" height="33" fill="none"/></g><g transform="translate(142 234)" fill="none" stroke="#d7d7d7" stroke-width="1" opacity="0"><rect width="24" height="32" stroke="none"/><rect x="-0.5" y="-0.5" width="25" height="33" fill="none"/></g><g transform="translate(167 234)" fill="none" stroke="#d7d7d7" stroke-width="1" opacity="0"><rect width="26" height="32" stroke="none"/><rect x="-0.5" y="-0.5" width="27" height="33" fill="none"/></g><g transform="translate(221 234)" fill="none" stroke="#d7d7d7" stroke-width="1" opacity="0"><rect width="24" height="32" stroke="none"/><rect x="-0.5" y="-0.5" width="25" height="33" fill="none"/></g><g transform="translate(246 234)" fill="none" stroke="#d7d7d7" stroke-width="1" opacity="0"><rect width="26" height="32" stroke="none"/><rect x="-0.5" y="-0.5" width="27" height="33" fill="none"/></g><g transform="translate(273 234)" fill="none" stroke="#d7d7d7" stroke-width="1" opacity="0"><rect width="26" height="32" stroke="none"/><rect x="-0.5" y="-0.5" width="27" height="33" fill="none"/></g><path d="M9.388,1.952A7.609,7.609,0,0,0,1.944,9.7a7.609,7.609,0,0,0,7.444,7.75h2.034l.1,2.116.024.532,2.347-2.108.6-.54h3.179A7.609,7.609,0,0,0,25.113,9.7a7.609,7.609,0,0,0-7.444-7.749Z" transform="translate(41.554 239.902)" fill="none" stroke="#fff" stroke-width="2"/><g transform="translate(-16 -1)"><path d="M.039,2.468l.754-.782a5.28,5.28,0,0,1,7.66,0,5.767,5.767,0,0,1,0,7.945L.04,18.357" transform="translate(119.961 241.959)" fill="none" stroke="#fff" stroke-linecap="round" stroke-width="2" fill-rule="evenodd"/><path d="M10.039,2.468l-.754-.782a5.28,5.28,0,0,0-7.66,0,5.767,5.767,0,0,0,0,7.945l8.413,8.725" transform="translate(109.961 241.959)" fill="none" stroke="#fff" stroke-linecap="round" stroke-width="2" fill-rule="evenodd"/></g><g transform="translate(9 -1)"><path d="M.039,2.468l.754-.782a5.28,5.28,0,0,1,7.66,0,5.767,5.767,0,0,1,0,7.945L.04,18.357" transform="translate(119.961 241.959)" fill="#fff" stroke="#fff" stroke-linecap="round" stroke-width="2" fill-rule="evenodd"/><path d="M10.039,2.468l-.754-.782a5.28,5.28,0,0,0-7.66,0,5.767,5.767,0,0,0,0,7.945l8.413,8.725" transform="translate(109.961 241.959)" fill="#fff" stroke="#fff" stroke-linecap="round" stroke-width="2" fill-rule="evenodd"/><g transform="translate(119 243)" fill="#fff" stroke="#fff" stroke-width="1"><rect width="2" height="17" stroke="none"/><rect x="0.5" y="0.5" width="1" height="16" fill="none"/></g></g><g transform="translate(34 -1)"><path d="M.039,2.468l.754-.782a5.28,5.28,0,0,1,7.66,0,5.767,5.767,0,0,1,0,7.945L.04,18.357" transform="translate(119.961 241.959)" fill="#fd4646" stroke="#fd4646" stroke-linecap="round" stroke-width="2" fill-rule="evenodd"/><path d="M10.039,2.468l-.754-.782a5.28,5.28,0,0,0-7.66,0,5.767,5.767,0,0,0,0,7.945l8.413,8.725" transform="translate(109.961 241.959)" fill="#fd4646" stroke="#fd4646" stroke-linecap="round" stroke-width="2" fill-rule="evenodd"/><g transform="translate(119 243)" fill="#fd4646" stroke="#fd4646" stroke-width="1"><rect width="2" height="17" stroke="none"/><rect x="0.5" y="0.5" width="1" height="16" fill="none"/></g></g><g transform="translate(194 234)" fill="none" stroke="#d7d7d7" stroke-width="1" opacity="0"><rect width="26" height="32" stroke="none"/><rect x="-0.5" y="-0.5" width="27" height="33" fill="none"/></g><g transform="translate(306 245)" fill="none" stroke="#fff" stroke-width="2"><circle cx="4.5" cy="4.5" r="4.5" stroke="none"/><circle cx="4.5" cy="4.5" r="3.5" fill="none"/></g><g transform="translate(324 239.904)"><path d="M5,10.2v9.264a1.98,1.98,0,0,0,1.887,1.973h9.607a1.924,1.924,0,0,0,1.887-1.973V10.2" transform="translate(-0.569 -1.437)" fill="none" stroke="#fff" stroke-linecap="round" stroke-linejoin="round" stroke-miterlimit="10" stroke-width="2"/><path d="M1,7.545C1,5.829,1.686,4.8,3.23,4.8H9.578" transform="translate(0 -0.669)" fill="none" stroke="#fff" stroke-linecap="round" stroke-linejoin="round" stroke-miterlimit="10" stroke-width="2"/><path d="M22.6,7.545c0-1.716-.686-2.745-2.23-2.745H9.3" transform="translate(-1.18 -0.669)" fill="none" stroke="#fff" stroke-linecap="round" stroke-linejoin="round" stroke-miterlimit="10" stroke-width="2"/><path d="M10.1,4.62C10.1,2.02,11.231,1,13.494,1" transform="translate(-2.347 -0.903)" fill="none" stroke="#fff" stroke-linecap="round" stroke-linejoin="round" stroke-miterlimit="10" stroke-width="2"/><path d="M16.694,4.62C16.694,2.02,15.563,1,13.3,1" transform="translate(-1.927 -0.903)" fill="none" stroke="#fff" stroke-linecap="round" stroke-linejoin="round" stroke-miterlimit="10" stroke-width="2"/><line y2="7.72" transform="translate(8.806 8.763)" fill="none" stroke="#fff" stroke-linecap="round" stroke-linejoin="round" stroke-miterlimit="10" stroke-width="2"/><line y2="7.72" transform="translate(12.923 8.763)" fill="none" stroke="#fff" stroke-linecap="round" stroke-linejoin="round" stroke-miterlimit="10" stroke-width="2"/></g><g transform="translate(380 243)"><g transform="translate(-20.5 -20.6)"><path d="M20.5,32.447v3.139h3.139l9.227-9.227L29.727,23.22Zm14.769-8.49a.824.824,0,0,0,0-1.174L33.33,20.846a.824.824,0,0,0-1.174,0l-1.529,1.5,3.112,3.112Z" fill="none"/><path d="M23.639,35.587l9.227-9.227-3.139-3.139L20.5,32.447v3.139h3.139m10.1-10.128,1.529-1.5a.824.824,0,0,0,0-1.174L33.33,20.846a.824.824,0,0,0-1.174,0l-1.529,1.5,3.112,3.112M24.468,37.587H18.5V31.619l.586-.586,9.227-9.227,1.414-1.414.018.018,1.006-.988a2.824,2.824,0,0,1,3.994.009l1.938,1.938a2.833,2.833,0,0,1,0,4l-.006.006-.006.006-.984.967.009.009L34.28,27.774,25.054,37Z" fill="#fff"/></g></g><g transform="translate(-265 -465.924)"><g transform="translate(628.042 705.924)" fill="none" stroke="#fff" stroke-width="2"><rect width="9.465" height="19.076" rx="3" stroke="none"/><rect x="1" y="1" width="7.465" height="17.076" rx="2" fill="none"/></g><g transform="translate(616 713.077)" fill="none" stroke="#fff" stroke-width="2"><rect width="9.465" height="11.923" rx="3" stroke="none"/><rect x="1" y="1" width="7.465" height="9.923" rx="2" fill="none"/></g></g><g transform="translate(401.001 241.001)"><path d="M9.488,17.9A8.438,8.438,0,0,1,1,9.335,8.56,8.56,0,0,1,9.335,1,8.494,8.494,0,0,1,17.9,8.646c0,.153.153.765.229.688l2.294-6.117" fill="none" stroke="#fff" stroke-linecap="round" stroke-miterlimit="10" stroke-width="2"/><path d="M21.548,11.15,15,9.481" transform="translate(-3.42 -1.815)" fill="none" stroke="#fff" stroke-linecap="round" stroke-miterlimit="10" stroke-width="2"/></g><g transform="translate(-730.943 316.306)"><g transform="translate(820.047 22.859)" fill="none" stroke="#fff" stroke-width="2"><rect width="18.073" height="14.894" rx="5" stroke="none"/><rect x="1" y="1" width="16.073" height="12.894" rx="4" fill="none"/></g><line y2="6.198" transform="translate(825.874 20.694)" fill="none" stroke="#fff" stroke-width="2"/><line y2="6.198" transform="translate(832.763 20.694)" fill="none" stroke="#fff" stroke-width="2"/></g><rect width="30" height="32" transform="translate(10 234)" fill="none"/><rect width="28" height="32" transform="translate(41 234)" fill="none"/><rect width="21" height="32" transform="translate(70 234)" fill="none"/><rect width="21" height="32" transform="translate(300 234)" fill="none"/><rect width="21" height="32" transform="translate(427 234)" fill="none"/><rect width="24" height="32" transform="translate(92 234)" fill="none"/><rect width="24" height="32" transform="translate(117 234)" fill="none"/><rect width="24" height="32" transform="translate(142 234)" fill="none"/><rect width="26" height="32" transform="translate(167 234)" fill="none"/><rect width="24" height="32" transform="translate(221 234)" fill="none"/><rect width="26" height="32" transform="translate(246 234)" fill="none"/><rect width="26" height="32" transform="translate(273 234)" fill="none"/><rect width="26" height="32" transform="translate(194 234)" fill="none"/><path d="M0,0,9.971,9.972,19.943,0" transform="translate(441.973 240) rotate(90)" fill="none" stroke="#fff" stroke-linecap="round" stroke-linejoin="round" stroke-width="2"/></g><path d="M-6840.367,7650.424l14.331-14.331,14.331,14.331" transform="translate(7740.423 7520.367) rotate(90)" fill="none" stroke="#fff" stroke-linecap="round" stroke-linejoin="round" stroke-width="2"/><path d="M-6840.367,7650.424l14.331-14.331,14.331,14.331" transform="translate(-7616.093 -6131.705) rotate(-90)" fill="none" stroke="#fff" stroke-linecap="round" stroke-linejoin="round" stroke-width="2"/></g><g transform="translate(12 10)"><path d="M4.964-17.062v3.326H7.528v1.815H4.964V-3.4a1.9,1.9,0,0,0,.343,1.238,1.444,1.444,0,0,0,1.168.413A5.686,5.686,0,0,0,7.592-1.9V0a6.809,6.809,0,0,1-1.8.254A2.925,2.925,0,0,1,3.415-.7a4.09,4.09,0,0,1-.8-2.7v-8.519H.114v-1.815h2.5v-3.326ZM16.91-11.629a7.038,7.038,0,0,0-1.155-.089A3.1,3.1,0,0,0,12.619-9.75V0H10.271V-13.736h2.285l.038,1.587a3.657,3.657,0,0,1,3.275-1.841,2.4,2.4,0,0,1,1.041.178ZM27.041,0a4.934,4.934,0,0,1-.33-1.447A5.24,5.24,0,0,1,22.8.254,4.849,4.849,0,0,1,19.468-.9a3.717,3.717,0,0,1-1.3-2.914A3.883,3.883,0,0,1,19.8-7.141a7.691,7.691,0,0,1,4.589-1.187h2.285V-9.407a2.638,2.638,0,0,0-.736-1.961,2.959,2.959,0,0,0-2.171-.73,3.425,3.425,0,0,0-2.107.635,1.87,1.87,0,0,0-.851,1.536H18.446a3.241,3.241,0,0,1,.73-1.987,4.982,4.982,0,0,1,1.98-1.517,6.663,6.663,0,0,1,2.749-.559,5.43,5.43,0,0,1,3.72,1.187,4.282,4.282,0,0,1,1.4,3.269v6.322A7.73,7.73,0,0,0,29.5-.2V0Zm-3.9-1.79a4.128,4.128,0,0,0,2.095-.571,3.456,3.456,0,0,0,1.435-1.485V-6.665H24.832q-4.316,0-4.316,2.526a2.138,2.138,0,0,0,.736,1.727A2.83,2.83,0,0,0,23.144-1.79Zm15.069.127a3.383,3.383,0,0,0,2.2-.762,2.68,2.68,0,0,0,1.041-1.9h2.222a4.259,4.259,0,0,1-.812,2.247,5.351,5.351,0,0,1-2,1.7,5.769,5.769,0,0,1-2.647.635A5.659,5.659,0,0,1,33.75-1.619a7.458,7.458,0,0,1-1.657-5.123v-.394A8.27,8.27,0,0,1,32.83-10.7a5.608,5.608,0,0,1,2.114-2.425A6,6,0,0,1,38.2-13.99a5.509,5.509,0,0,1,3.84,1.384,4.945,4.945,0,0,1,1.631,3.593H41.45a3.237,3.237,0,0,0-1.009-2.19,3.14,3.14,0,0,0-2.241-.857,3.287,3.287,0,0,0-2.774,1.289,6.052,6.052,0,0,0-.984,3.726V-6.6a5.931,5.931,0,0,0,.978,3.656A3.3,3.3,0,0,0,38.213-1.663Zm11.934-4.7L48.674-4.824V0H46.325V-19.5h2.349V-7.706l1.257-1.511,4.278-4.52h2.856L51.721-8l5.967,8H54.933ZM64.937.254a6,6,0,0,1-4.545-1.834A6.809,6.809,0,0,1,58.64-6.487v-.432a8.243,8.243,0,0,1,.781-3.65A6.091,6.091,0,0,1,61.6-13.083a5.49,5.49,0,0,1,3.041-.908,5.144,5.144,0,0,1,4.164,1.765,7.64,7.64,0,0,1,1.485,5.053V-6.2H60.988a4.883,4.883,0,0,0,1.187,3.282,3.731,3.731,0,0,0,2.888,1.25,4.091,4.091,0,0,0,2.107-.508,5.3,5.3,0,0,0,1.511-1.346L70.116-2.4A5.768,5.768,0,0,1,64.937.254Zm-.292-12.314a3.133,3.133,0,0,0-2.387,1.035,5.029,5.029,0,0,0-1.193,2.9h6.881V-8.3a4.473,4.473,0,0,0-.965-2.774A2.949,2.949,0,0,0,64.645-12.061Zm15.006.432a7.038,7.038,0,0,0-1.155-.089A3.1,3.1,0,0,0,75.359-9.75V0H73.011V-13.736H75.3l.038,1.587a3.657,3.657,0,0,1,3.275-1.841,2.4,2.4,0,0,1,1.041.178Z" transform="translate(21 22)" fill="#fff"/><path d="M10.078-27.438s.4-1.941.859-4.22a8.716,8.716,0,0,1,8.525-6.9h0s-7.452,22.4-8.647,26.092a.756.756,0,0,1-.705.493.767.767,0,0,1-.736-.493C8.177-16.164.756-38.559.756-38.559h0a8.674,8.674,0,0,1,8.464,6.9C9.679-29.379,10.078-27.438,10.078-27.438Z" transform="translate(-0.756 39.677)" fill="#fff"/></g><g transform="translate(29 770)" fill="none" stroke="#fff" stroke-width="2"><circle cx="10.5" cy="10.5" r="10.5" stroke="none"/><circle cx="10.5" cy="10.5" r="9.5" fill="none"/></g><g transform="translate(26 789)" fill="none"><path d="M13.5,0,27,24H0Z" stroke="none"/><path d="M 13.5 4.079452514648438 L 3.419692993164062 22 L 23.58030700683594 22 L 13.5 4.079452514648438 M 13.5 0 L 27 24 L 0 24 L 13.5 0 Z" stroke="none" fill="#fff"/></g><rect width="17" height="17" transform="translate(303 593) rotate(180)" fill="none"/><path d="M-6840.367,7641.093l5-5,5,5" transform="translate(-6541.09 8223.48) rotate(180)" fill="none" stroke="#fff" stroke-linecap="round" stroke-linejoin="round" stroke-width="2"/><g transform="translate(340 550)" fill="#fff" stroke="#707070" stroke-width="1" opacity="0"><rect width="50" height="50" stroke="none"/><rect x="0.5" y="0.5" width="49" height="49" fill="none"/></g><g transform="translate(-5.456 -10.775)"><g transform="translate(385.044 582.432)" opacity="0.997"><circle cx="3.706" cy="3.706" r="3.706" transform="translate(7.411 7.411) rotate(180)" fill="#fff"/></g><g transform="translate(367.113 571.911) rotate(-90)"><circle cx="3.706" cy="3.706" r="3.706" transform="translate(7.411 7.411) rotate(180)" fill="#fff"/></g><g transform="translate(349.181 582.432)"><circle cx="3.706" cy="3.706" r="3.706" transform="translate(7.411 7.411) rotate(180)" fill="#fff"/></g><g transform="translate(367.113 607.775) rotate(-90)"><circle cx="3.706" cy="3.706" r="3.706" transform="translate(7.411 7.411) rotate(180)" fill="#fff"/></g></g><g transform="translate(-311.308 423.109) rotate(-45)"><g transform="translate(385.044 582.432)" opacity="0.997"><circle cx="3.706" cy="3.706" r="3.706" transform="translate(7.411 7.411) rotate(180)" fill="#fff"/></g><g transform="translate(367.113 571.911) rotate(-90)"><circle cx="3.706" cy="3.706" r="3.706" transform="translate(7.411 7.411) rotate(180)" fill="#fff"/></g><g transform="translate(349.181 582.432)"><circle cx="3.706" cy="3.706" r="3.706" transform="translate(7.411 7.411) rotate(180)" fill="#fff"/></g><g transform="translate(367.113 607.775) rotate(-90)"><circle cx="3.706" cy="3.706" r="3.706" transform="translate(7.411 7.411) rotate(180)" fill="#fff"/></g></g><g transform="translate(92.962)"><g transform="translate(340 550)" fill="#fff" stroke="#707070" stroke-width="1" opacity="0"><rect width="50" height="50" stroke="none"/><rect x="0.5" y="0.5" width="49" height="49" fill="none"/></g><g transform="translate(342.038 552)" fill="none" stroke-linecap="round" stroke-linejoin="round" stroke-dasharray="10 140"><path d="M23,0A23,23,0,1,1,0,23,23,23,0,0,1,23,0Z" stroke="none"/><path d="M 23 0 C 23.00471687316895 -3.814697265625e-06 23.00899696350098 -3.814697265625e-06 23.01371383666992 3.814697265625e-06 C 23.01716804504395 7.62939453125e-06 23.02004241943359 1.1444091796875e-05 23.02349472045898 1.1444091796875e-05 C 23.02616691589355 1.9073486328125e-05 23.03054809570312 2.288818359375e-05 23.03322410583496 2.288818359375e-05 C 23.03667831420898 3.4332275390625e-05 23.03987693786621 3.4332275390625e-05 23.04332733154297 4.1961669921875e-05 C 23.04677391052246 4.57763671875e-05 23.04947853088379 5.340576171875e-05 23.05292892456055 6.103515625e-05 C 23.05616569519043 6.4849853515625e-05 23.05961799621582 7.2479248046875e-05 23.0628604888916 8.392333984375e-05 C 23.06631088256836 9.1552734375e-05 23.06901550292969 9.918212890625e-05 23.07246208190918 0.000110626220703125 C 23.07513809204102 0.0001220703125 23.07976341247559 0.0001373291015625 23.08243942260742 0.00014495849609375 C 23.08588981628418 0.00016021728515625 23.08865165710449 0.0001678466796875 23.09209632873535 0.000179290771484375 C 23.09575653076172 0.000194549560546875 23.09820556640625 0.0001983642578125 23.10186767578125 0.00022125244140625 C 23.10482215881348 0.000232696533203125 23.10763359069824 0.000247955322265625 23.11058807373047 0.0002593994140625 C 23.11058807373047 0.0002593994140625 23.11153030395508 0.000263214111328125 23.11153030395508 0.000263214111328125 C 23.11624336242676 0.00028228759765625 23.12066459655762 0.000308990478515625 23.12538146972656 0.000335693359375 C 23.12883377075195 0.00035858154296875 23.13153457641602 0.0003662109375 23.13497924804688 0.00038909912109375 C 23.13765335083008 0.000408172607421875 23.14199066162109 0.000438690185546875 23.14466285705566 0.000446319580078125 C 23.14832305908203 0.00046539306640625 23.15118217468262 0.00048828125 23.15483856201172 0.00051116943359375 C 23.15828514099121 0.000530242919921875 23.16142845153809 0.000553131103515625 23.16487121582031 0.000579833984375 C 23.1681079864502 0.00060272216796875 23.17121124267578 0.000621795654296875 23.1744441986084 0.00064849853515625 C 23.17788696289062 0.000675201416015625 23.18047714233398 0.00069427490234375 23.18392372131348 0.000720977783203125 C 23.18680572509766 0.00074005126953125 23.19084548950195 0.000762939453125 23.19372177124023 0.00080108642578125 C 23.19717025756836 0.000827789306640625 23.20011711120605 0.0008544921875 23.20355606079102 0.000881195068359375 C 23.20721244812012 0.00091552734375 23.20957565307617 0.000934600830078125 23.21323394775391 0.00096893310546875 C 23.22110557556152 0.001041412353515625 23.22869300842285 0.001094818115234375 23.23656272888184 0.001190185546875 C 23.24000358581543 0.001220703125 23.24317169189453 0.001251220703125 23.24661445617676 0.0012969970703125 C 23.24907684326172 0.001323699951171875 23.25362396240234 0.001377105712890625 23.25607681274414 0.00139617919921875 C 23.25874900817871 0.001430511474609375 23.26326942443848 0.001491546630859375 23.26593780517578 0.001506805419921875 C 23.26937866210938 0.001544952392578125 23.27225303649902 0.00157928466796875 23.27569580078125 0.001617431640625 C 23.27913856506348 0.00165557861328125 23.28205299377441 0.001689910888671875 23.28549575805664 0.001735687255859375 C 23.28893852233887 0.00177764892578125 23.29161262512207 0.001811981201171875 23.29505157470703 0.00185394287109375 C 23.29793167114258 0.001888275146484375 23.30216407775879 0.001941680908203125 23.30504417419434 0.001983642578125 C 23.30848503112793 0.00202178955078125 23.31138610839844 0.00206756591796875 23.31482887268066 0.002109527587890625 C 23.31806182861328 0.0021514892578125 23.32152938842773 0.002197265625 23.32476234436035 0.002246856689453125 C 23.32785224914551 0.002292633056640625 23.33113861083984 0.002346038818359375 23.33422470092773 0.00238037109375 C 23.33836364746094 0.00243377685546875 23.34247970581055 0.0024871826171875 23.34661865234375 0.002559661865234375 C 23.35047912597656 0.00261688232421875 23.35341262817383 0.002658843994140625 23.35727691650391 0.002719879150390625 C 23.36071586608887 0.00276947021484375 23.36390495300293 0.00281524658203125 23.36734390258789 0.00287628173828125 C 23.37001419067383 0.002918243408203125 23.3745231628418 0.0029754638671875 23.37718963623047 0.003032684326171875 C 23.38062858581543 0.003086090087890625 23.38381385803223 0.003139495849609375 23.38724899291992 0.00319671630859375 C 23.39047813415527 0.003246307373046875 23.39406776428223 0.003307342529296875 23.39729690551758 0.00336456298828125 C 23.40031433105469 0.00341033935546875 23.40378189086914 0.003475189208984375 23.40679550170898 0.0035247802734375 C 23.41002655029297 0.003582000732421875 23.41317939758301 0.003635406494140625 23.41640472412109 0.003692626953125 C 23.4190673828125 0.003742218017578125 23.42318153381348 0.003810882568359375 23.42585182189941 0.003864288330078125 C 23.42970848083496 0.003936767578125 23.43170547485352 0.00396728515625 23.43556213378906 0.0040435791015625 C 23.43907165527344 0.004108428955078125 23.44178199768066 0.004161834716796875 23.44527816772461 0.004222869873046875 C 23.44941520690918 0.004299163818359375 23.45392799377441 0.00437164306640625 23.45806884765625 0.0044708251953125 C 23.4619255065918 0.004547119140625 23.46521186828613 0.004611968994140625 23.46906852722168 0.004688262939453125 C 23.47306442260742 0.004772186279296875 23.47524452209473 0.004817962646484375 23.47924041748047 0.004894256591796875 C 23.48225784301758 0.0049591064453125 23.48603820800781 0.005039215087890625 23.48904991149902 0.005096435546875 C 23.4920654296875 0.005161285400390625 23.49533843994141 0.0052337646484375 23.49835395812988 0.005290985107421875 C 23.50157928466797 0.00536346435546875 23.50490379333496 0.005435943603515625 23.50812911987305 0.00550079345703125 C 23.51135063171387 0.005573272705078125 23.51445007324219 0.00563812255859375 23.51767158508301 0.005710601806640625 C 23.52089691162109 0.0057830810546875 23.52435874938965 0.005859375 23.5275821685791 0.005931854248046875 C 23.53059577941895 0.0059967041015625 23.53413772583008 0.006076812744140625 23.53714942932129 0.0061492919921875 C 23.54037094116211 0.006221771240234375 23.54371070861816 0.006298065185546875 23.54693222045898 0.006374359130859375 C 23.55036354064941 0.006458282470703125 23.55304336547852 0.00652313232421875 23.55647277832031 0.00659942626953125 C 23.5616569519043 0.00672149658203125 23.5649471282959 0.006805419921875 23.57013130187988 0.006927490234375 C 23.57356643676758 0.00701141357421875 23.57560348510742 0.0070648193359375 23.57903480529785 0.00714874267578125 C 23.58211517333984 0.00722503662109375 23.58567047119141 0.007312774658203125 23.5887508392334 0.007389068603515625 C 23.59161949157715 0.0074615478515625 23.59597969055176 0.007568359375 23.59885597229004 0.0076446533203125 C 23.60228729248047 0.0077362060546875 23.60563468933105 0.007823944091796875 23.60906600952148 0.007907867431640625 C 23.61249732971191 0.007999420166015625 23.615478515625 0.0080718994140625 23.61890983581543 0.008167266845703125 C 23.62213325500488 0.00824737548828125 23.6255054473877 0.00833892822265625 23.62872505187988 0.008426666259765625 C 23.63194274902344 0.008510589599609375 23.63544464111328 0.00860595703125 23.6386604309082 0.008697509765625 C 23.64223480224609 0.00879669189453125 23.64480781555176 0.0088653564453125 23.64837646484375 0.00896453857421875 C 23.65215873718262 0.009059906005859375 23.65405082702637 0.009120941162109375 23.65782928466797 0.009227752685546875 C 23.66146659851074 0.009326934814453125 23.6636791229248 0.009395599365234375 23.66731643676758 0.009494781494140625 C 23.67221260070801 0.009632110595703125 23.67552947998047 0.00972747802734375 23.68042373657227 0.0098724365234375 C 23.68406105041504 0.009979248046875 23.68782997131348 0.01008987426757812 23.69146537780762 0.01019668579101562 C 23.69447708129883 0.01028060913085938 23.69794273376465 0.0103912353515625 23.70094680786133 0.01047897338867188 C 23.70416450500488 0.0105743408203125 23.70742607116699 0.01067352294921875 23.71064376831055 0.01076889038085938 C 23.71385955810547 0.01086807250976562 23.71690559387207 0.01095962524414062 23.72012329101562 0.01105880737304688 C 23.72333526611328 0.01116180419921875 23.7266731262207 0.01125717163085938 23.72989273071289 0.01136398315429688 C 23.73310852050781 0.01146316528320312 23.73593902587891 0.01155471801757812 23.7391529083252 0.01165390014648438 C 23.74180793762207 0.01173782348632812 23.74648284912109 0.01189041137695312 23.74913597106934 0.01197052001953125 C 23.75256538391113 0.01208114624023438 23.75543403625488 0.01217269897460938 23.75885963439941 0.0122833251953125 C 23.76207542419434 0.01239013671875 23.76545143127441 0.01250076293945312 23.76866340637207 0.012603759765625 C 23.77187728881836 0.01270675659179688 23.77485847473145 0.01280975341796875 23.778076171875 0.01291275024414062 C 23.78247451782227 0.01306533813476562 23.7888011932373 0.013275146484375 23.79320335388184 0.01342010498046875 C 23.7967700958252 0.01355361938476562 23.79926681518555 0.01363372802734375 23.80282783508301 0.0137481689453125 C 23.80562019348145 0.01384735107421875 23.8089427947998 0.01395416259765625 23.81173706054688 0.01405715942382812 C 23.81418418884277 0.01414108276367188 23.81852340698242 0.0142974853515625 23.82096481323242 0.01437759399414062 C 23.82418060302734 0.01449203491210938 23.82746315002441 0.01460647583007812 23.8306770324707 0.01472091674804688 C 23.83409881591797 0.01484298706054688 23.83688163757324 0.01494216918945312 23.84030342102051 0.01506423950195312 C 23.8435115814209 0.0151824951171875 23.84672355651855 0.01529693603515625 23.84993934631348 0.01541519165039062 C 23.85259246826172 0.01551055908203125 23.85701370239258 0.01566696166992188 23.85966682434082 0.01576995849609375 C 23.86252975463867 0.01587677001953125 23.86642837524414 0.01601791381835938 23.86929512023926 0.01612472534179688 C 23.8729248046875 0.01625823974609375 23.87528038024902 0.01634979248046875 23.87890625 0.01648330688476562 C 23.88218879699707 0.01660537719726562 23.88533592224121 0.01673507690429688 23.88860702514648 0.01684951782226562 C 23.8919563293457 0.01697921752929688 23.89504432678223 0.01709365844726562 23.89839363098145 0.01722335815429688 C 23.89839363098145 0.01722335815429688 23.89841651916504 0.01722335815429688 23.89841651916504 0.01722335815429688 C 23.9030933380127 0.01740264892578125 23.90748977661133 0.01757049560546875 23.91216087341309 0.01775741577148438 C 23.91537094116211 0.01788330078125 23.91879272460938 0.01801681518554688 23.9220027923584 0.0181427001953125 C 23.92521286010742 0.01826858520507812 23.92893028259277 0.0184173583984375 23.93213844299316 0.01854324340820312 C 23.93514060974121 0.01866912841796875 23.9387378692627 0.0188140869140625 23.94173622131348 0.01892852783203125 C 23.94473838806152 0.0190582275390625 23.94832611083984 0.01919937133789062 23.95132064819336 0.019317626953125 C 23.95453071594238 0.01945114135742188 23.95757102966309 0.0195770263671875 23.96077919006348 0.01970291137695312 C 23.96398735046387 0.01983642578125 23.96754455566406 0.01998519897460938 23.97075843811035 0.02011489868164062 C 23.97451972961426 0.02027130126953125 23.97644233703613 0.02034759521484375 23.98020935058594 0.02051162719726562 C 23.98397827148438 0.02066421508789062 23.98614311218262 0.02075576782226562 23.98991012573242 0.0209197998046875 C 23.99290657043457 0.0210418701171875 23.9963436126709 0.02119064331054688 23.99934387207031 0.02132034301757812 C 24.00387763977051 0.021514892578125 24.00895118713379 0.02173614501953125 24.01348304748535 0.02193069458007812 C 24.01669120788574 0.02206802368164062 24.0196418762207 0.02219390869140625 24.0228443145752 0.0223388671875 C 24.02605056762695 0.02248001098632812 24.02922630310059 0.02261734008789062 24.03243255615234 0.02275848388671875 C 24.0356388092041 0.0229034423828125 24.0390682220459 0.0230560302734375 24.04227447509766 0.02319717407226562 C 24.04547691345215 0.02333450317382812 24.04886245727539 0.02349090576171875 24.05206871032715 0.0236358642578125 C 24.05527114868164 0.023773193359375 24.05846786499023 0.02391815185546875 24.06167411804199 0.02407073974609375 C 24.06487846374512 0.02421188354492188 24.06793785095215 0.02435302734375 24.07114219665527 0.02450180053710938 C 24.07456016540527 0.024658203125 24.07751274108887 0.0247955322265625 24.08092308044434 0.02495193481445312 C 24.08468246459961 0.0251312255859375 24.08686447143555 0.02523040771484375 24.09062767028809 0.02540206909179688 C 24.09383201599121 0.0255584716796875 24.09684944152832 0.02569580078125 24.10005569458008 0.02584457397460938 C 24.10346984863281 0.02600479125976562 24.10618782043457 0.0261383056640625 24.10959815979004 0.02629470825195312 C 24.11474800109863 0.02654266357421875 24.12149047851562 0.02686309814453125 24.12664413452148 0.02711105346679688 C 24.12957572937012 0.02724838256835938 24.13137435913086 0.02733993530273438 24.13429832458496 0.0274810791015625 C 24.13707733154297 0.02761459350585938 24.14004516601562 0.02776718139648438 24.14282989501953 0.02789688110351562 C 24.14679908752441 0.02809524536132812 24.14873123168945 0.02818679809570312 24.15270042419434 0.02838516235351562 C 24.15569496154785 0.02852630615234375 24.15939712524414 0.028717041015625 24.16238784790039 0.02886199951171875 C 24.16538238525391 0.02901077270507812 24.16912651062012 0.029205322265625 24.17211723327637 0.02935028076171875 C 24.17511177062988 0.02950286865234375 24.1782341003418 0.02965927124023438 24.18122482299805 0.02980804443359375 C 24.18463325500488 0.02997970581054688 24.18777656555176 0.0301361083984375 24.19118499755859 0.03031539916992188 C 24.1949462890625 0.0305023193359375 24.19718551635742 0.03062057495117188 24.20094108581543 0.03081512451171875 C 24.20448684692383 0.03099822998046875 24.2071590423584 0.03113555908203125 24.21070671081543 0.03131866455078125 C 24.21404457092285 0.03148651123046875 24.21672058105469 0.0316314697265625 24.22006034851074 0.03180694580078125 C 24.22458267211914 0.03204345703125 24.22925758361816 0.03228759765625 24.23377799987793 0.03252792358398438 C 24.23697662353516 0.03269577026367188 24.24089241027832 0.03290557861328125 24.24409484863281 0.03307342529296875 C 24.24687957763672 0.03322601318359375 24.25079154968262 0.03343582153320312 24.25357246398926 0.03358078002929688 C 24.25732612609863 0.03379058837890625 24.25967788696289 0.03390884399414062 24.26343154907227 0.03411483764648438 C 24.26697158813477 0.03429794311523438 24.26948738098145 0.03444671630859375 24.27303504943848 0.03463363647460938 C 24.27581787109375 0.03478622436523438 24.27998161315918 0.03501510620117188 24.28276062011719 0.03516769409179688 C 24.28553771972656 0.03532028198242188 24.28946685791016 0.0355377197265625 24.2922477722168 0.0356903076171875 C 24.29481887817383 0.03583526611328125 24.29910850524902 0.03607177734375 24.30167961120605 0.03621673583984375 C 24.30522155761719 0.03641891479492188 24.30755043029785 0.0365447998046875 24.31109619140625 0.0367431640625 C 24.31463813781738 0.0369415283203125 24.3171501159668 0.03708648681640625 24.32069206237793 0.03728485107421875 C 24.32423400878906 0.03747940063476562 24.32666015625 0.03762435913085938 24.3302059173584 0.03782272338867188 C 24.33527565002441 0.038116455078125 24.34015655517578 0.03839492797851562 24.3452262878418 0.03868484497070312 C 24.34876823425293 0.03889083862304688 24.35113525390625 0.03902816772460938 24.35467720031738 0.03923416137695312 C 24.35801124572754 0.0394287109375 24.36099624633789 0.03960037231445312 24.36433219909668 0.039794921875 C 24.3676643371582 0.03998947143554688 24.37100410461426 0.04018783569335938 24.37434005737305 0.04038238525390625 C 24.37745666503906 0.0405731201171875 24.38006401062012 0.04072189331054688 24.38318824768066 0.04090499877929688 C 24.38596534729004 0.04107284545898438 24.38996315002441 0.04131698608398438 24.39274024963379 0.041473388671875 C 24.39551734924316 0.0416412353515625 24.39919662475586 0.0418548583984375 24.40197372436523 0.04203033447265625 C 24.40495872497559 0.042205810546875 24.40879058837891 0.04243850708007812 24.41177558898926 0.04262161254882812 C 24.41510772705078 0.042816162109375 24.41783142089844 0.0429840087890625 24.42116355895996 0.04319000244140625 C 24.42448806762695 0.04339599609375 24.42773056030273 0.04359054565429688 24.43106079101562 0.04379653930664062 C 24.44521141052246 0.04461288452148438 24.46065711975098 0.04562759399414062 24.47480964660645 0.0465240478515625 C 24.4781379699707 0.04673385620117188 24.48092460632324 0.04691314697265625 24.48425102233887 0.04712295532226562 C 24.48737335205078 0.0473175048828125 24.49035263061523 0.04751205444335938 24.49347305297852 0.04771041870117188 C 24.49603652954102 0.04787826538085938 24.50048065185547 0.04816055297851562 24.50304794311523 0.04832839965820312 C 24.50561332702637 0.04848861694335938 24.50957298278809 0.0487518310546875 24.51213836669922 0.04891586303710938 C 24.51567649841309 0.04913711547851562 24.51822471618652 0.04930877685546875 24.52176094055176 0.04954147338867188 C 24.52508735656738 0.0497589111328125 24.52800369262695 0.04994964599609375 24.53133010864258 0.05016708374023438 C 24.53444671630859 0.05037307739257812 24.5377025604248 0.05058670043945312 24.54082107543945 0.0507965087890625 C 24.54374122619629 0.05096435546875 24.54732704162598 0.05121994018554688 24.55023956298828 0.05141830444335938 C 24.55956268310547 0.0520477294921875 24.56818008422852 0.05261611938476562 24.57753372192383 0.053253173828125 C 24.57753372192383 0.053253173828125 24.57779693603516 0.0532684326171875 24.57779693603516 0.0532684326171875 C 24.58070945739746 0.053466796875 24.58440780639648 0.05372238159179688 24.58731079101562 0.05391693115234375 C 24.59022331237793 0.05411911010742188 24.59368324279785 0.05436325073242188 24.59658622741699 0.0545501708984375 C 24.59991455078125 0.054779052734375 24.6027717590332 0.0549774169921875 24.6060905456543 0.055206298828125 C 24.60920715332031 0.05541610717773438 24.6124324798584 0.05564117431640625 24.61554908752441 0.05585861206054688 C 24.61831855773926 0.05604934692382812 24.62260818481445 0.0563507080078125 24.6253776550293 0.05654144287109375 C 24.62870025634766 0.05677413940429688 24.63111305236816 0.05694961547851562 24.63443374633789 0.05717849731445312 C 24.63775634765625 0.05741500854492188 24.64058303833008 0.05760955810546875 24.6439037322998 0.05784225463867188 C 24.64681243896484 0.05805206298828125 24.64948081970215 0.05823135375976562 24.65238380432129 0.05844497680664062 C 24.65508460998535 0.05863571166992188 24.65827751159668 0.05886077880859375 24.66098022460938 0.05905532836914062 C 24.67343902587891 0.05994796752929688 24.68466758728027 0.06080245971679688 24.69710731506348 0.0616607666015625 C 24.70022010803223 0.0618896484375 24.70320129394531 0.062103271484375 24.7063159942627 0.06233596801757812 C 24.70963668823242 0.0625762939453125 24.7126579284668 0.06279754638671875 24.71597862243652 0.06304550170898438 C 24.71929740905762 0.06329345703125 24.72196388244629 0.06349563598632812 24.72528076171875 0.0637359619140625 C 24.72804641723633 0.06393814086914062 24.73221969604492 0.06424713134765625 24.73498344421387 0.06445693969726562 C 24.73754119873047 0.0646514892578125 24.74154090881348 0.06494140625 24.74410247802734 0.0651397705078125 C 24.7474193572998 0.0653839111328125 24.75027275085449 0.0655975341796875 24.75358963012695 0.06585311889648438 C 24.75669860839844 0.0660858154296875 24.75943183898926 0.0662994384765625 24.76255035400391 0.0665283203125 C 24.76566123962402 0.06676483154296875 24.76899337768555 0.06702423095703125 24.77210235595703 0.06725311279296875 C 24.78046798706055 0.06789016723632812 24.78812217712402 0.06847763061523438 24.79648590087891 0.06912612915039062 C 24.79648590087891 0.06912612915039062 24.79703521728516 0.0691680908203125 24.79703521728516 0.0691680908203125 C 24.80035209655762 0.06941986083984375 24.80334281921387 0.06965255737304688 24.80665969848633 0.06991195678710938 C 24.80997848510742 0.0701751708984375 24.81272888183594 0.0703887939453125 24.8160400390625 0.07064437866210938 C 24.81977272033691 0.0709381103515625 24.82194328308105 0.07110977172851562 24.82567024230957 0.07139968872070312 C 24.82843017578125 0.07161331176757812 24.83222961425781 0.07190704345703125 24.83499526977539 0.07213211059570312 C 24.8377571105957 0.07235336303710938 24.8416862487793 0.072662353515625 24.84444808959961 0.07287979125976562 C 24.84755325317383 0.07312774658203125 24.85044288635254 0.0733489990234375 24.85355186462402 0.07360458374023438 C 24.8570728302002 0.07388687133789062 24.85947227478027 0.07407760620117188 24.86299324035645 0.07435989379882812 C 24.86589241027832 0.07459259033203125 24.868408203125 0.07479095458984375 24.87131309509277 0.0750274658203125 C 24.87421226501465 0.07526016235351562 24.87753677368164 0.07552337646484375 24.88043975830078 0.07576370239257812 C 24.89189910888672 0.076690673828125 24.9044075012207 0.07770919799804688 24.91587448120117 0.0786590576171875 C 24.91932487487793 0.07894515991210938 24.92142295837402 0.07912826538085938 24.92487144470215 0.07940292358398438 C 24.92797470092773 0.07965850830078125 24.9313907623291 0.0799407958984375 24.93449783325195 0.08020401000976562 C 24.93760108947754 0.0804595947265625 24.94069671630859 0.080718994140625 24.94379425048828 0.0809783935546875 C 24.9468994140625 0.08124160766601562 24.95026588439941 0.08153152465820312 24.953369140625 0.08178329467773438 C 24.95626449584961 0.08202362060546875 24.95928382873535 0.08227157592773438 24.96218490600586 0.08252716064453125 C 24.96583938598633 0.08283615112304688 24.96785354614258 0.08298873901367188 24.97150993347168 0.08331680297851562 C 24.97440528869629 0.08356094360351562 24.97784423828125 0.08387374877929688 24.98073577880859 0.08409881591796875 C 24.98363304138184 0.08434677124023438 24.9869327545166 0.08463287353515625 24.98982620239258 0.08487701416015625 C 25.00106430053711 0.08584213256835938 25.01386451721191 0.08684921264648438 25.02505302429199 0.08792495727539062 C 25.0279483795166 0.08817672729492188 25.03137969970703 0.08848190307617188 25.03427124023438 0.0887298583984375 C 25.0373706817627 0.08900070190429688 25.04048156738281 0.08927154541015625 25.04358291625977 0.08954620361328125 C 25.04668235778809 0.08982086181640625 25.0501537322998 0.090118408203125 25.05325126647949 0.09040069580078125 C 25.05600738525391 0.09064102172851562 25.06006622314453 0.09100723266601562 25.06281852722168 0.09124755859375 C 25.06591796875 0.091522216796875 25.06858062744141 0.09176254272460938 25.07168006896973 0.09203720092773438 C 25.07477951049805 0.09231948852539062 25.07758903503418 0.09256744384765625 25.08068656921387 0.09284591674804688 C 25.08316612243652 0.0930633544921875 25.08631706237793 0.09333038330078125 25.08881568908691 0.09357452392578125 C 25.09246444702148 0.093902587890625 25.09515953063965 0.09412765502929688 25.09881401062012 0.09447860717773438 C 25.11017608642578 0.0955047607421875 25.12147521972656 0.09653472900390625 25.13283348083496 0.0975799560546875 C 25.13626670837402 0.09788131713867188 25.13886451721191 0.09813308715820312 25.14230537414551 0.09845352172851562 C 25.14555358886719 0.09878158569335938 25.14768981933594 0.09894943237304688 25.15092277526855 0.09925079345703125 C 25.15458106994629 0.09960174560546875 25.1563720703125 0.09975433349609375 25.16001892089844 0.1000938415527344 C 25.16290092468262 0.100372314453125 25.16616249084473 0.1006698608398438 25.16905212402344 0.1009368896484375 C 25.17138862609863 0.1011581420898438 25.1756763458252 0.1015586853027344 25.17802047729492 0.1017799377441406 C 25.18131828308105 0.102081298828125 25.18409729003906 0.1023483276367188 25.18739700317383 0.1026611328125 C 25.19069862365723 0.1029739379882812 25.19349479675293 0.1032371520996094 25.19679641723633 0.1035499572753906 C 25.19989013671875 0.1038551330566406 25.20319557189941 0.1041603088378906 25.20629119873047 0.1044502258300781 C 25.20670318603516 0.1044921875 25.2072639465332 0.1045455932617188 25.20767593383789 0.104583740234375 C 25.22204780578613 0.1059532165527344 25.23688316345215 0.1073799133300781 25.25124740600586 0.1087760925292969 C 25.25391960144043 0.1090126037597656 25.2569465637207 0.1093292236328125 25.2596263885498 0.1095924377441406 C 25.26251220703125 0.1098442077636719 25.26552391052246 0.1101646423339844 25.26840972900391 0.1104507446289062 C 25.27095603942871 0.1106986999511719 25.27493286132812 0.1110916137695312 25.27747344970703 0.1113395690917969 C 25.28002166748047 0.1115875244140625 25.28437232971191 0.1120185852050781 25.28690910339355 0.1122665405273438 C 25.28944969177246 0.112518310546875 25.29348945617676 0.1129188537597656 25.29603385925293 0.1131706237792969 C 25.29932403564453 0.1135025024414062 25.30224418640137 0.1137847900390625 25.3055419921875 0.1141128540039062 C 25.3088321685791 0.11444091796875 25.31169128417969 0.1147308349609375 25.31498908996582 0.1150550842285156 C 25.3158130645752 0.1151390075683594 25.31617736816406 0.1151771545410156 25.31700134277344 0.1152572631835938 C 25.32757759094238 0.1163177490234375 25.33930587768555 0.1174964904785156 25.34987640380859 0.1185684204101562 C 25.35276222229004 0.1188735961914062 25.3559627532959 0.1191902160644531 25.35884666442871 0.1194839477539062 C 25.36172294616699 0.1197624206542969 25.36525726318359 0.1201400756835938 25.36814308166504 0.1204299926757812 C 25.37101745605469 0.1207313537597656 25.37467384338379 0.1211013793945312 25.3775577545166 0.1213951110839844 C 25.38043594360352 0.1217079162597656 25.38354873657227 0.12200927734375 25.38643074035645 0.1223106384277344 C 25.38972282409668 0.1226387023925781 25.39289665222168 0.1229705810546875 25.39618873596191 0.1233177185058594 C 25.39960479736328 0.1236534118652344 25.40200996398926 0.1239166259765625 25.40544128417969 0.1242752075195312 C 25.40909576416016 0.1246604919433594 25.41082763671875 0.1248359680175781 25.41446113586426 0.1252174377441406 C 25.41734504699707 0.1255149841308594 25.42100715637207 0.1259040832519531 25.42388343811035 0.1262016296386719 C 25.42429542541504 0.1262435913085938 25.42459678649902 0.1262741088867188 25.42500686645508 0.1263198852539062 C 25.44311141967773 0.1282157897949219 25.45994567871094 0.1299972534179688 25.4780387878418 0.1319389343261719 C 25.4780387878418 0.1319389343261719 25.47848892211914 0.1319847106933594 25.47848892211914 0.1319847106933594 C 25.48191452026367 0.1323509216308594 25.48454093933105 0.13262939453125 25.48796844482422 0.1330032348632812 C 25.49160003662109 0.133392333984375 25.49369812011719 0.1336402893066406 25.49732398986816 0.1340103149414062 C 25.50095367431641 0.1344032287597656 25.50264549255371 0.1345939636230469 25.50628471374512 0.134979248046875 C 25.50971031188965 0.1353492736816406 25.51169395446777 0.13555908203125 25.51511001586914 0.1359405517578125 C 25.53922271728516 0.1385612487792969 25.56246185302734 0.1411247253417969 25.58655166625977 0.1438217163085938 C 25.58978080749512 0.1441726684570312 25.59235000610352 0.14447021484375 25.59556770324707 0.1448326110839844 C 25.59556770324707 0.1448326110839844 25.59604072570801 0.1448860168457031 25.59604072570801 0.1448860168457031 C 25.59946060180664 0.1452674865722656 25.60212326049805 0.1455726623535156 25.60553550720215 0.1459541320800781 C 25.60915946960449 0.1463661193847656 25.61100578308105 0.1465568542480469 25.6146411895752 0.1469841003417969 C 25.61785697937012 0.1473503112792969 25.62047958374023 0.1476707458496094 25.62364768981934 0.1480026245117188 C 25.62665748596191 0.148345947265625 25.62886810302734 0.1485977172851562 25.63187789916992 0.1489410400390625 C 25.63187789916992 0.1489410400390625 25.6323070526123 0.14898681640625 25.6323070526123 0.14898681640625 C 25.6563835144043 0.1517295837402344 25.68003463745117 0.1544647216796875 25.70408821105957 0.1572799682617188 C 25.70408821105957 0.1572799682617188 25.70425224304199 0.1572990417480469 25.70425224304199 0.1572990417480469 C 25.70746612548828 0.1576805114746094 25.71023178100586 0.1579551696777344 25.71340370178223 0.1583747863769531 C 25.71641159057617 0.1587257385253906 25.71918106079102 0.1590538024902344 25.72218704223633 0.1594085693359375 C 25.72218704223633 0.1594085693359375 25.72228813171387 0.1594200134277344 25.72228813171387 0.1594200134277344 C 25.72549819946289 0.1597976684570312 25.72825241088867 0.1600608825683594 25.73148918151855 0.1605072021484375 C 25.76154518127441 0.1640625 25.79108238220215 0.1676177978515625 25.82110214233398 0.1712875366210938 C 25.82110214233398 0.1712875366210938 25.82156181335449 0.1713447570800781 25.82156181335449 0.1713447570800781 C 25.82456398010254 0.1717109680175781 25.82721710205078 0.1720352172851562 25.8302173614502 0.1724052429199219 C 25.8302173614502 0.1724052429199219 25.83052253723145 0.1724433898925781 25.83052253723145 0.1724433898925781 C 25.83372688293457 0.1728363037109375 25.83628845214844 0.1731338500976562 25.83949279785156 0.1735458374023438 C 25.86650466918945 0.1768722534179688 25.89281463623047 0.1801567077636719 25.91979789733887 0.1835746765136719 C 25.92299461364746 0.1840019226074219 25.92514991760254 0.1842536926269531 25.92835235595703 0.184661865234375 C 25.93176460266113 0.1850814819335938 25.93451309204102 0.1854476928710938 25.93791961669922 0.1858787536621094 C 25.94133949279785 0.1863250732421875 25.94386672973633 0.1866378784179688 25.94726943969727 0.18707275390625 C 25.94747352600098 0.1870994567871094 25.94723701477051 0.1870689392089844 25.94744110107422 0.1870956420898438 C 26.01337432861328 0.1955299377441406 26.07887840270996 0.2041969299316406 26.1446361541748 0.2131881713867188 C 26.14781951904297 0.2136116027832031 26.15059661865234 0.2140007019042969 26.15378952026367 0.2144393920898438 C 26.15378952026367 0.2144393920898438 26.15390396118164 0.2144546508789062 26.15390396118164 0.2144546508789062 C 26.15689277648926 0.2148666381835938 26.15965270996094 0.2152442932128906 26.16263961791992 0.2156562805175781 C 26.16263961791992 0.2156562805175781 26.16302490234375 0.2157096862792969 26.16302490234375 0.2157096862792969 C 26.2287654876709 0.2247505187988281 26.29415130615234 0.2340316772460938 26.35971450805664 0.2436294555664062 C 26.35971450805664 0.2436294555664062 26.35980224609375 0.2436408996582031 26.35980224609375 0.2436408996582031 C 26.36576271057129 0.2445144653320312 26.37168121337891 0.2453842163085938 26.37763977050781 0.2462577819824219 C 26.37763977050781 0.2462577819824219 26.37765693664551 0.2462615966796875 26.37765693664551 0.2462615966796875 C 26.41043090820312 0.2510833740234375 26.44314956665039 0.2559738159179688 26.47587776184082 0.2609329223632812 C 26.47587776184082 0.2609329223632812 26.47591972351074 0.2609405517578125 26.47591972351074 0.2609405517578125 C 27.74042129516602 0.4526252746582031 28.97109603881836 0.7472648620605469 30.15918731689453 1.136054992675781 C 30.15918731689453 1.136054992675781 30.15921401977539 1.136062622070312 30.15921401977539 1.136062622070312 C 30.18717002868652 1.145210266113281 30.21469116210938 1.154273986816406 30.24259757995605 1.163524627685547 C 30.24560356140137 1.164554595947266 30.24826049804688 1.165401458740234 30.25123977661133 1.166393280029297 C 30.25422477722168 1.167377471923828 30.25662612915039 1.168178558349609 30.25960540771484 1.169170379638672 C 30.25979423522949 1.169235229492188 30.25970840454102 1.169204711914062 30.2598991394043 1.169269561767578 C 30.28500747680664 1.177616119384766 30.30990600585938 1.185939788818359 30.33497619628906 1.194366455078125 C 30.33497619628906 1.194366455078125 30.33501434326172 1.194381713867188 30.33501434326172 1.194381713867188 C 30.33798980712891 1.195381164550781 30.34061050415039 1.196281433105469 30.34358596801758 1.197265625 C 30.34656143188477 1.198265075683594 30.34913444519043 1.199146270751953 30.35209846496582 1.20013427734375 C 30.35545349121094 1.201267242431641 30.35743713378906 1.201950073242188 30.36079025268555 1.20306396484375 C 30.36395645141602 1.204132080078125 30.36598205566406 1.204811096191406 30.36914443969727 1.205886840820312 C 30.37230682373047 1.206954956054688 30.37426567077637 1.207622528076172 30.37743377685547 1.208690643310547 C 30.39969635009766 1.216224670410156 30.42077445983887 1.223392486572266 30.44300842285156 1.230995178222656 C 30.44616317749023 1.2320556640625 30.44850540161133 1.232872009277344 30.45166397094727 1.233955383300781 C 30.45166397094727 1.233955383300781 30.45199584960938 1.23406982421875 30.45199584960938 1.23406982421875 C 30.45496368408203 1.235084533691406 30.45770645141602 1.236057281494141 30.46067428588867 1.237041473388672 C 30.46364212036133 1.238056182861328 30.46596145629883 1.238853454589844 30.46892929077148 1.239871978759766 C 30.47208404541016 1.240959167480469 30.47435188293457 1.241737365722656 30.47751045227051 1.242820739746094 C 30.49695205688477 1.249500274658203 30.51516914367676 1.255786895751953 30.53458786010742 1.262516021728516 C 30.53684997558594 1.263309478759766 30.5400218963623 1.264400482177734 30.54229354858398 1.265186309814453 C 30.54563140869141 1.266361236572266 30.54766082763672 1.267051696777344 30.55100059509277 1.268211364746094 C 30.55414199829102 1.269283294677734 30.5562801361084 1.270042419433594 30.55943298339844 1.271141052246094 C 30.56258773803711 1.272254943847656 30.56465148925781 1.272956848144531 30.56779861450195 1.274055480957031 C 30.5704460144043 1.274971008300781 30.57332801818848 1.275981903076172 30.57597351074219 1.276901245117188 C 30.57880783081055 1.27789306640625 30.5820140838623 1.279010772705078 30.58484649658203 1.279998779296875 C 30.58522415161133 1.280132293701172 30.58548164367676 1.280220031738281 30.58585929870605 1.280353546142578 C 30.59902191162109 1.284950256347656 30.61151504516602 1.289325714111328 30.62466812133789 1.2939453125 C 30.62750434875488 1.294952392578125 30.6302661895752 1.295909881591797 30.63309478759766 1.296909332275391 C 30.63592529296875 1.297889709472656 30.63823318481445 1.298709869384766 30.64106369018555 1.299713134765625 C 30.64358139038086 1.300594329833984 30.64719200134277 1.301868438720703 30.64970779418945 1.302757263183594 C 30.65203666687012 1.303577423095703 30.65603637695312 1.304988861083984 30.65836334228516 1.305809020996094 C 30.661376953125 1.306880950927734 30.66415786743164 1.307853698730469 30.66717720031738 1.308925628662109 C 30.67000579833984 1.309928894042969 30.67276382446289 1.310897827148438 30.67559242248535 1.311901092529297 C 30.67842102050781 1.312904357910156 30.68149566650391 1.313991546630859 30.68432235717773 1.314990997314453 C 30.68488693237305 1.315193176269531 30.68543243408203 1.315387725830078 30.68599700927734 1.315586090087891 C 30.69913101196289 1.320243835449219 30.71268463134766 1.325057983398438 30.72580718994141 1.329738616943359 C 30.72580718994141 1.329738616943359 30.72623062133789 1.329891204833984 30.72623062133789 1.329891204833984 C 30.72886657714844 1.330825805664062 30.73226356506348 1.332050323486328 30.73489952087402 1.332981109619141 C 30.73772811889648 1.333988189697266 30.74067687988281 1.335041046142578 30.74349975585938 1.336055755615234 C 30.74632263183594 1.337066650390625 30.74924468994141 1.338100433349609 30.7520637512207 1.339118957519531 C 30.75507354736328 1.340194702148438 30.75769996643066 1.341129302978516 30.76071166992188 1.342216491699219 C 30.76303100585938 1.343044281005859 30.7673511505127 1.344596862792969 30.76967239379883 1.345428466796875 C 30.77237319946289 1.346401214599609 30.7758674621582 1.347652435302734 30.778564453125 1.348621368408203 C 30.78194808959961 1.349838256835938 30.78397750854492 1.350559234619141 30.7873649597168 1.351787567138672 C 30.79043388366699 1.352886199951172 30.79356575012207 1.354015350341797 30.79664039611816 1.355125427246094 C 30.80065155029297 1.3565673828125 30.80410385131836 1.357814788818359 30.8081111907959 1.359260559082031 C 30.8081111907959 1.359260559082031 30.8089542388916 1.359565734863281 30.8089542388916 1.359565734863281 C 30.81177139282227 1.360584259033203 30.81459045410156 1.361598968505859 30.81740570068359 1.362617492675781 C 30.82047653198242 1.363731384277344 30.82312774658203 1.364688873291016 30.82619667053223 1.365795135498047 C 30.82908058166504 1.366840362548828 30.83185195922852 1.367843627929688 30.83473205566406 1.368888854980469 C 30.83779907226562 1.369991302490234 30.84051895141602 1.370979309082031 30.84358978271484 1.372097015380859 C 30.84628105163574 1.373069763183594 30.84909439086914 1.374095916748047 30.85178756713867 1.375072479248047 C 30.8544807434082 1.376049041748047 30.85786247253418 1.377277374267578 30.86055374145508 1.378257751464844 C 30.86324501037598 1.379241943359375 30.86663818359375 1.380474090576172 30.86932754516602 1.381450653076172 C 30.87239456176758 1.382572174072266 30.87547874450684 1.383693695068359 30.87854385375977 1.384807586669922 C 30.88092041015625 1.385673522949219 30.88487243652344 1.387119293212891 30.88724899291992 1.387985229492188 C 30.8908805847168 1.389316558837891 30.89366149902344 1.390331268310547 30.89728736877441 1.391651153564453 C 30.89797592163086 1.391902923583984 30.89860343933105 1.392131805419922 30.8992919921875 1.392383575439453 C 30.90529251098633 1.394580841064453 30.91093826293945 1.396644592285156 30.91693687438965 1.398845672607422 C 30.92005920410156 1.399997711181641 30.92227554321289 1.400798797607422 30.92539978027344 1.401950836181641 C 30.9284610748291 1.403076171875 30.93108367919922 1.404045104980469 30.93414688110352 1.405162811279297 C 30.93671035766602 1.406101226806641 30.94038200378418 1.407451629638672 30.94294357299805 1.408397674560547 C 30.94531631469727 1.409267425537109 30.9492073059082 1.41070556640625 30.95157814025879 1.411579132080078 C 30.95463943481445 1.412700653076172 30.95695877075195 1.413562774658203 30.96001815795898 1.414688110351562 C 30.96307754516602 1.415817260742188 30.96589660644531 1.416858673095703 30.96895599365234 1.417987823486328 C 30.97220230102539 1.419185638427734 30.97440910339355 1.420005798339844 30.97765731811523 1.42120361328125 C 30.98002624511719 1.422077178955078 30.98380279541016 1.423477172851562 30.98617553710938 1.424358367919922 C 30.98923110961914 1.425483703613281 30.99151992797852 1.426334381103516 30.99457931518555 1.427471160888672 C 30.99595260620117 1.427978515625 30.99724578857422 1.428459167480469 30.99861907958984 1.428966522216797 C 31.00442123413086 1.431121826171875 31.00984573364258 1.433135986328125 31.01564407348633 1.435291290283203 C 31.01857376098633 1.436378479003906 31.02153587341309 1.437480926513672 31.02446746826172 1.438575744628906 C 31.0280818939209 1.439910888671875 31.02946090698242 1.440433502197266 31.0330753326416 1.441780090332031 C 31.03600692749023 1.44287109375 31.03926086425781 1.444084167480469 31.04219055175781 1.445182800292969 C 31.04512023925781 1.446273803710938 31.04751205444336 1.447170257568359 31.05044174194336 1.448261260986328 C 31.05368041992188 1.449478149414062 31.05599403381348 1.450336456298828 31.05923652648926 1.451553344726562 C 31.06247711181641 1.452762603759766 31.06463241577148 1.453575134277344 31.06787490844727 1.454784393310547 C 31.07061576843262 1.455825805664062 31.07427978515625 1.457191467285156 31.0770206451416 1.458213806152344 C 31.0799446105957 1.459323883056641 31.08308982849121 1.460494995117188 31.08601760864258 1.461589813232422 C 31.08931159973145 1.462841033935547 31.09251594543457 1.464031219482422 31.09581756591797 1.465274810791016 C 31.09650039672852 1.465534210205078 31.09609985351562 1.465381622314453 31.09678268432617 1.46563720703125 C 31.10574722290039 1.469009399414062 31.11449241638184 1.472305297851562 31.12345123291016 1.475688934326172 C 31.12345123291016 1.475688934326172 31.12378311157227 1.475814819335938 31.12378311157227 1.475814819335938 C 31.1265811920166 1.476871490478516 31.12926864624023 1.477886199951172 31.13206672668457 1.47894287109375 C 31.13206672668457 1.47894287109375 31.13356018066406 1.479507446289062 31.13356018066406 1.479507446289062 C 31.13666915893555 1.480682373046875 31.13967132568359 1.481822967529297 31.14278793334961 1.483001708984375 C 31.14589691162109 1.484176635742188 31.14805793762207 1.484989166259766 31.15117263793945 1.486175537109375 C 31.15378189086914 1.487167358398438 31.15598678588867 1.488002777099609 31.15859794616699 1.488994598388672 C 31.15859794616699 1.488994598388672 31.16005325317383 1.489543914794922 31.16005325317383 1.489543914794922 C 31.16266250610352 1.490535736083984 31.1652889251709 1.491535186767578 31.16789817810059 1.492527008056641 C 31.16789817810059 1.492527008056641 31.16849517822266 1.492752075195312 31.16849517822266 1.492752075195312 C 31.17129135131836 1.493816375732422 31.17376708984375 1.494754791259766 31.17656326293945 1.495819091796875 C 31.17724609375 1.496078491210938 31.17691040039062 1.495952606201172 31.17759323120117 1.496212005615234 C 31.1953010559082 1.502948760986328 31.21305084228516 1.509727478027344 31.23073577880859 1.516510009765625 C 31.23073577880859 1.516510009765625 31.23118209838867 1.516677856445312 31.23118209838867 1.516677856445312 C 31.23397445678711 1.517749786376953 31.23691558837891 1.518878936767578 31.23970794677734 1.519950866699219 C 31.23970794677734 1.519950866699219 31.24002075195312 1.520069122314453 31.24002075195312 1.520069122314453 C 31.24281120300293 1.521141052246094 31.24517440795898 1.522048950195312 31.24796676635742 1.523120880126953 C 31.25106430053711 1.524307250976562 31.254150390625 1.525497436523438 31.25725364685059 1.526691436767578 C 31.25725364685059 1.526691436767578 31.25809288024902 1.527015686035156 31.25809288024902 1.527015686035156 C 31.26069641113281 1.528018951416016 31.26332473754883 1.529029846191406 31.26593017578125 1.530033111572266 C 31.2666130065918 1.530296325683594 31.266357421875 1.530197143554688 31.26704025268555 1.530460357666016 C 31.26964569091797 1.531463623046875 31.27256393432617 1.532588958740234 31.27516746520996 1.533596038818359 C 31.27516746520996 1.533596038818359 31.27571868896484 1.533805847167969 31.27571868896484 1.533805847167969 C 31.27850723266602 1.534881591796875 31.28103256225586 1.535858154296875 31.28382301330566 1.536933898925781 C 31.28382301330566 1.536933898925781 31.2846565246582 1.537258148193359 31.2846565246582 1.537258148193359 C 31.30548095703125 1.545299530029297 31.32606506347656 1.553287506103516 31.34686088562012 1.561389923095703 C 31.34686088562012 1.561389923095703 31.34689140319824 1.5614013671875 31.34689140319824 1.5614013671875 C 31.34967803955078 1.562484741210938 31.35268402099609 1.56365966796875 31.35546875 1.564746856689453 C 31.35546875 1.564746856689453 31.35612678527832 1.56500244140625 31.35612678527832 1.56500244140625 C 31.80740356445312 1.741062164306641 32.25197219848633 1.931045532226562 32.68887329101562 2.134262084960938 C 34.19117736816406 2.833026885986328 34.84256362915039 4.617336273193359 34.143798828125 6.119636535644531 C 33.44503784179688 7.621929168701172 31.66072463989258 8.273326873779297 30.15842437744141 7.574550628662109 C 27.91217422485352 6.529762268066406 25.50373840332031 6 23 6 C 21.34314918518066 6 20 4.656848907470703 20 3 C 20 1.343151092529297 21.34314918518066 0 23 0 C 23 0 23 0 23 0 Z" stroke="none" fill="#fff"/></g></g></g></svg>