<svg xmlns="http://www.w3.org/2000/svg" viewBox="0 0 763.422 314.88"><defs><style>.a{fill:rgba(255,255,255,0.1);}.a,.n,.o{fill-rule:evenodd;}.b{fill:#fff;}.c,.n{fill:#fd4646;}.d,.o{fill:#bd3231;}.e{fill:#efecec;}.f{fill:#f0ecec;}.g{fill:#f0edec;}.h{fill:#f0eded;}.i{fill:#efeded;}.j{fill:#f0eeee;}.k{fill:#f1eeee;}.l{fill:#f3f0f0;}.m{fill:#f0eeed;}.p{fill:none;stroke:#fff;stroke-linecap:round;stroke-linejoin:round;stroke-miterlimit:10;stroke-width:2px;}</style></defs><g transform="translate(-0.485 351.746)"><path class="a" d="M716.483-212.632c13.733-4.721,28.823,2.909,33.677,17.028,7.413,21.564-8.248,56.945-8.248,56.945S707.8-156.943,700.393-178.5C695.54-192.615,702.749-207.91,716.483-212.632Z"/><path class="b" d="M577.391-207.038c21.166,9.308,50.335,1.1,57.469-22.441.561-1.852-2.334-2.643-2.893-.8-6.524,21.535-33.7,29.163-53.062,20.648-1.751-.77-3.28,1.814-1.514,2.59"/><g transform="translate(-1978.702 -10947.958)"><g transform="translate(2576.132 10596.212)"><g transform="translate(0 0)"><path class="c" d="M-319.23-1538.586c29.4-14.063,81.865-3.324,86.021,52.36s-32.414,106.383-33.245,110.123c-15.791-7.065-61.087-32.829-80.2-72.307s-1.247-76.463,27.427-90.176" transform="translate(354.596 1544.173)"/><g transform="translate(34.534 77.477)"><path class="b" d="M0-238.824s43.218,1.662,69.4-27.842c6.859,43.993-33.245,53.607-50.7,54.438-5.4-7.48-12.256-16.263-18.7-26.6" transform="translate(0 266.667)"/></g><g transform="translate(23.314 24.701)"><path class="d" d="M-555.164-277.582a30.751,30.751,0,0,1-30.751,30.751,30.751,30.751,0,0,1-30.751-30.751,30.751,30.751,0,0,1,30.751-30.751,30.751,30.751,0,0,1,30.751,30.751" transform="translate(616.667 308.334)"/></g><g transform="translate(41.599 49.739)"><path class="b" d="M0-197.917l7.272,19.739,17.661-18.7Z" transform="translate(0 197.917)"/></g></g></g></g><path class="a" d="M.485-68.3s131.18-157.37,363.773-157.523c210.285-.138,339.871,132.621,363.051,156.68C666.961-69.148.485-68.3.485-68.3Z"/><path class="e" d="M363.995-188.078a18.822,18.822,0,0,0-1.388,4.14c-1.314,8.425-3.069,16.762-4.283,25.221-1.24,8.639-1.916,17.314-2.534,25.974-.612,8.582-.009,17.247-.2,25.869-.075,3.371.692,5.955,3.838,7.662,19.269-4.691,38.714-9.038,58.489-11.22,1.617-5.245,1.66-5.27.56-7.191-1.165-2.036-2.394-4.035-3.644-6.018a419.161,419.161,0,0,0-34.319-46.876c-5.044-5.974-9.835-12.309-16.518-17.561M150.66-134.527c-5.517,1.253-9.7,5.073-14.223,8.053A379.857,379.857,0,0,0,94.482-94.389c-11.81,10.4-17.556,7.989-8.718.1a359.023,359.023,0,0,1,39.208-30.763c6.214-4.162,12.445-8.284,18.881-12.077,1.5-.885,2.67-1.659,2.9-3.695.311-2.77,2.688-4.536,3.914-6.891-.1-1.749.1-3.347,2.011-4.075,1.3.7,1.328,2.692,2.978,3.045a7.915,7.915,0,0,1,5.015,1.021c2.148.265,3.828-.931,5.59-1.857a404.747,404.747,0,0,1,59.684-25.081,394.45,394.45,0,0,1,57.583-14.707c9.576-1.679,19.1-3.87,28.748-4.871,12.177-1.264,24.374-2.9,36.686-2.249,2.5.131,2.506.008,5.523-1.313-10.768-12.516-23.59-22.45-36.921-32.406,2.958-1.426,4.847-.414,6.754.553,7.933,4.019,14.536,9.915,21.432,15.43,4.836,3.867,9.024,8.424,13.424,12.625,3.077-.8,2.708-3.525,3.394-5.381,3.328-9.008,6.946-17.863,12.092-25.985a47,47,0,0,1,4.13-5.667,5.546,5.546,0,0,1,5.294-2.238c1.181,2.146-.279,3.608-1.244,5.048a115.935,115.935,0,0,0-15.087,33.791c2.581,5.018,6.759,5.753,11.922,5.7,10.908-.117,21.724,1.487,32.563,2.756a379.714,379.714,0,0,1,45.229,8.3,453.982,453.982,0,0,1,75.725,25.563,356.209,356.209,0,0,1,46.474,24.145,7.282,7.282,0,0,0,1.412.523c-.348-7.436-20.641-30.192-38.922-43.635,2.091-1.92,4.093-.6,5.858.258,5.273,2.567,9.715,6.39,14.026,10.319a145.9,145.9,0,0,1,27.739,34.734c3.94,6.759,7.365,6.956,12.81,1.446,4.6-4.662,9.5-8.863,15.77-11.129a7.294,7.294,0,0,1,4.75-.278c.374,1.927-1.18,2.044-2.063,2.5a53.554,53.554,0,0,0-15.381,11.861c-3.47,3.85-3.252,7.689.808,10.6,14.469,10.393,31.8,31.449,25.608,26.352-10.022-8.25-20.1-16.406-31.115-23.6,9.393,18.628,6.792,23-2.029,9.024-.8-1.274-1.333-2.723-2.063-4.049-2.534-4.6-4.795-4.893-8.386-.828-4.424,5.008-8.874,10.011-12.972,15.29-6.45,8.309-3.768-2.451,11.962-20.683-.142-2.547-3.692-5.035.356-8.094-66.978-42.058-139.063-64.947-217.4-67.715-.2,3.159,1.816,4.4,3.3,5.888,17.878,17.972,32.725,38.377,46.5,59.64a20.942,20.942,0,0,1,1.573,3.163,7.508,7.508,0,0,0,6.2,5.038c4.517.761,5.087,1.805,6.642,7.208,11.265-3.025,22.894-.98,34.472-2.131,10.661-1.06,21.583-1.271,32.31.754a2.708,2.708,0,0,1,1.966,1.652c-.4,2.874-2.709,2.284-4.574,2.295-8,.045-16,.021-24,.022-7.5,0-15-.03-22.5.015-5.632.033-11.176,1.561-16.853,1.049-1.2-.109-2.209.623-3.485,1.567,7.859,15.851,2.033,16.75-5.691,2.883-2.245-.9-5.058.169-6.984-2.012-.559-.633-1.569-.513-2.391-.352-10.519,2.05-21.06,3.988-31.539,6.229-6.613,1.415-13.136,3.269-19.687,4.972-1.746.453-3.714.695-5.117,1.7-3.108,2.225-7.972,13.993-11.718,4.083-1.426-.745-2.769.218-4.1.658-25.209,8.364-14.09-2.043-3.388-5.606,6.176-2.056,8.279-5.069,8.28-11.827,0-7.615.064-15.23-.014-22.845-.112-10.955,1.415-21.736,2.82-32.561,1.016-7.822,2.343-15.548,4.05-23.23.317-1.425.634-3.138-1.144-4.008-1.535-.752-1.465-2.559-2.677-3.921-5.418.219-10.962-.354-16.624.748-4.987.97-10.2.482-15.336,1.054-8.7.968-17.4,1.969-26,3.458a434.459,434.459,0,0,0-44.931,9.918,427.152,427.152,0,0,0-47.441,16.317c-11.684,4.867-23.083,10.308-34.419,15.943-3.849,1.914-4.075,5.815-6.1,8.694-.642.914.525,2.236,1.112,3.21a212.644,212.644,0,0,0,35.19,43.4c11.328,10.922-8.262-1.161-13.578-7.276-8.566-9.852-16.833-19.877-23.877-30.927-1.492-2.34-2.054-5.482-5.017-6.711-1.82-.182-2.54,1.276-3.449,2.446-.874-.622-.351-2.1-1.563-2.446"/><path class="f" d="M150.66-134.524c1.211.4.689,2.143,1.563,2.873.91-1.374,1.628-3.087,3.449-2.873A256.828,256.828,0,0,0,148.783-96c-1.5,15.024-4.716-4.311-2.524-18.611a182.2,182.2,0,0,1,4.4-19.91" transform="translate(0 -1)"/><path class="g" d="M160.67-147.729a7.915,7.915,0,0,0-5.015-1.021c.7-5.291,3.568-9.752,5.746-14.4,6.5-13.856,14.886-26.583,24.209-38.632,1.714-2.215,3.381-5.715,7.844-4.492A225.862,225.862,0,0,0,174.7-178.723c-5.143,8.841-10.172,17.744-13.4,27.557a9.776,9.776,0,0,0-.632,3.437" transform="translate(0 1)"/><path class="h" d="M152.677-151.795c-1.908.728-2.108,2.326-2.012,4.075-3.721-5.231-5.517-11.4-7.793-17.274a195,195,0,0,1-9.834-32.6c-.527-2.669.288-5.419-.857-7.965-.629-1.4-.06-2.489,1.212-2.745,1.376-.277,2.172.875,2.184,2.162.032,3.413,1.344,6.539,1.922,9.813,1.791,10.135,5.751,19.537,9.067,29.168,1.8,5.229,5.113,9.82,6.111,15.363" transform="translate(1 1)"/><path class="e" d="M56.642-93.836c-.086,2.4-3.2,4.984-6,4.967-3.344-.021-7.042-3.061-6.963-5.726.1-3.192,2.935-5.574,6.448-5.408,3.757.177,6.633,2.9,6.516,6.167"/><path class="e" d="M540.632-190.383c.022,2.269-2.311,6.009-3.794,6.081-2.816.137-7.08-3.408-7.162-5.956-.067-2.088,2.62-4.814,4.883-4.954,2.87-.177,6.048,2.351,6.073,4.829"/><path class="e" d="M135.523-222.867c3.481-.057,6.138,1.625,6.041,3.823-.114,2.574-3.87,6.252-6.388,6.255-2.677,0-4.515-2.2-4.506-5.41.011-3.61,1.046-4.606,4.853-4.668"/><path class="e" d="M537.646-113.072c.191,2.5-.792,4.023-3.657,3.93-3.308-.106-6.228-2.784-6.3-5.9-.06-2.427,3.013-5.226,5.747-5.234,2.112-.007,4.231,3.533,4.215,7.2"/><path class="e" d="M200.642-218.8c3.478-.01,5.221,1.845,5.34,5.762.081,2.679-1.626,3.35-3.834,3.367-3.317.026-6.539-2.368-6.475-4.788.074-2.791,1.837-4.331,4.969-4.341"/><path class="h" d="M250.48-149.725c1.379-3.367,2.828-6.056,6.629-6.116,1.813-.029,3.886-.288,4.394,2.165a4.4,4.4,0,0,1-2.3,5.082c-2.9,1.55-5.692,1.247-8.724-1.131"/><path class="e" d="M316.3-238.632a6.866,6.866,0,0,1-3.829,3.132c-2.348.917-4.8.791-6.316-1.278-1.288-1.755-.52-3.922.775-5.58.979-1.254,5.43-1.156,6.966.01a4.017,4.017,0,0,1,1.043,1.066c.507.848.911,1.758,1.361,2.65"/><path class="e" d="M389.792-249.608c3.8-3.708,7.646-3.581,10.069.117,1.474,2.249.829,4.12-1.728,5.014-3.417,1.193-6.3-.511-8.341-5.131"/><path class="i" d="M639.543-145.876c-1.284,3.324-3.728,3.447-6.317,3.174-2.674-.283-3.247-2.869-4.146-4.618-1.155-2.244.589-3.5,2.757-3.4,3.281.15,6.111,1.326,7.706,4.844"/><path class="j" d="M95.622-157.076c1.884-2.078,3.5-3.245,5.7-1.21-1.979,3.744-1.979,3.744-5.7,1.21"/><path class="k" d="M272.644-216.613c-1.88,1.311-3.622.865-5.412.544a2.559,2.559,0,0,1,2.154-3.381c1.4-.286,2.923.447,3.258,2.837"/><path class="l" d="M655.6-108.453c-2.323,1.236-4.073,2.951-6.84.963,2.116-2.013,4.019-2.792,6.84-.963"/><path class="m" d="M477.644-210.616c-1.812,1.479-3.261,2.831-4.9.006,1.475-1.8,2.883-2.164,4.9-.006"/><path class="n" d="M545.884-74.027a26.843,26.843,0,0,1-.209,37.942C529.594-20,490.724-18.867,490.724-18.867s1.146-38.879,17.218-54.951A26.843,26.843,0,0,1,545.884-74.027Z" transform="translate(2 -18)"/><path class="n" d="M541.944-70.087c8.3,8.3,8.111,21.964-.421,30.5-13.032,13.031-44.279,14.205-44.279,14.205s1.181-31.255,14.205-44.279C519.981-78.2,533.645-78.386,541.944-70.087Z" transform="translate(2 -18)"/><path class="o" d="M536.128-64.271a11.66,11.66,0,0,1-.091,16.482,11.66,11.66,0,0,1-16.482.091,11.661,11.661,0,0,1,.091-16.482A11.66,11.66,0,0,1,536.128-64.271Z" transform="translate(2 -18)"/><path class="n" d="M572.331-243.832a17.934,17.934,0,0,1,4.107,25.014c-8.793,12.391-34.267,17.488-34.267,17.488s-3.6-25.736,5.193-38.119A17.934,17.934,0,0,1,572.331-243.832Z"/><path class="n" d="M570.177-240.8a14.418,14.418,0,0,1,3.134,20.133c-7.126,10.041-27.575,14.31-27.575,14.31s-2.719-20.718,4.4-30.754A14.417,14.417,0,0,1,570.177-240.8Z"/><path class="o" d="M567-236.315a7.792,7.792,0,0,1,1.784,10.867,7.79,7.79,0,0,1-10.846,1.9,7.79,7.79,0,0,1-1.784-10.866A7.791,7.791,0,0,1,567-236.315Z"/><g transform="translate(69.567 -61.542) rotate(8)"><path class="n" d="M9.352-130.844a14.783,14.783,0,0,1,20.812-1.878c9.66,7.971,12.326,29.222,12.326,29.222s-21.375,1.413-31.031-6.554A14.783,14.783,0,0,1,9.352-130.844Z"/><path class="n" d="M11.719-128.891a11.885,11.885,0,0,1,16.741-1.371c7.829,6.46,10.114,23.53,10.114,23.53s-17.2.994-25.022-5.463A11.884,11.884,0,0,1,11.719-128.891Z"/><path class="o" d="M15.213-126.008a6.423,6.423,0,0,1,9.041-.816,6.423,6.423,0,0,1,.916,9.032,6.422,6.422,0,0,1-9.041.815A6.422,6.422,0,0,1,15.213-126.008Z"/></g><path class="b" d="M714.186-280.592c10.082,2.181,37.334,30.093,43.027,45.542s5.256,31.806-3.676,43.068c-1.188,1.5.921,3.634,2.121,2.121,9.9-12.484,9.928-28.594,5.119-45.189s-34.971-46.094-45.794-48.436c-1.882-.407-2.687,2.485-.8,2.894"/><path class="b" d="M576.992-219.428c4.578,4.276-.533,11.222-5.655,11.348-4.241.1-9.828-1.177-13.185-3.908-1.486-1.208-3.62.9-2.122,2.122,4.669,3.8,13.993,6.552,19.768,3.984,5.66-2.518,7.936-11.351,3.315-15.667-1.41-1.317-3.536.8-2.121,2.121"/><path class="b" d="M745.2-193.788c9.521-.82,11.774,9.813,6.2,15.91a15.637,15.637,0,0,1-15.4,4.511,1.5,1.5,0,0,0-.8,2.892A18.519,18.519,0,0,0,756.4-180c3.869-8.144-1.933-17.585-11.2-16.786-1.909.164-1.926,3.166,0,3"/><path class="b" d="M716.875-165.823A137.155,137.155,0,0,0,736.7-148.99a1.516,1.516,0,0,0,2.2-.9,167.752,167.752,0,0,0,5.634-21.28c1.086-5.563,2.847-11.841,2.148-17.536A20.131,20.131,0,0,0,727-206.6c-9.132-.135-18.692,7.671-20.046,16.823-1.425,9.635,3.4,17.484,9.924,23.95A1.5,1.5,0,0,0,719-167.944c-5.5-5.454-9.52-11.362-9.223-19.51.374-10.244,11.452-18.006,21.2-15.61a16.327,16.327,0,0,1,10.929,8.735c2.507,5.027,1.875,9.885,1.008,15.237a179.035,179.035,0,0,1-6.9,28.408l2.2-.9c-7.044-4.713-13.205-10.426-19.218-16.363-1.375-1.358-3.5.763-2.121,2.121"/><path class="p" d="M735.262-184.028a8.005,8.005,0,0,0-5.787-9.723,8,8,0,0,0-9.722,5.787,8,8,0,0,0,5.786,9.722A8,8,0,0,0,735.262-184.028Z"/></g></svg>