<svg xmlns="http://www.w3.org/2000/svg" width="19.01" height="18.986" viewBox="0 0 19.01 18.986"><g transform="translate(2 2)"><g transform="translate(-20.5 -20.6)" fill="none"><path d="M20.5,32.447v3.139h3.139l9.227-9.227-3.139-3.139Zm14.769-8.49a.824.824,0,0,0,0-1.174L33.33,20.846a.824.824,0,0,0-1.174,0l-1.529,1.5,3.112,3.112Z" stroke="none"/><path d="M 23.63935089111328 35.58674621582031 L 32.86629104614258 26.35993766784668 L 29.72694969177246 23.22063636779785 L 20.5 32.44744873046875 L 20.5 35.58674621582031 L 23.63935089111328 35.58674621582031 M 33.73984909057617 25.45909690856934 L 35.26858139038086 23.95768737792969 C 35.59616088867188 23.63010787963867 35.59616088867188 23.11144638061523 35.26858139038086 22.78386688232422 L 33.33037185668945 20.84568786621094 C 33.16657638549805 20.68189811706543 32.95500946044922 20.60000228881836 32.74344635009766 20.60000228881836 C 32.53187942504883 20.60000228881836 32.32031631469727 20.68189811706543 32.15652084350586 20.84568786621094 L 30.62779998779297 22.34708786010742 L 33.73984909057617 25.45909690856934 M 24.46776962280273 37.58674621582031 L 23.63935089111328 37.58674621582031 L 20.5 37.58674621582031 L 18.5 37.58674621582031 L 18.5 35.58674621582031 L 18.5 32.44744873046875 L 18.5 31.6190071105957 L 19.08580017089844 31.03322792053223 L 28.3127498626709 21.80641746520996 L 29.72694969177246 20.39222717285156 L 29.74528121948242 20.41055870056152 L 30.75107383728027 19.42274284362793 C 31.28622245788574 18.89210891723633 31.9932975769043 18.60000801086426 32.74345016479492 18.60000801086426 C 33.49771881103516 18.60000801086426 34.20840072631836 18.89529800415039 34.74457931518555 19.43147659301758 L 36.68278121948242 21.36964797973633 C 37.78622055053711 22.47307777404785 37.78622055053711 24.26847648620605 36.68278884887695 25.37189674377441 L 36.67642211914062 25.37827682495117 L 36.66999053955078 25.38459777832031 L 35.6859016418457 26.35109901428223 L 35.69474029541016 26.35993766784668 L 34.28049087524414 27.77415657043457 L 25.05355072021484 37.00096893310547 L 24.46776962280273 37.58674621582031 Z" stroke="none" fill="#fff"/></g></g></svg>