<svg xmlns="http://www.w3.org/2000/svg" width="22.416" height="21.902" viewBox="0 0 22.416 21.902"><g transform="translate(0 0.902)"><path d="M5,10.2v9.264a1.98,1.98,0,0,0,1.887,1.973h9.607a1.924,1.924,0,0,0,1.887-1.973V10.2" transform="translate(-0.569 -1.437)" fill="none" stroke="#fff" stroke-linecap="round" stroke-linejoin="round" stroke-miterlimit="10" stroke-width="2"/><path d="M1,7.545C1,5.829,1.686,4.8,3.23,4.8H9.578" transform="translate(0 -0.669)" fill="none" stroke="#fff" stroke-linecap="round" stroke-linejoin="round" stroke-miterlimit="10" stroke-width="2"/><path d="M22.6,7.545c0-1.716-.686-2.745-2.23-2.745H9.3" transform="translate(-1.18 -0.669)" fill="none" stroke="#fff" stroke-linecap="round" stroke-linejoin="round" stroke-miterlimit="10" stroke-width="2"/><path d="M10.1,4.62c0-2.6,1.131-3.62,3.394-3.62" transform="translate(-2.347 -0.903)" fill="none" stroke="#fff" stroke-linecap="round" stroke-linejoin="round" stroke-miterlimit="10" stroke-width="2"/><path d="M16.694,4.62c0-2.6-1.131-3.62-3.394-3.62" transform="translate(-1.927 -0.903)" fill="none" stroke="#fff" stroke-linecap="round" stroke-linejoin="round" stroke-miterlimit="10" stroke-width="2"/><line y2="7.72" transform="translate(8.806 8.763)" stroke-width="2" stroke="#fff" stroke-linecap="round" stroke-linejoin="round" stroke-miterlimit="10" fill="none"/><line y2="7.72" transform="translate(12.923 8.763)" stroke-width="2" stroke="#fff" stroke-linecap="round" stroke-linejoin="round" stroke-miterlimit="10" fill="none"/></g></svg>