<svg xmlns="http://www.w3.org/2000/svg" width="21.468" height="17.138" viewBox="0 0 21.468 17.138"><g transform="translate(1 -1.915)"><path d="M10.7-27.9a6.21,6.21,0,0,0-6.58,6.5c0,4.714,6.58,8.5,6.58,8.5s6.58-3.283,6.58-8.5A6.21,6.21,0,0,0,10.7-27.9Z" transform="translate(2.186 30.818)" fill="none" stroke="#fff" stroke-width="2"/><path d="M29.123-27.221a7.291,7.291,0,0,0-3.154-.681,6.21,6.21,0,0,0-6.58,6.5c0,4.714,6.58,8.5,6.58,8.5a16.726,16.726,0,0,0,3.257-2.266c-1.72-1.55-3.528-3.767-3.528-6.239A6.105,6.105,0,0,1,29.123-27.221Z" transform="translate(-19.389 30.818)" fill="none" stroke="#fff" stroke-width="2"/></g></svg>