<svg xmlns="http://www.w3.org/2000/svg" viewBox="0 0 44.984 44.984"><defs><style>.a,.b,.c,.d{fill:none;}.b{fill-rule:evenodd;}.d{stroke:#fff;stroke-width:2px;}.e,.f{stroke:none;}.f{fill:#fff;}</style></defs><g transform="translate(-327.468 -580.53)"><path class="a" d="M22.492,0A22.493,22.493,0,1,1,0,22.492,22.492,22.492,0,0,1,22.492,0Z" transform="translate(327.468 580.53)"/><g transform="translate(338.436 593.931)"><g class="b" transform="matrix(0.995, -0.105, 0.105, 0.995, 3.676, 7.281)"><path class="e" d="M12.628,6.845c5.323-1.175,3.134-5.261-.473-6.236S3.843-.3,1.545,1.771s-1.77,5.33-.127,8.243,4.676,5.2,7.81,2.787S7.305,8.021,12.628,6.845Z"/><path class="f" d="M 7.57036304473877 2.000000953674316 C 5.477413177490234 2.000000953674316 3.769443511962891 2.457790374755859 2.884403228759766 3.255990982055664 C 2.249163627624512 3.828900337219238 1.968963623046875 4.544230461120605 2.002593994140625 5.507190704345703 C 2.038423538208008 6.533260345458984 2.438773155212402 7.751870632171631 3.160373687744141 9.031290054321289 C 4.113673210144043 10.72153091430664 5.432793617248535 11.81369018554688 6.520983695983887 11.81369018554688 C 6.999393463134766 11.81369018554688 7.486003875732422 11.61808013916016 8.008633613586426 11.21569061279297 C 8.236903190612793 11.03993034362793 8.33116340637207 10.90912055969238 8.338823318481445 10.86407089233398 C 8.361823081970215 10.72874069213867 8.287093162536621 10.3940601348877 8.227053642272949 10.12515068054199 C 8.05052375793457 9.334590911865234 7.783753395080566 8.139890670776367 8.54327392578125 6.946810722351074 C 9.362382888793945 5.660120964050293 10.92616367340088 5.173040390014648 12.19700336456299 4.892440795898438 C 13.29884910583496 4.649155616760254 13.72706508636475 4.308119773864746 13.81112098693848 4.184624671936035 C 13.79918479919434 4.102936744689941 13.70815944671631 3.841731071472168 13.36147308349609 3.498720169067383 C 12.92715358734131 3.069010734558105 12.29719352722168 2.719600677490234 11.63313293457031 2.540070533752441 C 10.3449535369873 2.191821098327637 8.902183532714844 2.000020980834961 7.570493698120117 2.000000953674316 L 7.57036304473877 2.000000953674316 M 7.570630073547363 -9.5367431640625e-07 C 9.125734329223633 2.384185791015625e-05 10.72661018371582 0.2232017517089844 12.15508365631104 0.6093807220458984 C 15.76239395141602 1.584600448608398 17.95121383666992 5.670100212097168 12.62821388244629 6.845400810241699 C 7.305203437805176 8.020700454711914 12.3631534576416 10.38711071014404 9.228754043579102 12.80040073394775 C 8.306260108947754 13.51066017150879 7.39305591583252 13.81369113922119 6.520984649658203 13.81369113922119 C 4.429965019226074 13.81369113922119 2.577811241149902 12.0695915222168 1.418343544006348 10.01380062103271 C -0.2246971130371094 7.100630760192871 -0.7529067993164062 3.843151092529297 1.544933319091797 1.770791053771973 C 2.93283748626709 0.5190773010253906 5.198665618896484 -4.00543212890625e-05 7.570630073547363 -9.5367431640625e-07 Z"/></g><g class="c" transform="translate(14.258 0) rotate(8)"><path class="e" d="M1.6,0c.855-.025,1.526.9,1.5,2.071s-.74,2.136-1.6,2.161S-.025,3.33,0,2.161.741.025,1.6,0Z"/><path class="f" d="M 1.629480600357056 -3.814697265625e-06 C 2.468214273452759 -3.814697265625e-06 3.1220383644104 0.9180493354797363 3.096182346343994 2.071245431900024 C 3.069982290267944 3.239775419235229 2.355802297592163 4.207235336303711 1.501022219657898 4.232125282287598 C 1.489805340766907 4.232451915740967 1.478596687316895 4.232614517211914 1.467443943023682 4.232614517211914 C 0.6287102699279785 4.232614517211914 -0.02511382102966309 3.314561367034912 0.0007421970367431641 2.161365270614624 C 0.02694225311279297 0.9928352832794189 0.7411222457885742 0.0253753662109375 1.595902323722839 0.0004854202270507812 C 1.607119202613831 0.0001587867736816406 1.618327856063843 -3.814697265625e-06 1.629480600357056 -3.814697265625e-06 Z"/></g><g class="d" transform="translate(8.977 0.224) rotate(-4)"><ellipse class="e" cx="1.548" cy="2.096" rx="1.548" ry="2.096"/><ellipse class="a" cx="1.548" cy="2.096" rx="0.548" ry="1.096"/></g><g class="c" transform="translate(3.946 1.941) rotate(-15)"><path class="e" d="M1.462,0A2.032,2.032,0,0,1,3.094,2.077C3.142,3.181,2.489,4.042,1.635,4A2.032,2.032,0,0,1,0,1.924C-.045.82.608-.041,1.462,0Z"/><path class="f" d="M 1.401705622673035 4.76837158203125e-07 C 1.421643376350403 4.76837158203125e-07 1.441634058952332 0.0004935264587402344 1.461802005767822 0.001491069793701172 C 2.315632104873657 0.04374122619628906 3.046591997146606 0.9731013774871826 3.094452142715454 2.077271461486816 C 3.141181468963623 3.155360221862793 2.519361019134521 4.001542091369629 1.695218443870544 4.001542091369629 C 1.675280690193176 4.001542091369629 1.655290007591248 4.001049041748047 1.635122060775757 4.000051498413086 C 0.7812919616699219 3.957801342010498 0.05033206939697266 3.028441429138184 0.002471923828125 1.92427134513855 C -0.04425740242004395 0.8461823463439941 0.5775632858276367 4.76837158203125e-07 1.401705622673035 4.76837158203125e-07 Z"/></g><g class="c" transform="matrix(0.866, -0.5, 0.5, 0.866, 0, 5.446)"><path class="e" d="M1.336,0A2,2,0,0,1,2.96,1.882c.082.975-.513,1.715-1.328,1.652A2,2,0,0,1,.008,1.656C-.074.681.521-.059,1.336,0Z"/><path class="f" d="M 1.240633368492126 4.291534423828125e-06 C 1.272069931030273 4.291534423828125e-06 1.303812503814697 0.001213312149047852 1.335963129997253 0.003670930862426758 C 2.151373147964478 0.06599092483520508 2.878653049468994 0.9068307876586914 2.960373163223267 1.881740808486938 C 3.038880586624146 2.818201780319214 2.493118524551392 3.537777423858643 1.727252840995789 3.537777423858643 C 1.695816278457642 3.537777423858643 1.664073705673218 3.536568403244019 1.631923079490662 3.53411078453064 C 0.8165130615234375 3.471790790557861 0.0892331600189209 2.630950927734375 0.007513046264648438 1.656040906906128 C -0.07099437713623047 0.7195799350738525 0.4747676849365234 4.291534423828125e-06 1.240633368492126 4.291534423828125e-06 Z"/></g><g class="c" transform="translate(19.046 0.956) rotate(9)"><path class="e" d="M2.533.006a2,2,0,0,1,2.1,2.337,2.945,2.945,0,0,1-2.524,2.69A2,2,0,0,1,.01,2.7,2.945,2.945,0,0,1,2.533.006Z"/><path class="f" d="M 2.635838985443115 2.008826017379761 C 2.392360687255859 2.069544792175293 2.039188385009766 2.428784847259521 2.002733707427979 2.863626003265381 C 1.996361017227173 2.939616680145264 2.001906394958496 2.994207859039307 2.009549856185913 3.030687808990479 C 2.253021478652954 2.970004081726074 2.606196880340576 2.610755681991577 2.642653942108154 2.175886154174805 C 2.649025917053223 2.099900484085083 2.643481969833374 2.045307397842407 2.635838985443115 2.008826017379761 M 2.697542190551758 9.5367431640625e-07 C 3.890424728393555 9.5367431640625e-07 4.746991157531738 1.01499080657959 4.635663986206055 2.342966079711914 C 4.519293785095215 3.731106042861938 3.389403820037842 4.935565948486328 2.111993789672852 5.033195972442627 C 2.056636810302734 5.037427425384521 2.001889944076538 5.039511203765869 1.947854280471802 5.039511203765869 C 0.7549629211425781 5.039511203765869 -0.1016035079956055 4.024521350860596 0.009723663330078125 2.696546077728271 C 0.126093864440918 1.308406114578247 1.255983829498291 0.1039462089538574 2.533403873443604 0.006316184997558594 C 2.588760375976562 0.002084732055664062 2.64350700378418 9.5367431640625e-07 2.697542190551758 9.5367431640625e-07 Z"/></g></g></g></svg>