<svg xmlns="http://www.w3.org/2000/svg" viewBox="0 0 114.759 126.201"><defs><style>.a{fill:#fff;}.b,.c{fill:none;stroke:#292929;stroke-linecap:round;}.b{stroke-width:5px;}.c{stroke-linejoin:round;stroke-width:3px;fill-rule:evenodd;}</style></defs><g transform="translate(-618.192 -961.316)"><ellipse class="a" cx="57.379" cy="57.379" rx="57.379" ry="57.379" transform="translate(618.192 961.316)"/><path class="b" d="M-12667.5-9682.8a35.545,35.545,0,0,1,20.722-26.258c18.646-8.483.382-10.966-6.862-25.711s1.563-37.806,25.646-37.806,29.965,24.888,24.31,37.806-20.487,16.737-11.173,22.14,22.511,10.883,24.32,29.829" transform="translate(13304 10757.159)"/><path class="c" d="M24.762,2.174a7.224,7.224,0,0,0-10.283,0L13.468,3.186,12.457,2.174A7.271,7.271,0,0,0,2.174,12.457L13.468,23.751,24.762,12.457a7.224,7.224,0,0,0,0-10.283" transform="translate(662.031 1062.267)"/></g></svg>