<svg xmlns="http://www.w3.org/2000/svg" width="237.964" height="29.832" viewBox="0 0 237.964 29.832"><g transform="translate(0 0)"><g transform="translate(3.652 3.361)" fill="#fff" stroke="#707070" stroke-width="1"><ellipse cx="9.129" cy="9.129" rx="9.129" ry="9.129" stroke="none"/><ellipse cx="9.129" cy="9.129" rx="8.629" ry="8.629" fill="none"/></g><path d="M9.5-2.438v-10.4l9.026,5.2ZM25.538-8.312c0-.223-.014-.441-.034-.656A12.767,12.767,0,0,0,12.77-20.833,12.767,12.767,0,0,0,.03-8.9C.011-8.7,0-8.511,0-8.312c0,.047,0,.093,0,.14s0,.07,0,.106A12.7,12.7,0,0,0,2.36-.675C6.164,5.389,13.234,9,13.234,9s9.513-4.9,11.81-13.543a12.808,12.808,0,0,0,.494-3.521c0-.033,0-.066,0-.1s0-.1,0-.146" transform="translate(0 20.833)" fill="#fd4646"/><path d="M6.963-7.266l5.065-9.085h1.561L7.625-5.975V0H6.289V-6.053L.371-16.352H1.932Zm20.765.427a7.426,7.426,0,0,1-1.735,5.121A5.915,5.915,0,0,1,21.338.236,5.794,5.794,0,0,1,16.75-1.718a7.487,7.487,0,0,1-1.713-5.121V-9.5a7.529,7.529,0,0,1,1.707-5.121,5.762,5.762,0,0,1,4.582-1.965,5.916,5.916,0,0,1,4.661,1.965A7.437,7.437,0,0,1,27.728-9.5ZM26.392-9.523a6.466,6.466,0,0,0-1.342-4.268,4.574,4.574,0,0,0-3.723-1.617,4.41,4.41,0,0,0-3.639,1.617,6.6,6.6,0,0,0-1.3,4.268v2.684a6.615,6.615,0,0,0,1.308,4.29A4.426,4.426,0,0,0,21.338-.932a4.561,4.561,0,0,0,3.723-1.612,6.534,6.534,0,0,0,1.331-4.3ZM42.7-16.352V-5.267a5.114,5.114,0,0,1-1.634,4.088A6.278,6.278,0,0,1,36.8.236a6.1,6.1,0,0,1-4.2-1.421A5.162,5.162,0,0,1,31-5.267V-16.352h1.348V-5.267a4.174,4.174,0,0,0,1.235,3.229A4.565,4.565,0,0,0,36.8-.9a4.752,4.752,0,0,0,3.291-1.134,4.112,4.112,0,0,0,1.269-3.234V-16.352Zm14.959,1.146H52.031V0H50.683V-15.206H45.057v-1.146h12.6Zm14.094-1.146V-5.267a5.114,5.114,0,0,1-1.634,4.088A6.278,6.278,0,0,1,65.855.236a6.1,6.1,0,0,1-4.2-1.421,5.162,5.162,0,0,1-1.606-4.082V-16.352H61.4V-5.267a4.174,4.174,0,0,0,1.235,3.229A4.565,4.565,0,0,0,65.855-.9a4.752,4.752,0,0,0,3.291-1.134,4.112,4.112,0,0,0,1.269-3.234V-16.352ZM75.75,0V-16.352h4.773a6.466,6.466,0,0,1,3.97,1.073,3.788,3.788,0,0,1,1.421,3.229A3.5,3.5,0,0,1,85.2-9.86a3.66,3.66,0,0,1-1.937,1.292,3.943,3.943,0,0,1,2.426,1.4,4,4,0,0,1,.932,2.617A4.131,4.131,0,0,1,85.2-1.179,5.764,5.764,0,0,1,81.4,0Zm1.336-7.884v6.75H81.4a4.2,4.2,0,0,0,2.841-.893,3.126,3.126,0,0,0,1.033-2.5,3.28,3.28,0,0,0-.938-2.415,3.675,3.675,0,0,0-2.723-.943Zm0-1.134h3.762A4.282,4.282,0,0,0,83.594-9.8a2.771,2.771,0,0,0,.971-2.3,2.736,2.736,0,0,0-1.033-2.33,4.934,4.934,0,0,0-3.01-.781H77.086Zm22.124,1.1H91.337v6.783h9.018V0H90V-16.352h10.3v1.146H91.337v6.143H99.21Zm15.667-5.705h-5.009V0H106.5V-13.623h-4.941v-2.729h13.319Zm7.974,7.637h-2.684V0H116.8V-16.352h6.076a6.868,6.868,0,0,1,4.47,1.292,4.457,4.457,0,0,1,1.572,3.65,5.031,5.031,0,0,1-.724,2.791,4.94,4.94,0,0,1-2.2,1.78l3.538,6.682V0h-3.616Zm-2.684-2.729h2.718a2.783,2.783,0,0,0,1.965-.646,2.308,2.308,0,0,0,.7-1.78,2.471,2.471,0,0,0-.657-1.819,2.73,2.73,0,0,0-2.016-.663h-2.707Zm20.541,5.346H134.8L133.676,0h-3.583l6.087-16.352H139.3L145.423,0h-3.583Zm-5-2.729H139.8l-2.055-6.121Zm23.842.651A5.786,5.786,0,0,1,157.6-1.292,6.843,6.843,0,0,1,152.97.225a6.153,6.153,0,0,1-4.947-2.117,8.68,8.68,0,0,1-1.8-5.812v-1a9.8,9.8,0,0,1,.831-4.155,6.228,6.228,0,0,1,2.375-2.757,6.654,6.654,0,0,1,3.588-.96,6.666,6.666,0,0,1,4.56,1.516,6.218,6.218,0,0,1,2,4.256H156.2a3.415,3.415,0,0,0-.882-2.3,3.265,3.265,0,0,0-2.308-.713,2.863,2.863,0,0,0-2.521,1.207,6.766,6.766,0,0,0-.859,3.745v1.235a7.241,7.241,0,0,0,.8,3.875,2.81,2.81,0,0,0,2.532,1.224,3.326,3.326,0,0,0,2.33-.713,3.221,3.221,0,0,0,.882-2.207Zm7.333-1.112-1.752,1.887V0h-3.369V-16.352h3.369v7.412l1.482-2.033,4.167-5.379h4.144L169.12-9.085,175.094,0h-4.009ZM186.2-7.086h-6.469v4.38h7.592V0H176.363V-16.352H187.3v2.729h-7.569v3.9H186.2Zm9.153,1.1H192.67V0H189.3V-16.352h6.076a6.868,6.868,0,0,1,4.47,1.292,4.457,4.457,0,0,1,1.572,3.65,5.031,5.031,0,0,1-.724,2.791,4.94,4.94,0,0,1-2.2,1.78l3.538,6.682V0H198.42ZM192.67-8.715h2.718a2.783,2.783,0,0,0,1.965-.646,2.308,2.308,0,0,0,.7-1.78,2.471,2.471,0,0,0-.657-1.819,2.73,2.73,0,0,0-2.016-.663H192.67Z" transform="translate(35.928 23.452)" fill="#fff"/></g></svg>