<?xml version="1.0" encoding="UTF-8" standalone="no"?><!DOCTYPE svg PUBLIC "-//W3C//DTD SVG 1.1//EN" "http://www.w3.org/Graphics/SVG/1.1/DTD/svg11.dtd"><svg width="100%" height="100%" viewBox="0 0 277 30" version="1.1" xmlns="http://www.w3.org/2000/svg" xmlns:xlink="http://www.w3.org/1999/xlink" xml:space="preserve" xmlns:serif="http://www.serif.com/" style="fill-rule:evenodd;clip-rule:evenodd;stroke-linejoin:round;stroke-miterlimit:2;"><rect id="Artboard1" x="0" y="0" width="276.322" height="29.394" style="fill:none;"/><clipPath id="_clip1"><rect x="0" y="0" width="276.322" height="29.394"/></clipPath><g clip-path="url(#_clip1)"><g><path d="M9.362,18.125l0,-10.244l8.894,5.122l-8.894,5.122Zm15.8,-5.787c0,-0.221 -0.014,-0.435 -0.035,-0.646c-0.463,-6.548 -5.978,-11.69 -12.543,-11.692c-6.592,0.001 -12.122,5.183 -12.551,11.761c-0.018,0.189 -0.029,0.381 -0.029,0.577l0,0.243c-0.003,2.61 0.81,5.157 2.325,7.282c3.749,5.974 10.713,9.531 10.713,9.531c0,0 9.373,-4.826 11.635,-13.344c0.324,-1.128 0.488,-2.295 0.488,-3.468l0,-0.244" style="fill:#fff;fill-rule:nonzero;"/><path d="M42.394,14.657l6.309,-12.136l3.619,0l-8.334,15.157l0,9.015l-3.187,0l0,-9.015l-8.334,-15.157l3.652,0l6.275,12.136Zm10.675,2.889c-0.026,-1.642 0.329,-3.267 1.038,-4.748c0.632,-1.338 1.635,-2.468 2.889,-3.254c1.271,-0.774 2.737,-1.172 4.225,-1.146c2.257,-0.081 4.435,0.852 5.935,2.54c1.578,1.886 2.387,4.299 2.265,6.755l0,0.216c0.028,1.625 -0.314,3.234 -1,4.707c-0.624,1.338 -1.623,2.466 -2.876,3.247c-1.291,0.787 -2.78,1.191 -4.292,1.162c-2.251,0.078 -4.424,-0.854 -5.918,-2.54c-1.575,-1.875 -2.385,-4.278 -2.266,-6.724l0,-0.215Zm3.088,0.365c-0.085,1.709 0.402,3.399 1.386,4.8c0.863,1.176 2.252,1.854 3.71,1.81c1.466,0.046 2.863,-0.643 3.719,-1.834c1.004,-1.518 1.487,-3.322 1.378,-5.138c0.08,-1.708 -0.413,-3.394 -1.4,-4.79c-0.863,-1.189 -2.261,-1.877 -3.729,-1.837c-1.445,-0.035 -2.818,0.643 -3.669,1.81c-1.022,1.525 -1.513,3.347 -1.395,5.179Zm28.206,7.006c-1.34,1.467 -3.28,2.244 -5.263,2.108c-1.633,0.113 -3.235,-0.497 -4.379,-1.668c-1.098,-1.402 -1.639,-3.162 -1.519,-4.939l0,-11.688l3.071,0l0,11.6c0,2.723 1.107,4.084 3.32,4.084c2.347,0 3.907,-0.874 4.682,-2.623l0,-13.061l3.071,0l0,17.963l-2.922,0l-0.061,-1.776Zm24.836,-19.772l-7.77,0l0,21.548l-3.171,0l0,-21.549l-7.753,0l0,-2.623l18.693,0l0.001,2.624Zm12.617,19.772c-1.34,1.467 -3.28,2.244 -5.263,2.108c-1.631,0.112 -3.232,-0.499 -4.375,-1.668c-1.098,-1.402 -1.639,-3.162 -1.519,-4.939l0,-11.688l3.071,0l0,11.6c0,2.723 1.107,4.084 3.32,4.084c2.347,0 3.907,-0.874 4.682,-2.623l0,-13.061l3.071,0l0,17.963l-2.922,0l-0.065,-1.776Zm22.86,-7.006c0.116,2.353 -0.55,4.68 -1.893,6.616c-1.173,1.622 -3.079,2.56 -5.08,2.5c-2.04,0.104 -4.008,-0.796 -5.262,-2.409l-0.149,2.075l-2.822,0l0,-25.5l3.071,0l0,9.513c1.244,-1.541 3.152,-2.399 5.13,-2.308c2.015,-0.079 3.943,0.85 5.138,2.474c1.346,1.993 2.002,4.372 1.867,6.773l0,0.266Zm-3.071,-0.349c0.104,-1.702 -0.32,-3.395 -1.212,-4.848c-0.79,-1.131 -2.109,-1.778 -3.486,-1.71c-1.901,-0.077 -3.656,1.057 -4.366,2.822l0,7.767c0.744,1.753 2.496,2.877 4.4,2.822c1.361,0.055 2.66,-0.591 3.437,-1.71c0.925,-1.548 1.353,-3.344 1.227,-5.143Zm14.394,9.463c-2.231,0.082 -4.395,-0.791 -5.943,-2.4c-1.584,-1.749 -2.409,-4.058 -2.292,-6.415l0,-0.564c-0.029,-1.648 0.32,-3.281 1.021,-4.773c0.628,-1.34 1.617,-2.479 2.856,-3.288c1.181,-0.779 2.566,-1.192 3.98,-1.187c2.073,-0.112 4.085,0.74 5.445,2.308c1.292,1.538 1.938,3.74 1.938,6.607l0,1.28l-12.169,0c-0.028,1.572 0.525,3.1 1.553,4.29c0.956,1.075 2.339,1.674 3.777,1.635c0.962,0.031 1.914,-0.199 2.756,-0.664c0.765,-0.455 1.436,-1.053 1.975,-1.761l1.876,1.462c-1.464,2.291 -4.058,3.62 -6.773,3.47Zm-0.378,-16.103c-1.187,-0.022 -2.326,0.472 -3.121,1.353c-0.911,1.065 -1.458,2.395 -1.561,3.793l9,0l0,-0.232c-0.002,-1.317 -0.449,-2.596 -1.268,-3.628c-0.771,-0.865 -1.892,-1.338 -3.05,-1.286Zm28.123,-5.777l-7.77,0l0,21.548l-3.175,0l0,-21.549l-7.753,0l0,-2.623l18.694,0l0.004,2.624Zm10.542,6.342c-0.5,-0.08 -1.005,-0.119 -1.511,-0.116c-1.78,-0.144 -3.455,0.907 -4.1,2.573l0,12.749l-3.076,0l0,-17.963l2.988,0l0.05,2.075c0.874,-1.529 2.524,-2.456 4.284,-2.407c0.465,-0.025 0.93,0.055 1.361,0.232l0.004,2.857Zm13.244,15.206c-0.239,-0.606 -0.384,-1.244 -0.432,-1.893c-1.311,1.432 -3.171,2.242 -5.113,2.225c-1.589,0.064 -3.145,-0.471 -4.358,-1.5c-1.11,-0.949 -1.735,-2.35 -1.7,-3.81c-0.074,-1.719 0.731,-3.362 2.133,-4.358c1.787,-1.136 3.887,-1.679 6,-1.552l2.988,0l0,-1.412c0.047,-0.951 -0.302,-1.88 -0.963,-2.565c-0.779,-0.686 -1.803,-1.031 -2.839,-0.955c-0.985,-0.034 -1.954,0.258 -2.756,0.83c-0.681,0.443 -1.098,1.197 -1.112,2.009l-3.087,0c0.018,-0.949 0.355,-1.865 0.955,-2.6c0.681,-0.87 1.572,-1.553 2.59,-1.984c1.133,-0.496 2.358,-0.744 3.594,-0.73c1.757,-0.104 3.492,0.45 4.864,1.552c1.199,1.092 1.866,2.653 1.827,4.275l0,8.268c-0.053,1.341 0.162,2.678 0.631,3.935l0,0.265l-3.222,0Zm-5.1,-2.341c0.963,0 1.909,-0.258 2.739,-0.747c0.81,-0.44 1.465,-1.118 1.879,-1.942l0,-3.686l-2.407,0c-3.763,0 -5.645,1.1 -5.645,3.3c-0.044,0.86 0.312,1.694 0.963,2.258c0.698,0.563 1.578,0.854 2.474,0.817l-0.003,0Zm19.706,0.166c1.045,0.017 2.063,-0.338 2.872,-1c0.784,-0.6 1.279,-1.506 1.361,-2.49l2.905,0c-0.066,1.06 -0.435,2.08 -1.062,2.938c-0.672,0.947 -1.569,1.713 -2.611,2.227c-1.071,0.549 -2.258,0.833 -3.461,0.83c-2.212,0.098 -4.356,-0.801 -5.835,-2.449c-1.531,-1.885 -2.304,-4.275 -2.167,-6.7l0,-0.511c-0.031,-1.609 0.298,-3.204 0.962,-4.67c0.592,-1.304 1.553,-2.407 2.764,-3.171c1.283,-0.773 2.76,-1.163 4.257,-1.124c1.843,-0.062 3.642,0.586 5.022,1.81c1.332,1.202 2.105,2.906 2.133,4.7l-2.903,0c-0.055,-1.089 -0.528,-2.115 -1.32,-2.864c-0.789,-0.746 -1.844,-1.15 -2.93,-1.121c-1.411,-0.069 -2.769,0.562 -3.627,1.685c-0.948,1.44 -1.4,3.152 -1.287,4.873l0,0.581c-0.107,1.69 0.342,3.37 1.278,4.781c0.867,1.124 2.235,1.751 3.652,1.675l-0.003,0Zm15.609,-6.142l-1.924,2.008l0,6.309l-3.073,0l0,-25.5l3.073,0l0,15.423l1.644,-1.976l5.595,-5.91l3.735,0l-6.989,7.5l7.8,10.463l-3.6,0l-6.261,-8.317Zm19.34,8.649c-2.231,0.082 -4.395,-0.791 -5.943,-2.4c-1.584,-1.749 -2.408,-4.058 -2.291,-6.415l0,-0.564c-0.029,-1.648 0.32,-3.281 1.021,-4.773c0.628,-1.339 1.617,-2.478 2.855,-3.287c1.179,-0.778 2.563,-1.191 3.976,-1.187c2.073,-0.112 4.085,0.74 5.445,2.308c1.295,1.539 1.942,3.741 1.942,6.607l0,1.279l-12.169,0c-0.028,1.572 0.526,3.101 1.554,4.29c0.956,1.075 2.339,1.674 3.777,1.635c0.962,0.031 1.914,-0.199 2.756,-0.664c0.766,-0.454 1.437,-1.052 1.976,-1.76l1.876,1.461c-1.464,2.292 -4.059,3.621 -6.775,3.47Zm-0.382,-16.1c-1.187,-0.022 -2.326,0.472 -3.121,1.353c-0.911,1.065 -1.458,2.393 -1.561,3.79l9,0l0,-0.232c-0.001,-1.316 -0.445,-2.595 -1.262,-3.627c-0.772,-0.867 -1.896,-1.34 -3.055,-1.287l-0.001,0.003Zm19.623,0.564c-0.5,-0.08 -1.005,-0.119 -1.511,-0.116c-1.78,-0.144 -3.455,0.907 -4.1,2.573l0,12.747l-3.071,0l0,-17.963l2.988,0l0.05,2.075c0.874,-1.528 2.523,-2.455 4.283,-2.407c0.465,-0.025 0.93,0.055 1.361,0.232l0,2.859Z" style="fill:#fff;fill-rule:nonzero;"/></g></g></svg>