<?xml version="1.0" encoding="UTF-8" standalone="no"?><!DOCTYPE svg PUBLIC "-//W3C//DTD SVG 1.1//EN" "http://www.w3.org/Graphics/SVG/1.1/DTD/svg11.dtd"><svg width="100%" height="100%" viewBox="0 0 94 30" version="1.1" xmlns="http://www.w3.org/2000/svg" xmlns:xlink="http://www.w3.org/1999/xlink" xml:space="preserve" xmlns:serif="http://www.serif.com/" style="fill-rule:evenodd;clip-rule:evenodd;stroke-linejoin:round;stroke-miterlimit:2;"><rect id="Artboard1" x="0" y="0" width="93.424" height="29.394" style="fill:none;"/><g><path d="M9.362,18.125l0,-10.244l8.894,5.122l-8.894,5.122Zm15.8,-5.787c0,-0.221 -0.014,-0.435 -0.035,-0.646c-0.463,-6.548 -5.978,-11.69 -12.543,-11.692c-6.592,0.001 -12.122,5.183 -12.551,11.761c-0.018,0.189 -0.029,0.381 -0.029,0.577l0,0.243c-0.003,2.61 0.81,5.157 2.325,7.282c3.749,5.974 10.713,9.531 10.713,9.531c0,0 9.373,-4.826 11.635,-13.344c0.324,-1.128 0.488,-2.295 0.488,-3.468l0,-0.244" style="fill:#fff;fill-rule:nonzero;"/><g><path d="M41.865,14.437l5.924,-10.057l3.399,0l-7.827,12.561l0,7.471l-2.993,0l0,-7.471l-7.826,-12.561l3.43,0l5.893,10.057Z" style="fill:#fff;fill-rule:nonzero;"/><path d="M70.067,6.554l-7.296,0l0,17.858l-2.978,0l0,-17.858l-7.28,0l0,-2.174l17.554,0l0,2.174Z" style="fill:#fff;fill-rule:nonzero;"/><path d="M89.367,6.554l-7.296,0l0,17.858l-2.978,0l0,-17.858l-7.28,0l0,-2.174l17.554,0l0,2.174Z" style="fill:#fff;fill-rule:nonzero;"/></g></g></svg>