<svg xmlns="http://www.w3.org/2000/svg" width="797.777" height="379.639" viewBox="0 0 797.777 379.639"><g transform="translate(0 -0.361)"><rect width="797.777" height="379.639" rx="15" transform="translate(0 0.361)" fill="#fff" opacity="0"/><g transform="translate(25.001 82.348)"><g transform="translate(7.053 234.549)"><g transform="translate(-0.166)"><text transform="translate(21 13)" fill="#fff" stroke="rgba(0,0,0,0)" stroke-width="1" font-size="14" font-family="Roboto-Regular, Roboto"><tspan x="-25.652" y="0">Comedy</tspan></text></g><g transform="translate(108.835)"><text transform="translate(21 13)" fill="#fff" stroke="rgba(0,0,0,0)" stroke-width="1" font-size="14" font-family="Roboto-Bold, Roboto" font-weight="700"><tspan x="-44.755" y="0">Entertainment</tspan></text></g><g transform="translate(225.835)"><text transform="translate(-36 13)" fill="#fff" stroke="rgba(0,0,0,0)" stroke-width="1" font-size="14" font-family="Roboto-Regular, Roboto"><tspan x="0" y="0">Film &amp; Animation</tspan></text></g><g transform="translate(555.834)"><text transform="translate(0 13)" fill="#fff" stroke="rgba(0,0,0,0)" stroke-width="1" font-size="14" font-family="Roboto-Regular, Roboto"><tspan x="0" y="0">News &amp; Politics</tspan></text></g><g transform="translate(327.833)"><text transform="translate(0 13)" fill="#fff" stroke="rgba(0,0,0,0)" stroke-width="1" font-size="14" font-family="Roboto-Regular, Roboto"><tspan x="0" y="0">Howto &amp; Style</tspan></text></g><g transform="translate(700.835)"><text transform="translate(0 13)" fill="#fff" stroke="rgba(0,0,0,0)" stroke-width="1" font-size="14" font-family="Roboto-Regular, Roboto"><tspan x="0" y="0">Sports</tspan></text></g><g transform="translate(461.834)"><text transform="translate(0 13)" fill="#fff" stroke="rgba(0,0,0,0)" stroke-width="1" font-size="14" font-family="Roboto-Regular, Roboto"><tspan x="0" y="0">Music</tspan></text></g></g></g><rect width="5" height="30" rx="2.5" transform="translate(41.889 271.361)" fill="red"/><rect width="5" height="193" rx="2.5" transform="translate(159.889 108.361)" fill="red"/><rect width="5" height="146" rx="2.5" transform="translate(278.889 155.361)" fill="red"/><rect width="5" height="89" rx="2.5" transform="translate(396.889 212.361)" fill="red"/><rect width="5" height="98" rx="2.5" transform="translate(514.888 203.361)" fill="red"/><rect width="5" height="179" rx="2.5" transform="translate(633.889 122.361)" fill="red"/><rect width="5" height="141" rx="2.5" transform="translate(751.889 160.361)" fill="red"/></g></svg>