<svg xmlns="http://www.w3.org/2000/svg" width="594.889" height="379.639" viewBox="0 0 594.889 379.639"><g transform="translate(-589 -1113)"><rect width="594.889" height="379.639" rx="15" transform="translate(589 1113)" fill="#fff" opacity="0"/><g transform="translate(757.705 658.255)"><path d="M-129.389,580c-2.2-.824-2.818-1.631-2.3-3.007.242-.637.708-1.159,1.034-1.159a13,13,0,0,1,3.177,1.67,27.154,27.154,0,0,0,3.861,2.133l1.277.464-1.572.034c-.864.019-2.132.116-2.818.215a6.471,6.471,0,0,1-2.665-.35Zm-5-4.23a2.234,2.234,0,0,0-1.536-.174c-.542.172-.96-.084-1.361-.833a3.077,3.077,0,0,0-1.268-1.319c-.87-.3-2.693-3.253-3.708-6.007a5.161,5.161,0,0,0-2.02-2.818c-1.452-.826-1.556-1.2-.432-1.557,1.286-.408,1.525-2.675.443-4.195a2.678,2.678,0,0,1-.633-1.983c.184-.478-.323-1.318-1.551-2.569-1.549-1.578-1.836-2.152-1.9-3.815a5.756,5.756,0,0,0-.583-2.561c-.347-.418-.418-1.919-.23-4.887a27.06,27.06,0,0,0-.475-7.969c-.831-4.109-1.256-11.765-1.04-18.75a18.664,18.664,0,0,0-.429-4.547c-.687-2.46-3.848-5.566-7.755-7.62-2.795-1.468-3.187-1.845-4.28-4.1a30.334,30.334,0,0,0-2.81-4.537,15.183,15.183,0,0,1-2.135-3.685c-.922-2.849-2.548-5.711-3.657-6.437a4.468,4.468,0,0,1-1.5-2.233c-.376-1.362-.277-1.742.9-3.453,1.277-1.855,1.292-1.931.429-2.157-2.12-.554-1.228-3.388,2.577-8.189,2.529-3.191,3.27-5.622,2.569-8.431-.267-1.07-.506-2.19-.531-2.488s-.215-.542-.422-.542-.167-.391.089-.869c.394-.736.295-.947-.652-1.378-1.38-.629-3.465-.007-3.473,1.036-.01,1.251-.56,1.343-2.374.4a9.211,9.211,0,0,0-2.242-.921,7.81,7.81,0,0,1-2.263-1.539c-.983-.846-2.031-1.732-2.329-1.968a2.052,2.052,0,0,1-.542-1.428,2.783,2.783,0,0,0-.851-1.769,6.278,6.278,0,0,1-1.347-2.275c-.359-1.088-.628-1.374-.97-1.031-.714.714-1.772.579-4.338-.556a9.038,9.038,0,0,1-3.3-2.391,7.723,7.723,0,0,0-2.263-2.03c-1.174-.607-1.468-.6-3.179.051l-1.885.72-5.783-2.8c-3.557-1.724-6.318-3.368-7.173-4.272-1.326-1.4-1.369-1.554-.928-3.292.4-1.592.336-2.085-.543-3.9a19.493,19.493,0,0,0-2.687-3.9c-.924-1-1.576-1.993-1.447-2.2s-.523-1.607-1.447-3.11a13.886,13.886,0,0,1-1.975-4.874c-.236-1.715-.511-2.24-1.381-2.637-.923-.42-1.181-.367-1.709.355-.744,1.016-.532,2.089,1.112,5.644a21.62,21.62,0,0,1,1.535,4.759,14.812,14.812,0,0,0,1.154,3.768c1.087,2.131.385,2.094-1.329-.071-1.011-1.277-1.284-1.977-1.083-2.778.215-.855,0-1.267-1.048-2.044-1.594-1.179-1.931-1.939-1.346-3.033.341-.638.185-1.338-.682-3.049-.881-1.738-1.065-2.58-.847-3.87a4.2,4.2,0,0,0-2.354-4.75,2.267,2.267,0,0,1-1.577-2.12c-.147-.868-.428-2.21-.625-2.983-.2-.8-.19-1.509.035-1.648s.075-.728-.314-1.322a1.817,1.817,0,0,1-.206-2.177,2.184,2.184,0,0,0,.231-1.535c-.148-.24.221-.957.821-1.593a11.018,11.018,0,0,0,1.775-2.82,16.812,16.812,0,0,1,2.577-3.768,20.075,20.075,0,0,0,2.933-4.507c.794-1.834,1.259-2.4,1.967-2.409.51,0,.9.237.867.535-.138,1.242.844.859,1.947-.759.65-.954,1-1.8.78-1.879a.871.871,0,0,1-.4-.8,7.586,7.586,0,0,0-1.994-2.591c-1.819-1.768-1.936-2-1.331-2.671a1.121,1.121,0,0,0,.221-1.523c-.574-1.026.332-3.325,1.315-3.334.406,0,.522-.142.273-.325-.559-.411-.812-1.344-.734-2.7.125-2.171-.35-3.079-1.964-3.753a16.112,16.112,0,0,1-2.952-1.706,5.012,5.012,0,0,0-2.123-1.044,33.34,33.34,0,0,1-4.188-.877c-3.037-.775-3.572-.806-4.624-.265-2.18,1.122-4.49,1.579-5.432,1.075-.706-.378-1.477-.145-4.165,1.261a27.477,27.477,0,0,1-4.816,2.052,18.61,18.61,0,0,0-3.549,1.351c-3.17,1.6-7.71,3.207-8.966,3.179-.811-.018-.263-.374,1.894-1.229,3.665-1.453,7.432-3.346,7.78-3.91.429-.694-.5-.943-1.621-.434a2.177,2.177,0,0,1-2.282-.158l-1.222-.641,1.33-.688c1.5-.777,1.976-1.657,1.631-3.033-.334-1.333,1.51-2.312,5.483-2.911a11.909,11.909,0,0,0,4.851-1.6c1.927-1.312,1.6-2.3-.482-1.443a4.241,4.241,0,0,1-3.156.02c-1.77-.477-1.833-.545-1.041-1.124a9.164,9.164,0,0,1,5.865-1.247,4.552,4.552,0,0,0,3.03-.437l1.384-.716-.911-.97a4.254,4.254,0,0,1-.911-1.224c0-.4,2.61-1.207,3.915-1.207a16.384,16.384,0,0,0,3.968-1.048,46.458,46.458,0,0,1,7.85-1.748c4.519-.625,5.476-.633,8.865-.071,2.089.346,4.969.76,6.4.918a44.441,44.441,0,0,1,5.627,1.118,18.054,18.054,0,0,0,10.7-.055,14.184,14.184,0,0,1,4.283-.626,2.541,2.541,0,0,0,1.7-.212,1.991,1.991,0,0,1,2.134.178,5.7,5.7,0,0,0,3.364.4,10.253,10.253,0,0,1,4.8.665,17.755,17.755,0,0,0,3.659.911c.939,0,.942.016.122.619-.8.592-.806.633-.051.926a10.99,10.99,0,0,0,3.353.038c2.545-.266,2.567-.259,3.277,1.114l.715,1.382.927-1.163a6.748,6.748,0,0,1,2.978-1.78,5.4,5.4,0,0,1,4.11.014,9.663,9.663,0,0,0,3.905.364,3.524,3.524,0,0,1,3.05.591c1.187.845,1.22.846,2.273.03a9.342,9.342,0,0,1,2.687-1.279c2.131-.594,2.854-1.859,1.574-2.755-.9-.634-.865-.682,1.513-1.849,1.774-.87,2.573-1.068,2.919-.722s.342.726-.013,1.39c-.605,1.131.148,2.84,1.092,2.478a2.025,2.025,0,0,1,1.251.007c.548.21.539.388-.064,1.309-1.667,2.544,2.07,1.823,4.6-.887a3.722,3.722,0,0,1,4.116-.863c.965.37.874.673-.723,2.425-1.9,2.087-2.878,2.514-5.737,2.514a9.821,9.821,0,0,0-3.774.693,2.3,2.3,0,0,1-2.4.211c-1.547-.705-2.086-.118-.976,1.063l.947,1.008-1.89.536a19.258,19.258,0,0,1-3.841.6c-1.556.051-1.951.219-1.954.835,0,.526-.759,1.08-2.384,1.745-5.267,2.153-9.734,6.034-8.117,7.052a4.133,4.133,0,0,1,1.069,1.527,2.4,2.4,0,0,0,1.725,1.422,22.178,22.178,0,0,1,3.808,1.523,23.7,23.7,0,0,0,3.9,1.564c1.969.429,1.987.474,1.069,2.8-.785,1.991-.8,2.275-.192,3.451.364.7.9,1.275,1.193,1.266,1.421-.041,2.753-1.352,3.58-3.524.789-2.07,1.148-2.456,3.412-3.665,3.341-1.785,4.731-3.543,4.361-5.516-.241-1.286-.116-1.587.985-2.371a7.61,7.61,0,0,0,2.04-2.626c.958-2.125,2.5-2.862,5.095-2.437,2.3.376,5.026,1.838,5.355,2.875a2.576,2.576,0,0,1-.249,1.7c-.412.77-.334,1.1.466,1.947l.961,1.023,1.569-.813a26.828,26.828,0,0,0,3.074-1.939l1.5-1.126.354.956a2.694,2.694,0,0,1,.123,1.557,2.074,2.074,0,0,0,.219,1.443,1.629,1.629,0,0,1,.057,1.544c-.275.491-.091,1.236.607,2.464,1,1.76,1,1.761.122,2.376-1.155.809-.414,1.667.854.989A3.15,3.15,0,0,1-110.8,368q1.971,1.784-3.266,4.253c-3.794,1.785-5.484,2.138-10.436,2.182-3.656.032-4.14.149-7.7,1.853a15.246,15.246,0,0,0-3.793,2.2c0,.895.657.817,3.18-.377a13.027,13.027,0,0,1,4.314-1.265c1.558,0,1.615.048,1.129.957a6.409,6.409,0,0,1-1.351,1.637c-.725.587-.768.835-.314,1.831.681,1.494,2.458,2.213,4.585,1.854l1.68-.284-1.292.891a8.835,8.835,0,0,1-2.6,1.174,17.7,17.7,0,0,0-3.288,1.28,4.191,4.191,0,0,1-2.513.667c-.686-.424.038-1.06,2.267-1.992,1.983-.828,1.666-1.708-.471-1.308a44.353,44.353,0,0,0-6,2.259c-3.849,1.7-4.521,2.143-4.745,3.163-.275,1.254-1.215,1.847-4.519,2.853a8.479,8.479,0,0,0-3.035,1.722,17.493,17.493,0,0,1-2.617,2.084,4.289,4.289,0,0,0-1.754,2.024c-.231.978-.285,1-.575.248-.542-1.412-1.36-.032-1.407,2.375-.048,2.466-1.3,4.148-4.04,5.437-2.811,1.321-6.811,4.442-7.621,5.947-.716,1.329-.745,1.846-.3,5.261.411,3.186.387,3.985-.155,5.032-.4.782-.876,1.155-1.268,1-.93-.357-2.068-4.185-1.749-5.885a2.14,2.14,0,0,0-.805-2.455,2.026,2.026,0,0,0-1.92-.743,6.015,6.015,0,0,1-2.919-.622c-1.75-.75-2.308-.813-3.557-.4a3.518,3.518,0,0,0-1.964,1.547c-.41.9-.681,1.015-1.814.772a12.321,12.321,0,0,1-2.5-.884c-1.586-.81-2.474-.754-4.255.27-.831.478-2.526,1.392-3.768,2.032a5.5,5.5,0,0,0-2.664,2.274c-.224.611-1.023,2.994-1.776,5.294l-1.37,4.183.7,2.7c1.286,4.961,3.074,6.446,6.8,5.647,2.809-.6,4.5-1.823,5.117-3.7a2.463,2.463,0,0,1,2.09-1.941c1.914-.532,2.713-.551,3.449-.085.607.385.393,1.019-2.323,6.9-1.864,4.035-1.73,4.4,1.464,3.936,2.909-.42,5.568-.1,5.879.712a22.7,22.7,0,0,1-.438,4.732c-.647,4.091-.643,4.183.289,5.691a6.906,6.906,0,0,0,2.17,2.165c1.074.555,1.411.554,2.762-.01,2.147-.9,3.313-.8,4.8.391,1.192.954,1.361.981,2.3.367a6.04,6.04,0,0,0,1.686-2.007c.837-1.667,2.247-2.84,3.432-2.852a3.423,3.423,0,0,0,1.918-1.094c1.137-1.211,3.14-1.605,2.161-.426-.821.99-1.291,4.173-.762,5.162.441.824.476.819,1.278-.172.571-.705.686-1.158.374-1.47-.745-.745-.52-1.364.865-2.388,1.439-1.064,2.551-.954,3.793.372.91.972,5.77,2.287,7.163,1.938,2.121-.532,7.852,2.952,10.005,6.083,1.025,1.491,4.3,2.991,5.741,2.63,2.963-.744,7.025,2.225,7.974,5.828a5.669,5.669,0,0,0,.948,2.221c.633.394-.315,1.951-2.386,3.921-1.323,1.259-1.639,1.8-1.267,2.173s.984.046,2.454-1.308c2.137-1.97,2.85-2.17,3.921-1.1.651.651.631.784-.261,1.734a3.353,3.353,0,0,1-1.65,1.056c-.4.016-.236.206.381.452.847.338,1.289.243,2.168-.467,2.289-1.849,2.827-1.938,4.86-.8,1.322.738,1.851,1.3,1.785,1.9-.185,1.653.2,2.019,1.351,1.268.911-.6,1.536-.625,4.584-.208,3.242.444,3.667.621,5.222,2.176a9.169,9.169,0,0,0,4.085,2.389c2.191.637,2.429.831,2.826,2.307.576,2.139-.1,4.514-1.924,6.769a22.4,22.4,0,0,0-2.124,3.143,11.929,11.929,0,0,1-1.836,2.521c-1.051,1.051-1.11,1.314-.848,3.811.512,4.877-1.874,13.977-4.175,15.923a2.765,2.765,0,0,1-2.578.6c-.977-.151-1.7-.054-1.89.255a6.636,6.636,0,0,1-2.1,1.289,15.91,15.91,0,0,0-3.266,2.046c-1.4,1.2-1.447,1.329-.976,2.756a6,6,0,0,1-.987,5.258,4.2,4.2,0,0,0-.685,2.032,5.048,5.048,0,0,1-1.005,2.4,44.213,44.213,0,0,0-2.37,3.753c-1.847,3.263-2.957,3.829-5.635,2.869-2.324-.833-3.563-.932-3.563-.286,0,.244.463.654,1.029.912a5.784,5.784,0,0,1,1.961,2.334c.763,1.527.843,2.057.446,2.93-.616,1.351-2.97,2.486-5.159,2.486-1.938,0-2.419.474-1.75,1.725a2.882,2.882,0,0,1-.664,2.967,3.947,3.947,0,0,1-1.508-.579c-1.826-.944-2.472-.343-1.549,1.442a3.552,3.552,0,0,0,1.586,1.607c.854.271.863.331.169,1.1a1.715,1.715,0,0,0-.467,1.509,3.023,3.023,0,0,1-.865,2.183c-1.089,1.428-1.105,1.527-.407,2.593a4.043,4.043,0,0,0,1.384,1.361c1.306.5,1.522,2.213.526,4.164s-1.15,3.915-.378,4.845c.7.846-1.66,2.493-2.722,1.9ZM-166.338,388c1.158-2.421,3.314-4.223,5.05-4.223,1.249,0,1.264.2.12,1.657l-.9,1.144.923.747a1.519,1.519,0,0,0,1.975.268,2.672,2.672,0,0,0,1.318-1.317c.2-.627.523-.774,1.286-.582a1.117,1.117,0,0,0,1.44-.494c.881-1.574-1.361-3.587-3.011-2.7a1.75,1.75,0,0,1-2.394-1.951,2.69,2.69,0,0,0-.564-1.921c-.9-1.183-2.259-1.307-5.243-.479a13.09,13.09,0,0,1-2.719.512c-.422-.016-.655.154-.516.378s.094.412-.1.417a4.631,4.631,0,0,0-1.43.839l-1.079.829,1.212.461a2.629,2.629,0,0,0,2.557-.235c1.236-.639,1.465-.639,2.815,0a4.5,4.5,0,0,0,2.484.446c.559-.14,1.135-.061,1.281.175s-.461.553-1.395.711c-2.537.429-3.855,1.485-5.7,4.565-1.537,2.573-1.625,2.883-1.013,3.563s.767.678,1.592.1A9.446,9.446,0,0,0-166.338,388Zm7.876,2.676c1.543-.787,1.692-.985,1.148-1.529s-.888-.508-2.657.274c-2.077.919-2.737,2.159-1.148,2.159A8.207,8.207,0,0,0-158.461,390.679Zm7.687-3.276c.9-.633.936-.757.3-1.113-.938-.525-3.724.379-3.724,1.208C-154.2,388.353-152.044,388.293-150.775,387.4Zm32.558,187.216a1.725,1.725,0,0,1,.52-.867c.286-.286.356-.52.156-.52s-.6.32-.884.711c-.41.561-.694.61-1.348.23-.468-.271-.581-.487-.261-.494s.447-.208.3-.447c-.283-.458.461-.583,2.6-.437,1.91.131,2.1.409.922,1.338-1.1.865-2.005,1.084-2.005.486Zm362.054-10.88q-1.861-1.179,7.746-5.2a33.7,33.7,0,0,0,6.056-3.482c2.622-1.983,2.84-2.068,3.36-1.326.789,1.126.324,1.942-1.6,2.811a8.9,8.9,0,0,0-2.573,1.789,2.954,2.954,0,0,1-1.767,1.034,5.646,5.646,0,0,0-2.5,1.46c-3.063,2.749-6.943,4.047-8.723,2.92ZM213.5,558.107c-.45-.285-.476-.579-.108-1.266a5.728,5.728,0,0,0,.478-2.252c0-1.221.1-1.324.975-1.015a10.453,10.453,0,0,0,2.493.4c.835.031,1.668.085,1.852.12.719.135-1.2,2.321-2.927,3.332C214.2,558.63,214.29,558.609,213.5,558.107Zm50.1-3.791c-.151-.151.206-.652.794-1.114.885-.7.988-.99.6-1.713-.56-1.046.272-2.168,2.2-2.965,1.492-.618,1.867-1.872,1.467-4.9-.275-2.081-.242-2.211.429-1.657.527.436.656.984.468,1.985a2.8,2.8,0,0,0,.894,2.754c.988,1.175,1.282,1.3,2.051.891s.856-.373.615.256a5.014,5.014,0,0,0-.282.906,5.1,5.1,0,0,1-1.409.892,23.882,23.882,0,0,0-3.36,2.332c-1.745,1.441-3.54,2.6-4.018,2.6a.913.913,0,0,1-.447-.274Zm-45.844-5.6c-.913-.972-1.082-1.009-1.959-.434-1.118.732-3.218.3-4.9-1-.9-.7-.96-.919-.5-1.785a1.983,1.983,0,0,0,.052-2.039,5.613,5.613,0,0,1-.478-1.9c0-1.05-.682-1.1-1.247-.091-.232.415-.547.631-.7.479s.35-.989,1.116-1.861c1.884-2.146,1.149-2.728-1.34-1.062a8.736,8.736,0,0,0-2.1,1.743c-.085.241-.6-.5-1.145-1.651a8.208,8.208,0,0,0-2.528-3.1c-1.378-.908-1.845-.982-4.491-.719a30.722,30.722,0,0,0-10.076,2.575,17.091,17.091,0,0,1-4.964,1.309,28.186,28.186,0,0,0-5.8,1.372c-2.368.891-3.041.985-4.241.589-1.609-.531-2.277-1.626-1.236-2.025a5.074,5.074,0,0,0,1.52-2.211c.735-1.715.776-2.249.34-4.464a19.322,19.322,0,0,1-.037-6.391,23.076,23.076,0,0,0,.214-4.807,6.089,6.089,0,0,1,.466-2.79c.688-1.8.855-1.919,5.505-3.889a29.4,29.4,0,0,1,6-2.031c1.792,0,4.011-1.7,5.234-4.022.756-1.432,1.28-1.977,1.734-1.8,1.266.489,1.516.393,1.419-.545a1.041,1.041,0,0,1,.713-1.207,5.143,5.143,0,0,0,1.833-1.754,6.871,6.871,0,0,1,2.706-2.173c1.583-.635,1.74-.626,2.6.157,1.588,1.444,2.714,1.865,3.252,1.218.261-.315.351-.7.2-.848-.5-.5,1.774-3.345,2.884-3.619a16.734,16.734,0,0,0,2.72-1.087,3.774,3.774,0,0,1,3.468-.328c3.389.91,3.5,1.059,2.241,2.964-1.621,2.45-1.191,3.408,2.785,6.207,1.836,1.292,3.569,2.273,3.852,2.178a9.248,9.248,0,0,0,1.984-2.2,7.95,7.95,0,0,0,1.707-4.412c.251-2.539,1.465-6.069,2.087-6.069.206,0,.678,1.044,1.049,2.32a8.867,8.867,0,0,0,1.728,3.309c1.353,1.272,2.14,4.827,1.532,6.928-.4,1.392-.325,1.615,1.055,3.035a19.858,19.858,0,0,1,2.88,4.567,33.994,33.994,0,0,0,3.063,5.248l1.673,2.213-.476,3.42a15.517,15.517,0,0,1-1.946,6.024c-1.634,2.894-4.077,5.655-5.365,6.064a8.155,8.155,0,0,0-2.384,2.414,7.388,7.388,0,0,1-1.966,2.147,8.89,8.89,0,0,0-2.2,2.251c-1.633,2.065-1.933,2.254-3.634,2.286a5.336,5.336,0,0,0-3.377,1.2l-1.522,1.161-1-1.063ZM6.352,539.6a2.428,2.428,0,0,1-.866-2.652,3.678,3.678,0,0,0-.815-3.1,6.889,6.889,0,0,1-1.065-2.038,11.648,11.648,0,0,0-1.7-2.755,8.034,8.034,0,0,1-1.985-5.172,34.3,34.3,0,0,0-3.665-12.423A20.181,20.181,0,0,1-5.7,506.636c-.339-2.087.509-5.194,2.444-8.957l1.287-2.5L-2.691,493a7.633,7.633,0,0,1-.449-3.272,3.3,3.3,0,0,0-.56-2.472,19.107,19.107,0,0,1-1.514-3.762A8.827,8.827,0,0,0-7.839,479.2c-2.748-2.7-3.1-3.757-2.252-6.69,1.736-5.971-.139-9.454-4.721-8.767-1.784.267-1.852.234-2.1-1.026-.193-.967-.717-1.536-2.033-2.207-1.71-.872-2.442-.876-4.541-.02-.477.194-2.428.867-4.335,1.5-2.868.945-3.729,1.067-4.978.7-1.183-.343-2.179-.254-4.6.41-2.5.686-3.408.76-4.759.387-2.82-.779-7.664-5.145-8.353-7.529-.533-1.845-3.85-6.145-4.978-6.454-.717-.2-.805-.349-.366-.633s.365-.429-.325-.61c-1.1-.286-1.2-1.182-.145-1.191.648-.006.664-.068.108-.427-.41-.265-.455-.423-.123-.427s.213-.539-.378-1.54c-.832-1.409-.849-1.6-.214-2.3,1.94-2.143,2.365-6.758.89-9.665-.7-1.388-.251-3.305,1.251-5.3a38.7,38.7,0,0,0,2.454-4.058c1.371-2.591,4.428-6.194,5.256-6.194.916,0,3.87-3.176,3.87-4.16a7.151,7.151,0,0,1,3.495-5.828,11.5,11.5,0,0,0,3.031-2.838c1.029-1.665,1.175-1.719,2.373-.884a7.911,7.911,0,0,0,2.6.888c1.461.245,2.16.069,4.335-1.095a16.432,16.432,0,0,1,10.34-2.235c2.825.176,4.1.064,5.466-.484,2.017-.807,3.76-.329,3.288.9a1.348,1.348,0,0,0,.192,1.215c.312.376.309.914-.008,1.748-.4,1.048-.31,1.36.677,2.39a5.68,5.68,0,0,0,2.485,1.455c3.484.7,4.475,1.148,5.194,2.366a3.12,3.12,0,0,0,2.36,1.565,12.57,12.57,0,0,1,2.867.95c1.169.6,1.32.582,2.3-.333.655-.616.953-1.267.8-1.752a2.5,2.5,0,0,1,.228-1.655c.671-1.253,2.575-1.13,5.549.358,3.24,1.622,9.383,2.779,11.561,2.178a5.26,5.26,0,0,1,2.972-.011c3,.921,4.53.2,4.939-2.32.136-.837.368-1.522.515-1.522.28,0,.427-1.258.467-4.01.013-.894.225-1.626.47-1.626.292,0,.278-.314-.042-.911-.533-1-1.614-.974-4.2.088a2.273,2.273,0,0,1-2.668-.167c-1.425-.842-2.888-.968-3.31-.286-.314.508-2.53.152-3.733-.6a4.549,4.549,0,0,1-1.671-3.324,2.267,2.267,0,0,0-.975-1.509c-.83-.585-.879-.75-.325-1.113a2.436,2.436,0,0,1,1.635-.194c.691.163,1.326-.11,2.128-.911a4.046,4.046,0,0,1,2.7-1.226,6.554,6.554,0,0,0,2.757-.873c1.433-.944,4.685-.682,7.209.581,3.4,1.7,6.425,1.6,7.641-.253.633-.966.636-1.169.036-2.085a15.955,15.955,0,0,0-3.906-2.859L35.3,384.937l.607-1.174c.334-.646.5-1.283.364-1.417s-.083-.5.113-.814a3.6,3.6,0,0,0,.441-1.13c.1-.657-.6-.475-4.047,1.049-2,.885-2.3,1.156-1.855,1.691a2.193,2.193,0,0,0,1.451.656c.712.015.543.219-.737.895-1.554.82-1.728.831-2.739.169-.864-.566-.977-.83-.568-1.323s.346-.678-.3-.92a3.322,3.322,0,0,1-1.272-.923c-1.242-1.655-5.181,2.7-6.327,6.993-.538,2.015-.52,2.12.493,2.884l1.051.792-1.928.4a8.428,8.428,0,0,1-3.175.057c-1.266-.346-2.871.175-2.871.933,0,.223-.3.291-.656.153a1.429,1.429,0,0,0-1.273.26c-.526.437-.467.794.405,2.434.944,1.776.974,2.019.385,3.2-.738,1.48-1.425,1.37-2.467-.4-.727-1.231-.722-1.259.24-1.4,1.214-.172,1.292-.945.115-1.133-2.686-.429-4.119-1.845-4.119-4.069a4.975,4.975,0,0,0-3.561-4.234,5.449,5.449,0,0,1-2.45-1.418,5.89,5.89,0,0,0-2.168-1.518,5.841,5.841,0,0,1-2.137-1.473c-.454-.648-.752-.726-1.416-.37a1.527,1.527,0,0,0-.841,1.07c0,1.126,5.526,6.218,8.227,7.581,2.864,1.446,3.311,1.962,1.321,1.525-1.774-.39-2.257,0-1.65,1.332.426.935.356,1.22-.5,2.044l-1,.957L.7,397.012c.36-2.05-2.343-4.995-4.585-4.995-.822,0-3.978-3.062-4.805-4.661-.884-1.709-1.867-2.039-3.26-1.094-2.1,1.423-3.672,1.9-5.317,1.626-2.186-.369-3.562.393-3.214,1.781.182.725.081,1.048-.328,1.048a4.516,4.516,0,0,0-1.851,1.083,5.554,5.554,0,0,1-1.591,1.084c-.536,0-2.05,2.74-2.051,3.713,0,.931-1.7,2.764-3.333,3.6a7.3,7.3,0,0,1-2.694.486c-1.322,0-1.864.218-2.227.9-.475.888-.489.885-1.6-.226-1.042-1.042-1.642-1.3-3.746-1.629-1.105-.171-1.292-2.673-.465-6.237a11.872,11.872,0,0,0,.385-3.794c-.411-1.637.875-2.6,3.026-2.271,4.968.763,7.873.805,8.554.124.936-.936,1.358-4.022.787-5.753-.373-1.129-.885-1.59-2.413-2.174-2.248-.859-2.3-1.689-.1-1.711a5.876,5.876,0,0,0,2.685-.777c.639-.419,1.346-.648,1.571-.509.613.379,2.934-.959,3.7-2.135a3.35,3.35,0,0,1,1.63-1.276,11.915,11.915,0,0,0,3.12-2.262c1.69-1.574,2.577-2.068,4.026-2.241,1.8-.214,3.6-1.691,2.753-2.252-.527-.349-.967-2.448-.674-3.212a4.053,4.053,0,0,1,1.364-1.387l1.111-.728-.285,1.784c-.248,1.548-.184,1.767.478,1.656a6.887,6.887,0,0,0,1.745-.667c.822-.452,1.024-.43,1.241.135.372.968-.661,2.107-1.374,1.515-.394-.327-.644-.315-.864.041s-.4.347-.665-.075c-.2-.317-.455-.476-.577-.355s.225.781.77,1.464c.919,1.153,1.094,1.207,2.4.751a2.727,2.727,0,0,1,2.616.13c1.078.558,1.442.531,3.515-.256,1.816-.69,2.531-.778,3.335-.412a2.005,2.005,0,0,0,1.974-.025c1.95-1.008,2.49-1.767,2.248-3.162-.359-2.067.3-2.744,2.029-2.091,1.178.445,1.522.427,2.054-.105.564-.564.515-.772-.409-1.755-.889-.946-.951-1.181-.409-1.547a6.448,6.448,0,0,1,2.927-.189c2.3.244,5.172-.656,4.672-1.465-.438-.708-3.081-.913-5.32-.412-1.986.444-2.507.408-4.029-.278-2.364-1.066-2.642-2.313-1.021-4.573,2.087-2.909,2.468-3.835,1.874-4.552-.88-1.061-1.745-.715-3.756,1.5a12.712,12.712,0,0,1-3.218,2.662,4.5,4.5,0,0,0-1.944,1.805c-.589,1.14-.589,1.379.009,2.29a3.571,3.571,0,0,0,1.546,1.3c1.33.422,1.067,1.214-.835,2.516A6.163,6.163,0,0,0,.157,361.28a4.921,4.921,0,0,1-2.26,2.707c-1.545.892-1.615.9-2.468.123a4.409,4.409,0,0,1-1.139-1.982,7.756,7.756,0,0,0-1.447-2.608L-8.343,358.1l-1.5.917a6.078,6.078,0,0,1-2.371.909,3.521,3.521,0,0,1-3.075-2.869,8.382,8.382,0,0,0-.393-1.98c-.388-.971,1.553-2.792,3.57-3.349s6.131-3.437,6.831-4.788a13.027,13.027,0,0,1,2.344-2.686,7.065,7.065,0,0,0,1.778-2.023c0-.236.927-.76,2.059-1.163s3.035-1.136,4.227-1.627a15.868,15.868,0,0,1,5.636-.982c4.092-.1,6.768.438,8.976,1.819a3.829,3.829,0,0,0,2.819.762c1.5-.3,9.476,2.174,9.808,3.04s-1.954,1.693-3.923,1.409c-.9-.13-2.767-.477-4.144-.772-1.855-.4-2.631-.409-2.992-.048s-.181.627.695,1.026a4.5,4.5,0,0,1,1.809,1.751c.878,1.7,3.689,3.081,5.139,2.529,1.393-.53,1.384-.7-.086-1.495-1.36-.738-.732-.9.976-.248,1.364.518,2.908-.127,2.549-1.064-.168-.439.305-.756,1.642-1.1,2.86-.733,3.07-.838,2.832-1.418-.9-2.194-.91-2.131.4-1.982.7.08,1.206.377,1.148.672s.306.748.807,1.016c.753.4,1.346.259,3.415-.825,3.034-1.591,5.4-2.109,6.277-1.378.491.408,1.306.411,3.663.013a11.337,11.337,0,0,1,3.452-.251.521.521,0,0,0,.7-.2c.342-.553-.6-1.807-1.12-1.487-.624.386-2.675-.305-2.229-.751s12.514,2.362,13.236,3.084c.487.487,2.028-.163,2.028-.854,0-.233-.86-.842-1.912-1.353-3.261-1.584-3.47-4.121-.4-4.891,1.78-.447,2.549.069,5.011,3.355,3.2,4.266,3.114,4.049,2.07,5.516-.773,1.086-.82,1.34-.283,1.546,1.016.39,3.192-.975,3.5-2.195.359-1.429-.311-2.647-1.911-3.474a3.709,3.709,0,0,1-2.168-2.838c0-.339.472-.424,1.409-.253,1.405.257,2.568-.253,5.75-2.521a6.1,6.1,0,0,1,3.2-.889c2.517-.057,3.331-.48,2.607-1.352-.284-.342-.426-.712-.316-.823.554-.554,7.691-1.551,9.335-1.3a3.45,3.45,0,0,0,3.372-.884c.837-.639,1.522-1.333,1.522-1.543,0-.53-3.788-.483-4.119.051-.454.735-1.043.479-.877-.381.14-.726-.227-.844-3.385-1.09-8.623-.671-9.324-.829-8.289-1.863.909-.909,3.14-.892,5.007.04a7.543,7.543,0,0,0,2.816.694,2.55,2.55,0,0,1,1.693.434,2.537,2.537,0,0,0,1.687.434c2.162,0,6.343.934,6.08,1.358-.128.207.277.376.9.376a6.538,6.538,0,0,1,2.518.747c1.026.552,2.46.751,5.506.763,3.274.013,4.363.181,5.311.821.656.442,1.189.928,1.186,1.079a8.469,8.469,0,0,1-2.223,1.5c-2.945,1.625-2.322,2.333,1.24,1.41,2.307-.6,2.837-.6,4.748-.034a5.968,5.968,0,0,0,3.609.22,7.247,7.247,0,0,1,4,.24,7.2,7.2,0,0,0,4.15.211,12.183,12.183,0,0,1,8.211.524c.989.536,2.814,1.529,4.055,2.206,2.2,1.2,2.295,1.213,3.82.529a5.3,5.3,0,0,1,3.872-.26c1.872.358,2.553.314,3.607-.231,1.031-.533,1.2-.8.8-1.27-.761-.917,1.94-1.258,5.258-.664,1.52.272,3.446.544,4.281.6A13.437,13.437,0,0,1,168.5,337.3c1.766.8,3.1.975,8.268,1.117,4.9.135,6.465.331,7.648.962,1.2.64,2.57.8,7.122.847,4.189.041,6.065.239,7.308.773,2.006.862,2.808.546,1.716-.676-.785-.879-.781-.88,2.248-.579,5.075.5,11.162,1.615,13.223,2.412a23.048,23.048,0,0,0,4.545,1.072,16.8,16.8,0,0,1,4.626,1.347c1.7.86,2.247.954,3.337.575,1.489-.519,2.456-.145,4.73,1.83l1.413,1.228-1.065.267a8.352,8.352,0,0,1-4.886-1.21.893.893,0,0,0-.9-.184,5,5,0,0,1-2.253-.417c-2.422-.834-3.5-.521-2.394.7.753.832.737.85-.7.75-2.688-.188-1.949.606,2,2.146,2.146.837,3.994,1.611,4.106,1.72.407.394-.935.882-1.911.7-1.072-.2-3.713.945-3.713,1.617a3,3,0,0,1-.927,1.269c-.852.794-1.028.812-2.168.223a2.049,2.049,0,0,0-2.432-.041,13.917,13.917,0,0,1-2.49.913,5.717,5.717,0,0,0-1.838.76c-.872.724.666,2.832,2.833,3.881a4.4,4.4,0,0,1,2.288,2.05,17.915,17.915,0,0,0,1.05,2.285c.578,1.028.573,1.174-.048,1.413a.685.685,0,0,0-.391,1.021,8.45,8.45,0,0,1,.417,1.839,7.614,7.614,0,0,0,.425,1.8c.222.515.039.806-.645,1.022-.761.241-1.273-.049-2.524-1.432a25.436,25.436,0,0,0-3.2-2.92,22.039,22.039,0,0,1-3.57-3.765c-1.882-2.5-1.921-2.618-1.3-3.825a6.231,6.231,0,0,0,.659-2.242,5.352,5.352,0,0,1,.611-2.074c.626-1.131.385-2.034-.954-3.57a1.152,1.152,0,0,0-2.048.99c.363,1.145-.751,1.516-2.033.677a8.91,8.91,0,0,0-2.843-.954c-1.731-.276-1.859-.223-2.308.954a5.181,5.181,0,0,0-.243,2.408c.2,1,.06,1.2-.964,1.424a5.511,5.511,0,0,1-2.863-.434,4.482,4.482,0,0,0-2.8-.375,27.189,27.189,0,0,1-4.672.357c-3.086.031-3.68.165-4.618,1.046a7.336,7.336,0,0,0-1.581,3.035,12.555,12.555,0,0,1-1.129,2.989c-.594.917-.537,1.01,1.162,1.877a7.149,7.149,0,0,0,5.379.663c1.176-.405,4.762,2.391,5.882,4.586a5.768,5.768,0,0,0,1.685,2.09c1.771.948,2.13,7.166.65,11.231-1.025,2.815-2.173,3.735-3.858,3.094a11.225,11.225,0,0,0-1.315-.445,9.025,9.025,0,0,0-1.072,1.779c-.67,1.284-.8,1.932-.47,2.329.632.761.164,1.751-1.1,2.327-.583.266-1.06.672-1.06.9a12.61,12.61,0,0,0,3.014,2.494c2.109,1.451,3.236,2.566,3.753,3.712a4.363,4.363,0,0,1,.562,1.8c-.1.087-.983.566-1.969,1.063l-1.793.9-1.079-2.476c-1.207-2.772-2.243-3.886-4.068-4.377-.919-.247-1.239-.6-1.239-1.357,0-.7-.45-1.287-1.405-1.847-1.392-.816-1.419-.815-2.9.1s-1.5.917-1.955.066a4.006,4.006,0,0,1-.459-1.522,1.5,1.5,0,0,0-.81-1.1c-.662-.355-1.081-.14-2.3,1.177a14.1,14.1,0,0,1-2.33,2.089c-.719.409-.757.582-.262,1.178a11.464,11.464,0,0,0,2.45,1.744c1.635.914,1.948.966,2.5.414.524-.524.951-.543,2.533-.114l1.9.516-1.06.709c-1.967,1.314-2.587,2-2.867,3.191-.23.974-.093,1.266.781,1.664a5.69,5.69,0,0,1,1.971,2.356,7.214,7.214,0,0,0,2.222,2.648c1.587.937,2.047,1.933,1.13,2.446-.854.478-.446,1.193.681,1.193,1.35,0,1.358.805.053,5.454-1.58,5.63-3.007,7.508-6.74,8.874a19.073,19.073,0,0,1-3.974,1.05,5.288,5.288,0,0,0-4.077,2.226l-.893,1.135-.416-1.1c-.543-1.429-1.789-1.788-3.577-1.032a5.186,5.186,0,0,0-3.155,3.229c-.39,1.279.991,3.53,3.277,5.34a15.621,15.621,0,0,1,4.477,7.931c.43,2.361-.332,3.91-2.376,4.832a4.048,4.048,0,0,0-1.937,1.53c-.321,1.013-2.246,2.274-2.6,1.7a1.787,1.787,0,0,1-.013-1.235,2.667,2.667,0,0,0-.015-1.506c-.214-.557-.45-.607-1.135-.24-.713.382-.988.285-1.564-.55-1.415-2.052-5.516-5.348-6.652-5.348-.4,0-.555.482-.486,1.517a15.539,15.539,0,0,1-.378,3.616c-.428,1.88-.384,2.225.423,3.316a8.133,8.133,0,0,1,1.174,2.308,9.8,9.8,0,0,0,2.841,3.149c2.39,1.917,2.642,2.3,3.647,5.479a38.364,38.364,0,0,1,1.08,3.831c0,.735-.906.437-2.8-.92-1.954-1.4-3.2-3.623-4.242-7.547a5.243,5.243,0,0,0-2.353-3.468c-1.724-1.268-1.776-1.379-1.637-3.478.079-1.192.274-2.882.434-3.755.225-1.229.039-2.11-.825-3.9a27.045,27.045,0,0,1-1.612-4.344c-.61-2.494-1.472-2.912-3-1.452a5.329,5.329,0,0,1-1.416,1.1c-.69,0-1.638-1.469-1.411-2.185.413-1.3-2.127-5.837-3.613-6.453a4.254,4.254,0,0,1-2.054-2.257c-.865-1.917-1.834-2.651-2.8-2.12a18.013,18.013,0,0,1-3.127.86c-2.508.514-3.408,1.274-3.065,2.587.126.484-.312.951-1.365,1.452a4.8,4.8,0,0,0-2.043,1.819,2.715,2.715,0,0,1-1.323,1.343,3.753,3.753,0,0,0-1.567,1.474,13.237,13.237,0,0,1-2.68,2.7c-1.463,1.124-1.92,1.753-1.847,2.544.425,4.623-.227,8.491-1.819,10.788-1.553,2.24-1.662,2.3-2.975,1.7a2.455,2.455,0,0,1-1.353-1.955,31.705,31.705,0,0,0-1.94-5.042c-5.543-11.906-6.363-14.178-5.891-16.328.319-1.453-.446-3.645-1.186-3.4a.9.9,0,0,0-.551.794c-.037,1.979-2.26,2.283-4,.546L95.34,429.6l.99-.366c1.114-.412,1.012-1.523-.121-1.32a3.558,3.558,0,0,1-2.048-.975,5.613,5.613,0,0,0-1.687-1.107c-.2,0-.5-.392-.648-.872-.4-1.259-2.7-2.354-3.852-1.835-1.037.468-10.448.37-12.023-.125a6.973,6.973,0,0,1-2.332-1.813c-1.293-1.479-1.313-1.485-3.251-.963-1.837.5-2.1.449-4.579-.8-2.138-1.079-2.779-1.662-3.439-3.125-.842-1.868-2.713-3.22-3.85-2.784a2.3,2.3,0,0,0-.93,1.517c-.22,1,0,1.652,1.067,3.1a12.947,12.947,0,0,1,1.792,3.487c.527,1.958,1.569,2.541,2.432,1.36.521-.712.661-.737,1.014-.179a1.593,1.593,0,0,1,.27,1.082c-.241.749,2.261,1.983,3.428,1.69a8.309,8.309,0,0,0,2.8-2.233c1.5-1.7,2.021-1.816,1.765-.388a2.888,2.888,0,0,0,1.837,2.736c1.935,1,4.63,3.228,4.63,3.827a3.638,3.638,0,0,1-1.126,1.553,11.82,11.82,0,0,0-1.981,2.718c-1.142,2.228-4.453,5.486-5.574,5.486a5.724,5.724,0,0,0-3.99,2.265,6.36,6.36,0,0,1-2.124,1.739,68.777,68.777,0,0,1-10.478,4.4c-1.493.28-1.614.212-2.4-1.347a15.313,15.313,0,0,1-1.155-4.027,6.608,6.608,0,0,0-1.569-3.808,5.939,5.939,0,0,1-1.247-1.842,8.406,8.406,0,0,0-1.739-2.209,9.68,9.68,0,0,1-2.443-4.227,13,13,0,0,0-1.752-3.737c-3.979-4.941-5.157-6.683-5.75-8.5-.786-2.411-1.451-2.8-1.758-1.03l-.218,1.257-1.467-1.852c-2.26-2.853-2.545-1.556-.423,1.927,1,1.648,2.6,4.558,3.556,6.465a42.223,42.223,0,0,0,2.743,4.81,5.274,5.274,0,0,1,1.012,2.738c0,1.634.487,2.653,2.4,5.025a9.471,9.471,0,0,1,1.69,3.094c.2.96,1.042,1.963,2.841,3.406,2.734,2.193,4.506,4.482,4.945,6.389a3.062,3.062,0,0,0,1.584,1.862c1.209.625,1.635.608,5.455-.22A33.1,33.1,0,0,0,63,450.324l1.221-.632.29,1.716c.263,1.559-.02,2.31-3.106,8.23-3.318,6.364-3.474,6.575-6.773,9.18a30.427,30.427,0,0,0-4.319,3.989c-.518.728-2.176,2.693-3.684,4.368-4.4,4.887-5,9.185-2.081,14.946a5.376,5.376,0,0,1,.855,3.271,9.626,9.626,0,0,0,.208,3.269c.41,1.914.364,2.425-.346,3.817-1.025,2.008-1.84,2.73-4.706,4.166a6.054,6.054,0,0,0-2.276,1.552,11.689,11.689,0,0,1-1.951,2.608,11.276,11.276,0,0,0-1.951,2.633,9.546,9.546,0,0,0,.894,2.188c1.474,2.889.483,4.982-3.049,6.445-1.489.617-1.978,1.876-1.61,4.146.193,1.19.07,1.585-.6,1.946a7.2,7.2,0,0,0-1.869,2.06c-1.777,2.791-6.886,7.729-9.206,8.9-1.937.977-2.432,1.063-3.855.67a7.7,7.7,0,0,0-4.37.237c-3.407.856-3.045.891-4.365-.428Zm57.1-138.275c1.119-.579,1.279-.9,1.279-2.548a3.4,3.4,0,0,0-.679-2.45,7.239,7.239,0,0,1-1.344-1.85c-.606-1.171-.6-1.263.029-1.021.834.32,1.995-.065,1.995-.661a5.207,5.207,0,0,0-.9-1.687c-.743-1.043-1.04-1.182-1.734-.81-.561.3-.838.3-.838.008,0-.242-.774-.835-1.72-1.317-2.093-1.068-2.838-2.251-2.185-3.471.494-.923,2.259-1.57,3.013-1.1,1.016.628,1.316-.3.477-1.475-2.033-2.856-4.864-2.668-8.376.556-2.266,2.08-2.463,2.633-1.181,3.319a1.576,1.576,0,0,1,.867,1.109,7.2,7.2,0,0,0,1.714,2.5c2.171,2.355,2.569,3.431,2.3,6.218l-.216,2.244,2.978,1.528c1.638.841,3.037,1.538,3.108,1.55A8.7,8.7,0,0,0,63.454,401.327ZM51.51,522.425c-1.224-.694-1.4-1.061-1.718-3.62-.255-2.045-.149-2.489,1.074-4.477,1.243-2.021,1.333-2.41,1.059-4.6-.4-3.169.278-4.834,2.12-5.238,1.735-.381,5.49-3.7,6.39-5.641l.687-1.487.478,1.049c1.2,2.639,1.08,3.8-1.012,9.585-1.119,3.1-2.32,6.8-2.668,8.231-1.115,4.578-1.748,5.682-3.574,6.23-1.944.582-1.756.584-2.836-.028Zm213.556-7.537c-1.383-1.513-2.211-2.812-2.211-3.468,0-1.455.234-1.328,1.485.807a17.283,17.283,0,0,0,2.4,3.116,5.4,5.4,0,0,1,1.315,1.612c0,.834-.923.2-2.991-2.067Zm-193.4-.615a.434.434,0,1,1,.434.434A.435.435,0,0,1,71.669,514.272Zm228.3-.791a.542.542,0,0,1,.191-.74c.644-.4.872-.081.442.614C300.373,513.728,300.149,513.773,299.969,513.481ZM74.7,512.78c0-.105.2-.312.434-.459s.434-.061.434.191a.448.448,0,0,1-.434.459C74.9,512.971,74.7,512.885,74.7,512.78Zm213.991-4.4c-.422-1.1.114-1.486,1.309-.942,1.031.47,1.054.542.335,1.068C289.334,509.241,289.016,509.217,288.7,508.38Zm2.747-1.928c-.847-.523-.26-.942,1.087-.775,1.056.13,1.08.178.326.643a1.422,1.422,0,0,1-1.414.132ZM271.2,504.861c-.89-1.917-.578-2.654.342-.808.958,1.92.975,1.983.525,1.978C271.889,506.03,271.5,505.5,271.2,504.861Zm1.66-.308c-.019-.457.084-.713.228-.569a.872.872,0,0,1,.034.831c-.138.346-.241.243-.262-.262Zm35.294-4.162c-.4-.642-.021-.97.905-.789.677.132.684.2.073.71-.488.4-.764.427-.978.079Zm-256.211-2.16c-.147-.238-.061-.433.191-.433a.448.448,0,0,1,.459.433c0,.238-.086.434-.191.434S52.091,498.47,51.944,498.231Zm190.319-4.073c-2.744-.865-3.987-1.669-5.067-3.273-1.233-1.833-3.491-3.221-4.644-2.855a4.494,4.494,0,0,0-1.743,1.787c-.839,1.422-1,1.5-2.524,1.229a6.45,6.45,0,0,1-2.78-1.363c-.805-.75-1.422-.988-2.051-.788a2.318,2.318,0,0,1-1.592-.1c-.6-.333-.537-.49.416-1.114,1.1-.724,1.106-.733.365-2.287-.595-1.248-1.416-1.9-4.1-3.247a16.192,16.192,0,0,0-4.637-1.687c-1.612,0-2.278-1.486-1.064-2.374.722-.528.617-.659-1.268-1.575-2-.972-2.03-1.013-1.074-1.544a4.952,4.952,0,0,1,1.933-.561c1.016-.016,2.3,1.449,2.3,2.624a4.287,4.287,0,0,0,.937,1.9c.923,1.174.947,1.179,1.626.331a12.069,12.069,0,0,1,2.687-2.005l2-1.145,2.77,1.25c1.524.687,3.687,1.58,4.806,1.984a30.492,30.492,0,0,1,4.978,2.666c3.09,2.029,4.432,3.74,3.662,4.668-.627.756,1.838,4.2,4.389,6.133,2.8,2.124,2.757,2.32-.325,1.349Zm18.867-.035c-.342-.412-.375-.661-.087-.661.524,0,1.135.823.834,1.123-.109.109-.445-.1-.747-.462Zm-72.842-1.765c-.628-.348-.81-.6-.433-.608.774-.01,2.013.711,1.721,1C189.463,492.866,188.884,492.688,188.288,492.359Zm7.33-.573a4.406,4.406,0,0,1,4.932-1.894c1.3.416,1.316.451.287.492a8.928,8.928,0,0,0-3.158,1.345C195.105,493.361,194.484,493.378,195.618,491.786Zm62.9.593c-.586-.706-.446-.794.615-.387.377.145.686.437.686.65C259.821,493.242,259.118,493.1,258.52,492.379Zm2.03-.382a4.544,4.544,0,0,1-.269-1.5c.018-.479.169-.37.446.323a3.03,3.03,0,0,1,.269,1.5c-.082.247-.283.1-.446-.323Zm33.519.408c0-.105.2-.312.434-.459s.434-.061.434.191a.448.448,0,0,1-.434.459C294.265,492.6,294.069,492.51,294.069,492.4Zm-110.878-1.821c-.3-.126-.434-.408-.3-.626.331-.536,3.11-.506,3.445.037.147.238.013.436-.3.439a9.048,9.048,0,0,0-1.435.193,2.859,2.859,0,0,1-1.412-.043Zm6.436-.326c-.788-.949.12-1.238,2.162-.688,2.058.554,2.051.641-.082,1.026C190.6,490.8,189.992,490.7,189.628,490.258Zm65.091-.264c-.3-.48-.353-.867-.12-.867s.631.39.886.867.309.867.12.867S255.017,490.471,254.719,489.994Zm2.715-.436c-1.159-1.281-.539-1.482.654-.212.559.6.818,1.082.575,1.082a2.624,2.624,0,0,1-1.229-.87Zm-81.284-.075a34.117,34.117,0,0,1-4.856-1.059,6.543,6.543,0,0,0-2.935-.384c-.993.315-5.215-.926-5.215-1.533,0-1.386,3.886-1.491,5.952-.161.771.5,1.379.53,3.009.164,1.806-.4,2.182-.355,3.243.43a4.8,4.8,0,0,0,1.637.887c.857,0,3.459,1.45,3.24,1.806a.822.822,0,0,1-.74.3c-.284-.033-1.784-.236-3.334-.451Zm77.818-2.09c-.432-.477-.59-.867-.351-.867a2.624,2.624,0,0,1,1.218.867c.432.477.59.867.351.867a2.625,2.625,0,0,1-1.218-.867Zm-2.734-.549a5.377,5.377,0,0,1-.727-1.838c-.247-1.15-.22-1.2.243-.431a13.844,13.844,0,0,0,1.139,1.583c.36.417.446.822.205.971A.737.737,0,0,1,251.234,486.844Zm-9.181-1.378-1.077-.6,1.67-.313a7.917,7.917,0,0,0,3.136-1.6c.881-.773,1.464-1.053,1.46-.7-.01.882-.543,1.561-2.164,2.756C243.385,486.26,243.465,486.248,242.053,485.466Zm-81.323-1.688c-1.593-.907-4.466-4.418-5.4-6.6a24.749,24.749,0,0,0-2.569-4.308,30.707,30.707,0,0,1-2.318-3.468,15.091,15.091,0,0,0-2.471-3.035c-2.094-2.011-3.382-4.124-2.5-4.109,1.137.02,4.066,1.648,5.322,2.959,3.465,3.617,4.175,4.261,5.81,5.269,1.579.973,2.326,1.985,2.4,3.252a4.393,4.393,0,0,0,1,1.517c.535.6,1.543,1.717,2.241,2.491a7.4,7.4,0,0,1,1.55,2.684C164.293,482.728,162.442,484.754,160.729,483.778ZM73.4,483.492a.434.434,0,1,1,.434.434A.435.435,0,0,1,73.4,483.492Zm114.666,0a1.88,1.88,0,0,1,0-1.281,2.575,2.575,0,0,0-.4-1.86c-.6-.921-.6-1.114.061-2.056a9.8,9.8,0,0,0,1.049-3.409,5.737,5.737,0,0,1,1.341-3.39c.946-.946,1.184-.988,3.311-.585,1.826.346,2.545.3,3.539-.21,1.665-.861,1.786-.822,1.233.391a2.429,2.429,0,0,1-3.587,1.259c-2.644-1.385-6.152.674-4.3,2.524.68.68,1.057.742,2.317.381,2.16-.619,3.011-.506,1.67.223-1.518.825-1.806,1.74-1.024,3.253a6.257,6.257,0,0,1,.647,2.372c0,.987-.1,1.065-.868.656a4.762,4.762,0,0,1-1.53-2.05c-.657-1.573-.669-1.579-1.51-.738-.738.738-.788,1.066-.384,2.528.365,1.322.34,1.759-.115,2.047-.766.485-1.122.471-1.448-.057Zm59.48-2.312a6.478,6.478,0,0,0-2.08-1.825c-.735-.38-1.239-.789-1.12-.908.674-.674,4.436,2.388,4.115,3.35C248.367,482.087,247.974,481.822,247.55,481.175Zm-68.08-1.443a3.163,3.163,0,0,0-1.958-.379c-1.078.342-5.363-.53-5.787-1.178a36.936,36.936,0,0,1-1.862-5.956,2.537,2.537,0,0,1,.341-1.9c.5-.678.753-.729,1.539-.309.829.444,1.005.368,1.46-.63a5.222,5.222,0,0,1,2.1-1.944,4.831,4.831,0,0,0,2.127-2.114,3.085,3.085,0,0,1,2.018-1.792,6.548,6.548,0,0,0,2.608-1.97c.622-.815,1.362-1.482,1.644-1.482a5.219,5.219,0,0,1,1.9,1.431l1.387,1.431-1.112,1.5c-1.263,1.7-1.2,3.16.234,5.169l.867,1.217-1.08.707c-.594.389-1.079.947-1.078,1.239,0,.993-2.774,6.716-3.471,7.151-.485.3-1.049.246-1.882-.191Zm25.184-.008c-.9-.234-1.022-1-.163-1a14.918,14.918,0,0,1,2.039.289c1.222.244,1.313.339.6.62a3.188,3.188,0,0,1-2.473.093Zm69.039-5.528c0-.105.2-.312.434-.459s.434-.061.434.191a.448.448,0,0,1-.434.459C273.889,474.387,273.694,474.3,273.694,474.2Zm-70.558-1.176c-.347-.347-.367-.748-.067-1.31a1.51,1.51,0,0,0,.176-1.225c-.391-.633.588-2.168,1.383-2.168.637,0,.635.074-.028.806a1.546,1.546,0,0,0-.3,1.947c.688,1.81-.06,3.058-1.169,1.949ZM-14.6,471.6c0-.105.2-.312.434-.459s.434-.061.434.191a.448.448,0,0,1-.434.459C-14.408,471.786-14.6,471.7-14.6,471.6Zm300.652-1.109c-.147-.238-.061-.434.191-.434a.448.448,0,0,1,.459.434c0,.239-.086.434-.191.434S286.2,470.724,286.049,470.486ZM-12,466.393c0-.105.2-.312.434-.459s.434-.061.434.191a.448.448,0,0,1-.434.459C-11.807,466.584-12,466.5-12,466.393Zm208.532-6.518c-.827-1.929-.937-2.016-2.21-1.736s-1.313.245-.837-.643c.394-.735.758-.881,1.691-.677a2.313,2.313,0,0,0,2.354-.819,3.583,3.583,0,0,0,1.175-1.859c.013-1.094,1.623,2.575,1.991,4.537.279,1.49.244,1.571-.433,1.01-1.006-.833-1.974.031-1.149,1.025.329.4.371.669.1.669a4.018,4.018,0,0,0-1.133.262c-.5.193-.91-.27-1.552-1.769Zm-79.045.766a11.14,11.14,0,0,1-.41-5.257c.371-.994.4-.982,1.5.65,1.324,1.956,1.747,3.211,1.311,3.881-.418.641-2.137,1.16-2.4.726ZM214.3,458.4a.949.949,0,0,1,.434-.7c.238-.147.434-.073.434.166a.949.949,0,0,1-.434.7C214.5,458.711,214.3,458.637,214.3,458.4Zm68.064-.051c0-.238.086-.434.191-.434s.312.2.459.434.061.434-.191.434A.448.448,0,0,1,282.364,458.347Zm-98.411-2.5a12.938,12.938,0,0,1,1.931-2.493c1.557-1.737,1.935-1.983,1.951-1.265a5.321,5.321,0,0,1-1.448,2.493C185.019,456.071,183.953,456.625,183.953,455.842Zm9.39-1.157a1.869,1.869,0,0,1,.071-1.389c.305-.546.433-.551.86-.036.383.462.366.79-.071,1.389C193.666,455.385,193.612,455.387,193.343,454.685ZM-138.649,453c.266-.32.354-.71.2-.867s.119-.285.613-.285c.685,0,.845.206.672.867a1.157,1.157,0,0,1-1.1.867c-.678,0-.763-.128-.387-.582Zm334.9-.115a11.519,11.519,0,0,0-.469-1.146c-.1-.179.008-.325.233-.325.432,0,1.042,1.78.719,2.1C196.631,453.617,196.414,453.333,196.252,452.881Zm-4.393-1.131a.947.947,0,0,1,.895-1.575c.571.128.592.308.134,1.156C192.446,452.15,192.255,452.227,191.859,451.75Zm5.126-1.49c-.5-.632-.832-1.222-.744-1.311.352-.352,1.571.424,2.22,1.413C199.457,451.885,198.193,451.8,196.984,450.26Zm-7.127-1.678a2.326,2.326,0,0,1-.7-1.2c0-.275.428-.071.951.452s.839,1.064.7,1.2S190.244,448.968,189.857,448.582Zm-340.3-.062a1.194,1.194,0,0,1-.289-.737c0-.272.2-.246.513.065.282.282.412.614.289.737A.373.373,0,0,1-150.442,448.52Zm-2.457-.578c0-.238.086-.434.191-.434s.312.2.459.434.061.434-.191.434A.448.448,0,0,1-152.9,447.942Zm20.376-.867c0-.238.086-.433.191-.433s.312.2.459.433.061.434-.191.434A.448.448,0,0,1-132.523,447.075Zm326.741-.066a2.888,2.888,0,0,0-1.831-.184c-.839.211-1.418-.127-2.99-1.744-2.22-2.284-2.651-3.247-2-4.464a5.491,5.491,0,0,0,.458-2.158c0-2.353,1.576-2.258,2.732.165a2.761,2.761,0,0,1,.043,3.07c-.648,1.55-.635,1.619.52,2.825.835.871,1.461,1.167,2.12,1a1.488,1.488,0,0,1,1.487.429c.781.941.44,1.612-.538,1.06Zm-329.342-2.726c0-.105.2-.312.434-.459s.434-.061.434.191a.448.448,0,0,1-.434.459C-134.929,444.474-135.124,444.388-135.124,444.283Zm68.064-1.543a.435.435,0,0,1,.434-.434.435.435,0,0,1,.434.434.435.435,0,0,1-.434.433A.435.435,0,0,1-67.06,442.74Zm-69.365-1.683a.949.949,0,0,1,.434-.7c.238-.147.434-.073.434.166a.95.95,0,0,1-.434.7C-136.229,441.37-136.424,441.3-136.424,441.057Zm-3.682-1.78c-.152-.246.022-.318.408-.17.751.288.888.6.265.6A.923.923,0,0,1-140.106,439.277Zm68.928,0c-.147-.238-.061-.434.191-.434a.448.448,0,0,1,.459.434c0,.238-.086.434-.191.434S-71.031,439.51-71.178,439.272Zm-67.2-.867c-.147-.238-.061-.434.191-.434a.448.448,0,0,1,.459.434c0,.238-.086.434-.191.434S-138.228,438.643-138.375,438.4Zm1.951,0c0-.238.086-.434.191-.434s.312.2.459.434.061.434-.191.434A.448.448,0,0,1-136.424,438.4Zm-29.805-1.154a.823.823,0,0,1-.542-.616c0-.625,1.914-.464,2.843.239.8.6.777.635-.459.616A6.956,6.956,0,0,1-166.23,437.25Zm10.97-.246a3.249,3.249,0,0,0-1.909-.132,4.541,4.541,0,0,1-2.259-.159c-.935-.374-.852-.418.716-.382,2.3.054,2.92-.322,2.331-1.422-.418-.781-.292-.841,1.776-.841,2,0,4.887.918,5.376,1.709C-148.9,436.3-154.483,437.439-155.259,437Zm8.316.274c-.514-.514.125-1.042,1.26-1.042.682,0,1.027.2.916.542A1.724,1.724,0,0,1-146.944,437.279Zm313.648-.689c-1.148-1.148-.012-2.52,2.087-2.52.93,0,.931.008.133,1.374C167.994,437.036,167.438,437.323,166.7,436.589Zm-310.065-.089c0-.094.293-.283.65-.42s.65-.061.65.17-.293.42-.65.42S-143.361,436.594-143.361,436.5Zm-18.741-3.108a5.582,5.582,0,0,0-2.034-.268c-1.358-.019-1.684-.152-1.351-.554s-.14-.9-1.734-1.938c-3.125-2.025-4.87-2.421-6.969-1.581-1.969.788-2.119.81-2.119.314,0-.907,3.45-1.905,5.935-1.716,2.376.181,3.706.686,8.372,3.182,3.835,2.051,3.839,2.055,2.6,2.408C-160.807,433.641-161.8,433.7-162.1,433.392Zm3.133-3.658c.841-.543,1.3-.543,1.3,0,0,.238-.439.431-.975.427C-159.432,430.155-159.494,430.074-158.968,429.734Zm345.262-.769a4.351,4.351,0,0,1-1-1.312c-.436-.827-.39-1.229.264-2.35,1.011-1.731,1.694-1.947,2.022-.64.345,1.376-.653,4.719-1.284,4.3Zm-342.416-.578c.289-.468,1.923-.521,1.922-.062,0,.179-.487.353-1.081.387S-156.253,428.6-156.122,428.387Zm-8.573-4.178c-.693-.8-.592-1.845.177-1.845.246,0,.348.381.227.846s0,.927.275,1.024.381.3.24.457S-164.33,424.628-164.694,424.209Zm2.518-3.406c-.154-.4-.183-.829-.064-.948s.343.112.5.514.183.829.064.948S-162.022,421.205-162.176,420.8Zm-2.717-.39a.756.756,0,0,1,.826-.65c.734,0,.754.072.175.65a2.824,2.824,0,0,1-.826.65C-164.814,421.063-164.893,420.771-164.893,420.413Zm363.586-9.5a4.472,4.472,0,0,0-1.052-1.868c-1.374-1.633-.887-2.723.74-1.657a3.129,3.129,0,0,1,1.35,3.457C199.4,411.694,198.693,411.74,198.693,410.909ZM-137.725,408.3c0-.105.2-.312.434-.459s.434-.061.434.191a.448.448,0,0,1-.434.459C-137.53,408.491-137.725,408.405-137.725,408.3Zm338.834-.533c-.281-.732.383-1.425,1.377-1.437.689-.008.7.961.022,1.641C201.8,408.678,201.438,408.625,201.109,407.767Zm3.961-1.583c-.842-1.285-2.031-1.461-4.753-.705a3.145,3.145,0,0,1-2.384.011c-.416-.243-.528-.447-.249-.454a5.138,5.138,0,0,0,1.815-1.112,2.553,2.553,0,0,1,2.338-.84c.776.195,1.614-.178,3.375-1.5,3.43-2.577,3.74-3.39,2.344-6.143-1.339-2.643-.966-3.494,1.018-2.322,1.444.853,2.805,3.3,2.41,4.327a5.4,5.4,0,0,0,.472,2.586c.568,1.488.622,2.114.243,2.822-.557,1.04-2.106,1.736-3.868,1.736-.987,0-1.282.253-1.605,1.379l-.4,1.378-.761-1.162ZM29.444,404.7c-.517-.517-.242-.983.581-.983a1.445,1.445,0,0,0,1.109-.434c.4-.652,1.09-.521.83.158-.267.7-2.145,1.634-2.52,1.258Zm-14.783-.75-1.3-.6,1.734-.029c2.16-.036,3.751.369,3.438.875-.349.564-2.379.433-3.871-.25ZM-2.853,399.63c-1.735-.888-1.817-1-.911-1.236,1.085-.284,3.486.069,3.437.505a5.667,5.667,0,0,1-.325.989C-.919,400.537-1.129,400.512-2.853,399.63Zm-8.69-4.69c-.375-1.076-.346-1.488.142-1.976.881-.881,1.566-.262,1.566,1.417,0,1.983-1.088,2.339-1.708.559Zm-10.166.36c.308-.8,1.627-.937,1.361-.14a1.259,1.259,0,0,1-.9.682c-.5.1-.642-.066-.46-.542Zm226.52-4.948c-.794-1.114-.816-1.32-.229-2.157s.573-1.068-.019-2.215c-.975-1.886-.838-2,.853-.71a13.635,13.635,0,0,0,3.666,1.8q3.659,1.087,1.756,1.7c-.48.152-.873.56-.873.906,0,.472-.3.553-1.192.324-2.287-.585-2.938-.442-2.791.614.18,1.294-.112,1.23-1.171-.256Zm-215.657.509a.973.973,0,0,1,.361-1.6c.47-.18.65.047.65.821C-9.834,391.12-10.258,391.448-10.846,390.861Zm212.906-9.14a22.859,22.859,0,0,1-1.97-3.361,33.66,33.66,0,0,0-4.2-5.84c-1.784-1.99-2.691-3.309-2.352-3.422.3-.1.954.352,1.447,1.007a22.68,22.68,0,0,0,4.979,4.675c1.921,1.416,2.871,2.726,1.631,2.25-1.429-.548-1.073.753.777,2.836a19.8,19.8,0,0,1,1.961,2.41c0,.527-1.676.116-2.269-.556Zm-317.242-.759c0-.358.189-.65.42-.65s.308.293.17.65-.326.65-.42.65S-115.182,381.32-115.182,380.962Zm-2.265-1.4-1.615-.169,3.039-3.009a18.246,18.246,0,0,1,3.525-3.009c.282,0,.2.319-.2.759-.9,1-.287,2.118,1.362,2.48a2.6,2.6,0,0,1,1.715,1.319c.445.977.37,1.077-1.132,1.494C-112.33,379.864-114.211,379.9-117.447,379.563Zm-105.637-3.11c-1.5-1.4-1.669-1.994-.673-2.376.892-.342,2.538.773,3.162,2.143.655,1.437.643,1.491-.321,1.491A4.561,4.561,0,0,1-223.084,376.453Zm190.924-2.2c.477-.235,1.415-.625,2.085-.867,1.476-.533,1.232-1.1-.636-1.474-1.281-.256-1.326-.321-.593-.857.436-.319.666-.786.511-1.037s.287-.656,1.018-.91c.715-.249,1.3-.646,1.3-.881,0-1-.9-2.686-1.406-2.62-1.157.151-1.694-.053-1.507-.573a1.961,1.961,0,0,0-.2-1.3c-.558-1.085.724-3.329,1.916-3.353.179,0,.276.233.217.525s.349.6.909.686l1.018.154-.972,1.035-.972,1.035,1.1.417c1.176.447,2.31,1.9,3.465,4.453.553,1.221.917,1.54,1.563,1.371,1.325-.346,1.482.551.239,1.366-.842.552-1,.863-.633,1.231s-.358.616-2.88.98c-1.855.268-4.056.613-4.891.768-1.161.215-1.314.18-.65-.147Zm-7.311-2.395A3.029,3.029,0,0,1-39.1,369.9c.407-.788.486-1.347.214-1.515-.751-.464-.47-1.057.634-1.334a3.473,3.473,0,0,0,1.57-.875c.578-.7,3.248-.824,3.649-.175.147.238-.036.867-.408,1.4a4.343,4.343,0,0,0-.675,2.117c0,.967-.3,1.256-1.842,1.792-1.013.352-2.159.776-2.545.943A.654.654,0,0,1-39.472,371.855Zm7.961-4.307c0-.105.2-.312.434-.459s.434-.061.434.191a.448.448,0,0,1-.434.459C-31.315,367.739-31.511,367.653-31.511,367.548Zm-192.4-2.089c-.425-.512-.4-.75.135-1.192.881-.731,1.318-.235.805.914C-223.324,365.973-223.452,366.011-223.911,365.459Zm-.678-3.26c-.146-.237.024-.672.379-.966.7-.585.852-.126.26.809C-224.176,362.4-224.427,362.461-224.589,362.2Zm-28.022-.277c0-.3,1.315-.838,3.179-1.29.707-.171,1.125-.13.984.1a2.806,2.806,0,0,1-1.445.637,14.974,14.974,0,0,0-1.96.536C-252.269,362.064-252.61,362.073-252.61,361.922ZM5.014,357.048c-.8-.323-.658-.82.253-.889.437-.033.795.218.795.558,0,.646-.15.693-1.048.331Zm-95.268-2.216c-2.743-1.5-4.055-3.795-3.26-5.714a2.218,2.218,0,0,0,.043-2.124c-.718-1.341.219-2.913,2.614-4.387a8.964,8.964,0,0,0,2.524-2.124c.694-1.3.076-3.521-1.133-4.072-.612-.279-.945-.719-.809-1.072.308-.8-1.136-3.541-2.573-4.883-1.058-.988-1.513-1.086-5.136-1.11-4.934-.032-5.853-.307-5.771-1.722.034-.588.164-1.069.29-1.069s1.881-.2,3.9-.452a27.447,27.447,0,0,0,7.768-2.2c4.452-1.9,4.791-1.936,15.414-1.686a52.255,52.255,0,0,0,10.4-.837A32.977,32.977,0,0,1-58.1,320.7a12.758,12.758,0,0,0,4.07-.223c2.364-.637,8.507.129,10.923,1.362,1.428.729,2.184.825,4.594.585,2.6-.259,2.8-.225,2.018.35a9.271,9.271,0,0,1-3.251.951c-2.846.375-5.461,2.4-4.768,3.7.3.559.085,1.035-.882,1.961a6.878,6.878,0,0,0-1.505,1.943c-.3.951-4.134,2.721-6.035,2.787-2.111.073-2.331.522-.7,1.421a24.654,24.654,0,0,1,2.5,1.608l1.1.836-.994.368c-.762.282-1.38.1-2.648-.778-1.72-1.192-3.571-1.2-2.584-.008.385.464.292.644-.428.833-1.611.421-.471,1.254,1.305.954,1.131-.191,1.767-.09,2.12.336.421.507-.128.742-3.286,1.405a41.2,41.2,0,0,1-6.175.832c-2.436.036-4.192.736-6.775,2.7a12.792,12.792,0,0,1-4.726,1.675c-4.377.837-5.856,1.806-8.494,5.562-2.118,3.016-3.4,4.141-4.717,4.151a10.425,10.425,0,0,1-2.818-1.177Zm-30.739-2.9a9.268,9.268,0,0,1-2.535-2.371c-.9-1.429-1.739-1.611-4.181-.91a3.469,3.469,0,0,1-2.126.052c-1.284-.718,1.035-1.425,3.618-1.1,1.964.245,2.4.175,2.63-.421a3.251,3.251,0,0,1,3.737-1.525,2.714,2.714,0,0,0,2.3-.032c1.239-.473,1.256-.515.447-1.11a3.3,3.3,0,0,0-1.174-.618,6.014,6.014,0,0,1-1.467-1.935,9.63,9.63,0,0,0-2.6-2.84c-1.368-.846-1.549-.861-2.773-.228-1.07.553-1.688.592-3.381.212a10.792,10.792,0,0,0-3.536-.192c-1.4.261-3.955-.422-3.955-1.056,0-1.165,3.672-3.779,5.853-4.168l1.734-.309-1.24,1.321c-1.71,1.822-1.067,2.66.79,1.03a7.661,7.661,0,0,1,3.025-1.556c1.339-.251,1.912-.087,3.593,1.026,2.237,1.481,2.409,1.521,3.67.846.76-.406,1.041-.295,1.866.74a7.047,7.047,0,0,0,3.087,1.888c1.98.627,2.116.763,2.116,2.129a2.376,2.376,0,0,0,.991,2.168c2.909,2.081,2.846,1.995,2.216,3-.863,1.382-1.545,1.482-3.455.508-1.329-.678-1.91-.771-2.579-.413-.819.438-.827.532-.168,1.806a2.307,2.307,0,0,1,.223,2.381c-.453.994-.525,1.009-1.755.373-2.418-1.25-4.046-.427-1.79.9.707.417,1.186.918,1.066,1.113C-117.168,353.325-119.313,352.964-120.993,351.932Zm89.049.561c0-.2.293-.361.65-.361s.65.163.65.361-.293.361-.65.361S-31.944,352.692-31.944,352.494Zm-105.395-2.331a3.22,3.22,0,0,0-2.715-.157c-2.035.562-2.747.151-1.714-.99,1.322-1.461,2.219-1.748,3.813-1.222,1.795.592,2.591,1.473,2.107,2.329C-136.157,350.667-136.367,350.673-137.339,350.162Zm86.1-.2a3.15,3.15,0,0,0-2.023-.627c-.547.173-.669.023-.5-.62.258-.986,4.067-2.41,5.355-2a5.769,5.769,0,0,0,2.55-.26c1.5-.448,1.894-.415,2.906.248l1.172.768-1.044.814c-.881.687-2.515,1.282-6.463,2.356A3.358,3.358,0,0,1-51.236,349.965Zm-117.7-8.093a17.573,17.573,0,0,1-3.227-1.133l-2.143-.962,3.01-.217c1.656-.119,3.01-.412,3.01-.65s-1.171-.538-2.6-.666c-1.889-.169-2.245-.287-1.3-.434,1.581-.245,1.7-.929.217-1.3-1.065-.269-1.057-.285.441-.931a11.517,11.517,0,0,1,7.809-.605c2.011.6,2.325.595,3.273-.027.671-.439,1.068-.513,1.1-.2.03.266.079.711.108.989.1.939.965.818,2-.281.955-1.017,2.611-1.5,2.607-.767a7.265,7.265,0,0,1-.857,1.728l-.855,1.4,1.4.73,1.4.73-2.3,1.048c-2.073.946-2.5,1-4.356.554a5,5,0,0,0-4.133.4A6.149,6.149,0,0,1-168.939,341.872Zm17.387-.305c-.392-.472-.23-.7.782-1.123a3.908,3.908,0,0,1,2.256-.217c.939.3.917.345-.51,1.105C-150.845,342.3-150.935,342.309-151.552,341.566Zm119.608-2.006c.84-.543,1.3-.543,1.3,0,0,.238-.439.431-.975.427C-32.408,339.982-32.47,339.9-31.944,339.56Zm79.552-1.2c-2.216-.875-2.171-.828-1.526-1.6.3-.363.378-.667.17-.675s.012-.309.489-.669.87-.793.874-.962c.015-.641,1.78-2.332,3.027-2.9a16.023,16.023,0,0,1,4.119-.816c1.55-.123,3.626-.348,4.613-.5,1.051-.162,1.907-.1,2.066.16.307.5-.279.709-3.644,1.313-3.339.6-5.346,1.535-6.668,3.106-1.393,1.655-1.439,2.7-.16,3.592l.975.68-1.3-.019a10.684,10.684,0,0,1-3.035-.7ZM-179.45,337.1c-.7-.7-.54-.851,2.815-2.688,3.93-2.152,5.905-2.437,9.43-1.364l1.951.594-2.6.516a69.267,69.267,0,0,0-10.2,3.409A1.486,1.486,0,0,1-179.45,337.1Zm31.32-.561c0-.231-.536-.728-1.192-1.1l-1.192-.684,1.6.251c1.134.178,1.7.072,1.951-.367.3-.522,3.059-1.567,4.159-1.575.185,0,.034.582-.336,1.3C-144.014,336.039-148.13,337.841-148.13,336.539Zm6.75-1.266c-.621-1,3.621-2.561,5.423-1.989,1.313.417.436,1.133-1.855,1.514a15.833,15.833,0,0,0-2.579.614.825.825,0,0,1-.989-.139Zm13.843-3.192c-2.861-.228-5.256-.463-5.321-.524-.388-.36.579-1.53,1.62-1.962,1.023-.424,1.495-.367,2.9.345,1.365.695,2.245.81,4.781.628a19.349,19.349,0,0,1,4.335.087l1.227.311-1.517.811a5.978,5.978,0,0,1-2.168.765C-122.042,332.516-124.676,332.309-127.537,332.081Zm124.76-1.772c-2.13-1.09-2.335-1.585-.662-1.594a3.8,3.8,0,0,0,1.842-.474c.562-.4.555-.437-.056-.244a1.317,1.317,0,0,1-1.21-.281c-.384-.384-.583-.377-.834.028-.232.375-.708.419-1.608.15-2.286-.685-2.8-.989-2.8-1.667,0-.575.573-.628,4.119-.378,2.7.19,4.119.137,4.119-.153,0-.853,1.2-.432,1.522.533l.322.975.192-.975c.106-.536.471-.975.812-.975a.579.579,0,0,0,.62-.52c0-.4.116-.4.52,0a7.5,7.5,0,0,0,3.468.52c3.1,0,3.827.554,1.76,1.34a8.765,8.765,0,0,1-4.99-.309c-.417-.123-.757-.063-.756.131,0,.4,2.439,1.872,3.1,1.872a2.015,2.015,0,0,1,1.038.608c.522.522.518.643-.031.853-.352.135-.639.035-.639-.223,0-.3-.551-.365-1.56-.176-1.092.2-1.471.149-1.263-.187a1.077,1.077,0,0,0-.227-1.111c-.556-.67-2.152-.875-2.152-.277a7.381,7.381,0,0,1-1.409,1.913l-1.409,1.558-1.83-.937Zm-115.006-.954a5.794,5.794,0,0,0-3.468-.417,6.3,6.3,0,0,1-3.377-.348c-.887-.507-.67-.565,2.037-.543,3.386.027,4.873-.7,3.039-1.481-.871-.372-.744-.406.749-.2,1.949.27,2.707-.252,1.645-1.134-1.132-.94.113-1.232,4.142-.971q3.74.242,4.7-.272c1.227-.657.746-1.493-.657-1.141-.969.243-7.7-.156-7.412-.44.2-.2,9.734-1.086,15.991-1.481,3.246-.205,6.855-.491,8.02-.636l2.118-.263-3.5,1.68c-3.279,1.575-8.611,3.11-10.8,3.11a11.228,11.228,0,0,0-3.407,1.3,13.032,13.032,0,0,1-3.035,1.3,14.341,14.341,0,0,0-3.151,1.3c-1.4.712-2.554,1.291-2.554,1.285S-117.187,329.705-117.783,329.355Zm-8.454-3.961c-2.1-.465-2.178-.64-.634-1.44,2.251-1.166,4.38-1.465,5.349-.751.767.566.722.653-.783,1.542A4.269,4.269,0,0,1-126.237,325.395Z" transform="translate(106.047 194)" fill="red"/><path d="M-123.24,580c-2.2-.824-2.818-1.631-2.3-3.007.242-.637.708-1.159,1.034-1.159a13,13,0,0,1,3.177,1.67,27.153,27.153,0,0,0,3.861,2.133l1.277.464-1.572.034c-.864.019-2.132.116-2.818.215a6.471,6.471,0,0,1-2.665-.35Zm-5-4.23a2.234,2.234,0,0,0-1.536-.174c-.542.172-.96-.084-1.361-.833a3.077,3.077,0,0,0-1.268-1.319c-.87-.3-2.693-3.253-3.708-6.007a5.161,5.161,0,0,0-2.02-2.818c-1.452-.826-1.556-1.2-.432-1.557,1.286-.408,1.525-2.675.443-4.195a2.678,2.678,0,0,1-.633-1.983c.184-.478-.323-1.318-1.551-2.569-1.549-1.578-1.836-2.152-1.9-3.815a5.756,5.756,0,0,0-.583-2.561c-.347-.418-.418-1.919-.231-4.887a27.059,27.059,0,0,0-.475-7.969c-.831-4.109-1.256-11.765-1.04-18.75a18.664,18.664,0,0,0-.429-4.547c-.687-2.46-3.848-5.566-7.755-7.62-2.794-1.468-3.187-1.845-4.28-4.1a30.333,30.333,0,0,0-2.81-4.537,15.184,15.184,0,0,1-2.135-3.685c-.922-2.849-2.548-5.711-3.657-6.437a4.468,4.468,0,0,1-1.5-2.233c-.376-1.362-.277-1.742.9-3.453,1.277-1.855,1.292-1.931.429-2.157-2.12-.554-1.228-3.388,2.577-8.189,2.529-3.191,3.27-5.622,2.569-8.431-.267-1.07-.506-2.19-.531-2.488s-.215-.542-.422-.542-.167-.391.089-.869c.394-.736.295-.947-.652-1.378-1.38-.629-3.465-.007-3.473,1.036-.01,1.251-.56,1.343-2.374.4a9.211,9.211,0,0,0-2.242-.921,7.81,7.81,0,0,1-2.263-1.539c-.983-.846-2.031-1.732-2.329-1.968a2.052,2.052,0,0,1-.542-1.428,2.783,2.783,0,0,0-.851-1.769,6.278,6.278,0,0,1-1.347-2.275c-.359-1.088-.628-1.374-.97-1.031-.714.714-1.772.579-4.338-.556a9.039,9.039,0,0,1-3.3-2.391c-.533-.749,15.65,1.735,15.288,4.022-.647,4.091-.643,4.183.289,5.691a6.906,6.906,0,0,0,2.17,2.165c1.074.555,1.411.554,2.762-.01,2.147-.9,3.313-.8,4.8.391,1.192.954,1.361.981,2.3.367a6.04,6.04,0,0,0,1.686-2.007c.837-1.667,2.247-2.84,3.432-2.852a3.423,3.423,0,0,0,1.918-1.094c1.137-1.211,3.14-1.605,2.161-.426-.821.99-1.291,4.173-.762,5.162.441.824.476.819,1.278-.172.571-.705.686-1.158.374-1.47-.745-.745-.52-1.364.865-2.388,1.439-1.064,2.551-.954,3.793.372.91.972,5.77,2.287,7.163,1.938,2.121-.532,7.852,2.952,10.005,6.083,1.025,1.491,4.3,2.991,5.741,2.63,2.963-.744,7.025,2.225,7.974,5.828a5.669,5.669,0,0,0,.948,2.221c.633.394-.315,1.951-2.386,3.921-1.323,1.259-1.639,1.8-1.267,2.173s.984.046,2.454-1.308c2.137-1.97,2.85-2.17,3.921-1.1.651.651.631.784-.261,1.734a3.353,3.353,0,0,1-1.65,1.056c-.4.016-.236.206.381.452.847.338,1.289.243,2.168-.467,2.289-1.849,2.827-1.938,4.86-.8,1.322.738,1.851,1.3,1.785,1.9-.185,1.653.2,2.019,1.351,1.268.911-.6,1.536-.625,4.584-.208,3.242.444,3.667.621,5.222,2.176a9.169,9.169,0,0,0,4.085,2.389c2.191.637,2.429.831,2.826,2.307.576,2.139-.1,4.514-1.924,6.769a22.4,22.4,0,0,0-2.124,3.143,11.929,11.929,0,0,1-1.836,2.521c-1.051,1.051-1.11,1.314-.848,3.811.512,4.877-1.874,13.977-4.175,15.923a2.765,2.765,0,0,1-2.578.6c-.977-.151-1.7-.054-1.89.255a6.635,6.635,0,0,1-2.1,1.289,15.911,15.911,0,0,0-3.266,2.046c-1.4,1.2-1.447,1.329-.976,2.756a6,6,0,0,1-.987,5.258,4.2,4.2,0,0,0-.685,2.032,5.048,5.048,0,0,1-1.005,2.4,44.213,44.213,0,0,0-2.37,3.753c-1.847,3.263-2.957,3.829-5.635,2.869-2.324-.833-3.563-.932-3.563-.286,0,.244.463.654,1.029.912a5.784,5.784,0,0,1,1.961,2.334c.763,1.527.843,2.057.446,2.93-.616,1.351-2.97,2.486-5.159,2.486-1.938,0-2.419.474-1.75,1.725a2.882,2.882,0,0,1-.664,2.967,3.947,3.947,0,0,1-1.508-.579c-1.826-.944-2.472-.343-1.549,1.442a3.552,3.552,0,0,0,1.586,1.607c.854.271.863.331.169,1.1a1.714,1.714,0,0,0-.467,1.509,3.023,3.023,0,0,1-.865,2.183c-1.089,1.428-1.105,1.527-.407,2.593a4.043,4.043,0,0,0,1.384,1.361c1.306.5,1.522,2.213.526,4.164s-1.15,3.915-.378,4.845c.7.846-1.66,2.493-2.722,1.9Zm16.171-1.149a1.725,1.725,0,0,1,.52-.867c.286-.286.356-.52.156-.52s-.6.32-.884.711c-.411.561-.694.61-1.348.23-.468-.271-.581-.487-.261-.494s.447-.208.3-.447c-.283-.458.461-.583,2.6-.437,1.91.131,2.1.409.922,1.338-1.1.865-2.005,1.084-2.005.486Zm369.8-16.084a33.7,33.7,0,0,0,6.056-3.482c2.623-1.983,2.84-2.068,3.36-1.326.789,1.126.324,1.942-1.6,2.811a8.9,8.9,0,0,0-2.573,1.789,2.954,2.954,0,0,1-1.767,1.034,5.646,5.646,0,0,0-2.5,1.46C255.647,563.568,251.33,561.218,257.733,558.535Zm12.009-4.219c-.151-.151.206-.652.794-1.114.885-.7.988-.99.6-1.713-.56-1.046.272-2.168,2.2-2.965,1.492-.618,1.867-1.872,1.467-4.9-.275-2.081-.242-2.211.429-1.657.527.436.656.984.468,1.985a2.8,2.8,0,0,0,.894,2.754c.988,1.175,1.282,1.3,2.051.891s.856-.373.615.256a5.014,5.014,0,0,0-.282.906,5.1,5.1,0,0,1-1.409.892,23.881,23.881,0,0,0-3.36,2.332c-1.745,1.441-3.54,2.6-4.018,2.6a.913.913,0,0,1-.447-.274ZM234.791,495.2ZM12.5,539.6a2.428,2.428,0,0,1-.866-2.652,3.678,3.678,0,0,0-.815-3.1,6.889,6.889,0,0,1-1.065-2.038,11.648,11.648,0,0,0-1.7-2.755,8.034,8.034,0,0,1-1.985-5.172A34.3,34.3,0,0,0,2.4,511.458,20.18,20.18,0,0,1,.45,506.636c-.339-2.087.509-5.194,2.444-8.957l1.287-2.5L3.458,493a7.633,7.633,0,0,1-.449-3.272,3.3,3.3,0,0,0-.56-2.472,19.107,19.107,0,0,1-1.514-3.762A8.827,8.827,0,0,0-1.689,479.2c-2.748-2.7-3.1-3.757-2.252-6.69,1.736-5.971-.139-9.454-4.721-8.767-1.784.267-1.852.234-2.1-1.026-.193-.967-.717-1.536-2.033-2.207-1.71-.872-2.442-.876-4.541-.02-.477.194-2.428.867-4.335,1.5-2.868.945-3.729,1.067-4.978.7-1.183-.343-2.179-.254-4.6.41-2.5.686-3.408.76-4.759.387-2.82-.779-7.664-5.145-8.353-7.529-.533-1.845-3.85-6.145-4.978-6.454-.717-.2-.805-.349-.366-.633s.365-.429-.325-.61c-1.1-.286-1.2-1.182-.145-1.191.648-.006.664-.068.108-.427-.41-.265-.455-.423-.123-.427s.213-.539-.378-1.54c-.832-1.409-.849-1.6-.214-2.3,1.94-2.143,2.365-6.758.89-9.665-.7-1.388-.251-3.305,1.251-5.3a38.7,38.7,0,0,0,2.454-4.058c1.371-2.591,4.428-6.194,5.256-6.194.916,0,3.87-3.176,3.87-4.16a7.151,7.151,0,0,1,3.495-5.828,11.5,11.5,0,0,0,3.031-2.838c1.029-1.665,1.175-1.719,2.373-.884a7.911,7.911,0,0,0,2.6.888c1.461.245,2.16.069,4.335-1.095a16.432,16.432,0,0,1,10.34-2.235c2.825.176,4.1.064,5.466-.484,2.017-.807,3.76-.329,3.288.9a1.348,1.348,0,0,0,.192,1.215c.312.376.309.914-.008,1.748-.4,1.048-.31,1.36.677,2.39a5.68,5.68,0,0,0,2.485,1.455c3.484.7,4.475,1.148,5.194,2.366a3.12,3.12,0,0,0,2.36,1.565,12.57,12.57,0,0,1,2.867.95c1.169.6,1.32.582,2.3-.333.655-.616.953-1.267.8-1.752a2.5,2.5,0,0,1,.228-1.655c.671-1.253,2.575-1.13,5.549.358,3.24,1.622,9.383,2.779,11.561,2.178a5.26,5.26,0,0,1,2.972-.011c3,.921,4.53.2,4.939-2.32.136-.837.368-1.522.515-1.522.28,0,.427-1.258.467-4.01.013-.894.225-1.626.47-1.626.292,0,.278-.314-.042-.911-.533-1-1.614-.974-4.2.088a2.273,2.273,0,0,1-2.668-.167c-1.425-.842-2.888-.968-3.31-.286-.314.508-2.53.152-3.733-.6a4.55,4.55,0,0,1-1.671-3.324,2.267,2.267,0,0,0-.975-1.509c-.83-.585-.879-.75-.325-1.113a2.436,2.436,0,0,1,1.635-.194c.691.163,1.326-.11,2.128-.911a4.046,4.046,0,0,1,2.7-1.226,6.554,6.554,0,0,0,2.757-.873c1.433-.944,4.685-.682,7.209.581,3.4,1.7,6.425,1.6,7.641-.253.633-.966.636-1.169.036-2.085a15.955,15.955,0,0,0-3.906-2.859l-3.241-1.844.607-1.174c.334-.646.5-1.283.364-1.417s-.083-.5.113-.814a3.6,3.6,0,0,0,.441-1.13c.1-.657-.6-.475-4.047,1.049-2,.885-2.3,1.156-1.855,1.691a2.193,2.193,0,0,0,1.451.656c.712.015.543.219-.737.895-1.554.82-1.728.831-2.739.169-.864-.566-.977-.83-.568-1.323s.346-.678-.3-.92a3.322,3.322,0,0,1-1.272-.923c-1.242-1.655-5.181,2.7-6.327,6.993-.538,2.015-.52,2.12.493,2.884l1.051.792-1.928.4a8.428,8.428,0,0,1-3.175.057c-1.266-.346-2.871.175-2.871.933,0,.223-.3.291-.656.153a1.429,1.429,0,0,0-1.273.26c-.526.437-.467.794.405,2.434.944,1.776.974,2.019.385,3.2-.738,1.48-1.425,1.37-2.467-.4-.727-1.231-.722-1.259.24-1.4,1.214-.172,1.292-.945.115-1.133-2.686-.429-4.119-1.845-4.119-4.069a4.975,4.975,0,0,0-3.561-4.234,5.449,5.449,0,0,1-2.45-1.418,5.89,5.89,0,0,0-2.168-1.518,5.841,5.841,0,0,1-2.137-1.473c-.454-.648-.752-.726-1.416-.37a1.527,1.527,0,0,0-.841,1.07c0,1.126,5.526,6.218,8.227,7.581,2.864,1.446,3.311,1.962,1.321,1.525-1.774-.39-2.257,0-1.65,1.332.426.935.356,1.22-.5,2.044l-1,.957.227-1.291c.36-2.05-2.343-4.995-4.585-4.995-.822,0-3.978-3.062-4.805-4.661-.884-1.709-1.867-2.039-3.26-1.094-2.1,1.423-3.672,1.9-5.317,1.626-2.186-.369-3.562.393-3.214,1.781.182.725.081,1.048-.328,1.048a4.516,4.516,0,0,0-1.851,1.083,5.554,5.554,0,0,1-1.591,1.084c-.536,0-2.049,2.74-2.051,3.713,0,.931-1.7,2.764-3.333,3.6a7.3,7.3,0,0,1-2.694.486c-1.322,0-1.864.218-2.227.9-.475.888-.489.885-1.6-.226-1.042-1.042-1.642-1.3-3.746-1.629-1.105-.171-1.292-2.673-.465-6.237a11.871,11.871,0,0,0,.385-3.794c-.411-1.637.875-2.6,3.026-2.271,4.968.763,7.873.805,8.554.124.936-.936,1.358-4.022.787-5.753-.373-1.129-.885-1.59-2.413-2.174-2.248-.859-2.3-1.689-.1-1.711a5.876,5.876,0,0,0,2.685-.777c.639-.419,1.346-.648,1.571-.509.613.379,2.934-.959,3.7-2.135a3.35,3.35,0,0,1,1.63-1.276,11.915,11.915,0,0,0,3.12-2.262c1.69-1.574,2.577-2.068,4.026-2.241,1.8-.214,3.6-1.691,2.753-2.252-.527-.349-.967-2.448-.674-3.212A4.053,4.053,0,0,1-3.8,361.861l1.111-.728-.285,1.784c-.248,1.548-.184,1.767.478,1.656a6.887,6.887,0,0,0,1.745-.667c.822-.452,1.024-.43,1.241.135.372.968-.661,2.107-1.374,1.515-.394-.327-.644-.315-.864.041s-.4.347-.665-.075c-.2-.317-.455-.476-.577-.355s.225.781.77,1.464c.919,1.153,1.094,1.207,2.4.751a2.727,2.727,0,0,1,2.616.13c1.078.558,1.442.531,3.515-.256,1.816-.69,2.531-.778,3.335-.412a2.005,2.005,0,0,0,1.974-.025c1.95-1.008,2.49-1.767,2.248-3.162-.359-2.067.3-2.744,2.029-2.091,1.178.445,1.522.427,2.054-.105.564-.564.515-.772-.409-1.755-.889-.946-.951-1.181-.409-1.547a6.448,6.448,0,0,1,2.927-.189c2.3.244,5.172-.656,4.672-1.465-.438-.708-3.081-.913-5.32-.412-1.986.444-2.507.408-4.029-.278-2.364-1.066-2.642-2.313-1.021-4.573,2.087-2.909,2.468-3.835,1.874-4.552-.88-1.061-1.745-.715-3.756,1.5a12.712,12.712,0,0,1-3.218,2.662,4.5,4.5,0,0,0-1.944,1.805c-.589,1.14-.589,1.379.009,2.29a3.571,3.571,0,0,0,1.546,1.3c1.33.422,1.067,1.214-.835,2.516a6.163,6.163,0,0,0-1.734,2.517,4.921,4.921,0,0,1-2.26,2.707c-1.545.892-1.615.9-2.468.123a4.409,4.409,0,0,1-1.139-1.982,7.756,7.756,0,0,0-1.447-2.608L-2.194,358.1l-1.5.917a6.078,6.078,0,0,1-2.371.909,3.521,3.521,0,0,1-3.075-2.869,8.382,8.382,0,0,0-.393-1.98c-.388-.971,1.553-2.792,3.57-3.349s6.131-3.437,6.831-4.788a13.027,13.027,0,0,1,2.344-2.686,7.064,7.064,0,0,0,1.778-2.023c0-.236.927-.76,2.059-1.163s3.035-1.136,4.227-1.627a15.868,15.868,0,0,1,5.636-.982c4.092-.1,6.768.438,8.976,1.819a3.829,3.829,0,0,0,2.819.762c1.5-.3,9.476,2.174,9.808,3.04s-1.954,1.693-3.923,1.409c-.9-.13-2.767-.477-4.144-.772-1.855-.4-2.631-.409-2.992-.048s-.181.627.695,1.026a4.5,4.5,0,0,1,1.809,1.751c.878,1.7,3.689,3.081,5.139,2.529,1.393-.53,1.384-.7-.086-1.495-1.36-.738-.732-.9.976-.248,1.364.518,2.908-.127,2.549-1.064-.168-.439.305-.756,1.642-1.1,2.86-.733,3.07-.838,2.832-1.418-.9-2.194-.91-2.131.4-1.982.7.08,1.206.377,1.148.672s.306.748.807,1.016c.753.4,1.346.259,3.415-.825,3.034-1.591,5.4-2.109,6.277-1.378.491.408,1.306.411,3.663.013a11.337,11.337,0,0,1,3.452-.251.521.521,0,0,0,.7-.2c.342-.553-.6-1.807-1.12-1.487-.624.386-2.675-.305-2.229-.751s12.514,2.362,13.236,3.084c.487.487,2.028-.163,2.028-.854,0-.233-.86-.842-1.912-1.353-3.261-1.584-3.47-4.121-.4-4.891,1.78-.447,2.549.069,5.011,3.355,3.2,4.266,3.114,4.049,2.07,5.516-.773,1.086-.82,1.34-.283,1.546,1.016.39,3.192-.975,3.5-2.195.359-1.429-.311-2.647-1.911-3.474a3.709,3.709,0,0,1-2.168-2.838c0-.339.472-.424,1.409-.253,1.405.257,2.568-.253,5.75-2.521a6.1,6.1,0,0,1,3.2-.889c2.517-.057,3.331-.48,2.607-1.352-.284-.342-.426-.712-.316-.823.554-.554,7.691-1.551,9.335-1.3a3.45,3.45,0,0,0,3.372-.884c.837-.639,1.522-1.333,1.522-1.543,0-.53-3.788-.483-4.119.051-.454.735-1.043.479-.877-.381.14-.726-.227-.844-3.385-1.09-8.623-.671-9.324-.829-8.289-1.863.909-.909,3.14-.892,5.007.04a7.543,7.543,0,0,0,2.816.694,2.55,2.55,0,0,1,1.693.434,2.537,2.537,0,0,0,1.687.434c2.162,0,6.343.934,6.08,1.358-.128.207.277.376.9.376a6.538,6.538,0,0,1,2.518.747c1.026.552,2.46.751,5.506.763,3.274.013,4.363.181,5.311.821.656.442,1.189.928,1.186,1.079a8.469,8.469,0,0,1-2.223,1.5c-2.945,1.625-2.322,2.333,1.24,1.41,2.307-.6,2.837-.6,4.748-.034a5.968,5.968,0,0,0,3.609.22,7.247,7.247,0,0,1,4,.24,7.2,7.2,0,0,0,4.15.211,12.183,12.183,0,0,1,8.211.524c.989.536,2.814,1.529,4.055,2.206,2.2,1.2,2.295,1.213,3.82.529a5.3,5.3,0,0,1,3.872-.26c1.872.358,2.553.314,3.607-.231,1.031-.533,1.2-.8.8-1.27-.761-.917,1.94-1.258,5.258-.664,1.52.272,3.446.544,4.281.6a13.437,13.437,0,0,1,3.623,1.057c1.766.8,3.1.975,8.268,1.117,4.9.135,6.465.331,7.648.962,1.2.64,2.57.8,7.122.847,4.189.041,6.065.239,7.308.773,2.006.862,2.808.546,1.716-.676-.785-.879-.781-.88,2.248-.579,5.075.5,11.162,1.615,13.223,2.412a23.048,23.048,0,0,0,4.545,1.072,16.8,16.8,0,0,1,4.626,1.347c1.7.86,2.247.954,3.337.575,1.489-.519,2.456-.145,4.73,1.83l1.413,1.228-1.065.267a8.352,8.352,0,0,1-4.886-1.21.893.893,0,0,0-.9-.184,5,5,0,0,1-2.253-.417c-2.422-.834-3.5-.521-2.394.7.753.832.737.85-.7.75-2.688-.188-1.949.606,2,2.146,2.146.837,3.994,1.611,4.106,1.72.407.394-.935.882-1.911.7-1.072-.2-3.713.945-3.713,1.617a3,3,0,0,1-.927,1.269c-.852.794-1.028.812-2.168.223a2.049,2.049,0,0,0-2.432-.041,13.918,13.918,0,0,1-2.49.913,5.717,5.717,0,0,0-1.838.76c-.872.724.666,2.832,2.833,3.881a4.4,4.4,0,0,1,2.288,2.05,17.915,17.915,0,0,0,1.05,2.285c.578,1.028.573,1.174-.048,1.413a.685.685,0,0,0-.391,1.021,8.45,8.45,0,0,1,.417,1.839,7.613,7.613,0,0,0,.425,1.8c.222.515.039.806-.645,1.022-.761.241-1.273-.049-2.524-1.432a25.435,25.435,0,0,0-3.2-2.92,22.039,22.039,0,0,1-3.57-3.765c-1.882-2.5-1.921-2.618-1.3-3.825a6.231,6.231,0,0,0,.659-2.242,5.352,5.352,0,0,1,.611-2.074c.626-1.131.385-2.034-.954-3.57a1.152,1.152,0,0,0-2.048.99c.363,1.145-.751,1.516-2.033.677a8.91,8.91,0,0,0-2.843-.954c-1.731-.276-1.859-.223-2.308.954a5.181,5.181,0,0,0-.243,2.408c.2,1,.06,1.2-.964,1.424a5.511,5.511,0,0,1-2.862-.434,4.482,4.482,0,0,0-2.8-.375,27.189,27.189,0,0,1-4.672.357c-3.086.031-3.68.165-4.618,1.046a7.336,7.336,0,0,0-1.581,3.035,12.555,12.555,0,0,1-1.129,2.989c-.594.917-.537,1.01,1.162,1.877a7.149,7.149,0,0,0,5.379.663c1.176-.405,4.762,2.391,5.882,4.586a5.767,5.767,0,0,0,1.685,2.09c1.771.948,2.13,7.166.65,11.231-1.025,2.815-2.173,3.735-3.858,3.094a11.221,11.221,0,0,0-1.315-.445,9.026,9.026,0,0,0-1.072,1.779c-.67,1.284-.8,1.932-.47,2.329.632.761.164,1.751-1.1,2.327-.583.266-1.06.672-1.06.9a12.61,12.61,0,0,0,3.014,2.494c2.109,1.451,3.236,2.566,3.753,3.712a4.364,4.364,0,0,1,.562,1.8c-.1.087-.983.566-1.969,1.063l-1.793.9-1.079-2.476c-1.207-2.772-2.243-3.886-4.068-4.377-.919-.247-1.239-.6-1.239-1.357,0-.7-.45-1.287-1.405-1.847-1.392-.816-1.419-.815-2.9.1s-1.5.917-1.955.066a4.007,4.007,0,0,1-.459-1.522,1.5,1.5,0,0,0-.81-1.1c-.662-.355-1.081-.14-2.3,1.177a14.1,14.1,0,0,1-2.33,2.089c-.719.409-.757.582-.262,1.178a11.463,11.463,0,0,0,2.45,1.744c1.635.914,1.948.966,2.5.414.524-.524.951-.543,2.533-.114l1.9.516-1.06.709c-1.966,1.314-2.587,2-2.867,3.191-.23.974-.093,1.266.781,1.664a5.689,5.689,0,0,1,1.971,2.356,7.214,7.214,0,0,0,2.222,2.648c1.587.937,2.047,1.933,1.13,2.446-.854.478-.446,1.193.681,1.193,1.35,0,1.358.805.053,5.454-1.58,5.63-3.007,7.508-6.74,8.874a19.073,19.073,0,0,1-3.974,1.05,5.288,5.288,0,0,0-4.077,2.226l-.893,1.135-.416-1.1c-.543-1.429-1.789-1.788-3.577-1.032a5.186,5.186,0,0,0-3.155,3.229c-.39,1.279.991,3.53,3.277,5.34a15.621,15.621,0,0,1,4.477,7.931c.43,2.361-.332,3.91-2.376,4.832a4.049,4.049,0,0,0-1.937,1.53c-.321,1.013-2.246,2.274-2.6,1.7a1.787,1.787,0,0,1-.013-1.235,2.667,2.667,0,0,0-.015-1.506c-.214-.557-.45-.607-1.135-.24-.713.382-.988.285-1.564-.55-1.415-2.052-5.516-5.348-6.652-5.348-.4,0-.555.482-.486,1.517a15.538,15.538,0,0,1-.378,3.616c-.428,1.88-.384,2.225.423,3.316a8.133,8.133,0,0,1,1.174,2.308,9.8,9.8,0,0,0,2.841,3.149c2.39,1.917,2.642,2.3,3.647,5.479a38.364,38.364,0,0,1,1.08,3.831c0,.735-.906.437-2.8-.92-1.954-1.4-3.2-3.623-4.242-7.547a5.243,5.243,0,0,0-2.353-3.468c-1.724-1.268-1.776-1.379-1.637-3.478.079-1.192.274-2.882.434-3.755.225-1.229.039-2.11-.825-3.9a27.045,27.045,0,0,1-1.612-4.344c-.61-2.494-1.472-2.912-3-1.452a5.329,5.329,0,0,1-1.416,1.1c-.69,0-1.638-1.469-1.411-2.185.413-1.3-2.127-5.837-3.613-6.453a4.254,4.254,0,0,1-2.054-2.257c-.864-1.917-1.834-2.651-2.8-2.12a18.013,18.013,0,0,1-3.127.86c-2.508.514-3.408,1.274-3.065,2.587.126.484-.312.951-1.365,1.452a4.8,4.8,0,0,0-2.043,1.819,2.715,2.715,0,0,1-1.323,1.343,3.753,3.753,0,0,0-1.567,1.474,13.237,13.237,0,0,1-2.68,2.7c-1.463,1.124-1.92,1.753-1.847,2.544.425,4.623-.227,8.491-1.819,10.788-1.553,2.24-1.662,2.3-2.975,1.7a2.455,2.455,0,0,1-1.353-1.955,31.7,31.7,0,0,0-1.94-5.042c-5.543-11.906-6.363-14.178-5.891-16.328.319-1.453-.446-3.645-1.186-3.4a.9.9,0,0,0-.551.794c-.037,1.979-2.26,2.283-4,.546L101.49,429.6l.99-.366c1.114-.412,1.012-1.523-.121-1.32a3.558,3.558,0,0,1-2.048-.975,5.613,5.613,0,0,0-1.687-1.107c-.2,0-.5-.392-.648-.872-.4-1.259-2.7-2.354-3.852-1.835-1.037.468-10.448.37-12.023-.125a6.973,6.973,0,0,1-2.332-1.813c-1.293-1.479-1.313-1.485-3.251-.963-1.837.5-2.1.449-4.579-.8-2.138-1.079-2.779-1.662-3.439-3.125-.842-1.868-2.713-3.22-3.85-2.784a2.3,2.3,0,0,0-.93,1.517c-.22,1,0,1.652,1.067,3.1a12.947,12.947,0,0,1,1.792,3.487c.527,1.958,1.569,2.541,2.432,1.36.521-.712.661-.737,1.014-.179a1.593,1.593,0,0,1,.27,1.082c-.241.749,2.261,1.983,3.428,1.69a8.31,8.31,0,0,0,2.8-2.233c1.5-1.7,2.021-1.816,1.765-.388a2.888,2.888,0,0,0,1.837,2.736c1.935,1,4.63,3.228,4.63,3.827a3.638,3.638,0,0,1-1.126,1.553,11.82,11.82,0,0,0-1.981,2.718c-1.142,2.228-4.453,5.486-5.574,5.486a5.724,5.724,0,0,0-3.99,2.265,6.359,6.359,0,0,1-2.124,1.739,68.776,68.776,0,0,1-10.478,4.4c-1.493.28-1.614.212-2.4-1.347a15.313,15.313,0,0,1-1.155-4.027,6.608,6.608,0,0,0-1.569-3.808,5.939,5.939,0,0,1-1.247-1.842,8.406,8.406,0,0,0-1.739-2.209,9.68,9.68,0,0,1-2.443-4.227,13,13,0,0,0-1.752-3.737c-3.979-4.941-5.157-6.683-5.75-8.5-.786-2.411-1.451-2.8-1.758-1.03l-.218,1.257-1.467-1.852c-2.26-2.853-2.545-1.556-.423,1.927,1,1.648,2.6,4.558,3.556,6.465a42.223,42.223,0,0,0,2.743,4.81,5.274,5.274,0,0,1,1.012,2.738c0,1.634.487,2.653,2.4,5.025a9.471,9.471,0,0,1,1.69,3.094c.2.96,1.042,1.963,2.841,3.406,2.734,2.193,4.506,4.482,4.945,6.389a3.062,3.062,0,0,0,1.584,1.862c1.209.625,1.635.608,5.455-.22a33.1,33.1,0,0,0,5.365-1.529l1.221-.632.29,1.716c.263,1.559-.02,2.31-3.106,8.23-3.318,6.364-3.474,6.575-6.773,9.18a30.427,30.427,0,0,0-4.319,3.989c-.518.728-2.176,2.693-3.684,4.368-4.4,4.887-5,9.185-2.081,14.946a5.376,5.376,0,0,1,.855,3.271,9.626,9.626,0,0,0,.208,3.269c.41,1.914.364,2.425-.346,3.817-1.025,2.008-1.84,2.73-4.706,4.166a6.054,6.054,0,0,0-2.276,1.552,11.689,11.689,0,0,1-1.951,2.608,11.276,11.276,0,0,0-1.951,2.633,9.546,9.546,0,0,0,.894,2.188c1.474,2.889.483,4.982-3.049,6.445-1.489.617-1.978,1.876-1.61,4.146.193,1.19.07,1.585-.6,1.946a7.2,7.2,0,0,0-1.869,2.06c-1.777,2.791-6.886,7.729-9.206,8.9-1.937.977-2.432,1.063-3.855.67a7.7,7.7,0,0,0-4.37.237c-3.407.856-3.045.891-4.365-.428ZM69.6,401.327c1.119-.579,1.279-.9,1.279-2.548a3.4,3.4,0,0,0-.679-2.45,7.239,7.239,0,0,1-1.344-1.85c-.606-1.171-.6-1.263.029-1.021.834.32,1.995-.065,1.995-.661a5.207,5.207,0,0,0-.9-1.687c-.743-1.043-1.04-1.182-1.734-.81-.561.3-.838.3-.838.008,0-.242-.774-.835-1.72-1.317-2.093-1.068-2.838-2.251-2.185-3.471.494-.923,2.259-1.57,3.013-1.1,1.016.628,1.316-.3.477-1.475-2.033-2.856-4.864-2.668-8.376.556-2.266,2.08-2.463,2.633-1.181,3.319a1.576,1.576,0,0,1,.867,1.109,7.2,7.2,0,0,0,1.714,2.5c2.171,2.355,2.569,3.431,2.3,6.218l-.216,2.244,2.978,1.528c1.638.841,3.037,1.538,3.108,1.55A8.7,8.7,0,0,0,69.6,401.327ZM57.66,522.425c-1.224-.694-1.4-1.061-1.718-3.62-.255-2.045-.149-2.489,1.074-4.477,1.243-2.021,1.333-2.41,1.059-4.6-.4-3.169.278-4.834,2.12-5.238,1.735-.381,5.49-3.7,6.39-5.641l.687-1.487.478,1.049c1.2,2.639,1.08,3.8-1.012,9.585-1.119,3.1-2.32,6.8-2.668,8.231-1.115,4.578-1.748,5.682-3.574,6.23-1.944.582-1.756.584-2.836-.028Zm213.556-7.537c-1.383-1.513-2.211-2.812-2.211-3.468,0-1.455.234-1.328,1.485.807a17.285,17.285,0,0,0,2.4,3.116,5.4,5.4,0,0,1,1.315,1.612c0,.834-.923.2-2.991-2.067Zm-193.4-.615a.434.434,0,1,1,.434.434A.435.435,0,0,1,77.819,514.272Zm228.3-.791a.542.542,0,0,1,.191-.74c.644-.4.872-.081.442.614C306.522,513.728,306.3,513.773,306.119,513.481Zm-225.265-.7c0-.105.2-.312.434-.459s.434-.061.434.191a.448.448,0,0,1-.434.459C81.049,512.971,80.854,512.885,80.854,512.78Zm213.991-4.4c-.422-1.1.114-1.486,1.309-.942,1.031.47,1.054.542.335,1.068C295.483,509.241,295.166,509.217,294.845,508.38Zm2.747-1.928c-.847-.523-.26-.942,1.087-.775,1.056.13,1.08.178.326.643a1.422,1.422,0,0,1-1.414.132Zm-20.241-1.591c-.89-1.917-.578-2.654.342-.808.958,1.92.975,1.983.525,1.978C278.039,506.03,277.648,505.5,277.35,504.861Zm1.66-.308c-.019-.457.084-.713.228-.569a.872.872,0,0,1,.034.831c-.138.346-.241.243-.262-.262Zm35.294-4.162c-.4-.642-.021-.97.905-.789.677.132.685.2.073.71-.488.4-.764.427-.978.079Zm-256.211-2.16c-.147-.238-.061-.433.191-.433a.448.448,0,0,1,.459.433c0,.238-.086.434-.191.434S58.241,498.47,58.093,498.231Zm190.319-4.073c-2.744-.865-3.987-1.669-5.067-3.273-1.233-1.833-3.491-3.221-4.644-2.855a4.494,4.494,0,0,0-1.743,1.787c-.839,1.422-1,1.5-2.524,1.229a6.45,6.45,0,0,1-2.78-1.363c-.805-.75-1.422-.988-2.051-.788a2.318,2.318,0,0,1-1.592-.1c-.6-.333-.537-.49.416-1.114,1.1-.724,1.106-.733.365-2.287-.595-1.248-1.416-1.9-4.1-3.247a16.192,16.192,0,0,0-4.637-1.687c-1.612,0-2.278-1.486-1.064-2.374.722-.528.617-.659-1.268-1.575-2-.972-2.03-1.013-1.074-1.544a4.952,4.952,0,0,1,1.933-.561c1.016-.016,2.3,1.449,2.3,2.624a4.287,4.287,0,0,0,.937,1.9c.923,1.174.947,1.179,1.626.331a12.068,12.068,0,0,1,2.687-2.005l2-1.145,2.77,1.25c1.524.687,3.687,1.58,4.806,1.984a30.492,30.492,0,0,1,4.978,2.666c3.09,2.029,4.432,3.74,3.662,4.668-.627.756,1.838,4.2,4.389,6.133,2.8,2.124,2.757,2.32-.325,1.349Zm18.867-.035c-.342-.412-.375-.661-.087-.661.524,0,1.135.823.834,1.123-.109.109-.445-.1-.747-.462Zm-72.842-1.765c-.628-.348-.81-.6-.433-.608.774-.01,2.013.711,1.721,1C195.613,492.866,195.033,492.688,194.437,492.359Zm7.33-.573a4.406,4.406,0,0,1,4.932-1.894c1.3.416,1.316.451.287.492a8.928,8.928,0,0,0-3.158,1.345C201.255,493.361,200.634,493.378,201.767,491.786Zm62.9.593c-.586-.706-.446-.794.615-.387.377.145.686.437.686.65C265.97,493.242,265.268,493.1,264.67,492.379ZM266.7,492a4.545,4.545,0,0,1-.269-1.5c.018-.479.169-.37.446.323a3.03,3.03,0,0,1,.269,1.5c-.082.247-.283.1-.446-.323Zm33.519.408c0-.105.2-.312.434-.459s.434-.061.434.191a.448.448,0,0,1-.434.459C300.414,492.6,300.219,492.51,300.219,492.4Zm-110.878-1.821c-.3-.126-.434-.408-.3-.626.331-.536,3.11-.506,3.445.037.147.238.013.436-.3.439a9.047,9.047,0,0,0-1.435.193,2.859,2.859,0,0,1-1.412-.043Zm6.436-.326c-.788-.949.12-1.238,2.162-.688,2.058.554,2.051.641-.082,1.026C196.75,490.8,196.142,490.7,195.778,490.258Zm65.091-.264c-.3-.48-.353-.867-.12-.867s.631.39.886.867.309.867.12.867S261.166,490.471,260.869,489.994Zm2.715-.436c-1.159-1.281-.539-1.482.654-.212.559.6.818,1.082.575,1.082a2.624,2.624,0,0,1-1.229-.87Zm-81.284-.075a34.118,34.118,0,0,1-4.856-1.059,6.543,6.543,0,0,0-2.935-.384c-.993.315-5.215-.926-5.215-1.533,0-1.386,3.886-1.491,5.952-.161.771.5,1.379.53,3.009.164,1.806-.4,2.182-.355,3.243.43a4.8,4.8,0,0,0,1.637.887c.857,0,3.459,1.45,3.24,1.806a.822.822,0,0,1-.74.3c-.284-.033-1.784-.236-3.334-.451Zm77.818-2.09c-.432-.477-.59-.867-.351-.867a2.624,2.624,0,0,1,1.218.867c.432.477.59.867.351.867a2.625,2.625,0,0,1-1.218-.867Zm-2.734-.549a5.379,5.379,0,0,1-.727-1.838c-.247-1.15-.22-1.2.243-.431a13.846,13.846,0,0,0,1.139,1.583c.36.417.446.822.205.971A.738.738,0,0,1,257.384,486.844Zm-9.181-1.378-1.077-.6,1.67-.313a7.917,7.917,0,0,0,3.136-1.6c.881-.773,1.464-1.053,1.46-.7-.01.882-.543,1.561-2.164,2.756C249.535,486.26,249.615,486.248,248.2,485.466Zm-81.323-1.688c-1.593-.907-4.466-4.418-5.4-6.6a24.75,24.75,0,0,0-2.569-4.308,30.709,30.709,0,0,1-2.318-3.468,15.091,15.091,0,0,0-2.471-3.035c-2.094-2.011-3.382-4.124-2.5-4.109,1.137.02,4.066,1.648,5.322,2.959,3.465,3.617,4.175,4.261,5.81,5.269,1.579.973,2.326,1.985,2.4,3.252a4.393,4.393,0,0,0,1,1.517c.535.6,1.543,1.717,2.241,2.491a7.4,7.4,0,0,1,1.55,2.684C170.442,482.728,168.592,484.754,166.879,483.778Zm-87.326-.286a.434.434,0,1,1,.434.434A.435.435,0,0,1,79.553,483.492Zm114.666,0a1.879,1.879,0,0,1,0-1.281,2.575,2.575,0,0,0-.4-1.86c-.6-.921-.6-1.114.061-2.056a9.8,9.8,0,0,0,1.049-3.409,5.737,5.737,0,0,1,1.341-3.39c.946-.946,1.184-.988,3.311-.585,1.826.346,2.545.3,3.539-.21,1.665-.861,1.786-.822,1.233.391a2.429,2.429,0,0,1-3.587,1.259c-2.644-1.385-6.151.674-4.3,2.524.68.68,1.057.742,2.317.381,2.16-.619,3.011-.506,1.67.223-1.518.825-1.806,1.74-1.024,3.253a6.257,6.257,0,0,1,.647,2.372c0,.987-.1,1.065-.868.656a4.762,4.762,0,0,1-1.53-2.05c-.657-1.573-.669-1.579-1.51-.738-.738.738-.788,1.066-.384,2.528.365,1.322.34,1.759-.115,2.047-.766.485-1.122.471-1.448-.057Zm59.48-2.312a6.479,6.479,0,0,0-2.08-1.825c-.735-.38-1.239-.789-1.12-.908.674-.674,4.436,2.388,4.115,3.35C254.516,482.087,254.123,481.822,253.7,481.175Zm-68.08-1.443a3.163,3.163,0,0,0-1.958-.379c-1.078.342-5.363-.53-5.787-1.178a36.934,36.934,0,0,1-1.862-5.956,2.537,2.537,0,0,1,.341-1.9c.5-.678.753-.729,1.539-.309.829.444,1.005.368,1.46-.63a5.222,5.222,0,0,1,2.1-1.944,4.831,4.831,0,0,0,2.127-2.114,3.085,3.085,0,0,1,2.018-1.792,6.548,6.548,0,0,0,2.608-1.97c.622-.815,1.362-1.482,1.644-1.482a5.22,5.22,0,0,1,1.9,1.431l1.387,1.431-1.112,1.5c-1.263,1.7-1.2,3.16.234,5.169l.867,1.217-1.08.707c-.594.389-1.079.947-1.078,1.239,0,.993-2.774,6.716-3.471,7.151-.485.3-1.049.246-1.882-.191Zm25.184-.008c-.9-.234-1.022-1-.163-1a14.918,14.918,0,0,1,2.039.289c1.222.244,1.313.339.6.62A3.188,3.188,0,0,1,210.8,479.724Zm69.039-5.528c0-.105.2-.312.434-.459s.434-.061.434.191a.448.448,0,0,1-.434.459C280.038,474.387,279.843,474.3,279.843,474.2Zm-70.558-1.176c-.347-.347-.367-.748-.067-1.31a1.51,1.51,0,0,0,.176-1.225c-.391-.633.588-2.168,1.383-2.168.637,0,.635.074-.028.806a1.546,1.546,0,0,0-.3,1.947c.688,1.81-.06,3.058-1.169,1.949ZM-8.453,471.6c0-.105.2-.312.434-.459s.434-.061.434.191a.448.448,0,0,1-.434.459C-8.258,471.786-8.453,471.7-8.453,471.6ZM292.2,470.486c-.147-.238-.061-.434.191-.434a.448.448,0,0,1,.459.434c0,.239-.086.434-.191.434S292.346,470.724,292.2,470.486ZM-5.852,466.393c0-.105.2-.312.434-.459s.434-.061.434.191a.448.448,0,0,1-.434.459C-5.657,466.584-5.852,466.5-5.852,466.393Zm208.532-6.518c-.827-1.929-.937-2.016-2.21-1.736s-1.313.245-.837-.643c.394-.735.758-.881,1.691-.677a2.313,2.313,0,0,0,2.354-.819,3.582,3.582,0,0,0,1.175-1.859c.013-1.094,1.624,2.575,1.991,4.537.279,1.49.244,1.571-.433,1.01-1.006-.833-1.974.031-1.149,1.025.329.4.371.669.1.669a4.018,4.018,0,0,0-1.133.262c-.5.193-.91-.27-1.552-1.769Zm-79.045.766a11.14,11.14,0,0,1-.41-5.257c.371-.994.4-.982,1.5.65,1.324,1.956,1.747,3.211,1.311,3.881-.418.641-2.137,1.16-2.4.726ZM220.45,458.4a.949.949,0,0,1,.434-.7c.238-.147.434-.073.434.166a.95.95,0,0,1-.434.7C220.645,458.711,220.45,458.637,220.45,458.4Zm68.064-.051c0-.238.086-.434.191-.434s.312.2.459.434.061.434-.191.434A.448.448,0,0,1,288.514,458.347Zm-98.411-2.5a12.938,12.938,0,0,1,1.931-2.493c1.557-1.737,1.935-1.983,1.951-1.265a5.321,5.321,0,0,1-1.448,2.493C191.169,456.071,190.1,456.625,190.1,455.842Zm9.39-1.157a1.869,1.869,0,0,1,.071-1.389c.305-.546.433-.551.86-.036.383.462.366.79-.071,1.389C199.816,455.385,199.762,455.387,199.493,454.685ZM-132.5,453c.266-.32.354-.71.2-.867s.119-.285.613-.285c.685,0,.845.206.672.867a1.157,1.157,0,0,1-1.1.867c-.678,0-.763-.128-.387-.582Zm334.9-.115a11.523,11.523,0,0,0-.469-1.146c-.1-.179.008-.325.233-.325.432,0,1.042,1.78.719,2.1C202.781,453.617,202.563,453.333,202.4,452.881Zm-4.393-1.131a.947.947,0,0,1,.895-1.575c.571.128.592.308.134,1.156C198.6,452.15,198.4,452.227,198.009,451.75Zm5.126-1.49c-.5-.632-.832-1.222-.744-1.311.352-.352,1.571.424,2.22,1.413C205.607,451.885,204.342,451.8,203.134,450.26Zm-7.127-1.678a2.326,2.326,0,0,1-.7-1.2c0-.275.428-.071.951.452s.839,1.064.7,1.2S196.393,448.968,196.007,448.582Zm-340.3-.062a1.194,1.194,0,0,1-.289-.737c0-.272.2-.246.513.065.282.282.412.614.289.737A.373.373,0,0,1-144.292,448.52Zm-2.457-.578c0-.238.086-.434.191-.434s.312.2.459.434.061.434-.191.434A.448.448,0,0,1-146.749,447.942Zm20.376-.867c0-.238.086-.433.191-.433s.312.2.459.433.061.434-.191.434A.448.448,0,0,1-126.373,447.075Zm326.741-.066a2.888,2.888,0,0,0-1.831-.184c-.839.211-1.418-.127-2.99-1.744-2.22-2.284-2.651-3.247-2-4.464a5.491,5.491,0,0,0,.458-2.158c0-2.353,1.576-2.258,2.732.165a2.761,2.761,0,0,1,.042,3.07c-.648,1.55-.635,1.619.52,2.825.835.871,1.461,1.167,2.12,1a1.488,1.488,0,0,1,1.487.429c.781.941.44,1.612-.538,1.06Zm-329.342-2.726c0-.105.2-.312.434-.459s.434-.061.434.191a.448.448,0,0,1-.434.459C-128.779,444.474-128.974,444.388-128.974,444.283Zm68.064-1.543a.435.435,0,0,1,.434-.434.435.435,0,0,1,.434.434.435.435,0,0,1-.434.433A.435.435,0,0,1-60.91,442.74Zm-4.119-3.468c-.147-.238-.061-.434.191-.434a.448.448,0,0,1,.459.434c0,.238-.086.434-.191.434S-64.881,439.51-65.029,439.272Zm237.883-2.682c-1.148-1.148-.012-2.52,2.087-2.52.93,0,.931.008.133,1.374C174.143,437.036,173.588,437.323,172.854,436.589Zm19.59-7.624a4.351,4.351,0,0,1-1-1.312c-.436-.827-.39-1.229.264-2.35,1.011-1.731,1.694-1.947,2.022-.64.345,1.376-.653,4.719-1.284,4.3Zm12.4-18.056a4.472,4.472,0,0,0-1.052-1.868c-1.374-1.633-.887-2.723.74-1.657a3.129,3.129,0,0,1,1.35,3.457C205.553,411.694,204.843,411.74,204.843,410.909Zm2.416-3.142c-.281-.732.383-1.425,1.377-1.437.689-.008.7.961.022,1.641C207.951,408.678,207.588,408.625,207.259,407.767Zm3.961-1.583c-.842-1.285-2.031-1.461-4.753-.705a3.145,3.145,0,0,1-2.384.011c-.416-.243-.528-.447-.249-.454a5.138,5.138,0,0,0,1.815-1.112,2.553,2.553,0,0,1,2.338-.84c.776.195,1.614-.178,3.375-1.5,3.43-2.577,3.74-3.39,2.344-6.143-1.339-2.643-.966-3.494,1.018-2.322,1.444.853,2.805,3.3,2.41,4.327a5.4,5.4,0,0,0,.472,2.586c.568,1.488.622,2.114.243,2.822-.557,1.04-2.106,1.736-3.868,1.736-.987,0-1.282.253-1.605,1.379l-.4,1.378-.761-1.162ZM35.593,404.7c-.517-.517-.242-.983.581-.983a1.445,1.445,0,0,0,1.109-.434c.4-.652,1.09-.521.83.158-.267.7-2.145,1.634-2.52,1.258Zm-14.783-.75-1.3-.6,1.734-.029c2.16-.036,3.751.369,3.438.875-.349.564-2.379.433-3.871-.25ZM3.3,399.63c-1.735-.888-1.817-1-.911-1.236,1.085-.284,3.486.069,3.437.505a5.667,5.667,0,0,1-.325.989C5.231,400.537,5.02,400.512,3.3,399.63Zm-8.69-4.69c-.375-1.076-.346-1.488.142-1.976.881-.881,1.566-.262,1.566,1.417,0,1.983-1.088,2.339-1.708.559Zm-10.166.36c.308-.8,1.627-.937,1.361-.14a1.259,1.259,0,0,1-.9.682c-.5.1-.642-.066-.46-.542Zm226.52-4.948c-.794-1.114-.815-1.32-.229-2.157s.573-1.068-.019-2.215c-.975-1.886-.838-2,.853-.71a13.635,13.635,0,0,0,3.666,1.8q3.659,1.087,1.756,1.7c-.48.152-.873.56-.873.906,0,.472-.3.553-1.192.324-2.287-.585-2.938-.442-2.791.614.18,1.294-.112,1.23-1.171-.256ZM-4.7,390.861a.973.973,0,0,1,.361-1.6c.47-.18.65.047.65.821C-3.685,391.12-4.109,391.448-4.7,390.861Zm212.906-9.14a22.857,22.857,0,0,1-1.97-3.361,33.66,33.66,0,0,0-4.2-5.84c-1.784-1.99-2.691-3.309-2.352-3.422.3-.1.954.352,1.447,1.007a22.679,22.679,0,0,0,4.979,4.675c1.921,1.416,2.871,2.726,1.631,2.25-1.429-.548-1.073.753.777,2.836a19.8,19.8,0,0,1,1.961,2.41c0,.527-1.676.116-2.269-.556ZM-26.011,374.25c.477-.235,1.415-.625,2.085-.867,1.476-.533,1.232-1.1-.636-1.474-1.281-.256-1.326-.321-.593-.857.436-.319.666-.786.511-1.037s.287-.656,1.018-.91c.715-.249,1.3-.646,1.3-.881,0-1-.9-2.686-1.406-2.62-1.157.151-1.694-.053-1.507-.573a1.961,1.961,0,0,0-.2-1.3c-.558-1.085.724-3.329,1.916-3.353.179,0,.276.233.217.525s.349.6.909.686l1.018.154-.972,1.035-.972,1.035,1.1.417c1.176.447,2.31,1.9,3.465,4.453.553,1.221.917,1.54,1.563,1.371,1.325-.346,1.482.551.239,1.366-.842.552-1,.863-.633,1.231s-.358.616-2.88.98c-1.855.268-4.056.613-4.891.768-1.161.215-1.314.18-.65-.147Zm-7.311-2.395a3.029,3.029,0,0,1,.376-1.951c.407-.788.486-1.347.214-1.515-.751-.464-.47-1.057.634-1.334a3.473,3.473,0,0,0,1.57-.875c.578-.7,3.248-.824,3.649-.175.147.238-.036.867-.408,1.4a4.343,4.343,0,0,0-.675,2.117c0,.967-.3,1.256-1.843,1.792-1.013.352-2.159.776-2.545.943A.654.654,0,0,1-33.322,371.855Zm7.961-4.307c0-.105.2-.312.434-.459s.434-.061.434.191a.448.448,0,0,1-.434.459C-25.166,367.739-25.361,367.653-25.361,367.548Zm36.525-10.5c-.8-.323-.658-.82.253-.889.437-.033.795.218.795.558,0,.646-.15.693-1.048.331ZM-84.1,354.832c-2.743-1.5-4.055-3.795-3.26-5.714a2.218,2.218,0,0,0,.043-2.124c-.718-1.341.219-2.913,2.614-4.387a8.964,8.964,0,0,0,2.524-2.124c.694-1.3.076-3.521-1.133-4.072-.612-.279-.945-.719-.809-1.072.308-.8-1.136-3.541-2.573-4.883-1.058-.988-1.513-1.086-5.136-1.11-4.934-.032-5.853-.307-5.771-1.722.034-.588.164-1.069.29-1.069s1.881-.2,3.9-.452a27.447,27.447,0,0,0,7.768-2.2c4.452-1.9,4.791-1.936,15.414-1.686a52.255,52.255,0,0,0,10.4-.837,32.977,32.977,0,0,1,7.875-.679,12.758,12.758,0,0,0,4.07-.223c2.364-.637,8.507.129,10.923,1.362,1.428.729,2.184.825,4.594.585,2.6-.259,2.8-.225,2.018.35a9.271,9.271,0,0,1-3.251.951c-2.846.375-5.461,2.4-4.768,3.7.3.559.085,1.035-.882,1.961a6.878,6.878,0,0,0-1.505,1.943c-.3.951-4.135,2.721-6.035,2.787-2.111.073-2.331.522-.7,1.421a24.653,24.653,0,0,1,2.5,1.608l1.1.836-.994.368c-.762.282-1.38.1-2.648-.778-1.72-1.192-3.571-1.2-2.584-.008.385.464.292.644-.428.833-1.611.421-.471,1.254,1.305.954,1.131-.191,1.767-.09,2.12.336.421.507-.128.742-3.286,1.405a41.205,41.205,0,0,1-6.175.832c-2.436.036-4.192.736-6.775,2.7a12.792,12.792,0,0,1-4.726,1.675c-4.377.837-5.856,1.806-8.494,5.562-2.118,3.016-3.4,4.141-4.717,4.151a10.425,10.425,0,0,1-2.818-1.177Zm58.31-2.338c0-.2.293-.361.65-.361s.65.163.65.361-.293.361-.65.361S-25.794,352.692-25.794,352.494Zm-19.292-2.529a3.15,3.15,0,0,0-2.023-.627c-.547.173-.669.023-.5-.62.258-.986,4.067-2.41,5.355-2a5.769,5.769,0,0,0,2.55-.26c1.5-.448,1.894-.415,2.906.248l1.172.768-1.044.814c-.881.687-2.515,1.282-6.463,2.356A3.358,3.358,0,0,1-45.087,349.965Zm19.292-10.4c.84-.543,1.3-.543,1.3,0,0,.238-.439.431-.975.427C-26.258,339.982-26.32,339.9-25.794,339.56Zm79.552-1.2c-2.216-.875-2.171-.828-1.526-1.6.3-.363.378-.667.17-.675s.012-.309.489-.669.87-.793.874-.962c.015-.641,1.78-2.332,3.027-2.9a16.023,16.023,0,0,1,4.119-.816c1.55-.123,3.626-.348,4.613-.5,1.051-.162,1.907-.1,2.066.16.307.5-.279.709-3.644,1.313-3.339.6-5.346,1.535-6.668,3.106-1.393,1.655-1.439,2.7-.16,3.592l.975.68-1.3-.019a10.684,10.684,0,0,1-3.035-.7ZM3.372,330.309c-2.13-1.09-2.335-1.585-.662-1.594a3.8,3.8,0,0,0,1.842-.474c.562-.4.555-.437-.056-.244a1.317,1.317,0,0,1-1.21-.281c-.384-.384-.583-.377-.834.028-.232.375-.708.419-1.608.15-2.286-.685-2.8-.989-2.8-1.667,0-.575.573-.628,4.119-.378,2.7.19,4.119.137,4.119-.153,0-.853,1.2-.432,1.522.533l.322.975.192-.975c.106-.536.471-.975.812-.975a.579.579,0,0,0,.62-.52c0-.4.116-.4.52,0a7.5,7.5,0,0,0,3.468.52c3.1,0,3.827.554,1.76,1.34a8.765,8.765,0,0,1-4.99-.309c-.417-.123-.757-.063-.756.131,0,.4,2.439,1.872,3.1,1.872a2.015,2.015,0,0,1,1.038.608c.522.522.518.643-.031.853-.352.135-.639.035-.639-.223,0-.3-.551-.365-1.56-.176-1.092.2-1.471.149-1.263-.187a1.077,1.077,0,0,0-.227-1.111c-.556-.67-2.152-.875-2.152-.277a7.381,7.381,0,0,1-1.409,1.913L5.2,331.246l-1.83-.937Zm-97.615-9.381c3.246-.205,6.855-.491,8.02-.636l2.118-.263-3.5,1.68c-3.279,1.575-8.611,3.11-10.8,3.11C-98.936,324.82-100.5,321.324-94.243,320.929Z" transform="translate(99.897 194)" fill="#626262" stroke="#626263" stroke-width="1"/></g></g></svg>