<svg xmlns="http://www.w3.org/2000/svg" xmlns:xlink="http://www.w3.org/1999/xlink" width="664" height="368" viewBox="0 0 664 368"><defs><filter id="a" x="0" y="0" width="664" height="368" filterUnits="userSpaceOnUse"><feOffset dy="3" input="SourceAlpha"/><feGaussianBlur stdDeviation="3" result="b"/><feFlood flood-opacity="0.161"/><feComposite operator="in" in2="b"/><feComposite in="SourceGraphic"/></filter><linearGradient id="c" x1="0.5" x2="0.5" y2="1" gradientUnits="objectBoundingBox"><stop offset="0" stop-color="red" stop-opacity="0.667"/><stop offset="1" stop-color="red" stop-opacity="0"/></linearGradient></defs><g transform="translate(9.407 6)"><g transform="matrix(1, 0, 0, 1, -9.41, -6)" filter="url(#a)"><rect width="646" height="350" rx="15" transform="translate(9 6)" fill="#fff" opacity="0"/></g><path d="M8617,22615.332s12.066-30.387,23.452-30.387,18.431,16.428,35.981,16.428,40.107-132.588,61.186-132.588,46.7,81.533,71.755,81.533,23.023,51.055,46.633,51.055,38.036,12.01,66.055,12.01,50.484-73.525,70.525-73.451,47.366,73.953,65.032,73.953,12.268-34.6,30.03-35.6,19.5,15.4,34.252,15.4,21.509,21.654,52.173,21.654" transform="translate(-8565.899 -22353.449)" stroke="red" stroke-linecap="round" stroke-width="4" fill="url(#c)"/><line y2="349.5" transform="translate(397.61)" fill="none" stroke="#fff" stroke-linecap="round" stroke-width="2"/><g transform="translate(390.593 207.424)" fill="#fff" stroke="#fff" stroke-width="1"><circle cx="7.5" cy="7.5" r="7.5" stroke="none"/><circle cx="7.5" cy="7.5" r="7" fill="none"/></g><g transform="translate(414.593 190.057)"><rect width="120" height="49" rx="13" fill="#fff"/><text transform="translate(17.999 38)" fill="#242120" stroke="rgba(0,0,0,0)" stroke-width="1" font-size="14" font-family="ArialMT, Arial"><tspan x="0" y="0">7:00 pm</tspan></text><text transform="translate(17.999 22)" fill="#242120" stroke="rgba(0,0,0,0)" stroke-width="1" font-size="14" font-family="Arial-BoldMT, Arial" font-weight="700"><tspan x="0" y="0">21K Views</tspan></text></g><g transform="translate(36.593 274.383)"><text transform="translate(39 13)" fill="#fff" stroke="rgba(0,0,0,0)" stroke-width="1" font-size="14" font-family="Arial-BoldMT, Arial" font-weight="700"><tspan x="-25.679" y="0">4:00 </tspan><tspan y="0" font-family="ArialMT, Arial" font-weight="400">pm</tspan></text><text transform="translate(39 29)" fill="#fff" stroke="rgba(0,0,0,0)" stroke-width="1" font-size="14" font-family="ArialMT, Arial" opacity="0.497"><tspan x="-38.534" y="0">Jan 20 2020</tspan></text><g transform="translate(124)"><text transform="translate(39 29)" fill="#fff" stroke="rgba(0,0,0,0)" stroke-width="1" font-size="14" font-family="ArialMT, Arial" opacity="0.497"><tspan x="-38.534" y="0">Jan 20 2020</tspan></text><text transform="translate(39 13)" fill="#fff" stroke="rgba(0,0,0,0)" stroke-width="1" font-size="14" font-family="Arial-BoldMT, Arial" font-weight="700"><tspan x="-25.679" y="0">5:00 </tspan><tspan y="0" font-family="ArialMT, Arial" font-weight="400">pm</tspan></text></g><g transform="translate(248)"><text transform="translate(39 29)" fill="#fff" stroke="rgba(0,0,0,0)" stroke-width="1" font-size="14" font-family="ArialMT, Arial" opacity="0.497"><tspan x="-38.534" y="0">Jan 21 2020</tspan></text><text transform="translate(39 13)" fill="#fff" stroke="rgba(0,0,0,0)" stroke-width="1" font-size="14" font-family="Arial-BoldMT, Arial" font-weight="700"><tspan x="-25.679" y="0">6:00 </tspan><tspan y="0" font-family="ArialMT, Arial" font-weight="400">am</tspan></text></g><g transform="translate(372.001)"><text transform="translate(39 29)" fill="#fff" stroke="rgba(0,0,0,0)" stroke-width="1" font-size="14" font-family="ArialMT, Arial" opacity="0.497"><tspan x="-38.534" y="0">Jan 21 2020</tspan></text><text transform="translate(39 13)" fill="#fff" stroke="rgba(0,0,0,0)" stroke-width="1" font-size="14" font-family="Arial-BoldMT, Arial" font-weight="700"><tspan x="-25.679" y="0">7:00 </tspan><tspan y="0" font-family="ArialMT, Arial" font-weight="400">am</tspan></text></g><g transform="translate(495)"><text transform="translate(39 29)" fill="#fff" stroke="rgba(0,0,0,0)" stroke-width="1" font-size="14" font-family="ArialMT, Arial" opacity="0.497"><tspan x="-38.534" y="0">Jan 24 2020</tspan></text><text transform="translate(39 13)" fill="#fff" stroke="rgba(0,0,0,0)" stroke-width="1" font-size="14" font-family="Arial-BoldMT, Arial" font-weight="700"><tspan x="-25.679" y="0">9:00 </tspan><tspan y="0" font-family="ArialMT, Arial" font-weight="400">pm</tspan></text></g></g></g></svg>