<svg xmlns="http://www.w3.org/2000/svg" xmlns:xlink="http://www.w3.org/1999/xlink" width="608.056" height="351.5" viewBox="0 0 608.056 351.5"><defs><linearGradient id="a" x1="0.5" x2="0.5" y2="1" gradientUnits="objectBoundingBox"><stop offset="0" stop-color="red" stop-opacity="0.667"/><stop offset="1" stop-color="red" stop-opacity="0"/></linearGradient></defs><g transform="translate(-0.495 1)"><rect width="608.056" height="350" rx="15" transform="translate(0.495)" fill="#fff" opacity="0.005"/><path d="M8617,22615.332s11.245-30.387,21.855-30.387,17.175,16.428,33.53,16.428,37.376-132.588,57.019-132.588,43.515,81.533,66.867,81.533,21.455,51.055,43.457,51.055,35.445,12.01,61.555,12.01,47.046-73.525,65.722-73.451,44.14,73.953,60.6,73.953,11.432-34.6,27.985-35.6,18.173,15.4,31.919,15.4,20.043,21.654,48.618,21.654" transform="translate(-8572.005 -22353.449)" stroke="red" stroke-linecap="round" stroke-width="4" fill="url(#a)"/><line y2="349.5" transform="translate(374.639)" fill="none" stroke="#fff" stroke-linecap="round" stroke-width="2"/><g transform="translate(367.488 197.424)" fill="#fff" stroke="#fff" stroke-width="1"><circle cx="7.5" cy="7.5" r="7.5" stroke="none"/><circle cx="7.5" cy="7.5" r="7" fill="none"/></g><g transform="translate(385.063 180.057)"><rect width="120" height="49" rx="13" fill="#fff"/><text transform="translate(17.999 38)" fill="#242120" stroke="rgba(0,0,0,0)" stroke-width="1" font-size="14" font-family="ArialMT, Arial"><tspan x="0" y="0">7:00 pm</tspan></text><text transform="translate(17.999 22)" fill="#242120" stroke="rgba(0,0,0,0)" stroke-width="1" font-size="14" font-family="Arial-BoldMT, Arial" font-weight="700"><tspan x="0" y="0">21K Views</tspan></text></g><g transform="translate(36.495 274.383)"><text transform="translate(39 13)" fill="#fff" stroke="rgba(0,0,0,0)" stroke-width="1" font-size="14" font-family="Arial-BoldMT, Arial" font-weight="700"><tspan x="-25.679" y="0">4:00 </tspan><tspan y="0" font-family="ArialMT, Arial" font-weight="400">pm</tspan></text><text transform="translate(39 29)" fill="#fff" stroke="rgba(0,0,0,0)" stroke-width="1" font-size="14" font-family="ArialMT, Arial" opacity="0.497"><tspan x="-38.534" y="0">Jan 20 2020</tspan></text><g transform="translate(114.495)"><text transform="translate(39 29)" fill="#fff" stroke="rgba(0,0,0,0)" stroke-width="1" font-size="14" font-family="ArialMT, Arial" opacity="0.497"><tspan x="-38.534" y="0">Jan 20 2020</tspan></text><text transform="translate(39 13)" fill="#fff" stroke="rgba(0,0,0,0)" stroke-width="1" font-size="14" font-family="Arial-BoldMT, Arial" font-weight="700"><tspan x="-25.679" y="0">5:00 </tspan><tspan y="0" font-family="ArialMT, Arial" font-weight="400">pm</tspan></text></g><g transform="translate(228.989)"><text transform="translate(39 29)" fill="#fff" stroke="rgba(0,0,0,0)" stroke-width="1" font-size="14" font-family="ArialMT, Arial" opacity="0.497"><tspan x="-38.534" y="0">Jan 21 2020</tspan></text><text transform="translate(39 13)" fill="#fff" stroke="rgba(0,0,0,0)" stroke-width="1" font-size="14" font-family="Arial-BoldMT, Arial" font-weight="700"><tspan x="-25.679" y="0">6:00 </tspan><tspan y="0" font-family="ArialMT, Arial" font-weight="400">am</tspan></text></g><g transform="translate(343.485)"><text transform="translate(39 29)" fill="#fff" stroke="rgba(0,0,0,0)" stroke-width="1" font-size="14" font-family="ArialMT, Arial" opacity="0.497"><tspan x="-38.534" y="0">Jan 21 2020</tspan></text><text transform="translate(39 13)" fill="#fff" stroke="rgba(0,0,0,0)" stroke-width="1" font-size="14" font-family="Arial-BoldMT, Arial" font-weight="700"><tspan x="-25.679" y="0">7:00 </tspan><tspan y="0" font-family="ArialMT, Arial" font-weight="400">am</tspan></text></g><g transform="translate(457.056)"><text transform="translate(39 29)" fill="#fff" stroke="rgba(0,0,0,0)" stroke-width="1" font-size="14" font-family="ArialMT, Arial" opacity="0.497"><tspan x="-38.534" y="0">Jan 24 2020</tspan></text><text transform="translate(39 13)" fill="#fff" stroke="rgba(0,0,0,0)" stroke-width="1" font-size="14" font-family="Arial-BoldMT, Arial" font-weight="700"><tspan x="-25.679" y="0">9:00 </tspan><tspan y="0" font-family="ArialMT, Arial" font-weight="400">pm</tspan></text></g></g></g></svg>