<svg xmlns="http://www.w3.org/2000/svg" width="797.777" height="379.639" viewBox="0 0 797.777 379.639"><g transform="translate(0 -0.361)"><rect width="797.777" height="379.639" rx="15" transform="translate(0 0.361)" fill="#fff" opacity="0"/><g transform="translate(-50.044 186.408)"><g transform="translate(169.141 -158.192)"><circle cx="3.5" cy="3.5" r="3.5" transform="translate(132.791 84.146)" fill="red"/><circle cx="3.5" cy="3.5" r="3.5" transform="translate(298.791 215.146)" fill="#00b19c"/><circle cx="3.5" cy="3.5" r="3.5" transform="translate(400.791 68.146)" fill="#2c8dff"/><circle cx="3.5" cy="3.5" r="3.5" transform="translate(111.791 77.146)" fill="red"/><ellipse cx="3.818" cy="3.5" rx="3.818" ry="3.5" transform="translate(315.791 206.146)" fill="#00b19c"/><ellipse cx="3.208" cy="3.5" rx="3.208" ry="3.5" transform="translate(418.791 56.146)" fill="#2c8dff"/><ellipse cx="3.818" cy="3.5" rx="3.818" ry="3.5" transform="translate(113.791 92.146)" fill="red"/><ellipse cx="3.818" cy="3.5" rx="3.818" ry="3.5" transform="translate(318.791 220.146)" fill="#00b19c"/><ellipse cx="3.208" cy="3.5" rx="3.208" ry="3.5" transform="translate(424.791 77.146)" fill="#2c8dff"/><ellipse cx="3.208" cy="3.5" rx="3.208" ry="3.5" transform="translate(123.791 80.146)" fill="red"/><circle cx="3.5" cy="3.5" r="3.5" transform="translate(328.791 209.146)" fill="#00b19c"/><circle cx="3.5" cy="3.5" r="3.5" transform="translate(429.791 60.146)" fill="#2c8dff"/><circle cx="3.5" cy="3.5" r="3.5" transform="translate(106.791 84.146)" fill="red"/><ellipse cx="3.208" cy="3.5" rx="3.208" ry="3.5" transform="translate(311.791 215.146)" fill="#00b19c"/><circle cx="3.5" cy="3.5" r="3.5" transform="translate(415.791 68.146)" fill="#2c8dff"/><ellipse cx="3.208" cy="3.5" rx="3.208" ry="3.5" transform="translate(143.791 94.146)" fill="red"/><circle cx="3.5" cy="3.5" r="3.5" transform="translate(305.791 223.146)" fill="#00b19c"/><circle cx="3.5" cy="3.5" r="3.5" transform="translate(409.791 81.146)" fill="#2c8dff"/><ellipse cx="3.818" cy="3.5" rx="3.818" ry="3.5" transform="translate(138.791 73.146)" fill="red"/><ellipse cx="3.208" cy="3.5" rx="3.208" ry="3.5" transform="translate(303.791 204.146)" fill="#00b19c"/><circle cx="3.5" cy="3.5" r="3.5" transform="translate(406.791 69.146)" fill="#2c8dff"/><circle cx="3.5" cy="3.5" r="3.5" transform="translate(123.791 66.146)" fill="red"/><circle cx="3.5" cy="3.5" r="3.5" transform="translate(328.791 195.146)" fill="#00b19c"/><circle cx="3.5" cy="3.5" r="3.5" transform="translate(429.791 75.146)" fill="#2c8dff"/><circle cx="3.5" cy="3.5" r="3.5" transform="translate(134.791 50.146)" fill="red"/><circle cx="3.5" cy="3.5" r="3.5" transform="translate(444.791 52.146)" fill="#2c8dff"/><ellipse cx="3.818" cy="3.5" rx="3.818" ry="3.5" transform="translate(192.791 92.146)" fill="red"/><circle cx="3.5" cy="3.5" r="3.5" transform="translate(419.791 77.146)" fill="#2c8dff"/><ellipse cx="3.818" cy="3.5" rx="3.818" ry="3.5" transform="translate(152.791 99.146)" fill="red"/><circle cx="3.5" cy="3.5" r="3.5" transform="translate(355.791 230.146)" fill="#00b19c"/><ellipse cx="3.208" cy="3.5" rx="3.208" ry="3.5" transform="translate(424.791 60.146)" fill="#2c8dff"/><ellipse cx="3.208" cy="3.5" rx="3.208" ry="3.5" transform="translate(177.791 104.146)" fill="red"/><circle cx="3.5" cy="3.5" r="3.5" transform="translate(380.791 236.146)" fill="#00b19c"/><circle cx="3.5" cy="3.5" r="3.5" transform="translate(406.791 68.146)" fill="#2c8dff"/><circle cx="3.5" cy="3.5" r="3.5" transform="translate(164.791 97.146)" fill="red"/><ellipse cx="3.208" cy="3.5" rx="3.208" ry="3.5" transform="translate(370.791 228.146)" fill="#00b19c"/><ellipse cx="3.818" cy="3.5" rx="3.818" ry="3.5" transform="translate(441.791 59.146)" fill="#2c8dff"/><circle cx="3.5" cy="3.5" r="3.5" transform="translate(164.791 104.146)" fill="red"/><ellipse cx="3.208" cy="3.5" rx="3.208" ry="3.5" transform="translate(370.791 236.146)" fill="#00b19c"/><circle cx="3.5" cy="3.5" r="3.5" transform="translate(441.791 68.146)" fill="#2c8dff"/><circle cx="3.5" cy="3.5" r="3.5" transform="translate(440.791 69.146)" fill="#2c8dff"/><ellipse cx="3.818" cy="3.5" rx="3.818" ry="3.5" transform="translate(328.791 65.146)" fill="#2c8dff"/><circle cx="3.5" cy="3.5" r="3.5" transform="translate(367.791 60.146)" fill="#2c8dff"/><circle cx="3.5" cy="3.5" r="3.5" transform="translate(409.791 0.146)" fill="#2c8dff"/><circle cx="3.5" cy="3.5" r="3.5" transform="translate(387.791 43.146)" fill="#2c8dff"/><ellipse cx="3.208" cy="3.5" rx="3.208" ry="3.5" transform="translate(384.791 56.146)" fill="#2c8dff"/><ellipse cx="3.818" cy="3.5" rx="3.818" ry="3.5" transform="translate(359.791 72.146)" fill="#2c8dff"/><circle cx="3.5" cy="3.5" r="3.5" transform="translate(374.791 81.146)" fill="#2c8dff"/><ellipse cx="3.818" cy="3.5" rx="3.818" ry="3.5" transform="translate(435.791 113.146)" fill="#2c8dff"/><circle cx="3.5" cy="3.5" r="3.5" transform="translate(547.791 84.146)" fill="#2c8dff"/><ellipse cx="3.208" cy="3.5" rx="3.208" ry="3.5" transform="translate(457.791 96.146)" fill="#2c8dff"/><circle cx="3.5" cy="3.5" r="3.5" transform="translate(467.791 157.146)" fill="#2c8dff"/><circle cx="3.5" cy="3.5" r="3.5" transform="translate(439.791 130.146)" fill="#2c8dff"/><ellipse cx="3.208" cy="3.5" rx="3.208" ry="3.5" transform="translate(538.791 130.146)" fill="#2c8dff"/><ellipse cx="3.818" cy="3.5" rx="3.818" ry="3.5" transform="translate(440.791 179.146)" fill="#2c8dff"/><circle cx="3.5" cy="3.5" r="3.5" transform="translate(359.791 171.146)" fill="#2c8dff"/><circle cx="3.5" cy="3.5" r="3.5" transform="translate(392.791 148.146)" fill="#2c8dff"/><ellipse cx="3.208" cy="3.5" rx="3.208" ry="3.5" transform="translate(417.791 156.146)" fill="#2c8dff"/><circle cx="3.5" cy="3.5" r="3.5" transform="translate(429.791 137.146)" fill="#2c8dff"/><circle cx="3.5" cy="3.5" r="3.5" transform="translate(408.791 75.146)" fill="#2c8dff"/><ellipse cx="3.818" cy="3.5" rx="3.818" ry="3.5" transform="translate(467.791 65.146)" fill="#2c8dff"/><circle cx="3.5" cy="3.5" r="3.5" transform="translate(406.791 70.146)" fill="#2c8dff"/><ellipse cx="3.208" cy="3.5" rx="3.208" ry="3.5" transform="translate(404.791 81.146)" fill="#2c8dff"/><ellipse cx="3.208" cy="3.5" rx="3.208" ry="3.5" transform="translate(444.791 55.146)" fill="#2c8dff"/><circle cx="3.5" cy="3.5" r="3.5" transform="translate(360.791 81.146)" fill="#2c8dff"/><circle cx="3.5" cy="3.5" r="3.5" transform="translate(291.791 134.146)" fill="#2c8dff"/><circle cx="3.5" cy="3.5" r="3.5" transform="translate(312.791 83.146)" fill="#2c8dff"/><ellipse cx="3.208" cy="3.5" rx="3.208" ry="3.5" transform="translate(411.791 130.146)" fill="#2c8dff"/><circle cx="3.5" cy="3.5" r="3.5" transform="translate(476.791 115.146)" fill="#2c8dff"/><circle cx="3.5" cy="3.5" r="3.5" transform="translate(515.791 120.146)" fill="#2c8dff"/><circle cx="3.5" cy="3.5" r="3.5" transform="translate(409.791 75.146)" fill="#2c8dff"/><circle cx="3.5" cy="3.5" r="3.5" transform="translate(353.791 77.146)" fill="#2c8dff"/><circle cx="3.5" cy="3.5" r="3.5" transform="translate(400.791 169.146)" fill="#2c8dff"/><circle cx="3.5" cy="3.5" r="3.5" transform="translate(412.791 156.146)" fill="#2c8dff"/><circle cx="3.5" cy="3.5" r="3.5" transform="translate(312.791 67.146)" fill="#2c8dff"/><circle cx="3.5" cy="3.5" r="3.5" transform="translate(294.791 84.146)" fill="#2c8dff"/><ellipse cx="3.818" cy="3.5" rx="3.818" ry="3.5" transform="translate(292.791 72.146)" fill="#2c8dff"/><ellipse cx="3.208" cy="3.5" rx="3.208" ry="3.5" transform="translate(304.791 77.146)" fill="#2c8dff"/><circle cx="3.5" cy="3.5" r="3.5" transform="translate(286.791 80.146)" fill="#2c8dff"/><circle cx="3.5" cy="3.5" r="3.5" transform="translate(298.791 100.146)" fill="#2c8dff"/><ellipse cx="3.208" cy="3.5" rx="3.208" ry="3.5" transform="translate(411.791 75.146)" fill="#2c8dff"/><circle cx="3.5" cy="3.5" r="3.5" transform="translate(429.791 83.146)" fill="#2c8dff"/><ellipse cx="3.818" cy="3.5" rx="3.818" ry="3.5" transform="translate(441.791 106.146)" fill="#2c8dff"/><ellipse cx="3.818" cy="3.5" rx="3.818" ry="3.5" transform="translate(408.791 112.146)" fill="#2c8dff"/><circle cx="3.5" cy="3.5" r="3.5" transform="translate(422.791 130.146)" fill="#2c8dff"/><ellipse cx="3.208" cy="3.5" rx="3.208" ry="3.5" transform="translate(398.791 137.146)" fill="#2c8dff"/><circle cx="3.5" cy="3.5" r="3.5" transform="translate(405.791 150.146)" fill="#2c8dff"/><circle cx="3.5" cy="3.5" r="3.5" transform="translate(353.791 147.146)" fill="#2c8dff"/><circle cx="3.5" cy="3.5" r="3.5" transform="translate(360.791 140.146)" fill="#2c8dff"/><circle cx="3.5" cy="3.5" r="3.5" transform="translate(152.791 107.146)" fill="red"/><circle cx="3.5" cy="3.5" r="3.5" transform="translate(355.791 238.146)" fill="#00b19c"/><circle cx="3.5" cy="3.5" r="3.5" transform="translate(424.791 72.146)" fill="#2c8dff"/><circle cx="3.5" cy="3.5" r="3.5" transform="translate(164.791 114.146)" fill="red"/><ellipse cx="3.208" cy="3.5" rx="3.208" ry="3.5" transform="translate(370.791 244.146)" fill="#00b19c"/><ellipse cx="3.818" cy="3.5" rx="3.818" ry="3.5" transform="translate(441.791 79.146)" fill="#2c8dff"/><circle cx="3.5" cy="3.5" r="3.5" transform="translate(120.791 127.146)" fill="red"/><circle cx="3.5" cy="3.5" r="3.5" transform="translate(291.791 231.146)" fill="#00b19c"/><circle cx="3.5" cy="3.5" r="3.5" transform="translate(393.791 89.146)" fill="#2c8dff"/><ellipse cx="3.818" cy="3.5" rx="3.818" ry="3.5" transform="translate(113.791 139.146)" fill="red"/><circle cx="3.5" cy="3.5" r="3.5" transform="translate(318.791 254.146)" fill="#00b19c"/><ellipse cx="3.208" cy="3.5" rx="3.208" ry="3.5" transform="translate(424.791 102.146)" fill="#2c8dff"/><circle cx="3.5" cy="3.5" r="3.5" transform="translate(138.791 135.146)" fill="red"/><ellipse cx="3.208" cy="3.5" rx="3.208" ry="3.5" transform="translate(303.791 244.146)" fill="#00b19c"/><circle cx="3.5" cy="3.5" r="3.5" transform="translate(406.791 96.146)" fill="#2c8dff"/><circle cx="3.5" cy="3.5" r="3.5" transform="translate(113.791 127.146)" fill="red"/><circle cx="3.5" cy="3.5" r="3.5" transform="translate(318.791 231.146)" fill="#00b19c"/><ellipse cx="3.208" cy="3.5" rx="3.208" ry="3.5" transform="translate(424.791 89.146)" fill="#2c8dff"/><ellipse cx="3.208" cy="3.5" rx="3.208" ry="3.5" transform="translate(143.791 123.146)" fill="red"/><circle cx="3.5" cy="3.5" r="3.5" transform="translate(305.791 254.146)" fill="#00b19c"/><circle cx="3.5" cy="3.5" r="3.5" transform="translate(409.791 84.146)" fill="#2c8dff"/><ellipse cx="3.818" cy="3.5" rx="3.818" ry="3.5" transform="translate(120.791 139.146)" fill="red"/><circle cx="3.5" cy="3.5" r="3.5" transform="translate(291.791 254.146)" fill="#00b19c"/><circle cx="3.5" cy="3.5" r="3.5" transform="translate(393.791 102.146)" fill="#2c8dff"/><circle cx="3.5" cy="3.5" r="3.5" transform="translate(126.791 135.146)" fill="red"/><circle cx="3.5" cy="3.5" r="3.5" transform="translate(332.791 244.146)" fill="#00b19c"/><circle cx="3.5" cy="3.5" r="3.5" transform="translate(435.791 96.146)" fill="#2c8dff"/><circle cx="3.5" cy="3.5" r="3.5" transform="translate(107.791 150.146)" fill="red"/><ellipse cx="3.818" cy="3.5" rx="3.818" ry="3.5" transform="translate(272.791 253.146)" fill="#00b19c"/><ellipse cx="3.818" cy="3.5" rx="3.818" ry="3.5" transform="translate(374.791 112.146)" fill="#2c8dff"/><ellipse cx="3.818" cy="3.5" rx="3.818" ry="3.5" transform="translate(46.791 139.146)" fill="red"/><circle cx="3.5" cy="3.5" r="3.5" transform="translate(225.791 254.146)" fill="#00b19c"/><circle cx="3.5" cy="3.5" r="3.5" transform="translate(328.791 102.146)" fill="#2c8dff"/><circle cx="3.5" cy="3.5" r="3.5" transform="translate(37.791 97.146)" fill="red"/><circle cx="3.5" cy="3.5" r="3.5" transform="translate(220.791 228.146)" fill="#00b19c"/><ellipse cx="3.818" cy="3.5" rx="3.818" ry="3.5" transform="translate(326.791 59.146)" fill="#2c8dff"/><circle cx="3.5" cy="3.5" r="3.5" transform="translate(140.791 104.146)" fill="red"/><circle cx="3.5" cy="3.5" r="3.5" transform="translate(258.791 236.146)" fill="#00b19c"/><circle cx="3.5" cy="3.5" r="3.5" transform="translate(361.791 68.146)" fill="#2c8dff"/><ellipse cx="3.208" cy="3.5" rx="3.208" ry="3.5" transform="translate(143.791 104.146)" fill="red"/><circle cx="3.5" cy="3.5" r="3.5" transform="translate(275.791 236.146)" fill="#00b19c"/><circle cx="3.5" cy="3.5" r="3.5" transform="translate(380.791 68.146)" fill="#2c8dff"/><ellipse cx="3.818" cy="3.5" rx="3.818" ry="3.5" transform="translate(161.791 173.146)" fill="red"/><ellipse cx="3.818" cy="3.5" rx="3.818" ry="3.5" transform="translate(365.791 273.146)" fill="#00b19c"/><circle cx="3.5" cy="3.5" r="3.5" transform="translate(435.791 135.146)" fill="#2c8dff"/><ellipse cx="3.818" cy="3.5" rx="3.818" ry="3.5" transform="translate(140.791 173.146)" fill="red"/><ellipse cx="3.818" cy="3.5" rx="3.818" ry="3.5" transform="translate(345.791 273.146)" fill="#00b19c"/><circle cx="3.5" cy="3.5" r="3.5" transform="translate(409.791 135.146)" fill="#2c8dff"/><ellipse cx="3.818" cy="3.5" rx="3.818" ry="3.5" transform="translate(152.791 179.146)" fill="red"/><ellipse cx="3.208" cy="3.5" rx="3.208" ry="3.5" transform="translate(424.791 140.146)" fill="#2c8dff"/><circle cx="3.5" cy="3.5" r="3.5" transform="translate(152.791 164.146)" fill="red"/><ellipse cx="3.208" cy="3.5" rx="3.208" ry="3.5" transform="translate(357.791 249.146)" fill="#00b19c"/><ellipse cx="3.208" cy="3.5" rx="3.208" ry="3.5" transform="translate(424.791 129.146)" fill="#2c8dff"/><circle cx="3.5" cy="3.5" r="3.5" transform="translate(111.791 203.146)" fill="red"/><circle cx="3.5" cy="3.5" r="3.5" transform="translate(419.791 164.146)" fill="#2c8dff"/><ellipse cx="3.818" cy="3.5" rx="3.818" ry="3.5" transform="translate(152.791 193.146)" fill="red"/><ellipse cx="3.208" cy="3.5" rx="3.208" ry="3.5" transform="translate(424.791 156.146)" fill="#2c8dff"/><circle cx="3.5" cy="3.5" r="3.5" transform="translate(126.791 190.146)" fill="red"/><circle cx="3.5" cy="3.5" r="3.5" transform="translate(435.791 150.146)" fill="#2c8dff"/><ellipse cx="3.818" cy="3.5" rx="3.818" ry="3.5" transform="translate(106.791 179.146)" fill="red"/><circle cx="3.5" cy="3.5" r="3.5" transform="translate(415.791 140.146)" fill="#2c8dff"/><circle cx="3.5" cy="3.5" r="3.5" transform="translate(137.791 181.146)" fill="red"/><ellipse cx="3.208" cy="3.5" rx="3.208" ry="3.5" transform="translate(404.791 144.146)" fill="#2c8dff"/><circle cx="3.5" cy="3.5" r="3.5" transform="translate(97.791 175.146)" fill="red"/><circle cx="3.5" cy="3.5" r="3.5" transform="translate(246.791 284.146)" fill="#00b19c"/><ellipse cx="3.208" cy="3.5" rx="3.208" ry="3.5" transform="translate(350.791 137.146)" fill="#2c8dff"/><circle cx="3.5" cy="3.5" r="3.5" transform="translate(77.791 154.146)" fill="red"/><circle cx="3.5" cy="3.5" r="3.5" transform="translate(238.791 236.146)" fill="#00b19c"/><circle cx="3.5" cy="3.5" r="3.5" transform="translate(342.791 116.146)" fill="#2c8dff"/><ellipse cx="3.818" cy="3.5" rx="3.818" ry="3.5" transform="translate(225.791 139.146)" fill="red"/><ellipse cx="3.208" cy="3.5" rx="3.208" ry="3.5" transform="translate(518.791 102.146)" fill="#2c8dff"/><ellipse cx="3.818" cy="3.5" rx="3.818" ry="3.5" transform="translate(168.791 139.146)" fill="red"/><circle cx="3.5" cy="3.5" r="3.5" transform="translate(372.791 254.146)" fill="#00b19c"/><circle cx="3.5" cy="3.5" r="3.5" transform="translate(407.791 102.146)" fill="#2c8dff"/><circle cx="3.5" cy="3.5" r="3.5" transform="translate(113.791 157.146)" fill="red"/><ellipse cx="3.818" cy="3.5" rx="3.818" ry="3.5" transform="translate(318.791 246.146)" fill="#00b19c"/><ellipse cx="3.208" cy="3.5" rx="3.208" ry="3.5" transform="translate(424.791 121.146)" fill="#2c8dff"/><circle cx="3.5" cy="3.5" r="3.5" transform="translate(-0.209 176.146)" fill="red"/><ellipse cx="3.208" cy="3.5" rx="3.208" ry="3.5" transform="translate(310.791 140.146)" fill="#2c8dff"/><circle cx="3.5" cy="3.5" r="3.5" transform="translate(77.791 123.146)" fill="red"/><circle cx="3.5" cy="3.5" r="3.5" transform="translate(238.791 254.146)" fill="#00b19c"/><circle cx="3.5" cy="3.5" r="3.5" transform="translate(342.791 84.146)" fill="#2c8dff"/><ellipse cx="3.208" cy="3.5" rx="3.208" ry="3.5" transform="translate(123.791 148.146)" fill="red"/><circle cx="3.5" cy="3.5" r="3.5" transform="translate(328.791 251.146)" fill="#00b19c"/><ellipse cx="3.818" cy="3.5" rx="3.818" ry="3.5" transform="translate(429.791 113.146)" fill="#2c8dff"/><circle cx="3.5" cy="3.5" r="3.5" transform="translate(143.791 139.146)" fill="red"/><circle cx="3.5" cy="3.5" r="3.5" transform="translate(348.791 254.146)" fill="#00b19c"/><circle cx="3.5" cy="3.5" r="3.5" transform="translate(412.791 102.146)" fill="#2c8dff"/><ellipse cx="3.208" cy="3.5" rx="3.208" ry="3.5" transform="translate(143.791 129.146)" fill="red"/><circle cx="3.5" cy="3.5" r="3.5" transform="translate(348.791 235.146)" fill="#00b19c"/><ellipse cx="3.818" cy="3.5" rx="3.818" ry="3.5" transform="translate(412.791 92.146)" fill="#2c8dff"/><circle cx="3.5" cy="3.5" r="3.5" transform="translate(118.791 114.146)" fill="red"/><ellipse cx="3.208" cy="3.5" rx="3.208" ry="3.5" transform="translate(324.791 244.146)" fill="#00b19c"/><ellipse cx="3.818" cy="3.5" rx="3.818" ry="3.5" transform="translate(427.791 79.146)" fill="#2c8dff"/><circle cx="3.5" cy="3.5" r="3.5" transform="translate(126.791 123.146)" fill="red"/><circle cx="3.5" cy="3.5" r="3.5" transform="translate(332.791 254.146)" fill="#00b19c"/><circle cx="3.5" cy="3.5" r="3.5" transform="translate(435.791 84.146)" fill="#2c8dff"/><circle cx="3.5" cy="3.5" r="3.5" transform="translate(143.791 113.146)" fill="red"/><ellipse cx="3.818" cy="3.5" rx="3.818" ry="3.5" transform="translate(305.791 240.146)" fill="#00b19c"/><circle cx="3.5" cy="3.5" r="3.5" transform="translate(409.791 75.146)" fill="#2c8dff"/><ellipse cx="3.208" cy="3.5" rx="3.208" ry="3.5" transform="translate(136.791 122.146)" fill="red"/><ellipse cx="3.818" cy="3.5" rx="3.818" ry="3.5" transform="translate(272.791 253.146)" fill="#00b19c"/><circle cx="3.5" cy="3.5" r="3.5" transform="translate(379.791 83.146)" fill="#2c8dff"/><circle cx="3.5" cy="3.5" r="3.5" transform="translate(140.791 135.146)" fill="red"/><circle cx="3.5" cy="3.5" r="3.5" transform="translate(258.791 244.146)" fill="#00b19c"/><circle cx="3.5" cy="3.5" r="3.5" transform="translate(361.791 96.146)" fill="#2c8dff"/><circle cx="3.5" cy="3.5" r="3.5" transform="translate(138.791 156.146)" fill="red"/><ellipse cx="3.208" cy="3.5" rx="3.208" ry="3.5" transform="translate(303.791 238.146)" fill="#00b19c"/><circle cx="3.5" cy="3.5" r="3.5" transform="translate(406.791 117.146)" fill="#2c8dff"/><circle cx="3.5" cy="3.5" r="3.5" transform="translate(114.791 164.146)" fill="red"/><circle cx="3.5" cy="3.5" r="3.5" transform="translate(286.791 249.146)" fill="#00b19c"/><ellipse cx="3.208" cy="3.5" rx="3.208" ry="3.5" transform="translate(390.791 129.146)" fill="#2c8dff"/></g></g><g transform="translate(-87.111 -245.639)"><g transform="translate(116 581)"><g fill="none" stroke="#707070" stroke-width="2" opacity="0.504"><rect width="78" height="28" rx="10" stroke="none"/><rect x="1" y="1" width="76" height="26" rx="9" fill="none"/></g><text transform="translate(18.001 19.999)" fill="#9d9c9c" font-size="16" font-family="Roboto-Regular, Roboto"><tspan x="0" y="0">Anger</tspan></text></g><g transform="translate(197.279 581)"><g transform="translate(-0.279)" fill="none" stroke="#707070" stroke-width="2" opacity="0.504"><rect width="65" height="28" rx="10" stroke="none"/><rect x="1" y="1" width="63" height="26" rx="9" fill="none"/></g><text transform="translate(16.721 19.999)" fill="#9d9c9c" font-size="16" font-family="Roboto-Regular, Roboto"><tspan x="0" y="0">Fear</tspan></text></g><g transform="translate(265.152 581)"><rect width="130" height="28" rx="10" transform="translate(-0.152)" fill="#2c8dff"/><text transform="translate(22.848 19.999)" fill="#fff" font-size="16" font-family="Roboto-Regular, Roboto"><tspan x="0" y="0">Anticipation</tspan></text></g><g transform="translate(574 580.842)"><rect width="99" height="28" rx="10" transform="translate(0 0.158)" fill="#00b19c"/><text transform="translate(20.001 20.158)" fill="#fff" font-size="16" font-family="Roboto-Regular, Roboto"><tspan x="0" y="0">Surprise</tspan></text></g><g transform="translate(676.229 580.842)"><rect width="61" height="28" rx="10" transform="translate(-0.229 0.158)" fill="red"/><text transform="translate(17.772 20.158)" fill="#fff" font-size="16" font-family="Roboto-Regular, Roboto"><tspan x="0" y="0">Joy</tspan></text></g><g transform="translate(739.912 580.842)"><g transform="translate(0.088 0.158)" fill="none" stroke="#707070" stroke-width="2" opacity="0.504"><rect width="100" height="28" rx="10" stroke="none"/><rect x="1" y="1" width="98" height="26" rx="9" fill="none"/></g><text transform="translate(20.089 20.158)" fill="#9d9c9c" font-size="16" font-family="Roboto-Regular, Roboto"><tspan x="0" y="0">Sadness</tspan></text></g><g transform="translate(398.385 580.676)"><g transform="translate(-0.385 0.324)" fill="none" stroke="#707070" stroke-width="2" opacity="0.504"><rect width="75" height="28" rx="10" stroke="none"/><rect x="1" y="1" width="73" height="26" rx="9" fill="none"/></g><text transform="translate(18.616 20.324)" fill="#9d9c9c" font-size="16" font-family="Roboto-Regular, Roboto"><tspan x="0" y="0">Trust</tspan></text></g><g transform="translate(476.313 581)"><g transform="translate(-0.313)" fill="none" stroke="#707070" stroke-width="2" opacity="0.504"><rect width="95" height="28" rx="10" stroke="none"/><rect x="1" y="1" width="93" height="26" rx="9" fill="none"/></g><text transform="translate(16.688 19.999)" fill="#9d9c9c" font-size="16" font-family="Roboto-Regular, Roboto"><tspan x="0" y="0">Disgust</tspan></text></g></g></g></svg>