<svg xmlns="http://www.w3.org/2000/svg" xmlns:xlink="http://www.w3.org/1999/xlink" width="1046" height="397.639" viewBox="0 0 1046 397.639"><defs><style>.a,.c,.d,.e,.g,.h{fill:#fff;}.a{opacity:0.023;}.b{stroke:red;stroke-width:6px;fill:url(#c);}.b,.f{stroke-linecap:round;}.c,.d,.e,.i,.j{stroke:rgba(0,0,0,0);font-size:14px;}.c,.d,.i{font-family:Roboto-Regular, Roboto;}.d{opacity:0.501;}.e,.j{font-family:Roboto-Bold, Roboto;font-weight:700;}.f,.l{fill:none;}.f,.g{stroke:#fff;}.f{stroke-width:2px;}.i,.j{fill:#242120;}.k{stroke:none;}.m{filter:url(#a);}</style><filter id="a" x="0" y="0" width="1046" height="397.639" filterUnits="userSpaceOnUse"><feOffset dy="3" input="SourceAlpha"/><feGaussianBlur stdDeviation="3" result="b"/><feFlood flood-opacity="0.161"/><feComposite operator="in" in2="b"/><feComposite in="SourceGraphic"/></filter><linearGradient id="c" x1="0.5" x2="0.5" y2="1" gradientUnits="objectBoundingBox"><stop offset="0" stop-color="red" stop-opacity="0.706"/><stop offset="1" stop-color="red" stop-opacity="0"/></linearGradient></defs><g transform="translate(9 5.639)"><g class="m" transform="matrix(1, 0, 0, 1, -9, -5.64)"><rect class="a" width="1028" height="379.639" rx="15" transform="translate(9 6)"/></g><g transform="translate(39 82.348)"><path class="b" d="M8605.794,22905.922c45.013,0,67.52-45.047,93.228-29.488s49.289-92.646,67.04-96.393,32.751,70.063,57.726,70.063,61,55.818,79.684,55.818c25.662,0,46.784-110.346,70.379-125.881s30.808-78.488,45.616-78.488c35.008,0,65.034,117.875,90.851,117.875,12.677,0,16.973-53.012,36.737-53.012s48.489,150.664,74.368,150.664c13.948,0,36.654-38.877,58.6-40.646s70.689,29.488,79.835,29.488c11.07,0,36.814-29.488,49.9-29.488s43.212-26.33,52.033-26.33c19.96,0,47.2,65.391,94.69,79.455" transform="translate(-8605.794 -22701.553)"/><g transform="translate(3.706 234.549)"><text class="c" transform="translate(21 13)"><tspan x="-21.126" y="0">Jan 14</tspan></text><text class="d" transform="translate(21 29)"><tspan x="-15.723" y="0">2020</tspan></text><text class="d" transform="translate(129.5 29)"><tspan x="-15.723" y="0">2020</tspan></text><text class="d" transform="translate(215.789 29)"><tspan x="-15.723" y="0">2020</tspan></text><text class="d" transform="translate(313.201 29)"><tspan x="-15.723" y="0">2020</tspan></text><text class="d" transform="translate(409.681 29)"><tspan x="-15.723" y="0">2020</tspan></text><text class="d" transform="translate(507.967 29)"><tspan x="-15.723" y="0">2020</tspan></text><text class="d" transform="translate(618.511 29)"><tspan x="-15.723" y="0">2020</tspan></text><text class="d" transform="translate(721.511 29)"><tspan x="-15.723" y="0">2020</tspan></text><text class="d" transform="translate(805.5 29)"><tspan x="-15.723" y="0">2020</tspan></text><text class="d" transform="translate(909.979 29)"><tspan x="-15.723" y="0">2020</tspan></text><text class="e" transform="translate(291.701 13)"><tspan x="0" y="0">Jan 17</tspan></text><text class="e" transform="translate(698.512 13)"><tspan x="0" y="0">May 21</tspan></text><text class="e" transform="translate(108 13)"><tspan x="0" y="0">Jan 15</tspan></text><text class="e" transform="translate(486.467 13)"><tspan x="0" y="0">Jan 19</tspan></text><text class="e" transform="translate(888.001 13)"><tspan x="0" y="0">Jun 12</tspan></text><text class="c" transform="translate(388.681 13)"><tspan x="0" y="0">Jan 18</tspan></text><text class="c" transform="translate(786.802 13)"><tspan x="0" y="0">Jun 10</tspan></text><text class="c" transform="translate(194.789 13)"><tspan x="0" y="0">Jan 16</tspan></text><text class="c" transform="translate(602.512 13)"><tspan x="0" y="0">Feb 1</tspan></text></g></g><g transform="translate(448)"><line class="f" y2="379.5" transform="translate(7.231)"/><g class="g" transform="translate(0 76.215)"><circle class="k" cx="7.5" cy="7.5" r="7.5"/><circle class="l" cx="7.5" cy="7.5" r="7"/></g></g><g transform="translate(470 58.298)"><rect class="h" width="120" height="49" rx="13"/><g transform="translate(14 9)"><text class="i" transform="translate(0 29)"><tspan x="0" y="0">Jan 18 2020</tspan></text><text class="j" transform="translate(0 13)"><tspan x="0" y="0">45K Videos</tspan></text></g></g></g></svg>