<svg xmlns="http://www.w3.org/2000/svg" width="797.777" height="379.639" viewBox="0 0 797.777 379.639"><g transform="translate(0.111 -0.361)"><rect width="797.777" height="379.639" rx="15" transform="translate(-0.111 0.361)" fill="#fff" opacity="0"/><g transform="translate(86.889 61.36)"><text transform="translate(280 125.999)" fill="#fff" font-size="66" font-family="Roboto-Bold, Roboto" font-weight="700"><tspan x="0" y="0">Channel</tspan></text><text transform="translate(102 98.999)" fill="red" font-size="40" font-family="Roboto-Bold, Roboto" font-weight="700"><tspan x="0" y="0">Disclaimer</tspan></text><text transform="translate(254 153.999)" fill="red" font-size="35" font-family="Roboto-Bold, Roboto" font-weight="700"><tspan x="0" y="0">Other</tspan></text><text transform="translate(91 189.999)" fill="red" font-size="24" font-family="Roboto-Bold, Roboto" font-weight="700"><tspan x="0" y="0">Report</tspan></text><text transform="translate(0 54.999)" fill="red" font-size="24" font-family="Roboto-Bold, Roboto" font-weight="700"><tspan x="0" y="0">Thoughts</tspan></text><text transform="translate(376 73.999)" fill="red" font-size="25" font-family="Roboto-Bold, Roboto" font-weight="700"><tspan x="0" y="0">Points</tspan></text><text transform="translate(354 162.999)" fill="red" font-size="24" font-family="Roboto-Bold, Roboto" font-weight="700"><tspan x="0" y="0">Support</tspan></text><text transform="translate(164 138.999)" fill="red" font-size="25" font-family="Roboto-Bold, Roboto" font-weight="700"><tspan x="0" y="0">Fair</tspan></text><text transform="translate(535 221.999)" fill="red" font-size="25" font-family="Roboto-Bold, Roboto" font-weight="700"><tspan x="0" y="0">Subject</tspan></text><text transform="translate(493 22.999)" fill="red" font-size="25" font-family="Roboto-Bold, Roboto" font-weight="700"><tspan x="0" y="0">Give</tspan></text><text transform="translate(19 233.999)" fill="red" font-size="25" font-family="Roboto-Bold, Roboto" font-weight="700"><tspan x="0" y="0">News</tspan></text><text transform="translate(19 158.999)" fill="red" font-size="13" font-family="Roboto-Bold, Roboto" font-weight="700"><tspan x="0" y="0">Collapse</tspan></text><text transform="translate(239 55.999)" fill="red" font-size="14" font-family="Roboto-Bold, Roboto" font-weight="700"><tspan x="0" y="0">Right</tspan></text><text transform="translate(213 198.999)" fill="red" font-size="14" font-family="Roboto-Bold, Roboto" font-weight="700"><tspan x="0" y="0">Left</tspan></text><text transform="translate(375 213.999)" fill="red" font-size="14" font-family="Roboto-Bold, Roboto" font-weight="700"><tspan x="0" y="0">iTunes</tspan></text><text transform="translate(460 54.999)" fill="red" font-size="13" font-family="Roboto-Bold, Roboto" font-weight="700"><tspan x="0" y="0">Bitcoin</tspan></text><text transform="translate(560 128.999)" fill="red" font-size="13" font-family="Roboto-Bold, Roboto" font-weight="700"><tspan x="0" y="0">Blockchain</tspan></text><text transform="translate(527 81.999)" fill="red" font-size="35" font-family="Roboto-Bold, Roboto" font-weight="700"><tspan x="0" y="0">Video</tspan></text><text transform="translate(23 129.999)" fill="red" font-size="35" font-family="Roboto-Bold, Roboto" font-weight="700"><tspan x="0" y="0">Name</tspan></text><text transform="translate(179 32.999)" fill="red" font-size="35" font-family="Roboto-Bold, Roboto" font-weight="700"><tspan x="0" y="0">Individuals</tspan></text><text transform="translate(334 51.999)" fill="red" font-size="35" font-family="Roboto-Bold, Roboto" font-weight="700"><tspan x="0" y="0">Get</tspan></text><text transform="translate(456 171.999)" fill="red" font-size="35" font-family="Roboto-Bold, Roboto" font-weight="700"><tspan x="0" y="0">Share</tspan></text><text transform="translate(143 183.999)" fill="red" font-size="35" font-family="Roboto-Bold, Roboto" font-weight="700"><tspan x="0" y="0">Community</tspan></text><text transform="translate(221 247.999)" fill="red" font-size="35" font-family="Roboto-Bold, Roboto" font-weight="700"><tspan x="0" y="0">World</tspan></text></g></g></svg>