<svg xmlns="http://www.w3.org/2000/svg" width="797.777" height="379.639" viewBox="0 0 797.777 379.639"><g transform="translate(0 -0.361)"><rect width="797.777" height="379.639" rx="15" transform="translate(0 0.361)" fill="#fff" opacity="0"/><g transform="translate(25.001 82.348)"><g transform="translate(7.053 234.549)"><g transform="translate(-0.166)"><text transform="translate(21 13)" fill="#fff" stroke="rgba(0,0,0,0)" stroke-width="1" font-size="14" font-family="Roboto-Regular, Roboto"><tspan x="-29.699" y="0">Afrikaans</tspan></text></g><g transform="translate(72.835)"><text transform="translate(21 13)" fill="#fff" stroke="rgba(0,0,0,0)" stroke-width="1" font-size="14" font-family="Roboto-Regular, Roboto"><tspan x="-18.255" y="0">Dutch</tspan></text></g><g transform="translate(205.835)"><text transform="translate(0 13)" fill="#fff" stroke="rgba(0,0,0,0)" stroke-width="1" font-size="14" font-family="Roboto-Regular, Roboto"><tspan x="0" y="0">Estonian</tspan></text></g><g transform="translate(503.834)"><text transform="translate(0 13)" fill="#fff" stroke="rgba(0,0,0,0)" stroke-width="1" font-size="14" font-family="Roboto-Regular, Roboto"><tspan x="0" y="0">Indonesian</tspan></text></g><g transform="translate(362.835)"><text transform="translate(0 13)" fill="#fff" stroke="rgba(0,0,0,0)" stroke-width="1" font-size="14" font-family="Roboto-Regular, Roboto"><tspan x="0" y="0">French</tspan></text></g><g transform="translate(684.834)"><text transform="translate(0 13)" fill="#fff" stroke="rgba(0,0,0,0)" stroke-width="1" font-size="14" font-family="Roboto-Regular, Roboto"><tspan x="0" y="0">Russian</tspan></text></g><g transform="translate(283.834)"><text transform="translate(0 13)" fill="#fff" stroke="rgba(0,0,0,0)" stroke-width="1" font-size="14" font-family="Roboto-Regular, Roboto"><tspan x="0" y="0">Estonian</tspan></text></g><g transform="translate(597.835)"><text transform="translate(0 13)" fill="#fff" stroke="rgba(0,0,0,0)" stroke-width="1" font-size="14" font-family="Roboto-Regular, Roboto"><tspan x="0" y="0">Romanian</tspan></text></g><g transform="translate(135.834)"><text transform="translate(0 13)" fill="#fff" stroke="rgba(0,0,0,0)" stroke-width="1" font-size="14" font-family="Roboto-Black, Roboto" font-weight="800"><tspan x="0" y="0">English</tspan></text></g><g transform="translate(429.834)"><text transform="translate(0 13)" fill="#fff" stroke="rgba(0,0,0,0)" stroke-width="1" font-size="14" font-family="Roboto-Regular, Roboto"><tspan x="0" y="0">German</tspan></text></g></g></g><rect width="5" height="30" rx="2.5" transform="translate(41.889 271.361)" fill="red"/><rect width="5" height="193" rx="2.5" transform="translate(112.889 108.361)" fill="red"/><rect width="5" height="250" rx="2.5" transform="translate(183.889 51.361)" fill="red"/><rect width="5" height="89" rx="2.5" transform="translate(254.889 212.361)" fill="red"/><rect width="5" height="59" rx="2.5" transform="translate(325.889 242.361)" fill="red"/><rect width="5" height="59" rx="2.5" transform="translate(396.889 242.361)" fill="red"/><rect width="5" height="98" rx="2.5" transform="translate(467.889 203.361)" fill="red"/><rect width="5" height="179" rx="2.5" transform="translate(538.889 122.361)" fill="red"/><rect width="5" height="101" rx="2.5" transform="translate(609.889 200.361)" fill="red"/><rect width="5" height="141" rx="2.5" transform="translate(680.889 160.361)" fill="red"/><rect width="5" height="17" rx="2.5" transform="translate(751.889 284.361)" fill="red"/></g></svg>