<svg xmlns="http://www.w3.org/2000/svg" xmlns:xlink="http://www.w3.org/1999/xlink" width="1000" height="351.5" viewBox="0 0 1000 351.5"><defs><linearGradient id="a" x1="0.5" x2="0.5" y2="1" gradientUnits="objectBoundingBox"><stop offset="0" stop-color="red" stop-opacity="0.706"/><stop offset="1" stop-color="red" stop-opacity="0"/></linearGradient></defs><g transform="translate(0 1)"><rect width="1000" height="349.639" rx="15" transform="translate(0 0.361)" fill="#2b2827" opacity="0"/><g transform="translate(39 53.914)"><path d="M8607.06,22917.992c43.686,0,64.3-65.2,89.25-50.43s47.835-87.947,65.063-91.5,31.785,66.51,56.023,66.51,54.779,16.49,72.909,16.49c24.905,0,49.829-68.252,72.728-83s29.9-74.506,44.271-74.506c33.975,0,63.116,111.895,88.171,111.895,12.3,0,16.472-50.322,35.653-50.322s47.06,143.021,72.176,143.021c13.536,0,35.573-36.9,56.876-38.584s68.6,27.992,77.48,27.992c10.743,0,35.729-27.992,48.425-27.992s41.938-24.994,50.5-24.994c19.371,0,45.806,62.072,91.9,75.424" transform="translate(-8607.06 -22701.553)" stroke="red" stroke-linecap="round" stroke-width="4" fill="url(#a)"/><g transform="translate(2.44 232.982)"><text transform="translate(21 13)" fill="#fff" stroke="rgba(0,0,0,0)" stroke-width="1" font-size="14" font-family="ArialMT, Arial"><tspan x="-21.017" y="0">Jan 14</tspan></text><text transform="translate(21 29)" fill="#fff" stroke="rgba(0,0,0,0)" stroke-width="1" font-size="14" font-family="ArialMT, Arial" opacity="0.501"><tspan x="-15.572" y="0">2020</tspan></text><text transform="translate(129.5 29)" fill="#fff" stroke="rgba(0,0,0,0)" stroke-width="1" font-size="14" font-family="ArialMT, Arial" opacity="0.501"><tspan x="-15.572" y="0">2020</tspan></text><text transform="translate(209.573 29)" fill="#fff" stroke="rgba(0,0,0,0)" stroke-width="1" font-size="14" font-family="ArialMT, Arial" opacity="0.501"><tspan x="-15.572" y="0">2020</tspan></text><text transform="translate(303.955 29)" fill="#fff" stroke="rgba(0,0,0,0)" stroke-width="1" font-size="14" font-family="ArialMT, Arial" opacity="0.501"><tspan x="-15.572" y="0">2020</tspan></text><text transform="translate(397.433 29)" fill="#fff" stroke="rgba(0,0,0,0)" stroke-width="1" font-size="14" font-family="ArialMT, Arial" opacity="0.501"><tspan x="-15.572" y="0">2020</tspan></text><text transform="translate(492.661 29)" fill="#fff" stroke="rgba(0,0,0,0)" stroke-width="1" font-size="14" font-family="ArialMT, Arial" opacity="0.501"><tspan x="-15.572" y="0">2020</tspan></text><text transform="translate(599.766 29)" fill="#fff" stroke="rgba(0,0,0,0)" stroke-width="1" font-size="14" font-family="ArialMT, Arial" opacity="0.501"><tspan x="-15.572" y="0">2020</tspan></text><text transform="translate(699.562 29)" fill="#fff" stroke="rgba(0,0,0,0)" stroke-width="1" font-size="14" font-family="ArialMT, Arial" opacity="0.501"><tspan x="-15.572" y="0">2020</tspan></text><text transform="translate(777.5 29)" fill="#fff" stroke="rgba(0,0,0,0)" stroke-width="1" font-size="14" font-family="ArialMT, Arial" opacity="0.501"><tspan x="-15.572" y="0">2020</tspan></text><text transform="translate(881.979 29)" fill="#fff" stroke="rgba(0,0,0,0)" stroke-width="1" font-size="14" font-family="ArialMT, Arial" opacity="0.501"><tspan x="-15.572" y="0">2020</tspan></text><text transform="translate(282.503 13)" fill="#fff" stroke="rgba(0,0,0,0)" stroke-width="1" font-size="14" font-family="Arial-BoldMT, Arial" font-weight="700"><tspan x="0" y="0">Jan 17</tspan></text><text transform="translate(676.412 13)" fill="#fff" stroke="rgba(0,0,0,0)" stroke-width="1" font-size="14" font-family="Arial-BoldMT, Arial" font-weight="700"><tspan x="0" y="0">May 21</tspan></text><text transform="translate(108 13)" fill="#fff" stroke="rgba(0,0,0,0)" stroke-width="1" font-size="14" font-family="Arial-BoldMT, Arial" font-weight="700"><tspan x="0" y="0">Jan 15</tspan></text><text transform="translate(471.128 13)" fill="#fff" stroke="rgba(0,0,0,0)" stroke-width="1" font-size="14" font-family="Arial-BoldMT, Arial" font-weight="700"><tspan x="0" y="0">Jan 19</tspan></text><text transform="translate(860.001 13)" fill="#fff" stroke="rgba(0,0,0,0)" stroke-width="1" font-size="14" font-family="Arial-BoldMT, Arial" font-weight="700"><tspan x="0" y="0">Jun 12</tspan></text><text transform="translate(376.453 13)" fill="#fff" stroke="rgba(0,0,0,0)" stroke-width="1" font-size="14" font-family="ArialMT, Arial"><tspan x="0" y="0">Jan 18</tspan></text><text transform="translate(758.802 13)" fill="#fff" stroke="rgba(0,0,0,0)" stroke-width="1" font-size="14" font-family="ArialMT, Arial"><tspan x="0" y="0">Jun 10</tspan></text><text transform="translate(188.661 13)" fill="#fff" stroke="rgba(0,0,0,0)" stroke-width="1" font-size="14" font-family="ArialMT, Arial"><tspan x="0" y="0">Jan 16</tspan></text><text transform="translate(583.684 13)" fill="#fff" stroke="rgba(0,0,0,0)" stroke-width="1" font-size="14" font-family="ArialMT, Arial"><tspan x="0" y="0">Feb 1</tspan></text></g></g><g transform="translate(435.617)"><line y2="349.5" transform="translate(7.231)" fill="none" stroke="#fff" stroke-linecap="round" stroke-width="2"/><g transform="translate(0 46.342)" fill="#fff" stroke="#fff" stroke-width="1"><circle cx="7.5" cy="7.5" r="7.5" stroke="none"/><circle cx="7.5" cy="7.5" r="7" fill="none"/></g></g><g transform="translate(455.507 29.414)"><rect width="120" height="49" rx="13" fill="#fff"/><g transform="translate(14 9)"><text transform="translate(0 29)" fill="#242120" stroke="rgba(0,0,0,0)" stroke-width="1" font-size="14" font-family="ArialMT, Arial"><tspan x="0" y="0">Jan 18 2020</tspan></text><text transform="translate(0 13)" fill="#242120" stroke="rgba(0,0,0,0)" stroke-width="1" font-size="14" font-family="Arial-BoldMT, Arial" font-weight="700"><tspan x="0" y="0">45K Videos</tspan></text></g></g></g></svg>