<svg xmlns="http://www.w3.org/2000/svg" width="797.777" height="381.5" viewBox="0 0 797.777 381.5"><g transform="translate(0 1)"><rect width="797.777" height="379.639" rx="15" transform="translate(0 0.361)" fill="#fff" opacity="0"/><g transform="translate(25.001 82.348)"><path d="M8605.795,22905.922c35.414,0,53.119-45.047,73.346-29.488s38.777-92.646,52.744-96.393,25.766,70.063,45.414,70.063,47.994,55.818,62.691,55.818c20.188,0,36.807-110.346,55.369-125.881s24.238-78.488,35.889-78.488c27.541,0,51.166,117.875,71.477,117.875,9.973,0,13.352-53.012,28.9-53.012s38.148,150.664,58.508,150.664c10.975,0,28.838-38.877,46.107-40.646s55.615,29.488,62.809,29.488c8.711,0,28.965-29.488,39.256-29.488s34-26.33,40.938-26.33c15.7,0,37.133,65.391,74.5,79.455" transform="translate(-8604.741 -22701.553)" fill="none" stroke="red" stroke-linecap="round" stroke-width="4"/><path d="M8604.74,22808.434c35.422,0,54.067-26.449,74.3-14.219s32.731,17.164,46.7,14.219,32.884,22.553,52.537,22.553h58.293c20.2,0,27.507,12.213,46.074,0s51.806-92.029,63.459-92.029c27.549,0,27.2-37.191,47.516-37.191,9.977,0,22.336,50.777,37.89,50.777s37.976,55.891,58.342,55.891c10.976,0,44.072-6.414,61.346-7.807s42.179,30.359,49.375,30.359c8.712,0,27.374,8.039,37.669,8.039s30.25,21.246,37.191,21.246c15.707,0,40.748-52.35,78.12-41.295" transform="translate(-8604.74 -22652.781)" fill="none" stroke="#2c8dff" stroke-linecap="round" stroke-linejoin="bevel" stroke-width="4"/><path d="M8605.188,22736.057c35.415,0,48.3,8.793,68.526,13.857s43.64-26.025,57.606-27.244,30.545-44.594,50.194-44.594,27.436,33.527,42.134,33.527c20.19,0,33.315,51.941,51.88,46.883s54.589-69.264,66.241-69.264c27.544,0,36.97,46.834,57.281,46.834,9.974,0,16.919-13.387,32.47-13.387s36.949,27.244,57.31,27.244c10.975,0,39.233.576,56.5,0s37.1,8.572,44.3,8.572c8.711,0,31.758-5.113,53.525-22.43s17.959-55.094,46.4-65.318,26.41-59.318,63.776-54.74" transform="translate(-8604.74 -22547.775)" fill="none" stroke="#00b19c" stroke-linecap="round" stroke-width="4"/><g transform="translate(5.053 234.549)"><text transform="translate(21 13)" fill="#fff" stroke="rgba(0,0,0,0)" stroke-width="1" font-size="14" font-family="ArialMT, Arial"><tspan x="-21.017" y="0">Jan 14</tspan></text><text transform="translate(21 29)" fill="#fff" stroke="rgba(0,0,0,0)" stroke-width="1" font-size="14" font-family="ArialMT, Arial" opacity="0.501"><tspan x="-15.572" y="0">2020</tspan></text><g transform="translate(229.335)"><text transform="translate(21.047 29)" fill="#fff" stroke="rgba(0,0,0,0)" stroke-width="1" font-size="14" font-family="ArialMT, Arial" opacity="0.501"><tspan x="-15.572" y="0">2020</tspan></text><text transform="translate(0 13)" fill="#fff" stroke="rgba(0,0,0,0)" stroke-width="1" font-size="14" font-family="Arial-BoldMT, Arial" font-weight="700"><tspan x="0" y="0">Jan 17</tspan></text></g><g transform="translate(528.025)"><text transform="translate(23.973 29)" fill="#fff" stroke="rgba(0,0,0,0)" stroke-width="1" font-size="14" font-family="ArialMT, Arial" opacity="0.501"><tspan x="-15.572" y="0">2020</tspan></text><text transform="translate(0 13)" fill="#fff" stroke="rgba(0,0,0,0)" stroke-width="1" font-size="14" font-family="Arial-BoldMT, Arial" font-weight="700"><tspan x="0" y="0">May 21</tspan></text></g><g transform="translate(75)"><text transform="translate(21.5 29)" fill="#fff" stroke="rgba(0,0,0,0)" stroke-width="1" font-size="14" font-family="ArialMT, Arial" opacity="0.501"><tspan x="-15.572" y="0">2020</tspan></text><text transform="translate(0 13)" fill="#fff" stroke="rgba(0,0,0,0)" stroke-width="1" font-size="14" font-family="Arial-BoldMT, Arial" font-weight="700"><tspan x="0" y="0">Jan 15</tspan></text></g><g transform="translate(383.244)"><text transform="translate(21.625 29)" fill="#fff" stroke="rgba(0,0,0,0)" stroke-width="1" font-size="14" font-family="ArialMT, Arial" opacity="0.501"><tspan x="-15.572" y="0">2020</tspan></text><text transform="translate(0 13)" fill="#fff" stroke="rgba(0,0,0,0)" stroke-width="1" font-size="14" font-family="Arial-BoldMT, Arial" font-weight="700"><tspan x="0" y="0">Jan 19</tspan></text></g><g transform="translate(684.945)"><text transform="translate(21.977 29)" fill="#fff" stroke="rgba(0,0,0,0)" stroke-width="1" font-size="14" font-family="ArialMT, Arial" opacity="0.501"><tspan x="-15.572" y="0">2020</tspan></text><text transform="translate(0 13)" fill="#fff" stroke="rgba(0,0,0,0)" stroke-width="1" font-size="14" font-family="Arial-BoldMT, Arial" font-weight="700"><tspan x="0" y="0">Jun 12</tspan></text></g><g transform="translate(306.791)"><text transform="translate(20.85 29)" fill="#fff" stroke="rgba(0,0,0,0)" stroke-width="1" font-size="14" font-family="ArialMT, Arial" opacity="0.501"><tspan x="-15.572" y="0">2020</tspan></text><text transform="translate(0 13)" fill="#fff" stroke="rgba(0,0,0,0)" stroke-width="1" font-size="14" font-family="ArialMT, Arial"><tspan x="0" y="0">Jan 18</tspan></text></g><g transform="translate(609.945)"><text transform="translate(18.697 29)" fill="#fff" stroke="rgba(0,0,0,0)" stroke-width="1" font-size="14" font-family="ArialMT, Arial" opacity="0.501"><tspan x="-15.572" y="0">2020</tspan></text><text transform="translate(0 13)" fill="#fff" stroke="rgba(0,0,0,0)" stroke-width="1" font-size="14" font-family="ArialMT, Arial"><tspan x="0" y="0">Jun 10</tspan></text></g><g transform="translate(152.886)"><text transform="translate(20.326 29)" fill="#fff" stroke="rgba(0,0,0,0)" stroke-width="1" font-size="14" font-family="ArialMT, Arial" opacity="0.501"><tspan x="-15.572" y="0">2020</tspan></text><text transform="translate(0 13)" fill="#fff" stroke="rgba(0,0,0,0)" stroke-width="1" font-size="14" font-family="ArialMT, Arial"><tspan x="0" y="0">Jan 16</tspan></text></g><g transform="translate(460.594)"><text transform="translate(16.322 29)" fill="#fff" stroke="rgba(0,0,0,0)" stroke-width="1" font-size="14" font-family="ArialMT, Arial" opacity="0.501"><tspan x="-15.572" y="0">2020</tspan></text><text transform="translate(0 13)" fill="#fff" stroke="rgba(0,0,0,0)" stroke-width="1" font-size="14" font-family="ArialMT, Arial"><tspan x="0" y="0">Feb 1</tspan></text></g></g></g><g transform="translate(341.729)"><line y2="379.5" transform="translate(12.232)" fill="none" stroke="#fff" stroke-linecap="round" stroke-width="2"/><g transform="translate(4 75.215)" fill="#fe0000" stroke="red" stroke-width="4"><circle cx="7.5" cy="7.5" r="7.5" stroke="none"/><circle cx="7.5" cy="7.5" r="5.5" fill="none"/></g><g transform="translate(5 173.215)" fill="#2c8dff" stroke="#2c8dff" stroke-width="4"><circle cx="7.5" cy="7.5" r="7.5" stroke="none"/><circle cx="7.5" cy="7.5" r="5.5" fill="none"/></g><g transform="translate(5 221.215)" fill="#00b19c" stroke="#00b19c" stroke-width="4"><circle cx="7.5" cy="7.5" r="7.5" stroke="none"/><circle cx="7.5" cy="7.5" r="5.5" fill="none"/></g></g><g transform="translate(379.296 55.297)"><rect width="144" height="156.06" rx="13" transform="translate(0 0.001)" fill="#fff"/><g transform="translate(14 17.065)"><g transform="translate(24.703)"><text transform="translate(0 13)" fill="#242120" stroke="rgba(0,0,0,0)" stroke-width="1" font-size="14" font-family="Arial-BoldMT, Arial" font-weight="700"><tspan x="0" y="0">CNN</tspan></text><text transform="translate(0 29)" fill="#242120" stroke="rgba(0,0,0,0)" stroke-width="1" font-size="14" font-family="ArialMT, Arial"><tspan x="0" y="0">453K Videos</tspan></text></g><circle cx="7.5" cy="7.5" r="7.5" transform="translate(0 1.936)" fill="red"/><g transform="translate(0 45.615)"><g transform="translate(24.703)"><text transform="translate(0 13)" fill="#242120" stroke="rgba(0,0,0,0)" stroke-width="1" font-size="14" font-family="Arial-BoldMT, Arial" font-weight="700"><tspan x="0" y="0">NewYorkPost</tspan></text><text transform="translate(0 29)" fill="#242120" stroke="rgba(0,0,0,0)" stroke-width="1" font-size="14" font-family="ArialMT, Arial"><tspan x="0" y="0">52K Videos</tspan></text></g><circle cx="7.5" cy="7.5" r="7.5" transform="translate(0 0.836)" fill="#2c8dff"/></g><g transform="translate(0 90.06)"><g transform="translate(24.703)"><text transform="translate(0 13)" fill="#242120" stroke="rgba(0,0,0,0)" stroke-width="1" font-size="14" font-family="Arial-BoldMT, Arial" font-weight="700"><tspan x="0" y="0">China Post</tspan></text><text transform="translate(0 29)" fill="#242120" stroke="rgba(0,0,0,0)" stroke-width="1" font-size="14" font-family="ArialMT, Arial"><tspan x="0" y="0">23K Videos</tspan></text></g><g transform="translate(0 1.242)" fill="#00b19c" stroke="#00b19c" stroke-width="6"><circle cx="7.5" cy="7.5" r="7.5" stroke="none"/><circle cx="7.5" cy="7.5" r="4.5" fill="none"/></g></g></g></g></g></svg>