<svg xmlns="http://www.w3.org/2000/svg" xmlns:xlink="http://www.w3.org/1999/xlink" width="1046" height="368" viewBox="0 0 1046 368"><defs><filter id="a" x="0" y="0" width="1046" height="368" filterUnits="userSpaceOnUse"><feOffset dy="3" input="SourceAlpha"/><feGaussianBlur stdDeviation="3" result="b"/><feFlood flood-opacity="0.161"/><feComposite operator="in" in2="b"/><feComposite in="SourceGraphic"/></filter></defs><g transform="translate(9 6)"><g transform="matrix(1, 0, 0, 1, -9, -6)" filter="url(#a)"><rect width="1028" height="350" rx="15" transform="translate(9 6)" fill="#fff" opacity="0"/></g><g transform="translate(151 53)"><text transform="translate(357 118)" fill="red" font-size="59" font-family="Arial-BoldMT, Arial" font-weight="700"><tspan x="0" y="0">Channel</tspan></text><text transform="translate(125 91)" fill="#fff" font-size="35" font-family="ArialMT, Arial"><tspan x="0" y="0">Disclaimer</tspan></text><text transform="translate(296 146)" fill="#fff" font-size="31" font-family="ArialMT, Arial"><tspan x="0" y="0">Other</tspan></text><text transform="translate(82 179)" fill="#fff" font-size="21" font-family="ArialMT, Arial"><tspan x="0" y="0">Report</tspan></text><text transform="translate(0 48)" fill="#fff" font-size="21" font-family="ArialMT, Arial"><tspan x="0" y="0">Thoughts</tspan></text><text transform="translate(437 68)" fill="#fff" font-size="22" font-family="ArialMT, Arial"><tspan x="0" y="0">Points</tspan></text><text transform="translate(413 154)" fill="#fff" font-size="21" font-family="ArialMT, Arial"><tspan x="0" y="0">Support</tspan></text><text transform="translate(188 130)" fill="#fff" font-size="22" font-family="ArialMT, Arial"><tspan x="0" y="0">Fair</tspan></text><text transform="translate(625.001 211)" fill="#fff" font-size="22" font-family="ArialMT, Arial"><tspan x="0" y="0">Subject</tspan></text><text transform="translate(587.001 20)" fill="#fff" font-size="22" font-family="ArialMT, Arial"><tspan x="0" y="0">Give</tspan></text><text transform="translate(17 222)" fill="#fff" font-size="22" font-family="ArialMT, Arial"><tspan x="0" y="0">News</tspan></text><text transform="translate(17 150)" fill="#fff" font-size="11" font-family="ArialMT, Arial"><tspan x="0" y="0">Collapse</tspan></text><text transform="translate(273 52)" fill="#fff" font-size="12" font-family="ArialMT, Arial"><tspan x="0" y="0">Right</tspan></text><text transform="translate(242 188)" fill="#fff" font-size="12" font-family="ArialMT, Arial"><tspan x="0" y="0">Left</tspan></text><text transform="translate(430 202)" fill="#fff" font-size="12" font-family="ArialMT, Arial"><tspan x="0" y="0">iTunes</tspan></text><text transform="translate(528.001 51)" fill="#fff" font-size="11" font-family="ArialMT, Arial"><tspan x="0" y="0">Bitcoin</tspan></text><text transform="translate(647.001 121)" fill="#fff" font-size="11" font-family="ArialMT, Arial"><tspan x="0" y="0">Blockchain</tspan></text><text transform="translate(618.001 76)" fill="#fff" font-size="31" font-family="ArialMT, Arial"><tspan x="0" y="0">Video</tspan></text><text transform="translate(21 122)" fill="#fff" font-size="31" font-family="ArialMT, Arial"><tspan x="0" y="0">Name</tspan></text><text transform="translate(218 29)" fill="#fff" font-size="31" font-family="ArialMT, Arial"><tspan x="0" y="0">Individuals</tspan></text><text transform="translate(385 47)" fill="#fff" font-size="31" font-family="ArialMT, Arial"><tspan x="0" y="0">Get</tspan></text><text transform="translate(554.001 163)" fill="#fff" font-size="31" font-family="ArialMT, Arial"><tspan x="0" y="0">Share</tspan></text><text transform="translate(176 174)" fill="#fff" font-size="31" font-family="ArialMT, Arial"><tspan x="0" y="0">Community</tspan></text><text transform="translate(258 236)" fill="#fff" font-size="31" font-family="ArialMT, Arial"><tspan x="0" y="0">World</tspan></text></g></g></svg>