<svg xmlns="http://www.w3.org/2000/svg" width="1027.889" height="379.639" viewBox="0 0 1027.889 379.639"><g transform="translate(-156.111 -712)"><rect width="1027.889" height="379.639" rx="15" transform="translate(156.111 712)" fill="#fff" opacity="0.002"/><g transform="translate(-658.994 15.5)"><text transform="translate(998 834)" fill="#fff" font-size="14" font-family="ArialMT, Arial" letter-spacing="0.01em"><tspan x="-107.134" y="0">Film &amp; Animation</tspan></text><rect width="167.563" height="10" rx="5" transform="translate(1017.611 824)" fill="#e68619"/><g transform="translate(0 91)"><text transform="translate(998 834)" fill="#fff" font-size="14" font-family="ArialMT, Arial" letter-spacing="0.01em" opacity="0.298"><tspan x="-141.416" y="0">Non-Profits &amp; Activism</tspan></text><rect width="58.924" height="10" rx="5" transform="translate(1017.611 824)" fill="#fff" opacity="0.203"/></g><g transform="translate(0 69)"><text transform="translate(998 834)" fill="#fff" font-size="14" font-family="ArialMT, Arial" letter-spacing="0.01em" opacity="0.298"><tspan x="-98.429" y="0">News &amp; Politics</tspan></text><rect width="79.728" height="10" rx="5" transform="translate(1017.611 824)" fill="#fff" opacity="0.203"/></g><g transform="translate(0 160)"><text transform="translate(998 834)" fill="#fff" font-size="14" font-family="ArialMT, Arial" letter-spacing="0.01em" opacity="0.298"><tspan x="-100.254" y="0">Travel &amp; Events</tspan></text><rect width="19.629" height="10" rx="5" transform="translate(1017.611 824)" fill="#fff" opacity="0.203"/></g><rect width="292.383" height="10" rx="5" transform="translate(1017.611 778)" fill="#26bfc7"/><text transform="translate(998 788)" fill="#fff" font-size="14" font-family="ArialMT, Arial" letter-spacing="0.01em"><tspan x="-63.389" y="0">Education</tspan></text><g transform="translate(0 69)"><rect width="107.465" height="10" rx="5" transform="translate(1017.611 778)" fill="#9722e0"/><text transform="translate(998 788)" fill="#fff" font-size="14" font-family="ArialMT, Arial" letter-spacing="0.01em"><tspan x="-92.714" y="0">HowTo &amp; Style</tspan></text></g><g transform="translate(0 160)"><rect width="31.187" height="10" rx="5" transform="translate(1017.611 778)" fill="#fff" opacity="0.203"/><text transform="translate(998 788)" fill="#fff" font-size="14" font-family="ArialMT, Arial" letter-spacing="0.01em" opacity="0.298"><tspan x="-97.55" y="0">People &amp; Blogs</tspan></text></g><rect width="211.481" height="10" rx="5" transform="translate(1017.611 801)" fill="#5151d3"/><text transform="translate(998 811)" fill="#fff" font-size="14" font-family="ArialMT, Arial" letter-spacing="0.01em"><tspan x="-88.838" y="0">Entertainment</tspan></text><g transform="translate(0 69)"><rect width="91.285" height="10" rx="5" transform="translate(1017.611 801)" fill="#d35179"/><text transform="translate(998 811)" fill="#fff" font-size="14" font-family="ArialMT, Arial" letter-spacing="0.01em"><tspan x="-37.119" y="0">Music</tspan></text></g><g transform="translate(0 160)"><rect width="21.941" height="10" rx="5" transform="translate(1017.611 801)" fill="#fff" opacity="0.203"/><text transform="translate(998 811)" fill="#fff" font-size="14" font-family="ArialMT, Arial" letter-spacing="0.01em" opacity="0.298"><tspan x="-41.162" y="0">Sports</tspan></text></g></g><g transform="translate(736.471 752.182)"><g transform="translate(-3.493 -4.535)"><path d="M253.974,128.771A128.276,128.276,0,0,1,4.15,169.763l19.11-6.432A108.116,108.116,0,1,0,125.718,20.657V.5A128.263,128.263,0,0,1,253.974,128.771Z" transform="translate(31.357 28.224)" fill="#26c0c7"/><path d="M249.824,128.271A128.276,128.276,0,0,1,0,169.263l19.11-6.432A108.116,108.116,0,1,0,121.568,20.157V0A128.263,128.263,0,0,1,249.824,128.271Z" transform="matrix(-0.259, -0.966, 0.966, -0.259, 64.659, 307.709)" fill="#d35179"/><path d="M99.189.5V20.746A107.939,107.939,0,0,0,46.236,34.514L36.37,16.844A128.091,128.091,0,0,1,99.189.5Z" transform="matrix(0.978, 0.208, -0.208, 0.978, 88.761, 10.64)" fill="#9724e0"/><path d="M20.746,121.876a108.238,108.238,0,0,0,5.669,34.713l-19.2,6.46A129,129,0,0,1,66.522,9.38l9.866,17.67A108.578,108.578,0,0,0,20.746,121.876Z" transform="translate(28.288 35.689)" fill="#5151d3"/><path d="M99.189.5V20.746A107.939,107.939,0,0,0,46.236,34.514L36.37,16.844A128.091,128.091,0,0,1,99.189.5Z" transform="translate(58.054 28.224)" fill="#e68618"/></g><g transform="translate(119.672 121.416)"><text transform="translate(30.48 50.336)" fill="#fff" font-size="16" font-family="ArialMT, Arial"><tspan x="-24.316" y="0">Videos</tspan></text><text transform="translate(30 28)" fill="#fff" font-size="30" font-family="Arial-BoldMT, Arial" font-weight="700"><tspan x="-31.685" y="0">30 K</tspan></text></g></g><g transform="translate(1034.746 822.904)"><rect width="94.527" height="46.56" rx="10" transform="translate(0 0.001)" fill="#d35179"/><g transform="translate(15.466 7.281)"><text transform="translate(0 13)" fill="#fff" stroke="rgba(0,0,0,0)" stroke-width="1" font-size="14" font-family="Arial-BoldMT, Arial" font-weight="700"><tspan x="0" y="0">Music</tspan></text><text transform="translate(0 29)" fill="#fff" stroke="rgba(0,0,0,0)" stroke-width="1" font-size="14" font-family="ArialMT, Arial"><tspan x="0" y="0">4K Videos</tspan></text></g></g></g></svg>